<?xml version="1.0" encoding="UTF-8"?>
<svg xmlns="http://www.w3.org/2000/svg" xmlns:xlink="http://www.w3.org/1999/xlink" viewBox="0 0 3107.04 1696.47">
  <defs>
    <style>
      .cls-1 {
        isolation: isolate;
      }

      .cls-2 {
        fill: none;
        stroke: #ffb732;
        stroke-miterlimit: 10;
        stroke-width: 1.58px;
      }

      .cls-3 {
        mix-blend-mode: color-burn;
        opacity: .84;
      }

      .cls-4 {
        clip-path: url(#clippath);
      }
    </style>
    <clipPath id="clippath">
      <rect class="cls-2" x=".79" y=".79" width="3105.46" height="1694.89"/>
    </clipPath>
  </defs>
  <g class="cls-1">
    <g id="Layer_2">
      <g id="Layer_1-2" data-name="Layer_1">
        <g class="cls-3">
          <g class="cls-4">
            <g>
              <g>
                <g>
                  <ellipse class="cls-2" cx="2928.33" cy="1105.07" rx="89.51" ry="113.74" transform="translate(-53.79 154.67) rotate(-3)"/>
                  <path class="cls-2" d="M2896.29,1211.72c-32.33-16.47-56.3-55.44-58.73-101.9-1.61-30.65,6.29-59.97,22.22-82.56,16.01-22.69,38.21-35.89,62.52-37.16,24.32-1.27,47.78,9.54,66.07,30.43,18.21,20.8,29.12,49.14,30.73,79.79,3.32,63.4-34.7,117.11-84.75,119.73-13.37.7-26.28-2.32-38.06-8.32ZM2959.24,1000.88c-11.59-5.91-24.07-8.68-36.78-8.01-23.44,1.23-44.89,14.01-60.4,35.99-15.58,22.08-23.29,50.79-21.72,80.82,3.24,61.86,45.36,110.13,93.87,107.59,48.53-2.54,85.37-54.94,82.13-116.81h0c-1.57-30.03-12.24-57.77-30.05-78.11-8.11-9.27-17.26-16.49-27.05-21.47Z"/>
                </g>
                <g>
                  <path class="cls-2" d="M2390.09,712.34c4.32,82.39,75.7,160.28,137.49,157.05,61.79-3.24,125.87-95.65,121.55-178.04-4.32-82.39-73.69-142.48-135.48-139.24-61.79,3.24-127.88,77.84-123.56,160.23Z"/>
                  <path class="cls-2" d="M2480.75,860.08c-47.94-24.43-89.14-85.49-92.39-147.65-4.5-85.9,64.82-158.89,125.21-162.06,31.08-1.63,64.1,12.22,90.6,38,28.08,27.32,44.66,63.86,46.71,102.88,4.32,82.43-60.16,176.56-123.19,179.86-15.65.82-31.64-3.25-46.92-11.04ZM2567.59,566.17c-17.5-8.92-36.01-13.26-53.85-12.33-58.82,3.08-126.32,74.43-121.92,158.4,4.13,78.76,73.85,158.64,135.67,155.4,61.38-3.22,124.14-95.44,119.91-176.21-2-38.15-18.22-73.87-45.66-100.58-10.52-10.24-22.09-18.55-34.15-24.69Z"/>
                </g>
                <g>
                  <path class="cls-2" d="M2389.93,336.21c2.77-32.01-16.32-56.59-49.41-50.65-25.38,4.55-53.99,20.36-52.46,49.68,1.54,29.32,32.26,57.85,58.02,56.5,25.75-1.35,41.32-26.28,43.85-55.53Z"/>
                  <path class="cls-2" d="M2323.05,387.92c-5.67-2.89-11.22-6.83-16.26-11.67-12.25-11.74-19.71-26.66-20.46-40.91-1.6-30.58,28.02-46.85,53.88-51.48,14.89-2.67,27.77.48,37.24,9.13,10.58,9.65,15.76,25.47,14.21,43.38h0c-2.85,32.89-21.13,55.84-45.5,57.12-7.34.38-15.36-1.6-23.12-5.56ZM2367.64,290.37c-7.55-3.85-16.66-4.92-26.82-3.1-24.47,4.39-52.51,19.56-51.03,47.88.7,13.39,7.77,27.45,19.39,38.59,11.27,10.8,25.03,16.89,36.8,16.27,22.91-1.2,39.48-22.38,42.21-53.95h0c1.46-16.83-3.31-31.6-13.09-40.52-2.27-2.07-4.77-3.8-7.46-5.17Z"/>
                </g>
                <g>
                  <path class="cls-2" d="M3223.6,760.28c3.3-60.73-44.04-105.28-111.92-93.53-58.16,10.07-119.41,37.56-116.54,92.3,2.87,54.74,67.98,109.02,126.92,105.94,58.94-3.09,98.56-49.97,101.54-104.71Z"/>
                  <path class="cls-2" d="M3064.11,853.16c-38.06-19.39-68.75-56.68-70.7-94.01-3.45-65.89,81.36-87.76,117.98-94.1,33.27-5.76,63.41,1.59,84.88,20.67,20.38,18.12,30.71,44.64,29.07,74.66h0c-3.19,58.66-46.58,103.39-103.18,106.35-19.46,1.02-39.62-4.18-58.05-13.57ZM3176.66,676.53c-18.36-9.36-40.66-12.22-64.69-8.06-35.71,6.18-118.41,27.38-115.11,90.49,2.82,53.72,67.12,107.34,125.1,104.29,54.79-2.87,96.8-46.22,99.89-103.07h0c1.57-28.94-8.34-54.47-27.91-71.87-5.25-4.67-11.04-8.6-17.29-11.79Z"/>
                </g>
                <g>
                  <path class="cls-2" d="M2666.32,1164.57c-2.87-54.74-68.08-87.2-127.02-84.11-58.94,3.09-125.3,58.75-107.03,108.36,36.06,97.93,53.86,97.25,111.92,93.53,58.9-3.78,125-63.04,122.13-117.78Z"/>
                  <path class="cls-2" d="M2485.55,1279.06c-19.36-9.86-34.45-34.04-54.92-89.64-6.34-17.22-3.25-36.08,8.94-54.57,20.14-30.55,62.05-54.16,99.64-56.13,30.14-1.58,61.33,5.95,85.53,20.62,26.58,16.12,41.96,39.25,43.31,65.14,2.83,54.09-60.78,115.57-123.76,119.61-25.44,1.63-43.42,2.78-58.74-5.02ZM2614.86,1097.82c-22.28-11.35-49.26-17-75.48-15.63-36.57,1.91-77.33,24.87-96.91,54.57-8.06,12.22-16.08,31.07-8.58,51.45,35.78,97.17,53.02,96.06,110.18,92.39,60.13-3.85,123.19-64.54,120.51-115.95h0c-1.3-24.7-16.08-46.85-41.65-62.35-2.61-1.58-5.3-3.08-8.07-4.49Z"/>
                </g>
                <g>
                  <path class="cls-2" d="M2688.98-42.3c-105.79,33.14-162.52-53.98-200.73-28.78-86.26,56.9-28.31,182.33,94.88,252.34,102.86,58.45,192.3,29.73,221.52-32,29.23-61.73-2.78-226.92-115.68-191.56Z"/>
                  <path class="cls-2" d="M2815.61,113.02c-1.46,14.15-4.61,26.89-9.38,36.97-13.04,27.54-37.61,48.2-69.17,58.17-45.63,14.41-100.59,5.39-154.78-25.4-79.84-45.37-134.83-116.31-136.83-176.53-1.07-32.77,13.39-59.99,41.85-78.77,16.82-11.1,36.64-1.68,61.72,10.25,35.03,16.65,78.63,37.38,139.45,18.33,36.27-11.36,67.85-3.11,91.32,23.86,28.94,33.26,40.3,89.77,35.83,133.12ZM2449.35-6.7c-.43,4.17-.57,8.44-.43,12.82,1.96,59.05,56.24,128.82,135.08,173.62,53.33,30.31,107.32,39.23,152.01,25.11,30.64-9.68,54.46-29.69,67.08-56.34,18.97-40.06,11.63-123.17-25.93-166.33-22.49-25.85-52.81-33.74-87.66-22.83-62.12,19.46-108.28-2.48-141.98-18.5-24.09-11.45-43.12-20.5-58.31-10.48-23.59,15.56-37.2,37.14-39.86,62.93Z"/>
                </g>
                <g>
                  <path class="cls-2" d="M3199.72,143.12c83.74-66.05,162.94-216.71,118.91-268.93-41.31-49-187.05,14.71-272.09,74.72-87.15,61.5-141.57,104.83-99.27,158.46,42.3,53.63,168.71,101.8,252.45,35.75Z"/>
                  <path class="cls-2" d="M3154.83,169.06c-80.64,26.23-175.03-17.64-208.93-60.61-11.94-15.14-16.68-29.86-14.49-44.98,5.32-36.66,50.66-71.19,114.12-115.97,88.62-62.54,233.3-123.2,274.42-74.42,10.59,12.56,14.74,30.9,12.34,54.5-6.78,66.7-67,166.03-131.5,216.91-14.38,11.34-29.9,19.35-45.96,24.57ZM3201.49-128.42c-51.83,16.85-109.85,47.63-153.95,78.75-62.75,44.28-107.56,78.35-112.68,113.63-2.05,14.13,2.45,27.98,13.77,42.33,39.88,50.56,165.09,102.44,250.01,35.46,63.88-50.38,123.5-148.62,130.19-214.53,2.3-22.64-1.58-40.1-11.53-51.91-19.74-23.41-64.77-20.33-115.81-3.73Z"/>
                </g>
                <g>
                  <ellipse class="cls-2" cx="2808.14" cy="368.83" rx="75.65" ry="66.45" transform="translate(1658.99 2957.48) rotate(-73.55)"/>
                  <path class="cls-2" d="M2775.77,438.89c-12.69-6.47-22.93-17.29-29.43-31.34-8.17-17.64-9.44-38.25-3.6-58.04,5.84-19.79,18.11-36.39,34.55-46.77,16.51-10.42,35.25-13.31,52.76-8.14,36.07,10.66,55.56,52.61,43.47,93.54h0c-12.09,40.92-51.26,65.55-87.31,54.91-3.63-1.07-7.12-2.47-10.44-4.16ZM2838.82,301.82c-3.08-1.57-6.33-2.87-9.74-3.88-16.54-4.88-34.26-2.13-49.92,7.74-15.73,9.92-27.47,25.84-33.08,44.81-5.6,18.97-4.39,38.72,3.42,55.59,7.78,16.8,21.17,28.74,37.7,33.62,34.22,10.11,71.45-13.47,83-52.56h0c10.39-35.19-3.53-71.14-31.38-85.34Z"/>
                </g>
                <g>
                  <ellipse class="cls-2" cx="3136.79" cy="1426.89" rx="79.4" ry="69.74" transform="translate(879.82 4031.03) rotate(-73.55)"/>
                  <path class="cls-2" d="M3102.86,1500.34c-13.3-6.78-24.03-18.13-30.84-32.85-8.56-18.5-9.9-40.11-3.78-60.85,12.67-42.9,53.73-68.73,91.53-57.57,37.79,11.16,58.23,55.15,45.57,98.06h0c-12.67,42.91-53.73,68.73-91.53,57.57-3.81-1.12-7.47-2.59-10.95-4.36ZM3169.03,1356.49c-3.24-1.65-6.66-3.02-10.24-4.08-35.96-10.62-75.09,14.15-87.22,55.22-5.89,19.93-4.61,40.68,3.6,58.41,8.17,17.66,22.25,30.2,39.62,35.33,35.96,10.62,75.09-14.15,87.22-55.22,10.92-36.97-3.71-74.75-32.97-89.66Z"/>
                </g>
                <g>
                  <path class="cls-2" d="M2307.98-.31c26.89-20.9,2.58-74.36-36.32-87.42-32.38-10.87-63.39,5.91-69.93,44.13-5.79,33.82,5.17,69.19,34.74,75.04,35.07,6.94,46.5-12.3,71.52-31.75Z"/>
                  <path class="cls-2" d="M2225.43,29.48c-22.98-11.71-30.45-43.94-25.41-73.37,3.21-18.73,12.54-33.56,26.27-41.77,13.21-7.9,29.53-9.21,45.93-3.71,23.72,7.96,44,31.49,48.16,55.94,2.49,14.63-1.53,26.88-11.33,34.5h0c-4.94,3.84-9.31,7.64-13.54,11.32-17.01,14.8-30.46,26.49-59.38,20.77-3.89-.77-7.45-2.02-10.7-3.67ZM2278.95-82.77c-2.56-1.31-5.19-2.42-7.84-3.31-15.42-5.18-30.71-3.97-43.04,3.4-12.85,7.68-21.59,21.66-24.63,39.37-5.47,31.94,4.22,67.26,33.36,73.04,27.25,5.39,39.49-5.25,56.43-19.98,4.26-3.71,8.67-7.54,13.69-11.44,8.74-6.79,12.3-17.86,10.03-31.17-3.43-20.15-19.12-40.29-38-49.91Z"/>
                </g>
                <g>
                  <path class="cls-2" d="M2825.63,1486.58c9.07-30.71-2.65-75.51-38.81-86.19-36.16-10.68-61.05-2.2-70.12,28.51-9.07,30.71,1.11,72.02,37.27,82.7,36.16,10.68,62.58,5.7,71.65-25.01Z"/>
                  <path class="cls-2" d="M2744,1509.49c-28.64-14.6-37.67-51.61-28.96-81.09,4.6-15.6,13.33-26,25.93-30.9,12.08-4.7,27.67-4.29,46.34,1.22,35.83,10.59,49.81,55.05,39.98,88.35-4.52,15.31-13.55,25.14-26.82,29.2-12,3.67-27.8,2.66-46.99-3.01-3.37-1-6.53-2.26-9.48-3.77ZM2794.82,1405.43c-2.67-1.36-5.5-2.49-8.49-3.38-17.91-5.29-32.75-5.73-44.09-1.31-11.55,4.5-19.58,14.13-23.87,28.65-9.13,30.91,2.08,70.51,36.1,80.54,18.52,5.47,33.65,6.49,44.98,3.02,12.26-3.75,20.28-12.54,24.51-26.86,8.54-28.92-1.63-66.64-29.14-80.65Z"/>
                </g>
              </g>
              <g>
                <g>
                  <ellipse class="cls-2" cx="1232.96" cy="1019.34" rx="89.51" ry="113.74" transform="translate(-51.63 65.88) rotate(-3)"/>
                  <path class="cls-2" d="M1200.92,1125.99c-32.33-16.47-56.3-55.44-58.73-101.9-1.61-30.65,6.29-59.97,22.22-82.56,16.01-22.69,38.21-35.89,62.52-37.16,24.32-1.27,47.78,9.54,66.07,30.43,18.21,20.8,29.12,49.14,30.73,79.79,3.32,63.4-34.7,117.11-84.75,119.73-13.37.7-26.28-2.32-38.06-8.32ZM1263.87,915.15c-11.59-5.91-24.07-8.68-36.78-8.01-23.44,1.23-44.89,14.01-60.4,35.99-15.58,22.08-23.29,50.79-21.72,80.82,3.24,61.86,45.36,110.13,93.87,107.59,48.53-2.54,85.37-54.94,82.13-116.81h0c-1.57-30.03-12.24-57.77-30.05-78.11-8.11-9.27-17.26-16.49-27.05-21.47Z"/>
                </g>
                <g>
                  <ellipse class="cls-2" cx="2127.34" cy="1057.56" rx="113.74" ry="89.51" transform="translate(219.2 2472.84) rotate(-63)"/>
                  <path class="cls-2" d="M2075.06,1160.14c-44.66-22.76-57.54-87.29-28.71-143.85,28.82-56.56,88.6-84.07,133.26-61.31,44.66,22.76,57.54,87.29,28.72,143.85-28.82,56.56-88.6,84.07-133.26,61.31ZM2178.35,957.45c-43.29-22.06-101.4,4.9-129.53,60.1-28.13,55.2-15.79,118.06,27.5,140.12,43.3,22.06,101.4-4.9,129.53-60.1,28.13-55.2,15.79-118.05-27.51-140.12Z"/>
                </g>
                <g>
                  <path class="cls-2" d="M694.73,626.61c4.32,82.39,75.7,160.28,137.49,157.05,61.79-3.24,125.87-95.65,121.55-178.04-4.32-82.39-73.69-142.48-135.48-139.24-61.79,3.24-127.88,77.84-123.56,160.23Z"/>
                  <path class="cls-2" d="M785.38,774.35c-47.94-24.43-89.14-85.49-92.39-147.65-4.5-85.9,64.82-158.89,125.21-162.06,31.08-1.63,64.1,12.22,90.6,38,28.08,27.32,44.66,63.86,46.71,102.88,4.32,82.43-60.16,176.56-123.19,179.86-15.65.82-31.64-3.25-46.92-11.04ZM872.23,480.44c-17.5-8.92-36.01-13.26-53.85-12.33-58.82,3.08-126.32,74.43-121.92,158.4,4.13,78.76,73.85,158.64,135.67,155.4,61.38-3.22,124.14-95.44,119.91-176.21-2-38.15-18.22-73.87-45.66-100.58-10.52-10.24-22.09-18.55-34.15-24.69Z"/>
                </g>
                <g>
                  <path class="cls-2" d="M1780.05,624.07c-67.51,28.47-111.02,111.6-89.67,162.23,21.35,50.63,117.87,76.26,185.38,47.79,67.51-28.47,96.76-104.54,75.41-155.17-21.35-50.63-103.61-83.31-171.12-54.85Z"/>
                  <path class="cls-2" d="M1732.82,829.16c-21.23-10.82-36.84-25.61-43.86-42.26-10.47-24.83-6.25-57.91,11.58-90.76,17.99-33.14,46.75-59.93,78.92-73.49h0c31.64-13.34,69.54-14.17,103.97-2.28,32.8,11.33,58.65,32.99,69.17,57.95,21.13,50.12-6.98,127.99-76.23,157.2-32.37,13.65-72.82,15.78-110.99,5.84-11.84-3.08-22.79-7.22-32.55-12.19ZM1900.64,631.02c-5.76-2.94-11.86-5.53-18.23-7.73-33.73-11.65-70.82-10.85-101.76,2.2h0c-31.53,13.3-59.74,39.58-77.4,72.11-17.13,31.55-21.41,64.48-11.45,88.09,9.88,23.42,37.67,43.11,74.35,52.67,36.97,9.63,77.72,7.5,109.01-5.7,67.63-28.52,95.16-104.38,74.59-153.15-8.16-19.35-25.93-36.69-49.11-48.5Z"/>
                </g>
                <g>
                  <path class="cls-2" d="M2084.5,218.14c58.06-58.62-47.04-194.07-89.96-238.65-70.75-73.49-141.07-55.5-197.09-4.02-89.14,81.9-114.17,125.75-32.41,195.32,56.83,48.35,256.62,110.79,319.45,47.35Z"/>
                  <path class="cls-2" d="M1802.29,196.4c-15.91-8.11-29.12-16.41-38.36-24.28-33.82-28.78-49.8-53.73-50.27-78.52-.68-35.74,29.78-70.84,82.62-119.4,47.35-43.5,120.4-78.09,199.51,4.1,45.06,46.81,149.06,181.38,89.94,241.08h0c-53.34,53.85-202.93,18.06-283.45-22.97ZM1946.49-55.28c-58.69-29.91-111.17-1.67-147.85,32.03-52.12,47.89-82.16,82.35-81.5,116.78.45,23.72,16.04,47.86,49.05,75.94,55.33,47.07,254.4,110.74,317.09,47.45,56.88-57.43-48.56-193.19-89.97-236.22-15.91-16.53-31.57-28.21-46.81-35.98Z"/>
                </g>
                <g>
                  <ellipse class="cls-2" cx="1598.13" cy="333.61" rx="100.52" ry="103.96" transform="translate(575.3 1606.06) rotate(-63)"/>
                  <path class="cls-2" d="M1551.7,424.72c-51.93-26.46-73.34-88.86-47.74-139.1,25.6-50.24,88.67-69.59,140.6-43.13,51.93,26.46,73.35,88.86,47.75,139.1-25.6,50.24-88.67,69.59-140.6,43.12ZM1642.97,245.59c-50.22-25.59-111.19-6.93-135.93,41.61-24.73,48.53-4,108.83,46.22,134.42,50.22,25.59,111.2,6.93,135.93-41.61,24.73-48.53,3.99-108.84-46.23-134.43Z"/>
                </g>
                <g>
                  <path class="cls-2" d="M1798.39,1090.65c-2.03-38.75-45.25-74.86-79.29-73.08-34.04,1.78-41.24,38.2-39.21,76.95,2.03,38.75,41.69,70.76,75.73,68.98s44.8-34.09,42.77-72.84Z"/>
                  <path class="cls-2" d="M1722.03,1157.26c-22.83-11.63-42.41-34.84-43.87-62.65-2.66-50.71,11.09-77.21,40.85-78.77,16.83-.88,36.6,7.26,52.89,21.78,16.97,15.12,27.25,34.42,28.22,52.95,2.44,46.52-13.33,73.04-44.42,74.67-10.87.57-22.66-2.35-33.69-7.97ZM1750.19,1026.84c-10.49-5.34-21.28-8.05-31-7.54-27.46,1.44-40.1,26.71-37.57,75.12,2.06,39.34,42.12,69,73.9,67.33,38.91-2.04,42.47-45.37,41.13-71.02-.92-17.61-10.79-36.03-27.06-50.53-6.1-5.43-12.69-9.94-19.4-13.36Z"/>
                </g>
                <g>
                  <path class="cls-2" d="M694.56,250.48c2.77-32.01-16.32-56.59-49.41-50.65-25.38,4.55-53.99,20.36-52.46,49.68,1.54,29.32,32.26,57.85,58.02,56.5,25.75-1.35,41.32-26.28,43.85-55.53Z"/>
                  <path class="cls-2" d="M627.68,302.19c-5.67-2.89-11.22-6.83-16.26-11.67-12.25-11.74-19.71-26.66-20.46-40.91-1.6-30.58,28.02-46.85,53.88-51.48,14.89-2.67,27.77.48,37.24,9.13,10.58,9.65,15.76,25.47,14.21,43.38h0c-2.85,32.89-21.13,55.84-45.5,57.12-7.34.38-15.36-1.6-23.12-5.56ZM672.28,204.64c-7.55-3.85-16.66-4.92-26.82-3.1-24.47,4.39-52.51,19.56-51.03,47.88.7,13.39,7.77,27.45,19.39,38.59,11.27,10.8,25.03,16.89,36.8,16.27,22.91-1.2,39.48-22.38,42.21-53.95h0c1.46-16.83-3.31-31.6-13.09-40.52-2.27-2.07-4.77-3.8-7.46-5.17Z"/>
                </g>
                <g>
                  <path class="cls-2" d="M1528.23,674.55c3.3-60.73-44.04-105.28-111.92-93.53-58.16,10.07-119.41,37.56-116.54,92.3,2.87,54.74,67.98,109.02,126.92,105.94,58.94-3.09,98.56-49.97,101.54-104.71Z"/>
                  <path class="cls-2" d="M1368.74,767.43c-38.06-19.39-68.75-56.68-70.7-94.01-3.45-65.89,81.36-87.76,117.98-94.1,33.27-5.76,63.41,1.59,84.88,20.67,20.38,18.12,30.71,44.64,29.07,74.66h0c-3.19,58.66-46.58,103.39-103.18,106.35-19.46,1.02-39.62-4.18-58.05-13.57ZM1481.3,590.8c-18.36-9.36-40.66-12.22-64.69-8.06-35.71,6.18-118.41,27.38-115.11,90.49,2.82,53.72,67.12,107.34,125.1,104.29,54.79-2.87,96.8-46.22,99.89-103.07h0c1.57-28.94-8.34-54.47-27.91-71.87-5.25-4.67-11.04-8.6-17.29-11.79Z"/>
                </g>
                <g>
                  <path class="cls-2" d="M2189.62,458.71c-49.1-40.14-106.26-24.08-143.49,26.14-41.39,55.83-48.51,118.32,15.47,145.03,50.58,21.12,108.14,21.13,143.49-26.14,35.35-47.27,26.97-110.34-15.47-145.03Z"/>
                  <path class="cls-2" d="M2053.1,627.87c-20.12-10.25-32.91-24.89-38.06-43.61-7.82-28.4,2.73-64.07,29.7-100.45,20.76-28,47.57-45.34,75.5-48.82,24.48-3.05,48.86,4.69,70.49,22.37,43.85,35.85,50.78,100.6,15.76,147.42-45,60.17-116.78,38.71-145.55,26.7-2.72-1.14-5.33-2.34-7.83-3.62ZM2169.34,447.43c-15.61-7.95-32.13-11.04-48.68-8.98-26.97,3.36-52.95,20.2-73.14,47.44-25.94,34.98-36.56,70.5-29.14,97.46,5.49,19.95,20.28,35.08,43.88,44.94,28.02,11.7,97.9,32.64,141.43-25.58,33.9-45.32,27.23-107.98-15.18-142.65-6.19-5.06-12.61-9.27-19.18-12.63Z"/>
                </g>
                <g>
                  <path class="cls-2" d="M970.95,1078.84c-2.87-54.74-68.08-87.2-127.02-84.11-58.94,3.09-125.3,58.75-107.03,108.36,36.06,97.93,53.86,97.25,111.92,93.53,58.9-3.78,125-63.04,122.13-117.78Z"/>
                  <path class="cls-2" d="M790.19,1193.33c-19.36-9.86-34.45-34.04-54.92-89.64-6.34-17.22-3.25-36.08,8.94-54.57,20.14-30.55,62.05-54.16,99.64-56.13,30.14-1.58,61.33,5.95,85.53,20.62,26.58,16.12,41.96,39.25,43.31,65.14,2.83,54.09-60.78,115.57-123.76,119.61-25.44,1.63-43.42,2.78-58.74-5.02ZM919.5,1012.09c-22.28-11.35-49.26-17-75.48-15.63-36.57,1.91-77.33,24.87-96.91,54.57-8.06,12.22-16.08,31.07-8.58,51.45,35.78,97.17,53.02,96.06,110.18,92.39,60.13-3.85,123.19-64.54,120.51-115.95h0c-1.3-24.7-16.08-46.85-41.65-62.35-2.61-1.58-5.3-3.08-8.07-4.49Z"/>
                </g>
                <g>
                  <path class="cls-2" d="M993.62-128.03c-105.79,33.14-162.52-53.98-200.73-28.78-86.26,56.9-28.31,182.33,94.88,252.34,102.86,58.45,192.3,29.73,221.52-32,29.23-61.73-2.78-226.92-115.68-191.56Z"/>
                  <path class="cls-2" d="M1120.25,27.29c-1.46,14.15-4.61,26.89-9.38,36.97-13.04,27.54-37.61,48.2-69.17,58.17-45.63,14.41-100.59,5.39-154.78-25.4-79.84-45.37-134.83-116.31-136.83-176.53-1.07-32.77,13.39-59.99,41.85-78.77,16.82-11.1,36.64-1.68,61.72,10.25,35.03,16.65,78.63,37.38,139.45,18.33,36.27-11.36,67.85-3.11,91.32,23.86,28.94,33.26,40.3,89.77,35.83,133.12ZM753.98-92.43c-.43,4.17-.57,8.44-.43,12.82,1.96,59.05,56.24,128.82,135.08,173.62,53.33,30.31,107.32,39.23,152.01,25.11,30.64-9.68,54.46-29.69,67.08-56.34,18.97-40.06,11.63-123.17-25.93-166.33-22.49-25.85-52.81-33.74-87.66-22.83-62.12,19.46-108.28-2.48-141.98-18.5-24.09-11.45-43.12-20.5-58.31-10.48-23.59,15.56-37.2,37.14-39.86,62.93Z"/>
                </g>
                <g>
                  <path class="cls-2" d="M1504.35,57.39c83.74-66.05,162.94-216.71,118.91-268.93-41.31-49-187.05,14.71-272.09,74.72-87.15,61.5-141.57,104.83-99.27,158.46,42.3,53.63,168.71,101.8,252.45,35.75Z"/>
                  <path class="cls-2" d="M1459.46,83.33c-80.64,26.23-175.03-17.64-208.93-60.61-11.94-15.14-16.68-29.86-14.49-44.98,5.32-36.66,50.66-71.19,114.12-115.97,88.62-62.54,233.3-123.2,274.42-74.42,10.59,12.56,14.74,30.9,12.34,54.5-6.78,66.7-67,166.03-131.5,216.91-14.38,11.34-29.9,19.35-45.96,24.57ZM1506.13-214.15c-51.83,16.85-109.85,47.63-153.95,78.75-62.75,44.28-107.56,78.35-112.68,113.63-2.05,14.13,2.45,27.98,13.77,42.33,39.88,50.56,165.09,102.44,250.01,35.46,63.88-50.38,123.5-148.62,130.19-214.53,2.3-22.64-1.58-40.1-11.53-51.91-19.74-23.41-64.77-20.33-115.81-3.73Z"/>
                </g>
                <g>
                  <ellipse class="cls-2" cx="1112.77" cy="283.1" rx="75.65" ry="66.45" transform="translate(526.07 1270.1) rotate(-73.55)"/>
                  <path class="cls-2" d="M1080.41,353.16c-12.69-6.47-22.93-17.29-29.43-31.34-8.17-17.64-9.44-38.25-3.6-58.04,5.84-19.79,18.11-36.39,34.55-46.77,16.51-10.42,35.25-13.31,52.76-8.14,36.07,10.66,55.56,52.61,43.47,93.54h0c-12.09,40.92-51.26,65.55-87.31,54.91-3.63-1.07-7.12-2.47-10.44-4.16ZM1143.45,216.09c-3.08-1.57-6.33-2.87-9.74-3.88-16.54-4.88-34.26-2.13-49.92,7.74-15.73,9.92-27.47,25.84-33.08,44.81-5.6,18.97-4.39,38.72,3.42,55.59,7.78,16.8,21.17,28.74,37.7,33.62,34.22,10.11,71.45-13.47,83-52.56h0c10.39-35.19-3.53-71.14-31.38-85.34Z"/>
                </g>
                <g>
                  <ellipse class="cls-2" cx="1441.43" cy="1341.16" rx="79.4" ry="69.74" transform="translate(-253.1 2343.65) rotate(-73.55)"/>
                  <path class="cls-2" d="M1407.5,1414.61c-13.3-6.78-24.03-18.13-30.84-32.85-8.56-18.5-9.9-40.11-3.78-60.85,12.67-42.9,53.73-68.73,91.53-57.57,37.79,11.16,58.23,55.15,45.57,98.06h0c-12.67,42.91-53.73,68.73-91.53,57.57-3.81-1.12-7.47-2.59-10.95-4.36ZM1473.67,1270.76c-3.24-1.65-6.66-3.02-10.24-4.08-35.96-10.62-75.09,14.15-87.22,55.22-5.89,19.93-4.61,40.68,3.6,58.41,8.17,17.66,22.25,30.2,39.62,35.33,35.96,10.62,75.09-14.15,87.22-55.22,10.92-36.97-3.71-74.75-32.97-89.66Z"/>
                </g>
                <g>
                  <path class="cls-2" d="M1130.26,1400.85c9.07-30.71-2.65-75.51-38.81-86.19-36.16-10.68-61.05-2.2-70.12,28.51-9.07,30.71,1.11,72.02,37.27,82.7,36.16,10.68,62.58,5.7,71.65-25.01Z"/>
                  <path class="cls-2" d="M1048.64,1423.76c-28.64-14.6-37.67-51.61-28.96-81.09,4.6-15.6,13.33-26,25.93-30.9,12.08-4.7,27.67-4.29,46.34,1.22,35.83,10.59,49.81,55.05,39.98,88.35-4.52,15.31-13.55,25.14-26.82,29.2-12,3.67-27.8,2.66-46.99-3.01-3.37-1-6.53-2.26-9.48-3.77ZM1099.46,1319.7c-2.67-1.36-5.5-2.49-8.49-3.38-17.91-5.29-32.75-5.73-44.09-1.31-11.55,4.5-19.58,14.13-23.87,28.65-9.13,30.91,2.08,70.51,36.1,80.54,18.52,5.47,33.65,6.49,44.98,3.02,12.26-3.75,20.28-12.54,24.51-26.86,8.54-28.92-1.63-66.64-29.14-80.65Z"/>
                </g>
              </g>
              <g>
                <g>
                  <ellipse class="cls-2" cx="2295.25" cy="1551.94" rx="112.04" ry="142.37" transform="translate(623.13 3761.17) rotate(-86.94)"/>
                  <path class="cls-2" d="M2156.95,1581.19c-4.35-11.88-6.28-24.32-5.61-36.94,3.35-62.64,70.62-110.16,149.97-105.93,38.36,2.05,73.82,15.75,99.83,38.56,26.13,22.92,39.63,52.3,38,82.73-3.35,62.64-70.62,110.16-149.97,105.93-38.36-2.05-73.82-15.75-99.83-38.56-15.29-13.42-26.26-29.04-32.4-45.8ZM2430.28,1523.89c-5.94-16.22-16.58-31.36-31.42-44.39-25.43-22.31-60.14-35.7-97.73-37.71-77.44-4.14-143.07,41.91-146.32,102.64-1.57,29.34,11.51,57.73,36.83,79.93,25.43,22.31,60.14,35.7,97.73,37.71,77.44,4.14,143.07-41.91,146.32-102.64.65-12.13-1.21-24.11-5.4-35.55Z"/>
                </g>
                <g>
                  <path class="cls-2" d="M2899.68,1660.12c-23.37-79.12-192.71-52.35-252.45-36.25-98.5,26.55-116.63,96.83-98.55,170.73,28.78,117.58,55.13,160.66,155.5,122.56,69.76-26.48,220.78-171.41,195.5-257.04Z"/>
                  <path class="cls-2" d="M2744.56,1896.88c-14.77,10.03-28.42,17.6-39.76,21.9-41.52,15.76-71.08,17.72-93.03,6.18-31.64-16.63-47.71-60.24-64.78-129.96-15.28-62.45-10.37-143.13,99.78-172.82,62.74-16.91,230.78-43.15,254.57,37.43h0c21.46,72.69-82.01,186.49-156.79,237.26ZM2593.59,1649.21c-54.5,37-55.07,96.59-43.22,144.98,16.83,68.75,32.53,111.68,63.02,127.71,21,11.04,49.66,9.02,90.18-6.36,67.92-25.78,219.67-169.49,194.45-254.93-22.89-77.52-192.67-50.6-250.33-35.06-22.15,5.97-39.94,14.06-54.09,23.66Z"/>
                </g>
                <g>
                  <ellipse class="cls-2" cx="1933.97" cy="1490.19" rx="103.96" ry="100.52" transform="translate(-503.12 1343.63) rotate(-34.17)"/>
                  <path class="cls-2" d="M1991.41,1574.79c-48.22,32.74-113.21,21.42-144.89-25.23-31.67-46.65-18.21-111.24,30-143.97,48.22-32.74,113.21-21.42,144.88,25.24,31.67,46.65,18.21,111.24-30,143.97ZM1878.48,1408.46c-46.63,31.66-59.68,94.08-29.08,139.15,30.6,45.07,93.43,55.97,140.06,24.31,46.63-31.66,59.68-94.08,29.08-139.14-30.6-45.07-93.43-55.97-140.06-24.31Z"/>
                </g>
                <g>
                  <path class="cls-2" d="M3161.12,1684.01c-58.84,23.67-72.33,81.48-46.28,138.32,28.96,63.18,80.27,99.54,134.52,56.37,42.89-34.13,70.65-84.56,46.28-138.32-24.37-53.76-83.67-76.83-134.52-56.37Z"/>
                  <path class="cls-2" d="M3243.5,1885.17c-18.69,12.69-37.68,16.83-56.56,12.32-28.65-6.84-54.82-33.28-73.69-74.45-14.53-31.69-16.79-63.54-6.37-89.68,9.13-22.92,27.66-40.55,53.58-50.97,52.55-21.14,112.62,4.02,136.75,57.26,31.02,68.43-22.38,120.98-46.78,140.39-2.31,1.84-4.62,3.54-6.94,5.12ZM3141.46,1696.34c-14.49,9.84-25.17,22.83-31.34,38.31-10.06,25.25-7.83,56.13,6.3,86.95,18.14,39.59,44.14,66.02,71.33,72.52,20.13,4.81,40.51-.86,60.53-16.78,23.76-18.91,75.79-70.04,45.78-136.24-23.36-51.55-81.47-75.92-132.29-55.47-7.41,2.98-14.2,6.57-20.31,10.72Z"/>
                </g>
              </g>
              <g>
                <g>
                  <ellipse class="cls-2" cx="-100.43" cy="1194.68" rx="112.04" ry="142.37" transform="translate(-1288.05 1030.69) rotate(-86.94)"/>
                  <path class="cls-2" d="M-238.73,1223.93c-4.35-11.88-6.28-24.32-5.61-36.94,3.35-62.64,70.62-110.16,149.97-105.93,38.36,2.05,73.82,15.75,99.83,38.56,26.13,22.92,39.63,52.3,38,82.73-3.35,62.64-70.62,110.16-149.97,105.93-38.36-2.05-73.82-15.75-99.83-38.56-15.29-13.42-26.26-29.04-32.4-45.8ZM34.6,1166.63c-5.94-16.22-16.58-31.36-31.42-44.39-25.43-22.31-60.14-35.7-97.73-37.71-77.44-4.14-143.07,41.91-146.32,102.64-1.57,29.34,11.51,57.73,36.83,79.93,25.43,22.31,60.14,35.7,97.73,37.71,77.44,4.14,143.07-41.91,146.32-102.64.65-12.13-1.21-24.11-5.4-35.55Z"/>
                </g>
                <g>
                  <ellipse class="cls-2" cx="1260.07" cy="1670.04" rx="89.51" ry="113.74" transform="translate(-720.5 996.15) rotate(-34.17)"/>
                  <path class="cls-2" d="M1324.74,1765.29c-41.47,28.15-104.21,8.33-139.87-44.2-35.66-52.52-30.93-118.16,10.53-146.31,41.47-28.15,104.21-8.33,139.87,44.19,35.66,52.52,30.94,118.16-10.53,146.31ZM1196.96,1577.08c-40.2,27.29-44.59,91.2-9.79,142.45,34.8,51.26,95.82,70.75,136.02,43.46,40.2-27.29,44.6-91.2,9.8-142.46-34.8-51.25-95.82-70.75-136.02-43.46Z"/>
                </g>
                <g>
                  <path class="cls-2" d="M712.85,1765.3c-7.61,72.87,44.24,151.07,98.9,156.78,54.65,5.71,123.64-66.5,131.25-139.37,7.61-72.87-44.94-135.18-99.59-140.88-54.65-5.71-122.94,50.6-130.55,123.48Z"/>
                  <path class="cls-2" d="M869.76,1905.56c-19.71,13.38-40.2,19.93-58.18,18.05-26.8-2.8-53.75-22.44-73.93-53.9-20.36-31.74-29.96-69.85-26.34-104.57h0c3.57-34.15,21.11-67.75,48.13-92.19,25.74-23.27,57.18-35.48,84.11-32.66,54.1,5.65,108.77,67.82,100.97,142.57-3.65,34.94-21.29,71.41-48.4,100.05-8.41,8.89-17.31,16.49-26.37,22.64ZM777.08,1663c-5.35,3.63-10.56,7.72-15.56,12.24-26.47,23.93-43.65,56.81-47.13,90.22h0c-3.55,34.03,5.87,71.42,25.86,102.58,19.38,30.21,46.17,49.84,71.66,52.5,25.28,2.64,55.93-12.22,81.99-39.75,26.26-27.75,44.04-64.48,47.57-98.25,7.62-73-45.57-133.69-98.22-139.19-20.89-2.18-44.64,5.03-66.16,19.64Z"/>
                </g>
                <g>
                  <path class="cls-2" d="M504,1302.86c-23.37-79.12-192.71-52.35-252.45-36.25-98.5,26.55-116.63,96.83-98.55,170.73,28.78,117.58,55.13,160.66,155.5,122.56,69.76-26.48,220.78-171.41,195.5-257.04Z"/>
                  <path class="cls-2" d="M554.59,911.52c-23.37-79.12-192.71-52.35-252.45-36.25-98.5,26.55-116.63,96.83-98.55,170.73,28.78,117.58,55.13,160.66,155.5,122.56,69.76-26.48,220.78-171.41,195.5-257.04Z"/>
                  <path class="cls-2" d="M348.88,1539.63c-14.77,10.03-28.42,17.6-39.76,21.9-41.52,15.76-71.08,17.72-93.03,6.18-31.64-16.63-47.71-60.24-64.78-129.96-15.28-62.45-10.37-143.13,99.78-172.82,62.74-16.91,230.78-43.15,254.57,37.43h0c21.46,72.69-82.01,186.49-156.79,237.26ZM197.91,1291.96c-54.5,37-55.07,96.59-43.22,144.98,16.83,68.75,32.53,111.68,63.02,127.71,21,11.04,49.66,9.02,90.18-6.36,67.92-25.78,219.67-169.49,194.45-254.93-22.89-77.52-192.67-50.6-250.33-35.06-22.15,5.97-39.94,14.06-54.09,23.66Z"/>
                </g>
                <g>
                  <ellipse class="cls-2" cx="370.67" cy="1784.65" rx="103.96" ry="100.52" transform="translate(-938.45 516.35) rotate(-34.17)"/>
                  <path class="cls-2" d="M428.11,1869.25c-48.22,32.74-113.21,21.42-144.88-25.23-31.67-46.65-18.21-111.24,30-143.97,48.22-32.74,113.21-21.42,144.89,25.23,31.67,46.65,18.21,111.24-30.01,143.97ZM315.18,1702.92c-46.63,31.66-59.68,94.08-29.08,139.14,30.6,45.07,93.42,55.97,140.06,24.31,46.63-31.66,59.68-94.08,29.08-139.15-30.6-45.07-93.43-55.97-140.06-24.31Z"/>
                </g>
                <g>
                  <path class="cls-2" d="M765.44,1326.75c-58.84,23.67-72.33,81.48-46.28,138.32,28.96,63.18,80.27,99.54,134.52,56.37,42.89-34.13,70.65-84.56,46.28-138.32-24.37-53.76-83.67-76.83-134.52-56.37Z"/>
                  <path class="cls-2" d="M847.82,1527.91c-18.69,12.69-37.68,16.83-56.56,12.32-28.65-6.84-54.82-33.28-73.69-74.45-14.53-31.69-16.79-63.54-6.37-89.68,9.13-22.92,27.66-40.55,53.58-50.97,52.55-21.14,112.62,4.02,136.75,57.26,31.02,68.43-22.38,120.98-46.78,140.39-2.31,1.84-4.62,3.54-6.94,5.12ZM745.78,1339.08c-14.49,9.84-25.17,22.83-31.34,38.31-10.06,25.25-7.83,56.13,6.3,86.95,18.14,39.59,44.14,66.02,71.33,72.52,20.13,4.81,40.51-.86,60.53-16.78,23.76-18.91,75.79-70.04,45.78-136.24-23.36-51.55-81.47-75.92-132.29-55.47-7.41,2.98-14.2,6.57-20.31,10.72Z"/>
                </g>
                <g>
                  <path class="cls-2" d="M83.46,1733.63c-17.49-105.21-111.3-247.23-178.28-233.83-62.84,12.57-77.29,170.97-65.72,274.4,11.86,106,23.59,174.57,90.97,163.37,67.38-11.2,170.53-98.73,153.03-203.94Z"/>
                  <path class="cls-2" d="M84.54,1785.46c-15.9,83.3-99.84,144.84-153.83,153.82-19.02,3.16-34.2.22-46.39-9-29.55-22.34-37.95-78.7-46.58-155.89-12.06-107.79,4.55-263.8,67.1-276.3,16.1-3.22,34.17,1.98,53.7,15.47,55.17,38.09,113.16,138.74,126.64,219.79,3,18.07,2.54,35.53-.63,52.12ZM-153.58,1601.16c-10.22,53.53-11.23,119.21-5.23,172.84,8.54,76.32,16.78,132.01,45.23,153.51,11.39,8.61,25.69,11.34,43.73,8.34,63.53-10.56,169.35-95.25,151.6-201.94-13.34-80.25-70.67-179.85-125.18-217.49-18.72-12.93-35.9-17.95-51.04-14.92-30.03,6.01-49.03,46.94-59.1,99.67Z"/>
                </g>
              </g>
              <g>
                <g>
                  <path class="cls-2" d="M194.31,504.67c4.17-72.94-145.35-111.71-199.71-104.79-26.34,3.35-105.43,61.06-115.79,106.89-28.55,126.35,41.79,144.89,84.4,142.19,70.27-4.45,226.57-65.36,231.09-144.29Z"/>
                  <path class="cls-2" d="M169.5,451.7c.94.82,1.85,1.65,2.75,2.48,16.69,15.57,24.63,32.59,23.6,50.58h0c-4.68,81.81-163.8,141.38-232.53,145.74-17.9,1.13-51.19-.78-72.86-26.22-20.86-24.47-25.28-64.12-13.14-117.84,10.34-45.76,88.65-104.46,117.09-108.08,40.94-5.21,131.04,14.91,175.08,53.34ZM192.78,504.58c.97-17.04-6.64-33.24-22.63-48.15-42.3-39.53-134.11-60.27-175.34-55.02-27.07,3.44-104.6,61.96-114.48,105.71-11.91,52.72-7.71,91.47,12.48,115.16,20.85,24.48,53,26.25,70.33,25.15,65.98-4.18,225.14-64.06,229.65-142.84Z"/>
                </g>
                <g>
                  <ellipse class="cls-2" cx="297.42" cy="742.34" rx="57.86" ry="48.7" transform="translate(-488.32 891.11) rotate(-78.89)"/>
                  <path class="cls-2" d="M329.34,694.17c4.33,3.78,8.08,8.46,11.11,13.92,7.1,12.81,9.33,28.42,6.28,43.93-6.31,32.14-33.56,53.94-60.75,48.6-27.18-5.34-44.16-35.83-37.85-67.96h0c3.05-15.52,11.01-29.12,22.43-38.3,11.49-9.24,25.1-12.9,38.32-10.3,7.62,1.5,14.58,4.97,20.47,10.11ZM267.57,788.18c5.39,4.7,11.81,8.01,19,9.42,25.52,5.01,51.15-15.7,57.14-46.17,2.91-14.81.8-29.67-5.95-41.85-6.7-12.09-17.16-20.08-29.48-22.5-12.31-2.42-25.03,1.02-35.8,9.68-10.85,8.72-18.43,21.68-21.34,36.49-4.3,21.89,2.69,42.95,16.43,54.93Z"/>
                </g>
                <g>
                  <path class="cls-2" d="M334.19-16.12c-9.29,26.89,1.8,52.12,31.5,54.17,22.78,1.57,50.76-5.83,55.77-31.34,5.01-25.51-15.22-56.65-37.63-61.05-22.41-4.4-41.16,13.65-49.65,38.23Z"/>
                  <path class="cls-2" d="M402.79-46.09c4.25,3.71,8.16,8.29,11.45,13.53,7.99,12.73,11.17,27.15,8.73,39.55-5.22,26.61-34.18,34.18-57.39,32.58-13.37-.92-23.75-6.41-30.01-15.88-7-10.58-8.04-25.28-2.84-40.33h0c9.55-27.63,30.2-43.4,51.4-39.23,6.39,1.25,12.84,4.69,18.66,9.77ZM343.43,28.06c5.65,4.93,13.25,7.82,22.37,8.45,21.96,1.51,49.32-5.46,54.16-30.1,2.29-11.65-.75-25.25-8.32-37.33-7.35-11.71-17.85-19.91-28.09-21.92-19.93-3.91-38.74,10.7-47.9,37.22h0c-4.88,14.14-3.98,27.85,2.49,37.62,1.5,2.27,3.27,4.29,5.29,6.06Z"/>
                </g>
                <g>
                  <path class="cls-2" d="M-4.35,244.39c98.01-5.62,127.92,81.44,166.17,68.05,86.37-30.24,63.68-150.47-27.01-237.19C59.09,2.85-23.92,8.2-62.34,54.91c-38.43,46.71-46.6,195.48,57.99,189.48Z"/>
                  <path class="cls-2" d="M-79.57,83.67c4.31-11.84,9.76-22.1,16.04-29.73C-46.39,33.1-20.83,20.66,8.43,18.91c42.29-2.53,87.55,17.09,127.44,55.23,58.77,56.2,90.68,129,79.4,181.14-6.15,28.37-24.45,48.63-52.94,58.61-16.84,5.9-31.82-6.47-50.79-22.12-26.49-21.86-59.45-49.07-115.8-45.84-33.6,1.93-58.94-11.97-73.28-40.21-17.67-34.81-15.23-85.79-2.03-122.06ZM209.13,265.55c1.27-3.48,2.32-7.13,3.14-10.92,11.06-51.13-20.49-122.78-78.52-178.27C94.48,38.82,50.05,19.51,8.62,21.98c-28.4,1.7-53.18,13.74-69.77,33.91-24.94,30.31-36.57,103.27-13.64,148.44,13.74,27.06,38.07,40.38,70.36,38.53,57.55-3.3,92.46,25.51,117.94,46.54,18.22,15.04,32.61,26.91,47.81,21.59,23.62-8.27,39.97-23.87,47.82-45.44Z"/>
                </g>
                <g>
                  <path class="cls-2" d="M331.91,290.58c-27.6,12.15-18.27,63.31,12.32,82.91,25.46,16.32,55.71,8.61,69.58-22.8,12.28-27.79,10.5-60.54-13.63-71.94-28.62-13.53-42.59.52-68.27,11.83Z"/>
                  <path class="cls-2" d="M409.24,282.82c17.21,15.02,16.67,44.31,5.99,68.49-6.8,15.39-18.02,26.12-31.58,30.2-13.05,3.93-27.35,1.54-40.25-6.73-18.65-11.96-30.99-36.54-29.28-58.44,1.02-13.1,7.12-22.76,17.17-27.18h0c5.07-2.23,9.65-4.55,14.07-6.8,17.81-9.04,31.87-16.17,55.48-5.01,3.17,1.5,5.96,3.34,8.4,5.46ZM339.04,367.66c1.92,1.68,3.93,3.2,6.02,4.54,12.13,7.78,25.52,10.04,37.7,6.37,12.69-3.82,23.22-13.94,29.65-28.5,11.59-26.25,10.89-58.68-12.88-69.93-22.24-10.51-35.05-4.02-52.77,4.98-4.46,2.26-9.07,4.61-14.22,6.87-8.97,3.95-14.42,12.68-15.35,24.6-1.41,18.04,7.72,38.73,21.86,51.07Z"/>
                </g>
              </g>
            </g>
          </g>
          <rect class="cls-2" x=".79" y=".79" width="3105.46" height="1694.89"/>
        </g>
      </g>
    </g>
  </g>
</svg>