<?xml version="1.0" encoding="UTF-8"?>
<svg id="Layer_2" xmlns="http://www.w3.org/2000/svg" viewBox="0 0 1402.78 506.73">
  <defs>
    <style>
      .cls-1 {
        stroke: #ffb732;
        stroke-miterlimit: 10;
      }

      .cls-1, .cls-2 {
        fill: #ffb732;
      }

      .cls-3 {
        fill: #1a2933;
      }
    </style>
  </defs>
  <g id="Layer_1-2" data-name="Layer_1">
    <g id="horizontal-dark">
      <g>
        <ellipse class="cls-1" cx="358.4" cy="140.9" rx="52.27" ry="41.13" transform="translate(87.78 414.89) rotate(-66.82)"/>
        <path class="cls-1" d="M313.25,371.8c15.14,26.23,51.48,39.81,71.15,28.45,19.67-11.36,25.23-52.27,10.09-78.5-15.14-26.23-47.85-34.32-67.52-22.97-19.67,11.36-28.85,46.78-13.71,73.01Z"/>
        <path class="cls-1" d="M368.44,67.54c9.22-28.85-47.74-55.64-69.2-63.07-35.39-12.25-55.39,5.36-65.14,31.53-15.5,41.65-16.39,60.16,21.96,69.29,26.65,6.34,102.41-6.54,112.39-37.76Z"/>
        <path class="cls-1" d="M16.82,241.73c18.58,23.92,75.85-4.73,90.95-21.71,7.31-8.23,16.29-47.81,7.03-64.95-25.53-47.25-52.55-33.86-65.13-21.4-20.74,20.55-52.95,82.18-32.85,108.07Z"/>
        <ellipse class="cls-1" cx="283.75" cy="160.08" rx="20.19" ry="23.99" transform="translate(-42.02 163.32) rotate(-30)"/>
        <path class="cls-1" d="M499.95,221.1c0-20.38-17.09-36.9-38.16-36.9-21.08,0-38.16,16.52-38.16,36.9,0,20.38,17.09,36.9,38.16,36.9,21.08,0,38.16-16.52,38.16-36.9Z"/>
        <path class="cls-1" d="M504.44,320.59c0-20.38-17.09-36.9-38.16-36.9-21.08,0-38.16,16.52-38.16,36.9,0,20.38,17.09,36.9,38.16,36.9,21.08,0,38.16-16.52,38.16-36.9Z"/>
        <path class="cls-1" d="M267.69,330.22c-7.12-12.34-27.28-16.95-38.12-10.69-10.84,6.26-7.12,19.37,0,31.71,7.12,12.34,25.43,16.2,36.27,9.94,10.84-6.26,8.97-18.62,1.85-30.96Z"/>
        <ellipse class="cls-1" cx="238.09" cy="133.55" rx="20.78" ry="19.52" transform="translate(-34.87 136.94) rotate(-30)"/>
        <path class="cls-1" d="M163.87,464.25c-4.43-10.93-14.77-15.79-24.61-8.33-7.54,5.72-14.27,15.66-8.88,24.99,5.39,9.34,20.2,13.55,28.4,8.81,8.2-4.73,9.14-15.48,5.09-25.48Z"/>
        <path class="cls-1" d="M202.75,113.5c-9.04-20.42-31.96-27.1-52.2-11.94-17.35,12.99-32.8,32.19-22.74,49.62,10.06,17.43,40.41,24.33,59.18,13.5,18.77-10.83,23.91-32.77,15.76-51.17Z"/>
        <path class="cls-1" d="M337.55,413.24c-22.75-4.94-38.77,9.83-42.58,32.47-4.23,25.16,3.85,46.79,29.23,44.86,20.07-1.52,38.9-11.11,42.58-32.47,3.69-21.35-9.57-40.59-29.23-44.86Z"/>
        <path class="cls-1" d="M270.11,439.27c-10.06-17.43-36.8-17.18-55.57-6.34-18.77,10.83-31.19,40.1-16.95,53.29,28.12,26.02,33.83,22.83,52.2,11.94,18.64-11.05,30.38-41.46,20.32-58.88Z"/>
        <path class="cls-1" d="M224.26,264.87c-16.09-37.39,13.59-61.39,2.94-74.39-24.03-29.36-67.65-3.47-88.57,44.16-17.47,39.76-3.61,71.34,20.03,79.69,23.65,8.35,82.76-9.57,65.59-49.46Z"/>
        <path class="cls-1" d="M144.49,437.51c36.74-13.55,81.49-57.16,72.05-80.39-8.86-21.8-66.97-16.1-103.48-4.8-37.41,11.58-61.33,20.53-52.65,44.05,8.68,23.53,47.34,54.7,84.08,41.14Z"/>
        <ellipse class="cls-1" cx="193.01" cy="45.83" rx="24.39" ry="27.77" transform="translate(-5.13 36.1) rotate(-10.55)"/>
        <path class="cls-1" d="M151.59,59.04c-1.82-9.78-10.26-16.41-18.85-14.81-8.59,1.6-20.66,11.71-15.43,20.18,3.74,6.06,19.02,10.74,25.36,13.48,8.02,3.47,10.74-9.07,8.92-18.85Z"/>
        <path class="cls-1" d="M64.16,311.93c-6.69-27.26-19.21-52.25-37.51-48.84-18.3,3.41-27.19,36.56-26.05,64.67,1.14,28.05,12.32,39.6,30.58,43.19,21.33,4.19,42.37-20.76,32.98-59.02Z"/>
        <ellipse class="cls-1" cx="100.36" cy="290.74" rx="25.6" ry="29.15" transform="translate(-51.52 23.28) rotate(-10.55)"/>
        <path class="cls-1" d="M110.85,89.05c5.31-11.32-11.55-24.75-26.45-22.54-12.4,1.84-19.75,12.5-15.52,26.09,3.74,12.03,13.22,21.77,23.87,18.76,12.63-3.58,13.16-11.77,18.1-22.31Z"/>
        <path class="cls-1" d="M295.83,395.45c-2.15-11.56-13.45-24.26-27.06-21.73-13.61,2.53-20.34,9.46-18.18,21.01s12.37,23.37,25.98,20.84c13.61-2.53,21.42-8.57,19.27-20.12Z"/>
      </g>
      <g>
        <path class="cls-3" d="M643.03,236.14c.39,0,.78.07,1.17.22.39.15.76.4,1.12.75l6.52,6.86c-2.85,3.73-6.43,6.54-10.73,8.44-4.3,1.9-9.38,2.85-15.25,2.85-5.38,0-10.21-.92-14.47-2.75-4.26-1.83-7.88-4.36-10.85-7.59-2.97-3.23-5.25-7.05-6.84-11.48-1.59-4.43-2.38-9.23-2.38-14.42s.91-10.14,2.72-14.57c1.82-4.43,4.35-8.24,7.61-11.45s7.16-5.71,11.7-7.49c4.54-1.78,9.55-2.68,15.03-2.68,2.66,0,5.16.24,7.52.71s4.55,1.12,6.59,1.94c2.04.83,3.92,1.82,5.64,2.97,1.72,1.15,3.24,2.43,4.57,3.82l-5.54,7.44c-.36.46-.78.87-1.26,1.24-.49.37-1.17.56-2.04.56-.58,0-1.13-.13-1.65-.39-.52-.26-1.07-.58-1.65-.95-.58-.37-1.22-.78-1.92-1.22-.7-.44-1.52-.84-2.48-1.22-.96-.37-2.08-.69-3.36-.95-1.28-.26-2.78-.39-4.5-.39-2.98,0-5.71.53-8.17,1.58-2.46,1.05-4.58,2.56-6.35,4.52-1.77,1.96-3.15,4.34-4.14,7.13-.99,2.79-1.48,5.92-1.48,9.39s.49,6.86,1.48,9.68c.99,2.82,2.34,5.2,4.04,7.13s3.69,3.4,5.96,4.4c2.27,1.01,4.7,1.51,7.3,1.51,1.49,0,2.85-.07,4.09-.22,1.23-.15,2.38-.4,3.43-.75,1.05-.36,2.06-.82,3.02-1.39.96-.57,1.92-1.27,2.89-2.12.39-.32.81-.59,1.26-.8s.92-.32,1.41-.32Z"/>
        <path class="cls-3" d="M722.17,254.47h-16.54v-29.96h-28.8v29.96h-16.54v-70.87h16.54v29.62h28.8v-29.62h16.54v70.87Z"/>
        <path class="cls-3" d="M780.44,183.6v12.65h-29.09v16.54h22.28v12.16h-22.28v16.88h29.09v12.65h-45.63v-70.87h45.63Z"/>
        <path class="cls-3" d="M836.38,183.6v12.65h-29.09v16.54h22.28v12.16h-22.28v16.88h29.09v12.65h-45.63v-70.87h45.63Z"/>
        <path class="cls-3" d="M863.14,228.26v26.22h-16.44v-70.87h23.06c5.12,0,9.49.53,13.11,1.58,3.62,1.05,6.57,2.52,8.85,4.4,2.29,1.88,3.95,4.1,4.99,6.66,1.04,2.56,1.56,5.35,1.56,8.37,0,2.3-.31,4.48-.92,6.52s-1.53,3.93-2.75,5.67c-1.22,1.74-2.71,3.28-4.47,4.64-1.77,1.36-3.8,2.48-6.11,3.36,1.1.55,2.13,1.23,3.09,2.04.96.81,1.79,1.8,2.51,2.97l15.08,24.66h-14.89c-2.76,0-4.73-1.04-5.93-3.11l-11.77-20.58c-.52-.91-1.13-1.56-1.82-1.94s-1.68-.58-2.94-.58h-4.18ZM863.14,216.92h6.61c2.24,0,4.14-.28,5.72-.85,1.57-.57,2.86-1.35,3.87-2.36s1.74-2.18,2.19-3.53c.45-1.34.68-2.8.68-4.35,0-3.11-1.01-5.54-3.04-7.3-2.03-1.75-5.16-2.63-9.41-2.63h-6.61v21.01Z"/>
        <path class="cls-3" d="M930.36,254.47h-16.54v-70.87h16.54v70.87Z"/>
        <path class="cls-3" d="M1015.7,221.5c0,5.13-.88,9.89-2.65,14.3-1.77,4.41-4.26,8.25-7.47,11.5-3.21,3.26-7.08,5.81-11.6,7.66-4.52,1.85-9.54,2.77-15.05,2.77s-10.54-.92-15.08-2.77c-4.54-1.85-8.42-4.4-11.65-7.66-3.23-3.26-5.72-7.09-7.49-11.5-1.77-4.41-2.65-9.18-2.65-14.3s.88-9.89,2.65-14.3c1.77-4.41,4.26-8.24,7.49-11.48,3.23-3.24,7.11-5.79,11.65-7.64,4.54-1.85,9.57-2.77,15.08-2.77s10.53.93,15.05,2.8c4.52,1.87,8.39,4.42,11.6,7.66,3.21,3.24,5.7,7.07,7.47,11.48,1.77,4.41,2.65,9.16,2.65,14.25ZM998.87,221.5c0-3.5-.45-6.66-1.36-9.46-.91-2.8-2.21-5.18-3.92-7.13-1.7-1.95-3.79-3.44-6.25-4.48-2.46-1.04-5.27-1.56-8.41-1.56s-6.01.52-8.49,1.56c-2.48,1.04-4.57,2.53-6.27,4.48-1.7,1.94-3.01,4.32-3.92,7.13-.91,2.81-1.36,5.96-1.36,9.46s.45,6.71,1.36,9.51c.91,2.81,2.21,5.18,3.92,7.13,1.7,1.94,3.79,3.43,6.27,4.45s5.31,1.53,8.49,1.53,5.95-.51,8.41-1.53,4.55-2.51,6.25-4.45c1.7-1.95,3.01-4.32,3.92-7.13.91-2.8,1.36-5.97,1.36-9.51Z"/>
        <path class="cls-3" d="M1082.51,198c-.49.78-1,1.36-1.53,1.75-.53.39-1.22.58-2.07.58-.75,0-1.55-.23-2.41-.7-.86-.47-1.83-1-2.92-1.58-1.09-.58-2.33-1.11-3.72-1.58-1.39-.47-2.98-.71-4.77-.71-3.08,0-5.38.66-6.88,1.97-1.51,1.31-2.26,3.09-2.26,5.33,0,1.43.45,2.61,1.36,3.55.91.94,2.1,1.75,3.57,2.43s3.16,1.31,5.06,1.87c1.9.57,3.83,1.2,5.81,1.9,1.98.7,3.92,1.52,5.81,2.46,1.9.94,3.58,2.14,5.06,3.6,1.48,1.46,2.67,3.23,3.58,5.33.91,2.09,1.36,4.61,1.36,7.56,0,3.28-.57,6.34-1.7,9.19-1.14,2.85-2.78,5.34-4.94,7.47-2.16,2.12-4.81,3.79-7.98,5.01-3.16,1.22-6.75,1.82-10.77,1.82-2.2,0-4.45-.23-6.74-.68-2.29-.45-4.5-1.1-6.64-1.92-2.14-.83-4.15-1.81-6.03-2.94-1.88-1.13-3.52-2.4-4.91-3.79l4.86-7.69c.36-.58.86-1.05,1.51-1.41.65-.36,1.35-.53,2.09-.53.97,0,1.95.31,2.94.92.99.62,2.11,1.3,3.36,2.04s2.68,1.43,4.31,2.04c1.62.62,3.53.92,5.74.92,2.98,0,5.3-.66,6.96-1.97,1.65-1.31,2.48-3.4,2.48-6.25,0-1.65-.45-3-1.36-4.04-.91-1.04-2.1-1.9-3.57-2.58-1.48-.68-3.15-1.28-5.04-1.8s-3.81-1.1-5.79-1.73-3.91-1.41-5.79-2.33c-1.88-.92-3.56-2.14-5.04-3.65s-2.67-3.39-3.57-5.64c-.91-2.25-1.36-5.04-1.36-8.34,0-2.66.54-5.25,1.61-7.78s2.64-4.78,4.72-6.76c2.07-1.98,4.62-3.56,7.64-4.74,3.02-1.18,6.47-1.78,10.36-1.78,2.17,0,4.29.17,6.35.51s4.01.84,5.86,1.51c1.85.67,3.58,1.46,5.18,2.38,1.61.92,3.04,1.97,4.31,3.14l-4.09,7.64Z"/>
        <path class="cls-3" d="M1148.18,183.6v13.04h-19.94v57.84h-16.44v-57.84h-19.94v-13.04h56.33Z"/>
        <path class="cls-3" d="M1185.44,241.49c2.2,0,4.17-.36,5.91-1.09s3.2-1.78,4.4-3.14,2.12-3.02,2.75-4.99.95-4.19.95-6.69v-41.98h16.44v41.98c0,4.35-.7,8.33-2.12,11.97-1.41,3.63-3.43,6.76-6.06,9.39s-5.82,4.67-9.58,6.13c-3.76,1.46-7.99,2.19-12.7,2.19s-8.98-.73-12.74-2.19-6.96-3.5-9.58-6.13c-2.63-2.63-4.64-5.76-6.03-9.39-1.39-3.63-2.09-7.62-2.09-11.97v-41.98h16.44v41.93c0,2.5.32,4.73.95,6.69.63,1.96,1.55,3.63,2.75,5.01s2.67,2.43,4.4,3.16,3.71,1.09,5.91,1.09Z"/>
        <path class="cls-3" d="M1291.87,219.01c0,5.13-.88,9.85-2.65,14.18-1.77,4.33-4.26,8.07-7.47,11.24-3.21,3.16-7.08,5.63-11.6,7.39-4.52,1.77-9.54,2.65-15.05,2.65h-27.53v-70.87h27.53c5.51,0,10.53.89,15.05,2.68s8.39,4.25,11.6,7.39c3.21,3.15,5.7,6.88,7.47,11.21,1.77,4.33,2.65,9.04,2.65,14.13ZM1275.04,219.01c0-3.5-.46-6.66-1.36-9.48-.91-2.82-2.21-5.21-3.92-7.18-1.7-1.96-3.79-3.47-6.25-4.52-2.46-1.05-5.27-1.58-8.41-1.58h-10.99v45.58h10.99c3.14,0,5.95-.53,8.41-1.58,2.46-1.05,4.55-2.56,6.25-4.52s3.01-4.35,3.92-7.18c.91-2.82,1.36-6,1.36-9.53Z"/>
        <path class="cls-3" d="M1318.72,254.47h-16.54v-70.87h16.54v70.87Z"/>
        <path class="cls-3" d="M1402.78,219.01c0,5.13-.88,9.89-2.65,14.3-1.77,4.41-4.26,8.25-7.47,11.5-3.21,3.26-7.08,5.81-11.6,7.66-4.52,1.85-9.54,2.77-15.05,2.77s-10.54-.92-15.08-2.77c-4.54-1.85-8.42-4.4-11.65-7.66-3.23-3.26-5.72-7.09-7.49-11.5-1.77-4.41-2.65-9.18-2.65-14.3s.88-9.89,2.65-14.3c1.77-4.41,4.26-8.24,7.49-11.48,3.23-3.24,7.11-5.79,11.65-7.64,4.54-1.85,9.57-2.77,15.08-2.77s10.53.93,15.05,2.8c4.52,1.87,8.39,4.42,11.6,7.66,3.21,3.24,5.7,7.07,7.47,11.48,1.77,4.41,2.65,9.16,2.65,14.25ZM1385.95,219.01c0-3.5-.45-6.66-1.36-9.46-.91-2.8-2.21-5.18-3.92-7.13-1.7-1.95-3.79-3.44-6.25-4.48-2.46-1.04-5.27-1.56-8.41-1.56s-6.01.52-8.49,1.56c-2.48,1.04-4.57,2.53-6.27,4.48-1.7,1.94-3.01,4.32-3.92,7.13-.91,2.81-1.36,5.96-1.36,9.46s.45,6.71,1.36,9.51c.91,2.81,2.21,5.18,3.92,7.13,1.7,1.94,3.79,3.43,6.27,4.45s5.31,1.53,8.49,1.53,5.95-.51,8.41-1.53c2.46-1.02,4.55-2.51,6.25-4.45,1.7-1.95,3.01-4.32,3.92-7.13.91-2.8,1.36-5.97,1.36-9.51Z"/>
      </g>
      <g>
        <path class="cls-2" d="M592.83,314.66h6.91c5.01,0,7.11,2.38,7.11,7.82v17.75c0,5.44-2.1,7.82-7.11,7.82h-6.91v-33.39ZM599.74,347.05c4.29,0,6.06-1.95,6.06-6.82v-17.75c0-4.86-1.77-6.82-6.06-6.82h-5.87v31.39h5.87Z"/>
        <path class="cls-2" d="M625.37,331.55v4.39h-11.74v5.2c0,4.2,1.81,6.44,5.3,6.44s5.44-2.24,5.44-6.44v-.43h1v.38c0,4.77-2.24,7.44-6.44,7.44s-6.34-2.67-6.34-7.44v-9.54c0-4.77,2.2-7.44,6.34-7.44s6.44,2.67,6.44,7.44ZM624.36,334.99v-3.48c0-4.2-1.86-6.44-5.44-6.44s-5.3,2.24-5.3,6.44v3.48h10.73Z"/>
        <path class="cls-2" d="M629.95,342.52v-.86h1v.86c0,3.24,2.05,5.06,5.25,5.06s5.25-1.77,5.25-5.01c0-3.48-2.67-4.72-5.39-5.91-2.91-1.29-5.87-2.62-5.87-6.73,0-3.58,2.48-5.82,5.91-5.82s5.92,2.2,5.92,6.01v.38h-.95v-.38c0-3.29-2.1-5.06-4.96-5.06s-4.91,1.77-4.91,4.87c0,3.38,2.62,4.58,5.34,5.82,2.91,1.29,5.91,2.67,5.91,6.82,0,3.77-2.43,5.96-6.2,5.96s-6.3-2.2-6.3-6.01Z"/>
        <path class="cls-2" d="M647.65,315.95h1.05v4.48h-1.05v-4.48ZM647.65,324.58h1.05v23.47h-1.05v-23.47Z"/>
        <path class="cls-2" d="M667.3,324.58v24.76c0,4.29-2,6.58-6.2,6.58s-6.25-1.96-6.25-5.53v-.29h1v.29c0,3.01,1.86,4.58,5.25,4.58s5.2-1.86,5.2-5.58v-6.39c-1,3.01-3.24,4.77-6.2,4.77-3.53,0-5.53-2.29-5.53-6.73v-10.26c0-4.44,2-6.68,5.53-6.68,3.05,0,5.34,1.91,6.3,5.11l.05-4.63h.86ZM666.3,338.94v-6.01c0-4.77-2.48-7.87-6.06-7.87-3.05,0-4.68,2.05-4.68,5.92v9.92c0,3.86,1.62,5.91,4.68,5.91,3.58,0,6.06-3.1,6.06-7.87Z"/>
        <path class="cls-2" d="M686.1,330.79v17.27h-1.05v-17.08c0-3.91-1.53-5.92-4.63-5.92-3.48,0-5.82,3.05-5.82,7.87v15.12h-1.05v-23.47h.9v4.58c.95-3.2,3.2-5.06,6.16-5.06,3.58,0,5.48,2.24,5.48,6.68Z"/>
        <path class="cls-2" d="M703.32,325.54v18.27c0,2.62.95,3.77,3.1,3.77.86,0,1.62-.1,2.38-.53v1c-.81.38-1.43.48-2.48.48-2.72,0-4.06-1.53-4.06-4.68v-18.32h-3.29v-.95h3.29l.19-7.44h.86v7.44h5.49v.95h-5.49Z"/>
        <path class="cls-2" d="M725.98,330.79v17.27h-1.05v-17.08c0-3.91-1.53-5.92-4.53-5.92-3.58,0-5.91,3.05-5.91,7.87v15.12h-1.05v-33.39h1.05v14.02c1-2.86,3.15-4.58,6.06-4.58,3.53,0,5.44,2.24,5.44,6.68Z"/>
        <path class="cls-2" d="M743.11,348.06c-.24-1.1-.33-2.81-.33-4.77-.91,3.29-3.24,5.25-6.54,5.25s-5.3-2.1-5.3-5.58,1.62-5.39,6.16-7.3c4.91-2.05,5.58-2.58,5.58-4.72v-.91c0-3.1-1.86-4.96-4.96-4.96s-5.3,1.77-5.3,5.2v.43h-1v-.38c0-4.06,2.63-6.2,6.3-6.2s5.96,2.24,5.96,6.01v12.26c0,2.34.09,4.34.43,5.68h-1ZM742.68,339.71v-6.39c-.48,1.05-1.81,1.77-5.25,3.2-3.96,1.62-5.48,3.39-5.48,6.39s1.62,4.68,4.48,4.68c3.77,0,6.25-3.05,6.25-7.87Z"/>
        <path class="cls-2" d="M752.42,325.54v18.27c0,2.62.95,3.77,3.1,3.77.86,0,1.62-.1,2.38-.53v1c-.81.38-1.43.48-2.48.48-2.72,0-4.06-1.53-4.06-4.68v-18.32h-3.29v-.95h3.29l.19-7.44h.86v7.44h5.49v.95h-5.49Z"/>
        <path class="cls-2" d="M771.03,314.66h6.91c5.01,0,7.11,2.38,7.11,7.82v17.75c0,5.44-2.1,7.82-7.11,7.82h-6.91v-33.39ZM777.94,347.05c4.29,0,6.06-1.95,6.06-6.82v-17.75c0-4.86-1.77-6.82-6.06-6.82h-5.87v31.39h5.87Z"/>
        <path class="cls-2" d="M803.56,331.55v4.39h-11.74v5.2c0,4.2,1.81,6.44,5.3,6.44s5.44-2.24,5.44-6.44v-.43h1v.38c0,4.77-2.24,7.44-6.44,7.44s-6.34-2.67-6.34-7.44v-9.54c0-4.77,2.2-7.44,6.34-7.44s6.44,2.67,6.44,7.44ZM802.56,334.99v-3.48c0-4.2-1.86-6.44-5.44-6.44s-5.3,2.24-5.3,6.44v3.48h10.73Z"/>
        <path class="cls-2" d="M809.15,314.66h1.05v33.39h-1.05v-33.39Z"/>
        <path class="cls-2" d="M816.44,315.95h1.05v4.48h-1.05v-4.48ZM816.44,324.58h1.05v23.47h-1.05v-23.47Z"/>
        <path class="cls-2" d="M836.1,324.58v24.76c0,4.29-2,6.58-6.2,6.58s-6.25-1.96-6.25-5.53v-.29h1v.29c0,3.01,1.86,4.58,5.25,4.58s5.2-1.86,5.2-5.58v-6.39c-1,3.01-3.24,4.77-6.2,4.77-3.53,0-5.53-2.29-5.53-6.73v-10.26c0-4.44,2-6.68,5.53-6.68,3.05,0,5.34,1.91,6.3,5.11l.05-4.63h.86ZM835.1,338.94v-6.01c0-4.77-2.48-7.87-6.06-7.87-3.05,0-4.68,2.05-4.68,5.92v9.92c0,3.86,1.62,5.91,4.68,5.91,3.58,0,6.06-3.1,6.06-7.87Z"/>
        <path class="cls-2" d="M854.9,330.79v17.27h-1.05v-17.08c0-3.91-1.53-5.92-4.53-5.92-3.58,0-5.92,3.05-5.92,7.87v15.12h-1.05v-33.39h1.05v14.02c1-2.86,3.15-4.58,6.06-4.58,3.53,0,5.44,2.24,5.44,6.68Z"/>
        <path class="cls-2" d="M863.63,325.54v18.27c0,2.62.95,3.77,3.1,3.77.86,0,1.62-.1,2.38-.53v1c-.81.38-1.43.48-2.48.48-2.72,0-4.06-1.53-4.06-4.68v-18.32h-3.29v-.95h3.29l.19-7.44h.86v7.44h5.49v.95h-5.49Z"/>
        <path class="cls-2" d="M872.74,342.52v-.86h1v.86c0,3.24,2.05,5.06,5.25,5.06s5.25-1.77,5.25-5.01c0-3.48-2.67-4.72-5.39-5.91-2.91-1.29-5.87-2.62-5.87-6.73,0-3.58,2.48-5.82,5.91-5.82s5.92,2.2,5.92,6.01v.38h-.95v-.38c0-3.29-2.1-5.06-4.96-5.06s-4.91,1.77-4.91,4.87c0,3.38,2.62,4.58,5.34,5.82,2.91,1.29,5.91,2.67,5.91,6.82,0,3.77-2.43,5.96-6.2,5.96s-6.3-2.2-6.3-6.01Z"/>
        <path class="cls-2" d="M891.06,348.06h-.33v-3.91h1.05v3.86l-1.19,4.05h-.53l1-4.01Z"/>
        <path class="cls-2" d="M906.81,314.66h6.91c5.01,0,7.11,2.38,7.11,7.82v17.75c0,5.44-2.1,7.82-7.11,7.82h-6.91v-33.39ZM913.72,347.05c4.29,0,6.06-1.95,6.06-6.82v-17.75c0-4.86-1.77-6.82-6.06-6.82h-5.87v31.39h5.87Z"/>
        <path class="cls-2" d="M939.35,331.55v4.39h-11.74v5.2c0,4.2,1.81,6.44,5.3,6.44s5.44-2.24,5.44-6.44v-.43h1v.38c0,4.77-2.24,7.44-6.44,7.44s-6.34-2.67-6.34-7.44v-9.54c0-4.77,2.2-7.44,6.34-7.44s6.44,2.67,6.44,7.44ZM938.34,334.99v-3.48c0-4.2-1.86-6.44-5.44-6.44s-5.3,2.24-5.3,6.44v3.48h10.73Z"/>
        <path class="cls-2" d="M943.35,324.58h1.05l6.06,22.18,6.06-22.18h1l-6.39,23.47h-1.38l-6.39-23.47Z"/>
        <path class="cls-2" d="M974.46,331.55v4.39h-11.74v5.2c0,4.2,1.81,6.44,5.3,6.44s5.44-2.24,5.44-6.44v-.43h1v.38c0,4.77-2.24,7.44-6.44,7.44s-6.34-2.67-6.34-7.44v-9.54c0-4.77,2.2-7.44,6.34-7.44s6.44,2.67,6.44,7.44ZM973.46,334.99v-3.48c0-4.2-1.86-6.44-5.44-6.44s-5.3,2.24-5.3,6.44v3.48h10.73Z"/>
        <path class="cls-2" d="M980.04,314.66h1.05v33.39h-1.05v-33.39Z"/>
        <path class="cls-2" d="M986.91,341.09v-9.54c0-4.77,2.2-7.44,6.34-7.44s6.44,2.67,6.44,7.44v9.54c0,4.77-2.24,7.44-6.44,7.44s-6.34-2.67-6.34-7.44ZM998.65,341.14v-9.64c0-4.15-1.81-6.44-5.39-6.44s-5.34,2.29-5.34,6.44v9.64c0,4.15,1.81,6.44,5.34,6.44s5.39-2.29,5.39-6.44Z"/>
        <path class="cls-2" d="M1018.26,330.79v11.07c0,4.39-2,6.68-5.53,6.68-2.96,0-5.2-1.77-6.2-4.77v11.69h-1.05v-30.87h.86l.05,4.82c.91-3.34,3.24-5.3,6.34-5.3,3.53,0,5.53,2.24,5.53,6.68ZM1017.21,330.98c0-3.86-1.58-5.92-4.68-5.92-3.58,0-6.01,3.1-6.01,7.87v6.78c0,4.77,2.43,7.87,6.01,7.87,3.1,0,4.68-2.05,4.68-5.91v-10.69Z"/>
        <path class="cls-2" d="M1046.98,330.17v17.89h-1v-17.75c0-3.43-1.48-5.25-4.34-5.25-3.29,0-5.53,3.1-5.53,7.87v15.12h-1.05v-17.75c0-3.43-1.48-5.25-4.29-5.25-3.29,0-5.54,3.1-5.54,7.87v15.12h-1.05v-23.47h.86l.05,4.53c.91-3.1,3.01-5.01,5.87-5.01s4.72,1.62,5.11,4.87c.9-3.05,2.96-4.87,5.77-4.87,3.29,0,5.15,2.05,5.15,6.06Z"/>
        <path class="cls-2" d="M1065.44,331.55v4.39h-11.74v5.2c0,4.2,1.81,6.44,5.3,6.44s5.44-2.24,5.44-6.44v-.43h1v.38c0,4.77-2.24,7.44-6.44,7.44s-6.34-2.67-6.34-7.44v-9.54c0-4.77,2.2-7.44,6.34-7.44s6.44,2.67,6.44,7.44ZM1064.44,334.99v-3.48c0-4.2-1.86-6.44-5.44-6.44s-5.3,2.24-5.3,6.44v3.48h10.73Z"/>
        <path class="cls-2" d="M1083.57,330.79v17.27h-1.05v-17.08c0-3.91-1.53-5.92-4.63-5.92-3.48,0-5.82,3.05-5.82,7.87v15.12h-1.05v-23.47h.9v4.58c.95-3.2,3.2-5.06,6.16-5.06,3.58,0,5.48,2.24,5.48,6.68Z"/>
        <path class="cls-2" d="M1092.3,325.54v18.27c0,2.62.95,3.77,3.1,3.77.86,0,1.62-.1,2.38-.53v1c-.81.38-1.43.48-2.48.48-2.72,0-4.06-1.53-4.06-4.68v-18.32h-3.29v-.95h3.29l.19-7.44h.86v7.44h5.49v.95h-5.49Z"/>
        <path class="cls-2" d="M1113.58,325.54v18.27c0,2.62.95,3.77,3.1,3.77.86,0,1.62-.1,2.38-.53v1c-.81.38-1.43.48-2.48.48-2.72,0-4.06-1.53-4.06-4.68v-18.32h-3.29v-.95h3.29l.19-7.44h.86v7.44h5.49v.95h-5.49Z"/>
        <path class="cls-2" d="M1136.24,330.79v17.27h-1.05v-17.08c0-3.91-1.53-5.92-4.53-5.92-3.58,0-5.91,3.05-5.91,7.87v15.12h-1.05v-33.39h1.05v14.02c1-2.86,3.15-4.58,6.06-4.58,3.53,0,5.44,2.24,5.44,6.68Z"/>
        <path class="cls-2" d="M1153.37,348.06c-.24-1.1-.33-2.81-.33-4.77-.91,3.29-3.24,5.25-6.54,5.25s-5.3-2.1-5.3-5.58,1.62-5.39,6.16-7.3c4.91-2.05,5.58-2.58,5.58-4.72v-.91c0-3.1-1.86-4.96-4.96-4.96s-5.3,1.77-5.3,5.2v.43h-1v-.38c0-4.06,2.63-6.2,6.3-6.2s5.96,2.24,5.96,6.01v12.26c0,2.34.1,4.34.43,5.68h-1ZM1152.94,339.71v-6.39c-.48,1.05-1.81,1.77-5.25,3.2-3.96,1.62-5.48,3.39-5.48,6.39s1.62,4.68,4.48,4.68c3.77,0,6.25-3.05,6.25-7.87Z"/>
        <path class="cls-2" d="M1162.67,325.54v18.27c0,2.62.95,3.77,3.1,3.77.86,0,1.62-.1,2.38-.53v1c-.81.38-1.43.48-2.48.48-2.72,0-4.06-1.53-4.06-4.68v-18.32h-3.29v-.95h3.29l.19-7.44h.86v7.44h5.49v.95h-5.49Z"/>
        <path class="cls-2" d="M1181.28,314.66h6.91c5.01,0,7.11,2.38,7.11,7.82v17.75c0,5.44-2.1,7.82-7.11,7.82h-6.91v-33.39ZM1188.2,347.05c4.29,0,6.06-1.95,6.06-6.82v-17.75c0-4.86-1.77-6.82-6.06-6.82h-5.87v31.39h5.87Z"/>
        <path class="cls-2" d="M1213.82,331.55v4.39h-11.74v5.2c0,4.2,1.81,6.44,5.3,6.44s5.44-2.24,5.44-6.44v-.43h1v.38c0,4.77-2.24,7.44-6.44,7.44s-6.34-2.67-6.34-7.44v-9.54c0-4.77,2.2-7.44,6.34-7.44s6.44,2.67,6.44,7.44ZM1212.82,334.99v-3.48c0-4.2-1.86-6.44-5.44-6.44s-5.3,2.24-5.3,6.44v3.48h10.73Z"/>
        <path class="cls-2" d="M1219.4,314.66h1.05v33.39h-1.05v-33.39Z"/>
        <path class="cls-2" d="M1226.71,315.95h1.05v4.48h-1.05v-4.48ZM1226.71,324.58h1.05v23.47h-1.05v-23.47Z"/>
        <path class="cls-2" d="M1232.52,324.58h1.05l6.06,22.18,6.06-22.18h1l-6.39,23.47h-1.38l-6.39-23.47Z"/>
        <path class="cls-2" d="M1263.63,331.55v4.39h-11.74v5.2c0,4.2,1.81,6.44,5.3,6.44s5.44-2.24,5.44-6.44v-.43h1v.38c0,4.77-2.24,7.44-6.44,7.44s-6.34-2.67-6.34-7.44v-9.54c0-4.77,2.2-7.44,6.34-7.44s6.44,2.67,6.44,7.44ZM1262.63,334.99v-3.48c0-4.2-1.86-6.44-5.44-6.44s-5.3,2.24-5.3,6.44v3.48h10.73Z"/>
        <path class="cls-2" d="M1277.37,324.44v1.05c-.57-.29-1.1-.38-1.77-.38-3.63,0-5.34,2.91-5.34,8.97v13.98h-1.05v-23.47h.86l.05,4.68c.76-3.53,2.58-5.15,5.44-5.15.67,0,1.24.05,1.81.33Z"/>
        <path class="cls-2" d="M1280.33,342.52v-.86h1v.86c0,3.24,2.05,5.06,5.25,5.06s5.25-1.77,5.25-5.01c0-3.48-2.67-4.72-5.39-5.91-2.91-1.29-5.87-2.62-5.87-6.73,0-3.58,2.48-5.82,5.91-5.82s5.92,2.2,5.92,6.01v.38h-.95v-.38c0-3.29-2.1-5.06-4.96-5.06s-4.91,1.77-4.91,4.87c0,3.38,2.62,4.58,5.34,5.82,2.91,1.29,5.91,2.67,5.91,6.82,0,3.77-2.43,5.96-6.2,5.96s-6.3-2.2-6.3-6.01Z"/>
      </g>
    </g>
  </g>
</svg>