<?xml version="1.0" encoding="UTF-8"?>
<svg id="Layer_2" xmlns="http://www.w3.org/2000/svg" viewBox="0 0 700 41.26">
  <defs>
    <style>
      .cls-1 {
        fill: #1a2933;
      }
    </style>
  </defs>
  <g id="Layer_1-2" data-name="Layer_1">
    <g id="moto-light">
      <path class="cls-1" d="M0,0h6.91c5.01,0,7.11,2.38,7.11,7.82v17.75c0,5.44-2.1,7.82-7.11,7.82H0V0ZM6.91,32.39c4.29,0,6.06-1.95,6.06-6.82V7.82c0-4.86-1.77-6.82-6.06-6.82H1.05v31.39h5.87Z"/>
      <path class="cls-1" d="M32.54,16.89v4.39h-11.74v5.2c0,4.2,1.81,6.44,5.3,6.44s5.44-2.24,5.44-6.44v-.43h1v.38c0,4.77-2.24,7.44-6.44,7.44s-6.34-2.67-6.34-7.44v-9.54c0-4.77,2.2-7.44,6.34-7.44s6.44,2.67,6.44,7.44ZM31.53,20.32v-3.48c0-4.2-1.86-6.44-5.44-6.44s-5.3,2.24-5.3,6.44v3.48h10.73Z"/>
      <path class="cls-1" d="M37.12,27.86v-.86h1v.86c0,3.24,2.05,5.06,5.25,5.06s5.25-1.77,5.25-5.01c0-3.48-2.67-4.72-5.39-5.91-2.91-1.29-5.87-2.62-5.87-6.73,0-3.58,2.48-5.82,5.91-5.82s5.92,2.2,5.92,6.01v.38h-.95v-.38c0-3.29-2.1-5.06-4.96-5.06s-4.91,1.77-4.91,4.87c0,3.38,2.62,4.58,5.34,5.82,2.91,1.29,5.91,2.67,5.91,6.82,0,3.77-2.43,5.96-6.2,5.96s-6.3-2.2-6.3-6.01Z"/>
      <path class="cls-1" d="M54.82,1.29h1.05v4.48h-1.05V1.29ZM54.82,9.92h1.05v23.47h-1.05V9.92Z"/>
      <path class="cls-1" d="M74.47,9.92v24.76c0,4.29-2,6.58-6.2,6.58s-6.25-1.96-6.25-5.53v-.29h1v.29c0,3.01,1.86,4.58,5.25,4.58s5.2-1.86,5.2-5.58v-6.39c-1,3.01-3.24,4.77-6.2,4.77-3.53,0-5.53-2.29-5.53-6.73v-10.26c0-4.44,2-6.68,5.53-6.68,3.05,0,5.34,1.91,6.3,5.11l.05-4.63h.86ZM73.47,24.28v-6.01c0-4.77-2.48-7.87-6.06-7.87-3.05,0-4.68,2.05-4.68,5.92v9.92c0,3.86,1.62,5.91,4.68,5.91,3.58,0,6.06-3.1,6.06-7.87Z"/>
      <path class="cls-1" d="M93.27,16.12v17.27h-1.05v-17.08c0-3.91-1.53-5.92-4.63-5.92-3.48,0-5.82,3.05-5.82,7.87v15.12h-1.05V9.92h.9v4.58c.95-3.2,3.2-5.06,6.16-5.06,3.58,0,5.48,2.24,5.48,6.68Z"/>
      <path class="cls-1" d="M110.49,10.88v18.27c0,2.62.95,3.77,3.1,3.77.86,0,1.62-.1,2.38-.53v1c-.81.38-1.43.48-2.48.48-2.72,0-4.06-1.53-4.06-4.68V10.88h-3.29v-.95h3.29l.19-7.44h.86v7.44h5.49v.95h-5.49Z"/>
      <path class="cls-1" d="M133.15,16.12v17.27h-1.05v-17.08c0-3.91-1.53-5.92-4.53-5.92-3.58,0-5.91,3.05-5.91,7.87v15.12h-1.05V0h1.05v14.02c1-2.86,3.15-4.58,6.06-4.58,3.53,0,5.44,2.24,5.44,6.68Z"/>
      <path class="cls-1" d="M150.29,33.39c-.24-1.1-.33-2.81-.33-4.77-.91,3.29-3.24,5.25-6.54,5.25s-5.3-2.1-5.3-5.58,1.62-5.39,6.16-7.3c4.91-2.05,5.58-2.58,5.58-4.72v-.91c0-3.1-1.86-4.96-4.96-4.96s-5.3,1.77-5.3,5.2v.43h-1v-.38c0-4.06,2.63-6.2,6.3-6.2s5.96,2.24,5.96,6.01v12.26c0,2.34.09,4.34.43,5.68h-1ZM149.86,25.04v-6.39c-.48,1.05-1.81,1.77-5.25,3.2-3.96,1.62-5.48,3.39-5.48,6.39s1.62,4.68,4.48,4.68c3.77,0,6.25-3.05,6.25-7.87Z"/>
      <path class="cls-1" d="M159.59,10.88v18.27c0,2.62.95,3.77,3.1,3.77.86,0,1.62-.1,2.38-.53v1c-.81.38-1.43.48-2.48.48-2.72,0-4.06-1.53-4.06-4.68V10.88h-3.29v-.95h3.29l.19-7.44h.86v7.44h5.49v.95h-5.49Z"/>
      <path class="cls-1" d="M178.2,0h6.91c5.01,0,7.11,2.38,7.11,7.82v17.75c0,5.44-2.1,7.82-7.11,7.82h-6.91V0ZM185.11,32.39c4.29,0,6.06-1.95,6.06-6.82V7.82c0-4.86-1.77-6.82-6.06-6.82h-5.87v31.39h5.87Z"/>
      <path class="cls-1" d="M210.73,16.89v4.39h-11.74v5.2c0,4.2,1.81,6.44,5.3,6.44s5.44-2.24,5.44-6.44v-.43h1v.38c0,4.77-2.24,7.44-6.44,7.44s-6.34-2.67-6.34-7.44v-9.54c0-4.77,2.2-7.44,6.34-7.44s6.44,2.67,6.44,7.44ZM209.73,20.32v-3.48c0-4.2-1.86-6.44-5.44-6.44s-5.3,2.24-5.3,6.44v3.48h10.73Z"/>
      <path class="cls-1" d="M216.32,0h1.05v33.39h-1.05V0Z"/>
      <path class="cls-1" d="M223.62,1.29h1.05v4.48h-1.05V1.29ZM223.62,9.92h1.05v23.47h-1.05V9.92Z"/>
      <path class="cls-1" d="M243.27,9.92v24.76c0,4.29-2,6.58-6.2,6.58s-6.25-1.96-6.25-5.53v-.29h1v.29c0,3.01,1.86,4.58,5.25,4.58s5.2-1.86,5.2-5.58v-6.39c-1,3.01-3.24,4.77-6.2,4.77-3.53,0-5.53-2.29-5.53-6.73v-10.26c0-4.44,2-6.68,5.53-6.68,3.05,0,5.34,1.91,6.3,5.11l.05-4.63h.86ZM242.27,24.28v-6.01c0-4.77-2.48-7.87-6.06-7.87-3.05,0-4.68,2.05-4.68,5.92v9.92c0,3.86,1.62,5.91,4.68,5.91,3.58,0,6.06-3.1,6.06-7.87Z"/>
      <path class="cls-1" d="M262.07,16.12v17.27h-1.05v-17.08c0-3.91-1.53-5.92-4.53-5.92-3.58,0-5.92,3.05-5.92,7.87v15.12h-1.05V0h1.05v14.02c1-2.86,3.15-4.58,6.06-4.58,3.53,0,5.44,2.24,5.44,6.68Z"/>
      <path class="cls-1" d="M270.8,10.88v18.27c0,2.62.95,3.77,3.1,3.77.86,0,1.62-.1,2.38-.53v1c-.81.38-1.43.48-2.48.48-2.72,0-4.06-1.53-4.06-4.68V10.88h-3.29v-.95h3.29l.19-7.44h.86v7.44h5.49v.95h-5.49Z"/>
      <path class="cls-1" d="M279.91,27.86v-.86h1v.86c0,3.24,2.05,5.06,5.25,5.06s5.25-1.77,5.25-5.01c0-3.48-2.67-4.72-5.39-5.91-2.91-1.29-5.87-2.62-5.87-6.73,0-3.58,2.48-5.82,5.91-5.82s5.92,2.2,5.92,6.01v.38h-.95v-.38c0-3.29-2.1-5.06-4.96-5.06s-4.91,1.77-4.91,4.87c0,3.38,2.62,4.58,5.34,5.82,2.91,1.29,5.91,2.67,5.91,6.82,0,3.77-2.43,5.96-6.2,5.96s-6.3-2.2-6.3-6.01Z"/>
      <path class="cls-1" d="M298.23,33.39h-.33v-3.91h1.05v3.86l-1.19,4.05h-.53l1-4.01Z"/>
      <path class="cls-1" d="M313.98,0h6.91c5.01,0,7.11,2.38,7.11,7.82v17.75c0,5.44-2.1,7.82-7.11,7.82h-6.91V0ZM320.9,32.39c4.29,0,6.06-1.95,6.06-6.82V7.82c0-4.86-1.77-6.82-6.06-6.82h-5.87v31.39h5.87Z"/>
      <path class="cls-1" d="M346.52,16.89v4.39h-11.74v5.2c0,4.2,1.81,6.44,5.3,6.44s5.44-2.24,5.44-6.44v-.43h1v.38c0,4.77-2.24,7.44-6.44,7.44s-6.34-2.67-6.34-7.44v-9.54c0-4.77,2.2-7.44,6.34-7.44s6.44,2.67,6.44,7.44ZM345.51,20.32v-3.48c0-4.2-1.86-6.44-5.44-6.44s-5.3,2.24-5.3,6.44v3.48h10.73Z"/>
      <path class="cls-1" d="M350.52,9.92h1.05l6.06,22.18,6.06-22.18h1l-6.39,23.47h-1.38l-6.39-23.47Z"/>
      <path class="cls-1" d="M381.63,16.89v4.39h-11.74v5.2c0,4.2,1.81,6.44,5.3,6.44s5.44-2.24,5.44-6.44v-.43h1v.38c0,4.77-2.24,7.44-6.44,7.44s-6.34-2.67-6.34-7.44v-9.54c0-4.77,2.2-7.44,6.34-7.44s6.44,2.67,6.44,7.44ZM380.63,20.32v-3.48c0-4.2-1.86-6.44-5.44-6.44s-5.3,2.24-5.3,6.44v3.48h10.73Z"/>
      <path class="cls-1" d="M387.21,0h1.05v33.39h-1.05V0Z"/>
      <path class="cls-1" d="M394.09,26.43v-9.54c0-4.77,2.2-7.44,6.34-7.44s6.44,2.67,6.44,7.44v9.54c0,4.77-2.24,7.44-6.44,7.44s-6.34-2.67-6.34-7.44ZM405.82,26.48v-9.64c0-4.15-1.81-6.44-5.39-6.44s-5.34,2.29-5.34,6.44v9.64c0,4.15,1.81,6.44,5.34,6.44s5.39-2.29,5.39-6.44Z"/>
      <path class="cls-1" d="M425.43,16.12v11.07c0,4.39-2,6.68-5.53,6.68-2.96,0-5.2-1.77-6.2-4.77v11.69h-1.05V9.92h.86l.05,4.82c.91-3.34,3.24-5.3,6.34-5.3,3.53,0,5.53,2.24,5.53,6.68ZM424.38,16.32c0-3.86-1.58-5.92-4.68-5.92-3.58,0-6.01,3.1-6.01,7.87v6.78c0,4.77,2.43,7.87,6.01,7.87,3.1,0,4.68-2.05,4.68-5.91v-10.69Z"/>
      <path class="cls-1" d="M454.15,15.5v17.89h-1V15.65c0-3.43-1.48-5.25-4.34-5.25-3.29,0-5.53,3.1-5.53,7.87v15.12h-1.05V15.65c0-3.43-1.48-5.25-4.29-5.25-3.29,0-5.54,3.1-5.54,7.87v15.12h-1.05V9.92h.86l.05,4.53c.91-3.1,3.01-5.01,5.87-5.01s4.72,1.62,5.11,4.87c.9-3.05,2.96-4.87,5.77-4.87,3.29,0,5.15,2.05,5.15,6.06Z"/>
      <path class="cls-1" d="M472.61,16.89v4.39h-11.74v5.2c0,4.2,1.81,6.44,5.3,6.44s5.44-2.24,5.44-6.44v-.43h1v.38c0,4.77-2.24,7.44-6.44,7.44s-6.34-2.67-6.34-7.44v-9.54c0-4.77,2.2-7.44,6.34-7.44s6.44,2.67,6.44,7.44ZM471.61,20.32v-3.48c0-4.2-1.86-6.44-5.44-6.44s-5.3,2.24-5.3,6.44v3.48h10.73Z"/>
      <path class="cls-1" d="M490.74,16.12v17.27h-1.05v-17.08c0-3.91-1.53-5.92-4.63-5.92-3.48,0-5.82,3.05-5.82,7.87v15.12h-1.05V9.92h.9v4.58c.95-3.2,3.2-5.06,6.16-5.06,3.58,0,5.48,2.24,5.48,6.68Z"/>
      <path class="cls-1" d="M499.48,10.88v18.27c0,2.62.95,3.77,3.1,3.77.86,0,1.62-.1,2.38-.53v1c-.81.38-1.43.48-2.48.48-2.72,0-4.06-1.53-4.06-4.68V10.88h-3.29v-.95h3.29l.19-7.44h.86v7.44h5.49v.95h-5.49Z"/>
      <path class="cls-1" d="M520.75,10.88v18.27c0,2.62.95,3.77,3.1,3.77.86,0,1.62-.1,2.38-.53v1c-.81.38-1.43.48-2.48.48-2.72,0-4.06-1.53-4.06-4.68V10.88h-3.29v-.95h3.29l.19-7.44h.86v7.44h5.49v.95h-5.49Z"/>
      <path class="cls-1" d="M543.42,16.12v17.27h-1.05v-17.08c0-3.91-1.53-5.92-4.53-5.92-3.58,0-5.91,3.05-5.91,7.87v15.12h-1.05V0h1.05v14.02c1-2.86,3.15-4.58,6.06-4.58,3.53,0,5.44,2.24,5.44,6.68Z"/>
      <path class="cls-1" d="M560.54,33.39c-.24-1.1-.33-2.81-.33-4.77-.91,3.29-3.24,5.25-6.54,5.25s-5.3-2.1-5.3-5.58,1.62-5.39,6.16-7.3c4.91-2.05,5.58-2.58,5.58-4.72v-.91c0-3.1-1.86-4.96-4.96-4.96s-5.3,1.77-5.3,5.2v.43h-1v-.38c0-4.06,2.63-6.2,6.3-6.2s5.96,2.24,5.96,6.01v12.26c0,2.34.1,4.34.43,5.68h-1ZM560.11,25.04v-6.39c-.48,1.05-1.81,1.77-5.25,3.2-3.96,1.62-5.48,3.39-5.48,6.39s1.62,4.68,4.48,4.68c3.77,0,6.25-3.05,6.25-7.87Z"/>
      <path class="cls-1" d="M569.85,10.88v18.27c0,2.62.95,3.77,3.1,3.77.86,0,1.62-.1,2.38-.53v1c-.81.38-1.43.48-2.48.48-2.72,0-4.06-1.53-4.06-4.68V10.88h-3.29v-.95h3.29l.19-7.44h.86v7.44h5.49v.95h-5.49Z"/>
      <path class="cls-1" d="M588.46,0h6.91c5.01,0,7.11,2.38,7.11,7.82v17.75c0,5.44-2.1,7.82-7.11,7.82h-6.91V0ZM595.37,32.39c4.29,0,6.06-1.95,6.06-6.82V7.82c0-4.86-1.77-6.82-6.06-6.82h-5.87v31.39h5.87Z"/>
      <path class="cls-1" d="M620.99,16.89v4.39h-11.74v5.2c0,4.2,1.81,6.44,5.3,6.44s5.44-2.24,5.44-6.44v-.43h1v.38c0,4.77-2.24,7.44-6.44,7.44s-6.34-2.67-6.34-7.44v-9.54c0-4.77,2.2-7.44,6.34-7.44s6.44,2.67,6.44,7.44ZM619.99,20.32v-3.48c0-4.2-1.86-6.44-5.44-6.44s-5.3,2.24-5.3,6.44v3.48h10.73Z"/>
      <path class="cls-1" d="M626.58,0h1.05v33.39h-1.05V0Z"/>
      <path class="cls-1" d="M633.88,1.29h1.05v4.48h-1.05V1.29ZM633.88,9.92h1.05v23.47h-1.05V9.92Z"/>
      <path class="cls-1" d="M639.7,9.92h1.05l6.06,22.18,6.06-22.18h1l-6.39,23.47h-1.38l-6.39-23.47Z"/>
      <path class="cls-1" d="M670.8,16.89v4.39h-11.74v5.2c0,4.2,1.81,6.44,5.3,6.44s5.44-2.24,5.44-6.44v-.43h1v.38c0,4.77-2.24,7.44-6.44,7.44s-6.34-2.67-6.34-7.44v-9.54c0-4.77,2.2-7.44,6.34-7.44s6.44,2.67,6.44,7.44ZM669.8,20.32v-3.48c0-4.2-1.86-6.44-5.44-6.44s-5.3,2.24-5.3,6.44v3.48h10.73Z"/>
      <path class="cls-1" d="M684.54,9.78v1.05c-.57-.29-1.1-.38-1.77-.38-3.63,0-5.34,2.91-5.34,8.97v13.98h-1.05V9.92h.86l.05,4.68c.76-3.53,2.58-5.15,5.44-5.15.67,0,1.24.05,1.81.33Z"/>
      <path class="cls-1" d="M687.5,27.86v-.86h1v.86c0,3.24,2.05,5.06,5.25,5.06s5.25-1.77,5.25-5.01c0-3.48-2.67-4.72-5.39-5.91-2.91-1.29-5.87-2.62-5.87-6.73,0-3.58,2.48-5.82,5.91-5.82s5.92,2.2,5.92,6.01v.38h-.95v-.38c0-3.29-2.1-5.06-4.96-5.06s-4.91,1.77-4.91,4.87c0,3.38,2.62,4.58,5.34,5.82,2.91,1.29,5.91,2.67,5.91,6.82,0,3.77-2.43,5.96-6.2,5.96s-6.3-2.2-6.3-6.01Z"/>
    </g>
  </g>
</svg>