<?xml version="1.0" encoding="UTF-8"?>
<svg xmlns="http://www.w3.org/2000/svg" viewBox="0 0 3130.7 2822.77">
  <defs>
    <style>
      .cls-1 {
        fill: none;
        stroke: #ffb732;
        stroke-miterlimit: 10;
      }

      .cls-2 {
        isolation: isolate;
      }

      .cls-3 {
        mix-blend-mode: color-burn;
        opacity: .84;
      }
    </style>
  </defs>
  <g class="cls-2">
    <g id="Layer_2">
      <g id="Layer_1-2" data-name="Layer_1">
        <g class="cls-3">
          <g>
            <g>
              <g>
                <ellipse class="cls-1" cx="2914.44" cy="573.85" rx="70.91" ry="90.11" transform="translate(40.33 1324.02) rotate(-25.77)"/>
                <path class="cls-1" d="M2856.02,506.09c5.26-6.04,11.57-10.9,18.77-14.38,35.76-17.26,82.63,5.54,104.5,50.83,10.57,21.9,13.79,45.73,9.08,67.12-4.74,21.49-16.91,37.93-34.28,46.32-35.76,17.26-82.63-5.54-104.5-50.83-10.57-21.9-13.79-45.73-9.08-67.12,2.77-12.57,8.09-23.42,15.51-31.94ZM2971.19,640.17c7.18-8.25,12.33-18.76,15.02-30.97,4.61-20.91,1.45-44.24-8.91-65.69-21.33-44.2-66.89-66.54-101.56-49.81-16.75,8.08-28.49,24-33.08,44.81-4.61,20.91-1.45,44.24,8.91,65.69,21.33,44.2,66.89,66.54,101.56,49.81,6.93-3.34,13-8.03,18.06-13.84Z"/>
              </g>
              <g>
                <ellipse class="cls-1" cx="2499.95" cy="1449.08" rx="56.65" ry="71.99" transform="translate(-72.37 132.73) rotate(-3)"/>
                <path class="cls-1" d="M2479.67,1516.58c-20.46-10.42-35.63-35.08-37.17-64.49-1.02-19.4,3.98-37.96,14.06-52.25,10.13-14.36,24.19-22.72,39.57-23.52,15.39-.8,30.24,6.04,41.81,19.26,11.53,13.17,18.43,31.1,19.45,50.5,2.1,40.12-21.96,74.12-53.64,75.78-8.46.44-16.63-1.47-24.09-5.27ZM2519.51,1383.14c-7.34-3.74-15.24-5.49-23.28-5.07-14.84.78-28.41,8.87-38.23,22.78-9.86,13.98-14.74,32.14-13.75,51.15,2.05,39.15,28.71,69.7,59.41,68.09,30.71-1.61,54.03-34.77,51.98-73.93h0c-.99-19.01-7.75-36.56-19.02-49.43-5.13-5.86-10.92-10.43-17.12-13.59Z"/>
              </g>
              <g>
                <ellipse class="cls-1" cx="3065.99" cy="1473.27" rx="71.99" ry="56.65" transform="translate(361.3 3536.14) rotate(-63)"/>
                <path class="cls-1" d="M3032.91,1538.19c-28.26-14.4-36.42-55.24-18.17-91.04,18.24-35.8,56.08-53.21,84.34-38.8,28.26,14.4,36.42,55.24,18.18,91.04-18.24,35.8-56.08,53.21-84.34,38.8ZM3098.27,1409.91c-27.4-13.96-64.17,3.1-81.98,38.04-17.8,34.94-9.99,74.72,17.41,88.68,27.4,13.96,64.18-3.1,81.98-38.04,17.8-34.93,9.99-74.72-17.41-88.68Z"/>
              </g>
              <g>
                <path class="cls-1" d="M2159.3,1200.52c2.73,52.14,47.91,101.44,87.02,99.39,39.11-2.05,79.66-60.53,76.93-112.68-2.73-52.14-46.64-90.17-85.74-88.13-39.11,2.05-80.93,49.27-78.2,101.41Z"/>
                <path class="cls-1" d="M2216.68,1294.03c-30.34-15.46-56.41-54.11-58.47-93.45-2.85-54.37,41.02-100.56,79.24-102.57,19.67-1.03,40.57,7.74,57.34,24.05,17.77,17.29,28.27,40.42,29.56,65.11,2.73,52.17-38.07,111.74-77.97,113.83-9.9.52-20.02-2.05-29.7-6.99ZM2271.64,1108.01c-11.07-5.64-22.79-8.39-34.08-7.8-37.23,1.95-79.95,47.1-77.16,100.25,2.61,49.85,46.74,100.4,85.86,98.35,38.85-2.04,78.57-60.4,75.89-111.52-1.27-24.15-11.53-46.75-28.9-63.65-6.66-6.48-13.98-11.74-21.61-15.63Z"/>
              </g>
              <g>
                <path class="cls-1" d="M2846.19,1198.92c-42.73,18.02-70.27,70.63-56.75,102.67,13.51,32.05,74.6,48.26,117.33,30.25,42.73-18.02,61.24-66.16,47.73-98.21s-65.57-52.73-108.3-34.71Z"/>
                <path class="cls-1" d="M2816.3,1328.72c-13.43-6.85-23.32-16.21-27.76-26.75-6.63-15.72-3.96-36.65,7.33-57.44,11.38-20.97,29.59-37.93,49.95-46.51h0c20.03-8.44,44.01-8.97,65.8-1.44,20.76,7.17,37.12,20.88,43.78,36.67,13.38,31.72-4.42,81-48.25,99.49-20.49,8.64-46.09,9.99-70.25,3.69-7.49-1.95-14.42-4.57-20.6-7.72ZM2922.51,1203.31c-3.65-1.86-7.5-3.5-11.54-4.89-21.34-7.37-44.82-6.87-64.41,1.39h0c-19.95,8.41-37.81,25.05-48.99,45.64-10.84,19.97-13.55,40.81-7.25,55.75,6.25,14.82,23.84,27.29,47.06,33.33,23.4,6.09,49.19,4.75,68.99-3.6,42.8-18.05,60.23-66.06,47.21-96.93-5.16-12.25-16.41-23.22-31.08-30.69Z"/>
              </g>
              <g>
                <path class="cls-1" d="M3038.88,942.01c36.74-37.1-29.77-122.83-56.93-151.04-44.78-46.51-89.28-35.12-124.73-2.55-56.41,51.84-72.26,79.59-20.51,123.62,35.97,30.6,162.41,70.12,202.18,29.97Z"/>
                <path class="cls-1" d="M2860.27,928.24c-10.07-5.13-18.43-10.39-24.28-15.37-21.41-18.21-31.52-34.01-31.82-49.7-.43-22.62,18.85-44.84,52.29-75.57,29.97-27.53,76.2-49.42,126.27,2.59,28.52,29.63,94.34,114.79,56.92,152.58h0c-33.76,34.08-128.43,11.43-179.4-14.54ZM2951.53,768.96c-37.15-18.93-70.36-1.06-93.57,20.27-32.98,30.31-52,52.12-51.58,73.91.29,15.01,10.15,30.29,31.04,48.06,35.02,29.79,161.01,70.09,200.68,30.03,36-36.35-30.73-122.27-56.94-149.5-10.07-10.46-19.98-17.86-29.62-22.77Z"/>
              </g>
              <g>
                <path class="cls-1" d="M2165.41,577.12c9.82,51.28,120.21,52.11,156.69,37.84,17.67-6.91,62.44-60.7,61.63-94.27-2.23-92.55-54.22-93.15-83.28-83.85-47.94,15.33-145.66,84.78-135.04,140.28Z"/>
                <path class="cls-1" d="M2191.84,609.51c-.79-.4-1.57-.82-2.34-1.24-14.28-7.88-22.75-18.3-25.17-30.95h0c-11.01-57.52,88.9-126.54,135.78-141.53,12.21-3.9,35.62-8.38,55.07,5.48,18.72,13.33,28.69,40.04,29.64,79.39.81,33.52-43.25,87.86-62.33,95.32-27.47,10.74-93.43,12.5-130.65-6.47ZM2166.49,576.91c2.29,11.98,10.39,21.88,24.08,29.43,36.21,20.03,103.46,18.41,131.13,7.59,18.16-7.1,61.7-61.17,60.93-93.22-.93-38.62-10.59-64.75-28.72-77.65-18.72-13.33-41.31-8.96-53.13-5.18-45.01,14.4-144.89,83.63-134.29,139.03Z"/>
              </g>
              <g>
                <ellipse class="cls-1" cx="2365.81" cy="326.28" rx="34.81" ry="41.35" transform="translate(-13.83 124.18) rotate(-3)"/>
                <path class="cls-1" d="M2352.08,365.23c-3.66-1.86-7.08-4.45-10.13-7.71-7.15-7.64-11.41-18.07-12.01-29.36-1.22-23.38,13.87-43.24,33.64-44.27,19.78-1.03,36.86,17.14,38.08,40.51h0c.59,11.29-2.56,22.11-8.87,30.45-6.36,8.41-15.15,13.31-24.77,13.82-5.54.29-10.97-.9-15.95-3.44ZM2378.52,289.3c-4.55-2.32-9.58-3.49-14.81-3.22-18.56.97-32.72,19.79-31.56,41.96.56,10.77,4.62,20.71,11.42,27.97,6.75,7.21,15.4,10.93,24.35,10.46,8.96-.47,17.17-5.07,23.13-12.95,6-7.94,9-18.24,8.43-29.01-.84-15.92-9.35-29.3-20.96-35.21Z"/>
              </g>
              <g>
                <ellipse class="cls-1" cx="2052.52" cy="430.34" rx="34.81" ry="41.35" transform="translate(-19.7 107.94) rotate(-3)"/>
                <path class="cls-1" d="M2038.8,469.29c-3.66-1.86-7.08-4.45-10.13-7.71-7.15-7.64-11.41-18.07-12.01-29.36-1.22-23.38,13.87-43.24,33.64-44.27,19.77-1.03,36.86,17.14,38.08,40.51h0c.59,11.29-2.56,22.11-8.87,30.45-6.36,8.41-15.15,13.31-24.77,13.82-5.54.29-10.97-.9-15.95-3.44ZM2065.23,393.36c-4.55-2.32-9.58-3.49-14.81-3.22-18.56.97-32.72,19.79-31.56,41.96.56,10.77,4.62,20.71,11.42,27.97,6.75,7.21,15.4,10.93,24.35,10.46,8.96-.47,17.17-5.07,23.13-12.95,6-7.94,9-18.24,8.43-29.01-.84-15.92-9.35-29.3-20.96-35.21Z"/>
              </g>
              <g>
                <ellipse class="cls-1" cx="2838.44" cy="354.69" rx="63.62" ry="65.79" transform="translate(1233.7 2722.67) rotate(-63)"/>
                <path class="cls-1" d="M2809.05,412.35c-32.87-16.75-46.42-56.24-30.22-88.04,16.2-31.8,56.12-44.04,88.99-27.29,32.86,16.75,46.42,56.24,30.22,88.04-16.2,31.8-56.12,44.04-88.98,27.29ZM2866.82,298.98c-31.78-16.2-70.38-4.38-86.03,26.33-15.65,30.72-2.53,68.88,29.26,85.08,31.78,16.2,70.37,4.38,86.03-26.33,15.65-30.72,2.53-68.88-29.25-85.08Z"/>
              </g>
              <g>
                <ellipse class="cls-1" cx="2731.05" cy="1015.08" rx="63.62" ry="65.79" transform="translate(586.67 2987.56) rotate(-63)"/>
                <path class="cls-1" d="M2701.67,1072.75c-32.86-16.75-46.42-56.24-30.22-88.04,16.2-31.8,56.12-44.04,88.98-27.29,32.87,16.75,46.42,56.24,30.22,88.04-16.2,31.8-56.12,44.04-88.99,27.29ZM2759.44,959.38c-31.78-16.2-70.37-4.38-86.03,26.33-15.65,30.72-2.53,68.88,29.26,85.08,31.78,16.2,70.38,4.38,86.03-26.33,15.65-30.72,2.53-68.88-29.26-85.08Z"/>
              </g>
              <g>
                <path class="cls-1" d="M2857.8,1494.21c-1.28-24.53-28.64-47.38-50.18-46.25-21.54,1.13-26.1,24.17-24.82,48.7,1.28,24.53,26.39,44.78,47.93,43.65,21.54-1.13,28.36-21.58,27.07-46.1Z"/>
                <path class="cls-1" d="M2809.47,1536.36c-14.45-7.36-26.84-22.05-27.76-39.65-1.68-32.09,7.02-48.87,25.86-49.86,10.65-.56,23.17,4.6,33.48,13.78,10.74,9.57,17.25,21.78,17.86,33.51,1.54,29.44-8.44,46.23-28.11,47.26-6.88.36-14.34-1.49-21.32-5.04ZM2827.3,1453.82c-6.64-3.38-13.47-5.09-19.62-4.77-17.38.91-25.38,16.91-23.78,47.54,1.31,24.9,26.66,43.67,46.77,42.62,24.63-1.29,26.88-28.71,26.03-44.95-.58-11.14-6.83-22.8-17.13-31.98-3.86-3.44-8.03-6.29-12.28-8.46Z"/>
              </g>
              <g>
                <ellipse class="cls-1" cx="2694.99" cy="531.2" rx="35.82" ry="33.65" transform="translate(-24.09 141.68) rotate(-3)"/>
                <path class="cls-1" d="M2677.31,561.81c-10.9-5.55-18.54-16.17-19.2-28.67-1-19.14,14.72-35.57,35.05-36.63,9.84-.52,19.28,2.6,26.58,8.78,7.32,6.19,11.62,14.71,12.11,23.99h0c.49,9.28-2.9,18.21-9.54,25.13-6.62,6.9-15.68,10.99-25.52,11.5-7.04.37-13.72-1.15-19.49-4.09ZM2711.67,502.53c-5.56-2.83-11.88-4.18-18.38-3.83-19.12,1-33.91,16.4-32.97,34.32.94,17.92,17.26,31.69,36.38,30.69,9.28-.49,17.81-4.33,24.04-10.83,6.21-6.48,9.38-14.82,8.93-23.49h0c-.45-8.67-4.48-16.64-11.33-22.43-2.05-1.74-4.29-3.22-6.66-4.42Z"/>
              </g>
              <g>
                <path class="cls-1" d="M2159.2,962.47c1.75-20.26-10.33-35.81-31.27-32.06-16.07,2.88-34.17,12.88-33.2,31.44s20.42,36.61,36.72,35.76c16.3-.85,26.15-16.63,27.75-35.15Z"/>
                <path class="cls-1" d="M2116.87,995.2c-3.59-1.83-7.1-4.32-10.29-7.39-7.76-7.43-12.48-16.87-12.95-25.89-1.01-19.35,17.74-29.65,34.1-32.58,9.42-1.69,17.58.3,23.57,5.78,6.7,6.11,9.97,16.12,8.99,27.46h0c-1.8,20.81-13.37,35.34-28.79,36.15-4.65.24-9.72-1.02-14.63-3.52ZM2145.09,933.46c-4.78-2.43-10.54-3.11-16.98-1.96-15.48,2.78-33.23,12.38-32.29,30.3.44,8.47,4.92,17.37,12.27,24.42,7.13,6.84,15.84,10.69,23.29,10.3,14.5-.76,24.99-14.16,26.72-34.14h0c.92-10.65-2.1-20-8.28-25.64-1.44-1.31-3.02-2.41-4.72-3.28Z"/>
              </g>
              <g>
                <path class="cls-1" d="M2686.82,1230.86c2.09-38.44-27.88-66.63-70.83-59.19-36.81,6.38-75.57,23.77-73.76,58.42,1.81,34.65,43.02,69,80.33,67.05,37.31-1.95,62.38-31.63,64.26-66.27Z"/>
                <path class="cls-1" d="M2585.88,1289.64c-24.09-12.27-43.51-35.87-44.75-59.5-2.18-41.7,51.49-55.54,74.67-59.56,21.05-3.65,40.13,1.01,53.72,13.08,12.9,11.47,19.43,28.25,18.4,47.25h0c-2.02,37.13-29.48,65.43-65.3,67.31-12.32.64-25.08-2.64-36.74-8.59ZM2657.12,1177.86c-11.62-5.92-25.74-7.74-40.94-5.1-22.6,3.91-74.94,17.33-72.85,57.27,1.78,34,42.48,67.93,79.18,66.01,34.68-1.82,61.26-29.25,63.22-65.23h0c1-18.32-5.28-34.47-17.66-45.49-3.32-2.95-6.99-5.45-10.94-7.46Z"/>
              </g>
              <g>
                <path class="cls-1" d="M3105.41,1094.26c-31.08-25.4-67.25-15.24-90.82,16.54-26.2,35.34-30.7,74.88,9.79,91.79,32.01,13.37,68.44,13.37,90.82-16.54,22.37-29.92,17.07-69.83-9.79-91.79Z"/>
                <path class="cls-1" d="M3019.01,1201.32c-12.74-6.49-20.83-15.75-24.09-27.6-4.95-17.98,1.73-40.55,18.8-63.57,13.14-17.72,30.11-28.7,47.78-30.9,15.5-1.93,30.92,2.97,44.61,14.16,27.75,22.69,32.14,63.67,9.98,93.3-28.48,38.08-73.91,24.5-92.12,16.9-1.72-.72-3.38-1.48-4.96-2.29ZM3092.57,1087.12c-9.88-5.03-20.34-6.99-30.81-5.69-17.07,2.12-33.51,12.79-46.29,30.02-16.42,22.14-23.14,44.62-18.44,61.68,3.48,12.63,12.84,22.2,27.77,28.44,17.74,7.41,61.96,20.65,89.51-16.19,21.46-28.68,17.24-68.34-9.61-90.28-3.92-3.2-7.98-5.87-12.14-7.99Z"/>
              </g>
              <g>
                <path class="cls-1" d="M2334.12,1486.74c-1.81-34.65-43.09-55.19-80.39-53.23-37.31,1.95-79.3,37.19-67.74,68.58,22.82,61.98,34.09,61.55,70.83,59.19,37.28-2.39,79.11-39.9,77.3-74.54Z"/>
                <path class="cls-1" d="M2219.72,1559.2c-12.25-6.24-21.8-21.54-34.76-56.73-4.01-10.9-2.06-22.84,5.66-34.54,12.75-19.34,39.27-34.28,63.06-35.52,19.08-1,38.82,3.76,54.13,13.05,16.82,10.2,26.55,24.84,27.41,41.22,1.79,34.23-38.47,73.14-78.33,75.7-16.1,1.03-27.48,1.76-37.18-3.18ZM2301.56,1444.49c-14.1-7.18-31.18-10.76-47.77-9.89-23.15,1.21-48.94,15.74-61.34,34.54-5.1,7.73-10.18,19.66-5.43,32.57,22.64,61.5,33.56,60.79,69.73,58.48,38.05-2.44,77.97-40.85,76.27-73.39h0c-.82-15.64-10.18-29.65-26.36-39.46-1.65-1-3.36-1.95-5.11-2.84Z"/>
              </g>
              <g>
                <path class="cls-1" d="M2348.46,722.91c-66.96,20.97-102.86-34.16-127.04-18.21-54.6,36.01-17.92,115.39,60.05,159.7,65.1,36.99,121.7,18.82,140.2-20.25,18.5-39.07-1.76-143.62-73.21-121.24Z"/>
                <path class="cls-1" d="M2428.61,821.22c-.92,8.95-2.92,17.02-5.94,23.4-8.25,17.43-23.8,30.51-43.78,36.82-28.88,9.12-63.67,3.41-97.96-16.08-50.53-28.72-85.33-73.61-86.6-111.72-.68-20.74,8.47-37.97,26.49-49.85,10.65-7.02,23.19-1.06,39.06,6.48,22.17,10.54,49.76,23.66,88.26,11.6,22.96-7.19,42.94-1.97,57.8,15.1,18.31,21.05,25.51,56.81,22.68,84.25ZM2196.8,745.44c-.27,2.64-.36,5.34-.27,8.11,1.24,37.37,35.6,81.53,85.49,109.88,33.75,19.18,67.92,24.83,96.21,15.89,19.39-6.12,34.47-18.79,42.45-35.66,12-25.35,7.36-77.95-16.41-105.27-14.24-16.36-33.42-21.36-55.48-14.45-39.32,12.32-68.53-1.57-89.86-11.71-15.25-7.25-27.29-12.97-36.9-6.64-14.93,9.85-23.54,23.51-25.23,39.83Z"/>
              </g>
              <g>
                <path class="cls-1" d="M2671.71,840.27c53-41.8,103.12-137.15,75.26-170.2-26.14-31.01-118.38,9.31-172.2,47.29-55.15,38.92-89.6,66.35-62.83,100.29,26.77,33.94,106.77,64.43,159.78,22.63Z"/>
                <path class="cls-1" d="M2643.3,856.68c-51.04,16.6-110.78-11.17-132.23-38.36-7.56-9.58-10.56-18.9-9.17-28.47,3.37-23.2,32.06-45.06,72.23-73.4,56.09-39.58,147.66-77.97,173.68-47.1,6.7,7.95,9.33,19.55,7.81,34.5-4.29,42.21-42.4,105.08-83.23,137.28-9.1,7.18-18.92,12.25-29.09,15.55ZM2672.83,668.41c-32.8,10.67-69.52,30.15-97.43,49.84-39.71,28.02-68.07,49.59-71.32,71.92-1.3,8.94,1.55,17.71,8.72,26.79,25.24,32,104.48,64.84,158.23,22.44,40.43-31.89,78.16-94.06,82.4-135.78,1.46-14.33-1-25.38-7.3-32.86-12.49-14.82-40.99-12.87-73.3-2.36Z"/>
              </g>
              <g>
                <ellipse class="cls-1" cx="2423.88" cy="983.11" rx="47.88" ry="42.05" transform="translate(794.45 3029.24) rotate(-73.55)"/>
                <path class="cls-1" d="M2403.4,1027.46c-8.03-4.09-14.51-10.95-18.63-19.83-5.17-11.17-5.98-24.21-2.28-36.73,3.7-12.52,11.46-23.03,21.87-29.6,10.45-6.59,22.31-8.42,33.39-5.15,22.83,6.74,35.16,33.3,27.51,59.2h0c-7.65,25.9-32.44,41.49-55.26,34.75-2.3-.68-4.51-1.56-6.61-2.63ZM2443.29,940.71c-1.95-.99-4.01-1.82-6.17-2.46-10.47-3.09-21.69-1.35-31.59,4.9-9.95,6.28-17.39,16.35-20.93,28.36-3.55,12.01-2.78,24.5,2.17,35.18,4.92,10.63,13.4,18.19,23.86,21.28,21.66,6.4,45.22-8.53,52.53-33.26h0c6.58-22.27-2.23-45.03-19.86-54.01Z"/>
              </g>
              <g>
                <path class="cls-1" d="M2573.32,266.99c4.86-16.45-2.92-33.24-17.36-37.5-14.45-4.27-40.9,1.82-39.5,18.91,1,12.24,20.81,31.38,28.41,40.56,9.6,11.61,23.59-5.52,28.45-21.97Z"/>
                <path class="cls-1" d="M2547.88,292.86c-1.38-.7-2.68-1.77-3.86-3.2-1.55-1.87-3.58-4.13-5.93-6.75-9.24-10.27-21.89-24.33-22.72-34.43-.44-5.43,1.76-10.29,6.37-14.04,9.03-7.35,24.96-8.84,34.53-6.02,7.29,2.15,13.19,7.4,16.61,14.78,3.39,7.33,3.92,15.88,1.5,24.09h0c-3.38,11.45-11.69,24.57-20.43,26.36-2.14.44-4.18.16-6.07-.8ZM2559.62,232.12c-1.26-.64-2.59-1.17-3.97-1.58-9.04-2.67-24.05-1.28-32.52,5.61-4.08,3.32-5.96,7.41-5.57,12.16.77,9.35,13.64,23.66,22.17,33.14,2.37,2.63,4.42,4.91,5.99,6.81,2.27,2.75,4.89,3.84,7.79,3.25,7.61-1.56,15.52-13.85,18.76-24.83h0c2.27-7.7,1.78-15.71-1.38-22.55-2.49-5.39-6.41-9.54-11.26-12.01Z"/>
              </g>
              <g>
                <path class="cls-1" d="M2538.47,478.62c11.06-47.11,11.38-95.29-19.39-104.38-30.77-9.09-70.38,34.88-90.63,78.94-20.21,43.97-12.08,70.47,13.17,90.27,29.48,23.13,81.34,1.28,96.85-64.83Z"/>
                <path class="cls-1" d="M2447.9,548.76c-2.44-1.24-4.77-2.73-6.97-4.45-28.26-22.16-32.41-50.41-13.49-91.6,21.22-46.18,61.41-88.55,91.94-79.54,37.94,11.21,26.73,77.64,20.15,105.69h0c-8.4,35.8-28.76,62.55-54.45,71.57-13.06,4.58-26.21,3.92-37.19-1.67ZM2523.97,377.36c-1.62-.82-3.35-1.52-5.21-2.06-29.38-8.68-68.49,33.02-89.32,78.35-18.43,40.09-14.47,67.52,12.85,88.95,11.5,9.02,26.83,11.13,42.06,5.78,24.98-8.77,44.81-34.94,53.04-70h0c6.11-26.02,16.38-85.82-13.43-101.01Z"/>
              </g>
              <g>
                <ellipse class="cls-1" cx="2631.88" cy="1652.75" rx="50.25" ry="44.14" transform="translate(301.32 3708.69) rotate(-73.55)"/>
                <path class="cls-1" d="M2610.41,1699.24c-8.41-4.29-15.21-11.47-19.52-20.79-5.42-11.71-6.27-25.38-2.39-38.51,8.02-27.15,34.01-43.5,57.93-36.43,23.92,7.06,36.86,34.91,28.84,62.06h0c-8.02,27.15-34.01,43.5-57.93,36.43-2.41-.71-4.73-1.64-6.93-2.76ZM2652.29,1608.2c-2.05-1.05-4.21-1.91-6.48-2.58-22.76-6.72-47.52,8.95-55.2,34.95-3.73,12.62-2.92,25.74,2.28,36.96,5.17,11.17,14.08,19.12,25.08,22.36,22.76,6.72,47.52-8.95,55.2-34.95,6.91-23.4-2.35-47.31-20.87-56.75Z"/>
              </g>
              <g>
                <path class="cls-1" d="M2107.33,749.49c17.02-13.23,1.63-47.06-22.99-55.33-20.49-6.88-40.12,3.74-44.26,27.93-3.67,21.4,3.27,43.79,21.98,47.49,22.19,4.39,29.43-7.78,45.26-20.09Z"/>
                <path class="cls-1" d="M2055.09,768.34c-14.54-7.41-19.27-27.81-16.08-46.43,2.03-11.85,7.94-21.24,16.63-26.44,8.36-5,18.69-5.83,29.07-2.35,15.01,5.04,27.85,19.93,30.48,35.4,1.58,9.26-.97,17.01-7.17,21.83h0c-3.13,2.43-5.9,4.84-8.57,7.16-10.77,9.37-19.28,16.76-37.58,13.14-2.46-.49-4.72-1.28-6.77-2.32ZM2088.96,697.3c-1.62-.83-3.28-1.53-4.96-2.1-9.76-3.28-19.44-2.51-27.24,2.15-8.13,4.86-13.67,13.71-15.59,24.92-3.46,20.21,2.67,42.57,21.12,46.23,17.25,3.41,24.99-3.32,35.71-12.64,2.7-2.35,5.49-4.77,8.66-7.24,5.53-4.3,7.78-11.3,6.35-19.73-2.17-12.75-12.1-25.5-24.05-31.59Z"/>
              </g>
              <g>
                <path class="cls-1" d="M2434.95,1690.53c5.74-19.44-1.68-47.79-24.56-54.55-22.89-6.76-38.64-1.39-44.38,18.04-5.74,19.44.71,45.58,23.59,52.34,22.89,6.76,39.61,3.61,45.35-15.83Z"/>
                <path class="cls-1" d="M2383.29,1705.03c-18.13-9.24-23.84-32.67-18.33-51.32,2.91-9.87,8.44-16.45,16.41-19.56,7.65-2.98,17.51-2.72,29.33.77,22.68,6.7,31.53,34.84,25.3,55.92-2.86,9.69-8.57,15.91-16.98,18.48-7.59,2.32-17.6,1.68-29.74-1.9-2.13-.63-4.13-1.43-6-2.38ZM2415.45,1639.18c-1.69-.86-3.48-1.58-5.37-2.14-11.34-3.35-20.73-3.63-27.91-.83-7.31,2.85-12.39,8.95-15.1,18.13-5.78,19.56,1.32,44.63,22.85,50.97,11.72,3.46,21.3,4.1,28.47,1.91,7.76-2.37,12.84-7.93,15.51-17,5.4-18.3-1.03-42.17-18.44-51.05Z"/>
              </g>
            </g>
            <g>
              <g>
                <ellipse class="cls-1" cx="1841.45" cy="519.59" rx="70.91" ry="90.11" transform="translate(-42.78 852.18) rotate(-25.77)"/>
                <path class="cls-1" d="M1783.03,451.84c5.26-6.04,11.57-10.9,18.77-14.38,35.76-17.26,82.63,5.54,104.5,50.83,10.57,21.9,13.79,45.73,9.08,67.12-4.74,21.49-16.91,37.93-34.28,46.32-35.76,17.26-82.63-5.54-104.5-50.83-10.57-21.9-13.79-45.73-9.08-67.12,2.77-12.57,8.09-23.42,15.51-31.94ZM1898.21,585.91c7.18-8.25,12.33-18.76,15.02-30.97,4.61-20.91,1.45-44.24-8.91-65.69-21.33-44.2-66.89-66.54-101.56-49.81-16.75,8.08-28.49,24-33.08,44.81-4.61,20.91-1.45,44.24,8.91,65.69,21.33,44.2,66.89,66.54,101.56,49.81,6.93-3.34,13-8.03,18.06-13.84Z"/>
              </g>
              <g>
                <ellipse class="cls-1" cx="1426.96" cy="1394.82" rx="56.65" ry="71.99" transform="translate(-71 76.54) rotate(-3)"/>
                <path class="cls-1" d="M1406.68,1462.32c-20.46-10.42-35.63-35.08-37.17-64.49-1.02-19.4,3.98-37.96,14.06-52.25,10.13-14.36,24.19-22.72,39.57-23.52,15.39-.8,30.24,6.04,41.81,19.26,11.53,13.17,18.43,31.1,19.45,50.5,2.1,40.12-21.96,74.12-53.64,75.78-8.46.44-16.63-1.47-24.09-5.27ZM1446.52,1328.88c-7.34-3.74-15.24-5.49-23.28-5.07-14.84.78-28.41,8.87-38.23,22.78-9.86,13.98-14.74,32.14-13.75,51.15,2.05,39.15,28.71,69.7,59.41,68.09,30.71-1.61,54.03-34.77,51.98-73.93h0c-.99-19.01-7.75-36.56-19.02-49.43-5.13-5.86-10.92-10.43-17.12-13.59Z"/>
              </g>
              <g>
                <ellipse class="cls-1" cx="1993" cy="1419.01" rx="71.99" ry="56.65" transform="translate(-176.19 2550.5) rotate(-63)"/>
                <path class="cls-1" d="M1959.92,1483.93c-28.26-14.4-36.42-55.24-18.17-91.04,18.24-35.8,56.08-53.21,84.34-38.8,28.26,14.4,36.42,55.24,18.18,91.04-18.24,35.8-56.08,53.21-84.34,38.8ZM2025.29,1355.65c-27.4-13.96-64.17,3.1-81.98,38.04-17.8,34.94-9.99,74.72,17.41,88.68,27.4,13.96,64.18-3.1,81.98-38.04,17.8-34.93,9.99-74.72-17.41-88.68Z"/>
              </g>
              <g>
                <path class="cls-1" d="M1086.31,1146.26c2.73,52.14,47.91,101.44,87.02,99.39,39.11-2.05,79.66-60.53,76.93-112.68-2.73-52.14-46.64-90.17-85.74-88.13-39.11,2.05-80.93,49.27-78.2,101.41Z"/>
                <path class="cls-1" d="M1143.69,1239.77c-30.34-15.46-56.41-54.11-58.47-93.45-2.85-54.37,41.02-100.56,79.24-102.57,19.67-1.03,40.57,7.74,57.34,24.05,17.77,17.29,28.27,40.42,29.56,65.11,2.73,52.17-38.07,111.74-77.97,113.83-9.9.52-20.02-2.05-29.7-6.99ZM1198.65,1053.75c-11.07-5.64-22.79-8.39-34.08-7.8-37.23,1.95-79.95,47.1-77.16,100.25,2.61,49.85,46.74,100.4,85.86,98.35,38.85-2.04,78.57-60.4,75.89-111.52-1.27-24.15-11.53-46.75-28.9-63.65-6.66-6.48-13.98-11.74-21.61-15.63Z"/>
              </g>
              <g>
                <path class="cls-1" d="M1773.21,1144.66c-42.73,18.02-70.27,70.63-56.75,102.67,13.51,32.05,74.6,48.26,117.33,30.25,42.73-18.02,61.24-66.16,47.73-98.21-13.51-32.05-65.57-52.73-108.3-34.71Z"/>
                <path class="cls-1" d="M1743.31,1274.46c-13.43-6.85-23.32-16.21-27.76-26.75-6.63-15.72-3.96-36.65,7.33-57.44,11.38-20.97,29.59-37.93,49.95-46.51h0c20.03-8.44,44.01-8.97,65.8-1.44,20.76,7.17,37.12,20.88,43.78,36.67,13.38,31.72-4.42,81-48.25,99.49-20.49,8.64-46.09,9.99-70.25,3.69-7.49-1.95-14.42-4.57-20.6-7.72ZM1849.53,1149.06c-3.65-1.86-7.5-3.5-11.54-4.89-21.34-7.37-44.82-6.87-64.41,1.39h0c-19.95,8.41-37.81,25.05-48.99,45.64-10.84,19.97-13.55,40.81-7.25,55.75,6.25,14.82,23.84,27.29,47.06,33.33,23.4,6.09,49.19,4.75,68.99-3.6,42.8-18.05,60.23-66.06,47.21-96.93-5.16-12.25-16.41-23.22-31.08-30.69Z"/>
              </g>
              <g>
                <path class="cls-1" d="M1965.89,887.75c36.74-37.1-29.77-122.83-56.93-151.04-44.78-46.51-89.28-35.12-124.73-2.55-56.41,51.84-72.26,79.59-20.51,123.62,35.97,30.6,162.41,70.12,202.18,29.97Z"/>
                <path class="cls-1" d="M1787.28,873.98c-10.07-5.13-18.43-10.39-24.28-15.37-21.41-18.21-31.52-34.01-31.82-49.7-.43-22.62,18.85-44.84,52.29-75.57,29.97-27.53,76.2-49.42,126.27,2.59,28.52,29.63,94.34,114.79,56.92,152.58h0c-33.76,34.08-128.43,11.43-179.4-14.54ZM1878.54,714.7c-37.15-18.93-70.36-1.06-93.57,20.27-32.98,30.31-52,52.12-51.58,73.91.29,15.01,10.15,30.29,31.04,48.06,35.02,29.79,161.01,70.09,200.68,30.03,36-36.35-30.73-122.27-56.94-149.5-10.07-10.46-19.98-17.86-29.62-22.77Z"/>
              </g>
              <g>
                <path class="cls-1" d="M1092.42,522.86c9.82,51.28,120.21,52.11,156.69,37.84,17.67-6.91,62.44-60.7,61.63-94.27-2.23-92.55-54.22-93.15-83.28-83.85-47.94,15.33-145.66,84.78-135.04,140.28Z"/>
                <path class="cls-1" d="M1118.85,555.25c-.79-.4-1.57-.82-2.34-1.24-14.28-7.88-22.75-18.3-25.17-30.95h0c-11.01-57.52,88.9-126.54,135.78-141.53,12.21-3.9,35.62-8.38,55.07,5.48,18.72,13.33,28.69,40.04,29.64,79.39.81,33.52-43.25,87.86-62.33,95.32-27.47,10.74-93.43,12.5-130.65-6.47ZM1093.5,522.65c2.29,11.98,10.39,21.88,24.08,29.43,36.21,20.03,103.46,18.41,131.13,7.59,18.16-7.1,61.7-61.17,60.93-93.22-.93-38.62-10.59-64.75-28.72-77.65-18.72-13.33-41.31-8.96-53.13-5.18-45.01,14.4-144.89,83.63-134.29,139.03Z"/>
              </g>
              <g>
                <ellipse class="cls-1" cx="1292.82" cy="272.02" rx="34.81" ry="41.35" transform="translate(-12.46 67.99) rotate(-3)"/>
                <path class="cls-1" d="M1279.09,310.97c-3.66-1.86-7.08-4.45-10.13-7.71-7.15-7.64-11.41-18.07-12.01-29.36-1.22-23.38,13.87-43.24,33.64-44.27,19.78-1.03,36.86,17.14,38.08,40.51h0c.59,11.29-2.56,22.11-8.87,30.45-6.36,8.41-15.15,13.31-24.77,13.82-5.54.29-10.97-.9-15.95-3.44ZM1305.53,235.04c-4.55-2.32-9.58-3.49-14.81-3.22-18.56.97-32.72,19.79-31.56,41.96.56,10.77,4.62,20.71,11.42,27.97,6.75,7.21,15.4,10.93,24.35,10.46,8.96-.47,17.17-5.07,23.13-12.95,6-7.94,9-18.24,8.43-29.01-.84-15.92-9.35-29.3-20.96-35.21Z"/>
              </g>
              <g>
                <ellipse class="cls-1" cx="979.54" cy="376.08" rx="34.81" ry="41.35" transform="translate(-18.33 51.75) rotate(-3)"/>
                <path class="cls-1" d="M965.81,415.04c-3.66-1.86-7.08-4.45-10.13-7.71-7.15-7.64-11.41-18.07-12.01-29.36-1.22-23.38,13.87-43.24,33.64-44.27,19.77-1.03,36.86,17.14,38.08,40.51h0c.59,11.29-2.56,22.11-8.87,30.45-6.36,8.41-15.15,13.31-24.77,13.82-5.54.29-10.97-.9-15.95-3.44ZM992.25,339.11c-4.55-2.32-9.58-3.49-14.81-3.22-18.56.97-32.72,19.79-31.56,41.96.56,10.77,4.62,20.71,11.42,27.97,6.75,7.21,15.4,10.93,24.35,10.46,8.96-.47,17.17-5.07,23.13-12.95,6-7.94,9-18.24,8.43-29.01-.84-15.92-9.35-29.3-20.96-35.21Z"/>
              </g>
              <g>
                <ellipse class="cls-1" cx="1765.45" cy="300.43" rx="63.62" ry="65.79" transform="translate(696.22 1737.03) rotate(-63)"/>
                <path class="cls-1" d="M1736.07,358.1c-32.87-16.75-46.42-56.24-30.22-88.04,16.2-31.8,56.12-44.04,88.99-27.29,32.86,16.75,46.42,56.24,30.22,88.04-16.2,31.8-56.12,44.04-88.98,27.29ZM1793.84,244.73c-31.78-16.2-70.38-4.38-86.03,26.33-15.65,30.72-2.53,68.88,29.26,85.08,31.78,16.2,70.37,4.38,86.03-26.33,15.65-30.72,2.53-68.88-29.25-85.08Z"/>
              </g>
              <g>
                <ellipse class="cls-1" cx="1658.07" cy="960.83" rx="63.62" ry="65.79" transform="translate(49.18 2001.92) rotate(-63)"/>
                <path class="cls-1" d="M1628.68,1018.49c-32.86-16.75-46.42-56.24-30.22-88.04,16.2-31.8,56.12-44.04,88.98-27.29,32.87,16.75,46.42,56.24,30.22,88.04-16.2,31.8-56.12,44.04-88.99,27.29ZM1686.45,905.12c-31.78-16.2-70.37-4.38-86.03,26.33-15.65,30.72-2.53,68.88,29.26,85.08,31.78,16.2,70.38,4.38,86.03-26.33,15.65-30.72,2.53-68.88-29.26-85.08Z"/>
              </g>
              <g>
                <path class="cls-1" d="M1784.82,1439.95c-1.28-24.53-28.64-47.38-50.18-46.25-21.54,1.13-26.1,24.17-24.82,48.7,1.28,24.53,26.39,44.78,47.93,43.65,21.54-1.13,28.36-21.58,27.07-46.1Z"/>
                <path class="cls-1" d="M1736.48,1482.11c-14.45-7.36-26.84-22.05-27.76-39.65-1.68-32.09,7.02-48.87,25.86-49.86,10.65-.56,23.17,4.6,33.48,13.78,10.74,9.57,17.25,21.78,17.86,33.51,1.54,29.44-8.44,46.23-28.11,47.26-6.88.36-14.34-1.49-21.32-5.04ZM1754.31,1399.57c-6.64-3.38-13.47-5.09-19.62-4.77-17.38.91-25.38,16.91-23.78,47.54,1.31,24.9,26.66,43.67,46.77,42.62,24.63-1.29,26.88-28.71,26.03-44.95-.58-11.14-6.83-22.8-17.13-31.98-3.86-3.44-8.03-6.29-12.28-8.46Z"/>
              </g>
              <g>
                <ellipse class="cls-1" cx="1622" cy="476.95" rx="35.82" ry="33.65" transform="translate(-22.73 85.49) rotate(-3)"/>
                <path class="cls-1" d="M1604.33,507.55c-10.9-5.55-18.54-16.17-19.2-28.67-1-19.14,14.72-35.57,35.05-36.63,9.84-.52,19.28,2.6,26.58,8.78,7.32,6.19,11.62,14.71,12.11,23.99h0c.49,9.28-2.9,18.21-9.54,25.13-6.62,6.9-15.68,10.99-25.52,11.5-7.04.37-13.72-1.15-19.49-4.09ZM1638.69,448.28c-5.56-2.83-11.88-4.18-18.38-3.83-19.12,1-33.91,16.4-32.97,34.32.94,17.92,17.26,31.69,36.38,30.69,9.28-.49,17.81-4.33,24.04-10.83,6.21-6.48,9.38-14.82,8.93-23.49h0c-.45-8.67-4.48-16.64-11.33-22.43-2.05-1.74-4.29-3.22-6.66-4.42Z"/>
              </g>
              <g>
                <path class="cls-1" d="M1086.21,908.22c1.75-20.26-10.33-35.81-31.27-32.06-16.07,2.88-34.17,12.88-33.2,31.44s20.42,36.61,36.72,35.76c16.3-.85,26.15-16.63,27.75-35.15Z"/>
                <path class="cls-1" d="M1043.88,940.94c-3.59-1.83-7.1-4.32-10.29-7.39-7.76-7.43-12.48-16.87-12.95-25.89-1.01-19.35,17.74-29.65,34.1-32.58,9.42-1.69,17.58.3,23.57,5.78,6.7,6.11,9.97,16.12,8.99,27.46h0c-1.8,20.81-13.37,35.34-28.79,36.15-4.65.24-9.72-1.02-14.63-3.52ZM1072.11,879.2c-4.78-2.43-10.54-3.11-16.98-1.96-15.48,2.78-33.23,12.38-32.29,30.3.44,8.47,4.92,17.37,12.27,24.42,7.13,6.84,15.84,10.69,23.29,10.3,14.5-.76,24.99-14.16,26.72-34.14h0c.92-10.65-2.1-20-8.28-25.64-1.44-1.31-3.02-2.41-4.72-3.28Z"/>
              </g>
              <g>
                <path class="cls-1" d="M1613.84,1176.61c2.09-38.44-27.88-66.63-70.83-59.19-36.81,6.38-75.57,23.77-73.76,58.42,1.81,34.65,43.02,69,80.33,67.05,37.31-1.95,62.38-31.63,64.26-66.27Z"/>
                <path class="cls-1" d="M1512.89,1235.39c-24.09-12.27-43.51-35.87-44.75-59.5-2.18-41.7,51.49-55.54,74.67-59.56,21.05-3.65,40.13,1.01,53.72,13.08,12.9,11.47,19.43,28.25,18.4,47.25h0c-2.02,37.13-29.48,65.43-65.3,67.31-12.32.64-25.08-2.64-36.74-8.59ZM1584.13,1123.6c-11.62-5.92-25.74-7.74-40.94-5.1-22.6,3.91-74.94,17.33-72.85,57.27,1.78,34,42.48,67.93,79.18,66.01,34.68-1.82,61.26-29.25,63.22-65.23h0c1-18.32-5.28-34.47-17.66-45.49-3.32-2.95-6.99-5.45-10.94-7.46Z"/>
              </g>
              <g>
                <path class="cls-1" d="M2032.42,1040c-31.08-25.4-67.25-15.24-90.82,16.54-26.2,35.34-30.7,74.88,9.79,91.79,32.01,13.37,68.44,13.37,90.82-16.54,22.37-29.92,17.07-69.83-9.79-91.79Z"/>
                <path class="cls-1" d="M1946.02,1147.06c-12.74-6.49-20.83-15.75-24.09-27.6-4.95-17.98,1.73-40.55,18.8-63.57,13.14-17.72,30.11-28.7,47.78-30.9,15.5-1.93,30.92,2.97,44.61,14.16,27.75,22.69,32.14,63.67,9.98,93.3-28.48,38.08-73.91,24.5-92.12,16.9-1.72-.72-3.38-1.48-4.96-2.29ZM2019.59,1032.86c-9.88-5.03-20.34-6.99-30.81-5.69-17.07,2.12-33.51,12.79-46.29,30.02-16.42,22.14-23.14,44.62-18.44,61.68,3.48,12.63,12.84,22.2,27.77,28.44,17.74,7.41,61.96,20.65,89.51-16.19,21.46-28.68,17.24-68.34-9.61-90.28-3.92-3.2-7.98-5.87-12.14-7.99Z"/>
              </g>
              <g>
                <path class="cls-1" d="M1261.14,1432.48c-1.81-34.65-43.09-55.19-80.39-53.23-37.31,1.95-79.3,37.19-67.74,68.58,22.82,61.98,34.09,61.55,70.83,59.19,37.28-2.39,79.11-39.9,77.3-74.54Z"/>
                <path class="cls-1" d="M1146.73,1504.94c-12.25-6.24-21.8-21.54-34.76-56.73-4.01-10.9-2.06-22.84,5.66-34.54,12.75-19.34,39.27-34.28,63.06-35.52,19.08-1,38.82,3.76,54.13,13.05,16.82,10.2,26.55,24.84,27.41,41.22,1.79,34.23-38.47,73.14-78.33,75.7-16.1,1.03-27.48,1.76-37.18-3.18ZM1228.57,1390.23c-14.1-7.18-31.18-10.76-47.77-9.89-23.15,1.21-48.94,15.74-61.34,34.54-5.1,7.73-10.18,19.66-5.43,32.57,22.64,61.5,33.56,60.79,69.73,58.48,38.05-2.44,77.97-40.85,76.27-73.39h0c-.82-15.64-10.18-29.65-26.36-39.46-1.65-1-3.36-1.95-5.11-2.84Z"/>
              </g>
              <g>
                <path class="cls-1" d="M1275.48,668.65c-66.96,20.97-102.86-34.16-127.04-18.21-54.6,36.01-17.92,115.39,60.05,159.7,65.1,36.99,121.7,18.82,140.2-20.25,18.5-39.07-1.76-143.62-73.21-121.24Z"/>
                <path class="cls-1" d="M1355.62,766.96c-.92,8.95-2.92,17.02-5.94,23.4-8.25,17.43-23.8,30.51-43.78,36.82-28.88,9.12-63.67,3.41-97.96-16.08-50.53-28.72-85.33-73.61-86.6-111.72-.68-20.74,8.47-37.97,26.49-49.85,10.65-7.02,23.19-1.06,39.06,6.48,22.17,10.54,49.76,23.66,88.26,11.6,22.96-7.19,42.94-1.97,57.8,15.1,18.31,21.05,25.51,56.81,22.68,84.25ZM1123.82,691.19c-.27,2.64-.36,5.34-.27,8.11,1.24,37.37,35.6,81.53,85.49,109.88,33.75,19.18,67.92,24.83,96.21,15.89,19.39-6.12,34.47-18.79,42.45-35.66,12-25.35,7.36-77.95-16.41-105.27-14.24-16.36-33.42-21.36-55.48-14.45-39.32,12.32-68.53-1.57-89.86-11.71-15.25-7.25-27.29-12.97-36.9-6.64-14.93,9.85-23.54,23.51-25.23,39.83Z"/>
              </g>
              <g>
                <path class="cls-1" d="M1598.72,786.01c53-41.8,103.12-137.15,75.26-170.2-26.14-31.01-118.38,9.31-172.2,47.29-55.15,38.92-89.6,66.35-62.83,100.29,26.77,33.94,106.77,64.43,159.78,22.63Z"/>
                <path class="cls-1" d="M1570.31,802.42c-51.04,16.6-110.78-11.17-132.23-38.36-7.56-9.58-10.56-18.9-9.17-28.47,3.37-23.2,32.06-45.06,72.23-73.4,56.09-39.58,147.66-77.97,173.68-47.1,6.7,7.95,9.33,19.55,7.81,34.5-4.29,42.21-42.4,105.08-83.23,137.28-9.1,7.18-18.92,12.25-29.09,15.55ZM1599.84,614.15c-32.8,10.67-69.52,30.15-97.43,49.84-39.71,28.02-68.07,49.59-71.32,71.92-1.3,8.94,1.55,17.71,8.72,26.79,25.24,32,104.48,64.84,158.23,22.44,40.43-31.89,78.16-94.06,82.4-135.78,1.46-14.33-1-25.38-7.3-32.86-12.49-14.82-40.99-12.87-73.3-2.36Z"/>
              </g>
              <g>
                <ellipse class="cls-1" cx="1350.89" cy="928.86" rx="47.88" ry="42.05" transform="translate(77.43 1961.31) rotate(-73.55)"/>
                <path class="cls-1" d="M1330.41,973.2c-8.03-4.09-14.51-10.95-18.63-19.83-5.17-11.17-5.98-24.21-2.28-36.73,3.7-12.52,11.46-23.03,21.87-29.6,10.45-6.59,22.31-8.42,33.39-5.15,22.83,6.74,35.16,33.3,27.51,59.2h0c-7.65,25.9-32.44,41.49-55.26,34.75-2.3-.68-4.51-1.56-6.61-2.63ZM1370.31,886.45c-1.95-.99-4.01-1.82-6.17-2.46-10.47-3.09-21.69-1.35-31.59,4.9-9.95,6.28-17.39,16.35-20.93,28.36-3.55,12.01-2.78,24.5,2.17,35.18,4.92,10.63,13.4,18.19,23.86,21.28,21.66,6.4,45.22-8.53,52.53-33.26h0c6.58-22.27-2.23-45.03-19.86-54.01Z"/>
              </g>
              <g>
                <path class="cls-1" d="M1500.34,212.73c4.86-16.45-2.92-33.24-17.36-37.5-14.45-4.27-40.9,1.82-39.5,18.91,1,12.24,20.81,31.38,28.41,40.56,9.6,11.61,23.59-5.52,28.45-21.97Z"/>
                <path class="cls-1" d="M1474.9,238.61c-1.38-.7-2.68-1.77-3.86-3.2-1.55-1.87-3.58-4.13-5.93-6.75-9.24-10.27-21.89-24.33-22.72-34.43-.44-5.43,1.76-10.29,6.37-14.04,9.03-7.35,24.96-8.84,34.53-6.02,7.29,2.15,13.19,7.4,16.61,14.78,3.39,7.33,3.92,15.88,1.5,24.09h0c-3.38,11.45-11.69,24.57-20.43,26.36-2.14.44-4.18.16-6.07-.8ZM1486.64,177.86c-1.26-.64-2.59-1.17-3.97-1.58-9.04-2.67-24.05-1.28-32.52,5.61-4.08,3.32-5.96,7.41-5.57,12.16.77,9.35,13.64,23.66,22.17,33.14,2.37,2.63,4.42,4.91,5.99,6.81,2.27,2.75,4.89,3.84,7.79,3.25,7.61-1.56,15.52-13.85,18.76-24.83h0c2.27-7.7,1.78-15.71-1.38-22.55-2.49-5.39-6.41-9.54-11.26-12.01Z"/>
              </g>
              <g>
                <path class="cls-1" d="M1465.48,424.36c11.06-47.11,11.38-95.29-19.39-104.38-30.77-9.09-70.38,34.88-90.63,78.94-20.21,43.97-12.08,70.47,13.17,90.27,29.48,23.13,81.34,1.28,96.85-64.83Z"/>
                <path class="cls-1" d="M1374.92,494.51c-2.44-1.24-4.77-2.73-6.97-4.45-28.26-22.16-32.41-50.41-13.49-91.6,21.22-46.18,61.41-88.55,91.94-79.54,37.94,11.21,26.73,77.64,20.15,105.69h0c-8.4,35.8-28.76,62.55-54.45,71.57-13.06,4.58-26.21,3.92-37.19-1.67ZM1450.99,323.1c-1.62-.82-3.35-1.52-5.21-2.06-29.38-8.68-68.49,33.02-89.32,78.35-18.43,40.09-14.47,67.52,12.85,88.95,11.5,9.02,26.83,11.13,42.06,5.78,24.98-8.77,44.81-34.94,53.04-70h0c6.11-26.02,16.38-85.82-13.43-101.01Z"/>
              </g>
              <g>
                <ellipse class="cls-1" cx="1558.89" cy="1598.5" rx="50.25" ry="44.14" transform="translate(-415.7 2640.76) rotate(-73.55)"/>
                <path class="cls-1" d="M1537.42,1644.99c-8.41-4.29-15.21-11.47-19.52-20.79-5.42-11.71-6.27-25.38-2.39-38.51,8.02-27.15,34.01-43.5,57.93-36.43,23.92,7.06,36.86,34.91,28.84,62.06h0c-8.02,27.15-34.01,43.5-57.93,36.43-2.41-.71-4.73-1.64-6.93-2.76ZM1579.3,1553.94c-2.05-1.05-4.21-1.91-6.48-2.58-22.76-6.72-47.52,8.95-55.2,34.95-3.73,12.62-2.92,25.74,2.28,36.96,5.17,11.17,14.08,19.12,25.08,22.36,22.76,6.72,47.52-8.95,55.2-34.95,6.91-23.4-2.35-47.31-20.87-56.75Z"/>
              </g>
              <g>
                <path class="cls-1" d="M1034.35,695.23c17.02-13.23,1.63-47.06-22.99-55.33-20.49-6.88-40.12,3.74-44.26,27.93-3.67,21.4,3.27,43.79,21.98,47.49,22.19,4.39,29.43-7.78,45.26-20.09Z"/>
                <path class="cls-1" d="M982.1,714.08c-14.54-7.41-19.27-27.81-16.08-46.43,2.03-11.85,7.94-21.24,16.63-26.44,8.36-5,18.69-5.83,29.07-2.35,15.01,5.04,27.85,19.93,30.48,35.4,1.58,9.26-.97,17.01-7.17,21.83h0c-3.13,2.43-5.9,4.84-8.57,7.16-10.77,9.37-19.28,16.76-37.58,13.14-2.46-.49-4.72-1.28-6.77-2.32ZM1015.98,643.05c-1.62-.83-3.28-1.53-4.96-2.1-9.76-3.28-19.44-2.51-27.24,2.15-8.13,4.86-13.67,13.71-15.59,24.92-3.46,20.21,2.67,42.57,21.12,46.23,17.25,3.41,24.99-3.32,35.71-12.64,2.7-2.35,5.49-4.77,8.66-7.24,5.53-4.3,7.78-11.3,6.35-19.73-2.17-12.75-12.1-25.5-24.05-31.59Z"/>
              </g>
              <g>
                <path class="cls-1" d="M1361.96,1636.28c5.74-19.44-1.68-47.79-24.56-54.55-22.89-6.76-38.64-1.39-44.38,18.04-5.74,19.44.71,45.58,23.59,52.34,22.89,6.76,39.61,3.61,45.35-15.83Z"/>
                <path class="cls-1" d="M1310.3,1650.78c-18.13-9.24-23.84-32.67-18.33-51.32,2.91-9.87,8.44-16.45,16.41-19.56,7.65-2.98,17.51-2.72,29.33.77,22.68,6.7,31.53,34.84,25.3,55.92-2.86,9.69-8.57,15.91-16.98,18.48-7.59,2.32-17.6,1.68-29.74-1.9-2.13-.63-4.13-1.43-6-2.38ZM1342.46,1584.92c-1.69-.86-3.48-1.58-5.37-2.14-11.34-3.35-20.73-3.63-27.91-.83-7.31,2.85-12.39,8.95-15.1,18.13-5.78,19.56,1.32,44.63,22.85,50.97,11.72,3.46,21.3,4.1,28.47,1.91,7.76-2.37,12.84-7.93,15.51-17,5.4-18.3-1.03-42.17-18.44-51.05Z"/>
              </g>
            </g>
            <g>
              <g>
                <ellipse class="cls-1" cx="2099.28" cy="1731.9" rx="70.91" ry="90.11" transform="translate(257.9 3735.84) rotate(-86.94)"/>
                <path class="cls-1" d="M2011.75,1750.41c-2.75-7.52-3.97-15.39-3.55-23.38,2.12-39.65,44.7-69.72,94.91-67.04,24.28,1.3,46.72,9.97,63.18,24.41,16.54,14.51,25.08,33.1,24.05,52.36-2.12,39.65-44.7,69.72-94.91,67.04-24.28-1.3-46.72-9.97-63.18-24.41-9.68-8.49-16.62-18.38-20.51-28.98ZM2184.74,1714.14c-3.76-10.27-10.49-19.85-19.89-28.09-16.1-14.12-38.06-22.6-61.85-23.86-49.01-2.62-90.55,26.52-92.6,64.96-.99,18.57,7.29,36.53,23.31,50.59,16.1,14.12,38.06,22.6,61.85,23.86,49.01,2.62,90.55-26.52,92.6-64.96.41-7.68-.77-15.26-3.42-22.5Z"/>
              </g>
              <g>
                <ellipse class="cls-1" cx="2666.23" cy="2517" rx="56.65" ry="71.99" transform="translate(-760.89 3820.43) rotate(-64.17)"/>
                <path class="cls-1" d="M2715.59,2567.31c-19,12.9-47.92,14.3-74.42,1.47-17.49-8.46-31.34-21.78-39-37.52-7.7-15.8-8.24-32.14-1.53-46.01,6.72-13.87,19.87-23.58,37.03-27.35,17.09-3.75,36.13-1.16,53.62,7.31,36.17,17.5,54.35,54.97,40.53,83.52-3.69,7.63-9.3,13.86-16.23,18.57ZM2617.89,2468.07c-6.81,4.62-12.16,10.7-15.67,17.95-6.47,13.37-5.93,29.17,1.53,44.47,7.49,15.38,21.05,28.41,38.18,36.7,35.29,17.08,74.91,8.45,88.3-19.22,13.4-27.68-4.42-64.1-39.71-81.18h0c-17.13-8.29-35.77-10.84-52.48-7.17-7.61,1.67-14.41,4.54-20.16,8.44Z"/>
              </g>
              <g>
                <ellipse class="cls-1" cx="2960.33" cy="2032.75" rx="56.65" ry="71.99" transform="translate(-630.67 2013.83) rotate(-34.17)"/>
                <path class="cls-1" d="M3001.26,2093.03c-26.24,17.82-65.96,5.27-88.52-27.97-22.57-33.24-19.58-74.78,6.67-92.6,26.25-17.82,65.96-5.27,88.53,27.97,22.57,33.24,19.58,74.78-6.67,92.6ZM2920.38,1973.92c-25.44,17.27-28.22,57.72-6.2,90.16,22.02,32.44,60.64,44.78,86.08,27.5,25.44-17.27,28.22-57.72,6.2-90.16-22.02-32.44-60.64-44.78-86.08-27.5Z"/>
              </g>
              <g>
                <path class="cls-1" d="M2284.24,2695.61c47,22.75,111.97,6.93,129.03-28.32,17.06-35.25-14.63-98.98-61.63-121.72-47-22.75-101.49-2.62-118.55,32.63-17.06,35.25,4.14,94.66,51.14,117.41Z"/>
                <path class="cls-1" d="M2393.82,2690.42c-28.17,19.13-74.6,23.34-110.06,6.17-49-23.72-68.33-84.42-51.65-118.87,8.58-17.73,26.34-31.82,48.72-38.64,23.72-7.23,49.04-5.28,71.3,5.5,47.02,22.76,79.54,87.23,62.14,123.19-4.32,8.93-11.45,16.55-20.44,22.65ZM2257.35,2552.59c-10.28,6.98-18.34,15.92-23.27,26.09-16.24,33.55,2.73,92.75,50.63,115.94,44.93,21.74,110.5,7.46,127.56-27.81,16.95-35.02-15.04-97.95-61.12-120.25-21.76-10.53-46.52-12.44-69.7-5.37-8.89,2.71-17.03,6.59-24.11,11.4Z"/>
              </g>
              <g>
                <path class="cls-1" d="M2614,2093.04c-4.81,46.12,28,95.61,62.59,99.22,34.59,3.61,78.25-42.09,83.07-88.21,4.81-46.12-28.44-85.55-63.03-89.16-34.59-3.61-77.81,32.03-82.62,78.15Z"/>
                <path class="cls-1" d="M2713.3,2181.81c-12.47,8.47-25.44,12.61-36.82,11.43-16.96-1.77-34.02-14.2-46.79-34.11-12.89-20.09-18.96-44.21-16.67-66.18h0c2.26-21.62,13.36-42.88,30.46-58.35,16.29-14.73,36.19-22.45,53.23-20.67,34.24,3.57,68.84,42.92,63.9,90.23-2.31,22.11-13.47,45.19-30.63,63.32-5.32,5.62-10.95,10.43-16.69,14.33ZM2654.65,2028.3c-3.39,2.3-6.68,4.89-9.85,7.75-16.75,15.15-27.62,35.96-29.83,57.1h0c-2.25,21.54,3.72,45.2,16.37,64.92,12.27,19.12,29.22,31.54,45.35,33.23,16,1.67,35.4-7.73,51.89-25.16,16.62-17.56,27.87-40.81,30.1-62.18,4.82-46.2-28.84-84.61-62.16-88.09-13.22-1.38-28.25,3.18-41.87,12.43Z"/>
              </g>
              <g>
                <path class="cls-1" d="M2481.81,1800.37c-14.79-50.08-121.96-33.13-159.77-22.94-62.34,16.8-73.82,61.29-62.37,108.05,18.22,74.42,34.89,101.68,98.41,77.57,44.15-16.76,139.73-108.49,123.73-162.68Z"/>
                <path class="cls-1" d="M2383.64,1950.21c-9.35,6.35-17.99,11.14-25.17,13.86-26.28,9.97-44.99,11.22-58.88,3.91-20.03-10.53-30.2-38.13-41-82.25-9.67-39.53-6.56-90.59,63.15-109.38,39.71-10.7,146.06-27.31,161.12,23.69h0c13.58,46.01-51.91,118.03-99.23,150.16ZM2288.1,1793.46c-34.49,23.42-34.85,61.13-27.36,91.75,10.65,43.51,20.59,70.68,39.88,80.83,13.29,6.99,31.43,5.71,57.08-4.03,42.99-16.32,139.03-107.27,123.06-161.34-14.49-49.06-121.94-32.03-158.43-22.19-14.02,3.78-25.28,8.9-34.23,14.98Z"/>
              </g>
              <g>
                <path class="cls-1" d="M1741.01,2389.7c49.66,16.13,103.61-80.2,108.69-119.03,2.46-18.81-23.07-83.97-52.88-99.45-82.16-42.67-107.74,2.59-113.61,32.53-9.68,49.39,4.05,168.49,57.8,185.94Z"/>
                <path class="cls-1" d="M1782.14,2382.16c-.74.5-1.47.98-2.22,1.45-13.79,8.71-27,11.11-39.25,7.13h0c-55.7-18.09-68-138.9-58.54-187.2,2.46-12.58,9.83-35.24,31.35-45.61,20.7-9.98,48.91-5.84,83.84,12.31,29.76,15.45,56.12,80.25,53.46,100.56-3.83,29.24-34.09,87.88-68.66,111.35ZM1741.35,2388.66c11.6,3.77,24.18,1.44,37.4-6.9,35.01-22.07,66.01-81.77,69.87-111.22,2.53-19.34-23.84-83.55-52.29-98.33-34.28-17.81-61.83-21.94-81.88-12.28-20.71,9.97-27.77,31.87-30.15,44.05-9.09,46.37,3.41,167.26,57.06,184.68Z"/>
              </g>
              <g>
                <ellipse class="cls-1" cx="1617.87" cy="2093.19" rx="34.81" ry="41.35" transform="translate(-971.07 2637.6) rotate(-64.17)"/>
                <path class="cls-1" d="M1645.38,2124c-3.4,2.31-7.31,4.05-11.64,5.15-10.14,2.58-21.34,1.29-31.51-3.64-21.07-10.2-31.19-32.99-22.57-50.82,8.63-17.83,32.79-24.03,53.85-13.83h0c10.18,4.92,18.13,12.9,22.4,22.46,4.3,9.62,4.36,19.69.16,28.36-2.42,5-6.08,9.17-10.7,12.31ZM1591.6,2064.23c-4.23,2.87-7.68,6.71-9.96,11.43-8.1,16.73,1.57,38.21,21.54,47.88,9.71,4.7,20.37,5.94,30.01,3.48,9.58-2.44,17-8.22,20.9-16.29,3.91-8.07,3.84-17.48-.19-26.5-4.06-9.08-11.64-16.68-21.35-21.38-14.35-6.94-30.18-5.93-40.96,1.38Z"/>
              </g>
              <g>
                <ellipse class="cls-1" cx="1558" cy="2417.83" rx="34.81" ry="41.35" transform="translate(-1297.07 2766.92) rotate(-64.17)"/>
                <path class="cls-1" d="M1585.51,2448.64c-3.4,2.31-7.31,4.05-11.64,5.15-10.14,2.58-21.34,1.29-31.51-3.64-21.07-10.2-31.19-32.99-22.57-50.82,8.63-17.82,32.79-24.03,53.85-13.83h0c10.18,4.92,18.13,12.9,22.4,22.46,4.3,9.62,4.36,19.69.16,28.36-2.42,5-6.08,9.17-10.7,12.31ZM1531.73,2388.87c-4.23,2.87-7.68,6.71-9.96,11.43-8.1,16.73,1.57,38.21,21.54,47.88,9.71,4.7,20.37,5.94,30.01,3.48,9.58-2.44,17-8.22,20.9-16.29,3.91-8.07,3.84-17.48-.19-26.5-4.06-9.08-11.64-16.68-21.35-21.38-14.35-6.94-30.18-5.93-40.96,1.38Z"/>
              </g>
              <g>
                <ellipse class="cls-1" cx="1870.62" cy="1692.82" rx="65.79" ry="63.62" transform="translate(-627.88 1343.04) rotate(-34.17)"/>
                <path class="cls-1" d="M1906.98,1746.36c-30.52,20.72-71.65,13.55-91.7-15.97-20.05-29.53-11.53-70.4,18.99-91.12,30.52-20.72,71.65-13.55,91.7,15.97,20.05,29.52,11.53,70.4-18.99,91.12ZM1835.51,1641.09c-29.51,20.04-37.77,59.54-18.41,88.07,19.36,28.52,59.13,35.42,88.64,15.39,29.51-20.04,37.77-59.54,18.4-88.06-19.36-28.52-59.13-35.42-88.64-15.39Z"/>
              </g>
              <g>
                <ellipse class="cls-1" cx="2397.43" cy="2105.29" rx="65.79" ry="63.62" transform="translate(-768.61 1710.17) rotate(-34.17)"/>
                <path class="cls-1" d="M2433.78,2158.83c-30.52,20.72-71.65,13.55-91.7-15.97-20.05-29.52-11.53-70.4,18.99-91.12,30.52-20.72,71.65-13.55,91.7,15.97,20.05,29.52,11.53,70.4-18.99,91.12ZM2362.31,2053.56c-29.51,20.04-37.77,59.54-18.4,88.06,19.36,28.52,59.13,35.42,88.64,15.39,29.51-20.04,37.77-59.54,18.41-88.06-19.36-28.52-59.13-35.42-88.64-15.39Z"/>
              </g>
              <g>
                <path class="cls-1" d="M2878.3,2225.24c-22.11-10.7-55.32,2.25-64.72,21.67-9.4,19.42,8.6,34.52,30.7,45.22,22.11,10.7,51.96-1.53,61.35-20.94,9.4-19.42-5.23-35.25-27.34-45.94Z"/>
                <path class="cls-1" d="M2891.93,2287.91c-13.42,9.11-32.26,12.89-48.12,5.21-28.93-14-39.43-29.71-31.21-46.69,4.65-9.6,15.19-18.08,28.22-22.68,13.56-4.79,27.4-4.61,37.97.51,26.54,12.84,36.43,29.68,27.85,47.41-3,6.2-8.22,11.85-14.7,16.25ZM2828.21,2232.49c-6.16,4.18-10.95,9.34-13.64,14.89-7.58,15.67,2.58,30.39,30.19,43.75,22.44,10.86,51.11-2.3,59.89-20.43,10.74-22.2-12.2-37.39-26.83-44.47-10.05-4.86-23.27-5.01-36.28-.41-4.87,1.72-9.38,4-13.33,6.68Z"/>
              </g>
              <g>
                <ellipse class="cls-1" cx="1956.11" cy="1903.6" rx="35.82" ry="33.65" transform="translate(-609.51 2835.05) rotate(-64.17)"/>
                <path class="cls-1" d="M1974.4,1933.84c-10.12,6.87-23.1,8.45-34.38,2.99-17.25-8.35-24.06-30.05-15.19-48.37,4.29-8.87,11.57-15.63,20.5-19.05,8.95-3.43,18.49-3.09,26.86.96h0c8.37,4.05,14.55,11.32,17.42,20.47,2.86,9.13,2.07,19.04-2.22,27.9-3.07,6.34-7.63,11.47-12.98,15.1ZM1939.04,1875.16c-5.17,3.51-9.39,8.4-12.22,14.26-8.34,17.23-1.98,37.62,14.17,45.44,16.15,7.82,36.08.16,44.42-17.08,4.05-8.36,4.79-17.7,2.1-26.29-2.68-8.57-8.46-15.37-16.27-19.15h0c-7.81-3.78-16.73-4.09-25.12-.88-2.51.96-4.88,2.21-7.09,3.7Z"/>
              </g>
              <g>
                <path class="cls-1" d="M2075.63,2580.93c-16.91-11.3-36.36-8.22-43.16,11.94-5.22,15.46-5.19,36.15,11.54,44.24,16.73,8.1,41.92-.24,49.03-14.93,7.11-14.69-1.96-30.93-17.41-41.26Z"/>
                <path class="cls-1" d="M2083.9,2633.79c-3.33,2.26-7.21,4.13-11.43,5.46-10.25,3.21-20.79,2.8-28.93-1.14-17.45-8.44-17.42-29.83-12.1-45.59,3.06-9.07,8.74-15.25,16.42-17.86,8.58-2.92,18.93-.97,28.39,5.36h0c17.37,11.61,24.52,28.76,17.79,42.66-2.03,4.19-5.58,8.02-10.14,11.12ZM2043.41,2579.3c-4.44,3.01-7.81,7.74-9.9,13.93-5.03,14.9-5.18,35.08,10.98,42.9,7.64,3.7,17.59,4.07,27.32,1.02,9.43-2.95,17-8.73,20.25-15.44,6.32-13.07-.36-28.72-17.03-39.87h0c-8.89-5.94-18.53-7.8-26.46-5.11-1.84.63-3.56,1.48-5.15,2.56Z"/>
              </g>
              <g>
                <path class="cls-1" d="M2565.15,2248.07c-32.67-20.36-71.82-7.7-86.01,33.52-12.16,35.32-15.61,77.67,15.62,92.78,31.23,15.11,81.19-4.43,97.47-38.05,16.27-33.63,2.37-69.9-27.08-88.25Z"/>
                <path class="cls-1" d="M2567.98,2364.85c-22.37,15.19-52.4,20.82-73.7,10.52-37.59-18.19-23.84-71.89-16.18-94.13,6.96-20.2,20.23-34.67,37.36-40.75,16.27-5.77,34.12-3.41,50.27,6.66h0c31.55,19.67,43.11,57.38,27.49,89.66-5.37,11.1-14.41,20.69-25.24,28.05ZM2504.39,2248.54c-10.79,7.33-19.19,18.82-24.21,33.41-7.47,21.69-20.95,74.01,15.06,91.44,30.65,14.83,80-4.47,96-37.54,15.13-31.26,3.91-67.78-26.67-86.84h0c-15.57-9.7-32.75-12-48.37-6.45-4.19,1.49-8.14,3.5-11.81,5.99Z"/>
              </g>
              <g>
                <path class="cls-1" d="M2647.28,1815.48c-37.24,14.98-45.78,51.57-29.29,87.54,18.33,39.99,50.8,63,85.14,35.68,27.15-21.6,44.71-53.51,29.29-87.54-15.42-34.02-52.95-48.62-85.14-35.68Z"/>
                <path class="cls-1" d="M2699.42,1942.8c-11.83,8.03-23.85,10.65-35.79,7.8-18.13-4.33-34.69-21.06-46.63-47.12-9.19-20.06-10.63-40.21-4.03-56.76,5.78-14.51,17.51-25.66,33.91-32.26,33.26-13.38,71.27,2.54,86.55,36.24,19.63,43.31-14.17,76.57-29.61,88.85-1.46,1.16-2.93,2.24-4.39,3.24ZM2634.84,1823.29c-9.17,6.23-15.93,14.45-19.83,24.25-6.37,15.98-4.95,35.52,3.99,55.03,11.48,25.06,27.94,41.78,45.15,45.89,12.74,3.04,25.64-.54,38.31-10.62,15.04-11.97,47.97-44.33,28.97-86.22-14.79-32.63-51.56-48.05-83.73-35.11-4.69,1.89-8.99,4.16-12.85,6.78Z"/>
              </g>
              <g>
                <path class="cls-1" d="M2619.28,2680.43c-31.23-15.11-69.12,11.14-85.4,44.77-16.27,33.63-5.65,87.4,27.43,92.41,65.3,9.89,70.36-.19,86.01-33.52,15.88-33.81,3.19-88.55-28.04-103.66Z"/>
                <path class="cls-1" d="M2627.6,2815.6c-11.37,7.72-29.38,8.71-66.46,3.1-11.48-1.74-21-9.21-27.53-21.61-10.8-20.49-11.1-50.93-.72-72.37,8.32-17.2,22.01-32.19,37.53-41.14,17.05-9.82,34.56-11.29,49.33-4.14,30.86,14.93,45.54,68.97,28.56,105.12-6.86,14.6-11.71,24.93-20.71,31.04ZM2566.57,2688.6c-13.09,8.89-24.46,22.13-31.7,37.08-10.1,20.86-9.81,50.47.69,70.39,4.32,8.2,12.32,18.4,25.91,20.46,64.79,9.81,69.44-.09,84.85-32.9,16.21-34.52,1.8-88-27.52-102.2h0c-14.09-6.82-30.88-5.38-47.28,4.07-1.67.96-3.33,2-4.95,3.1Z"/>
              </g>
              <g>
                <path class="cls-1" d="M1957,2299.61c-13.91,68.77-79.52,73.65-77.21,102.52,5.23,65.19,92.46,71.33,168.87,24.38,63.79-39.2,75.16-97.55,49.85-132.6-25.31-35.04-126.67-67.7-141.51,5.69Z"/>
                <path class="cls-1" d="M2081.77,2276.79c7.4,5.13,13.51,10.76,17.64,16.48,11.29,15.63,15.25,35.56,11.15,56.11-5.93,29.7-27.71,57.42-61.31,78.07-49.52,30.43-105.64,39.27-139.63,22.01-18.5-9.4-29.18-25.73-30.91-47.24-1.02-12.71,10.25-20.83,24.51-31.09,19.92-14.34,44.72-32.19,52.71-71.73,4.77-23.58,18.98-38.57,41.1-43.36,27.27-5.9,62.07,5.04,84.75,20.75ZM1903.62,2443.35c2.18,1.51,4.51,2.89,6.98,4.15,33.34,16.93,88.59,8.12,137.49-21.92,33.08-20.32,54.5-47.54,60.31-76.63,3.98-19.94.16-39.26-10.77-54.39-16.42-22.74-64.75-44.03-100.14-36.38-21.2,4.59-34.82,18.98-39.41,41.64-8.17,40.38-34.42,59.28-53.58,73.08-13.7,9.86-24.52,17.66-23.61,29.13,1.43,17.83,9.24,31.96,22.73,41.3Z"/>
              </g>
              <g>
                <path class="cls-1" d="M2215.66,2073c-11.07-66.59-70.44-156.47-112.83-147.99-39.77,7.95-48.92,108.2-41.59,173.67,7.51,67.08,14.93,110.49,57.57,103.4,42.64-7.09,107.93-62.48,96.85-129.07Z"/>
                <path class="cls-1" d="M2216.34,2105.8c-10.07,52.72-63.19,91.67-97.36,97.35-12.04,2-21.64.14-29.36-5.69-18.7-14.14-24.02-49.81-29.48-98.66-7.64-68.22,2.88-166.95,42.47-174.87,10.19-2.04,21.63,1.26,33.99,9.79,34.92,24.11,71.62,87.81,80.15,139.1,1.9,11.44,1.6,22.48-.4,32.98ZM2065.64,1989.16c-6.47,33.88-7.11,75.44-3.31,109.39,5.41,48.3,10.62,83.55,28.62,97.15,7.21,5.45,16.26,7.18,27.67,5.28,40.21-6.69,107.18-60.28,95.95-127.81-8.44-50.79-44.73-113.83-79.23-137.65-11.85-8.18-22.72-11.36-32.3-9.45-19.01,3.8-31.03,29.71-37.4,63.08Z"/>
              </g>
              <g>
                <ellipse class="cls-1" cx="2221.32" cy="2358.99" rx="42.05" ry="47.88" transform="translate(-1016.94 2245.89) rotate(-44.72)"/>
                <path class="cls-1" d="M2250.3,2398.31c-7.46,5.06-16.59,7.44-26.36,6.76-12.27-.86-24.09-6.44-33.28-15.71-9.19-9.28-14.65-21.15-15.39-33.43-.74-12.33,3.38-23.61,11.59-31.74,16.92-16.75,46.12-14.75,65.13,4.44h0c19,19.19,20.71,48.42,3.8,65.17-1.7,1.69-3.54,3.2-5.49,4.52ZM2193.53,2321.54c-1.81,1.23-3.53,2.63-5.12,4.22-7.75,7.68-11.64,18.35-10.94,30.04.7,11.75,5.94,23.12,14.76,32.02,8.81,8.9,20.13,14.25,31.87,15.06,11.69.81,22.39-2.97,30.15-10.65,16.04-15.89,14.33-43.73-3.82-62.06h0c-16.34-16.5-40.52-19.75-56.89-8.64Z"/>
              </g>
              <g>
                <path class="cls-1" d="M1665.98,1882.8c-12.07-12.18-30.52-13.47-41.23-2.87-10.7,10.6-18.12,36.71-2.47,43.72,11.21,5.02,37.52-3.11,49.23-5.33,14.8-2.81,6.54-23.33-5.53-35.52Z"/>
                <path class="cls-1" d="M1676.38,1917.57c-1.28.87-2.84,1.49-4.66,1.83-2.38.45-5.34,1.15-8.77,1.95-13.45,3.15-31.87,7.45-41.12,3.31-4.98-2.23-8.17-6.5-9.23-12.35-2.08-11.46,4.29-26.13,11.38-33.16,5.4-5.35,12.85-7.99,20.95-7.42,8.05.56,15.8,4.22,21.83,10.3h0c8.4,8.48,15.9,22.09,13.25,30.6-.65,2.08-1.88,3.74-3.63,4.93ZM1628.82,1878c-1.17.8-2.28,1.7-3.3,2.71-6.7,6.63-12.72,20.45-10.77,31.2.94,5.18,3.62,8.79,7.97,10.74,8.56,3.84,27.31-.54,39.72-3.44,3.45-.81,6.43-1.5,8.86-1.96,3.5-.67,5.72-2.43,6.6-5.26,2.31-7.42-4.65-20.27-12.71-28.41h0c-5.65-5.7-12.9-9.13-20.42-9.66-5.92-.41-11.45,1.02-15.95,4.08Z"/>
              </g>
              <g>
                <path class="cls-1" d="M1834.58,2015.37c-35.95-32.4-78-55.91-100.8-33.33-22.8,22.58-3.37,78.47,25.47,117.46,28.78,38.91,55.91,44.56,85.44,31.99,34.48-14.68,40.33-70.64-10.11-116.11Z"/>
                <path class="cls-1" d="M1852.37,2128.54c-2.26,1.54-4.69,2.86-7.26,3.96-33.04,14.07-59.79,4.09-86.75-32.34-30.22-40.86-47.97-96.5-25.36-118.89,28.11-27.84,80.91,14.01,102.31,33.3h0c27.31,24.62,40.94,55.35,36.45,82.21-2.28,13.65-9.2,24.85-19.39,31.77ZM1738.87,1979.25c-1.5,1.02-2.94,2.2-4.32,3.57-21.77,21.56-4.09,75.92,25.58,116.02,26.24,35.47,52.18,45.23,84.12,31.63,13.45-5.73,22.68-18.14,25.34-34.07,4.36-26.11-9.01-56.1-35.75-80.22h0c-19.85-17.9-67.29-55.73-94.97-36.94Z"/>
              </g>
              <g>
                <ellipse class="cls-1" cx="2908.28" cy="2499.61" rx="44.14" ry="50.25" transform="translate(-917.03 2769.98) rotate(-44.72)"/>
                <path class="cls-1" d="M2938.66,2540.83c-7.81,5.3-17.38,7.79-27.62,7.08-12.87-.9-25.26-6.75-34.89-16.47-19.92-20.12-21.71-50.76-3.99-68.32,17.72-17.55,48.35-15.46,68.28,4.66h0c19.92,20.12,21.71,50.77,3.99,68.32-1.79,1.77-3.71,3.35-5.76,4.74ZM2879.09,2460.25c-1.9,1.29-3.71,2.77-5.39,4.44-16.86,16.7-15.07,45.95,4,65.21,9.26,9.35,21.15,14.97,33.48,15.83,12.28.85,23.54-3.12,31.68-11.19,16.86-16.7,15.07-45.95-4-65.21-17.17-17.34-42.58-20.75-59.78-9.07Z"/>
              </g>
              <g>
                <path class="cls-1" d="M1864.03,2523.68c-3.39-21.29-40.45-24.12-59.55-6.54-15.91,14.64-16.07,36.95,3.13,52.24,16.98,13.53,39.94,18.24,52.21,3.64,14.55-17.33,7.37-29.53,4.22-49.34Z"/>
                <path class="cls-1" d="M1855.36,2578.55c-13.5,9.17-33.66,3.48-48.44-8.3-9.41-7.49-14.78-17.19-15.14-27.31-.35-9.74,3.9-19.18,11.96-26.6,11.65-10.72,30.89-14.79,45.71-9.64,8.87,3.08,14.44,9.05,15.67,16.81h0c.62,3.91,1.4,7.5,2.14,10.96,3.01,13.95,5.39,24.97-6.6,39.26-1.61,1.92-3.39,3.52-5.3,4.81ZM1809.45,2514.62c-1.51,1.02-2.92,2.14-4.23,3.34-7.58,6.97-11.57,15.82-11.25,24.9.34,9.47,5.42,18.58,14.32,25.67,16.04,12.78,38.58,18.18,50.68,3.79,11.3-13.47,9.14-23.5,6.14-37.38-.76-3.5-1.54-7.11-2.17-11.08-1.1-6.92-6.15-12.27-14.22-15.07-12.22-4.25-28.17-1.7-39.27,5.84Z"/>
              </g>
              <g>
                <path class="cls-1" d="M2846.44,2690.35c-14.26-14.4-42.68-21.57-59.63-4.78-16.96,16.79-19.85,33.18-5.59,47.58,14.26,14.4,40.27,21.36,57.23,4.57,16.96-16.79,22.25-32.96,7.99-47.36Z"/>
                <path class="cls-1" d="M2834.23,2742.61c-16.83,11.43-40.11,5.14-53.8-8.68-7.24-7.31-10.35-15.32-9.22-23.81,1.08-8.14,6.06-16.65,14.82-25.32,16.8-16.64,45.72-10.82,61.19,4.79,7.11,7.18,9.8,15.18,8,23.78-1.63,7.77-7.01,16.23-16,25.13-1.58,1.56-3.25,2.93-4.98,4.11ZM2792.04,2682.68c-1.57,1.06-3.06,2.29-4.46,3.68-8.4,8.32-13.17,16.41-14.18,24.05-1.03,7.78,1.86,15.17,8.6,21.97,14.35,14.49,39.73,20.36,55.67,4.56,8.68-8.6,13.86-16.68,15.4-24.02,1.66-7.94-.76-15.07-7.41-21.79-13.43-13.56-37.45-19.43-53.61-8.45Z"/>
              </g>
            </g>
            <g>
              <g>
                <ellipse class="cls-1" cx="583.06" cy="1505.79" rx="70.91" ry="90.11" transform="translate(-951.67 2007.73) rotate(-86.94)"/>
                <path class="cls-1" d="M495.54,1524.3c-2.75-7.52-3.97-15.39-3.55-23.38,2.12-39.65,44.7-69.72,94.91-67.04,24.28,1.3,46.72,9.97,63.18,24.41,16.54,14.51,25.08,33.1,24.05,52.36-2.12,39.65-44.7,69.72-94.91,67.04-24.28-1.3-46.72-9.97-63.18-24.41-9.68-8.49-16.62-18.38-20.51-28.98ZM668.52,1488.04c-3.76-10.27-10.49-19.85-19.89-28.09-16.1-14.12-38.06-22.6-61.85-23.86-49.01-2.62-90.55,26.52-92.6,64.96-.99,18.57,7.29,36.53,23.31,50.59,16.1,14.12,38.06,22.6,61.85,23.86,49.01,2.62,90.55-26.52,92.6-64.96.41-7.68-.77-15.26-3.42-22.5Z"/>
              </g>
              <g>
                <ellipse class="cls-1" cx="1150.02" cy="2290.89" rx="56.65" ry="71.99" transform="translate(-1413.05 2328.05) rotate(-64.17)"/>
                <path class="cls-1" d="M1199.38,2341.2c-19,12.9-47.92,14.3-74.42,1.47-17.49-8.46-31.34-21.78-39-37.52-7.7-15.8-8.24-32.14-1.53-46.01,6.72-13.87,19.87-23.58,37.03-27.35,17.09-3.75,36.13-1.16,53.62,7.31,36.17,17.5,54.35,54.97,40.53,83.52-3.69,7.63-9.3,13.86-16.23,18.57ZM1101.68,2241.96c-6.81,4.62-12.16,10.7-15.67,17.95-6.47,13.37-5.93,29.17,1.53,44.47,7.49,15.38,21.05,28.41,38.18,36.7,35.29,17.08,74.91,8.45,88.3-19.22,13.4-27.68-4.42-64.1-39.71-81.18h0c-17.13-8.29-35.77-10.84-52.48-7.17-7.61,1.67-14.41,4.54-20.16,8.44Z"/>
              </g>
              <g>
                <ellipse class="cls-1" cx="1444.11" cy="1806.64" rx="56.65" ry="71.99" transform="translate(-765.46 1123.12) rotate(-34.17)"/>
                <path class="cls-1" d="M1485.04,1866.93c-26.24,17.82-65.96,5.27-88.52-27.97-22.57-33.24-19.58-74.78,6.67-92.6,26.25-17.82,65.96-5.27,88.53,27.97,22.57,33.24,19.58,74.78-6.67,92.6ZM1404.17,1747.81c-25.44,17.27-28.22,57.72-6.2,90.16,22.02,32.44,60.64,44.78,86.08,27.5,25.44-17.27,28.22-57.72,6.2-90.16-22.02-32.44-60.64-44.78-86.08-27.5Z"/>
              </g>
              <g>
                <path class="cls-1" d="M768.03,2469.5c47,22.75,111.97,6.93,129.03-28.32,17.06-35.25-14.63-98.98-61.63-121.72-47-22.75-101.49-2.62-118.55,32.63-17.06,35.25,4.14,94.66,51.14,117.41Z"/>
                <path class="cls-1" d="M877.61,2464.31c-28.17,19.13-74.6,23.34-110.06,6.17-49-23.72-68.33-84.42-51.65-118.87,8.58-17.73,26.34-31.82,48.72-38.64,23.72-7.23,49.04-5.28,71.3,5.5,47.02,22.76,79.54,87.23,62.14,123.19-4.32,8.93-11.45,16.55-20.44,22.65ZM741.14,2326.48c-10.28,6.98-18.34,15.92-23.27,26.09-16.24,33.55,2.73,92.75,50.63,115.94,44.93,21.74,110.5,7.46,127.56-27.81,16.95-35.02-15.04-97.95-61.12-120.25-21.76-10.53-46.52-12.44-69.7-5.37-8.89,2.71-17.03,6.59-24.11,11.4Z"/>
              </g>
              <g>
                <path class="cls-1" d="M1097.78,1866.94c-4.81,46.12,28,95.61,62.59,99.22,34.59,3.61,78.25-42.09,83.07-88.21,4.81-46.12-28.44-85.55-63.03-89.16-34.59-3.61-77.81,32.03-82.62,78.15Z"/>
                <path class="cls-1" d="M1197.09,1955.7c-12.47,8.47-25.44,12.61-36.82,11.43-16.96-1.77-34.02-14.2-46.79-34.11-12.89-20.09-18.96-44.21-16.67-66.18h0c2.26-21.62,13.36-42.88,30.46-58.35,16.29-14.73,36.19-22.45,53.23-20.67,34.24,3.57,68.84,42.92,63.9,90.23-2.31,22.11-13.47,45.19-30.63,63.32-5.32,5.62-10.95,10.43-16.69,14.33ZM1138.43,1802.19c-3.39,2.3-6.68,4.89-9.85,7.75-16.75,15.15-27.62,35.96-29.83,57.1h0c-2.25,21.54,3.72,45.2,16.37,64.92,12.27,19.12,29.22,31.54,45.35,33.23,16,1.67,35.4-7.73,51.89-25.16,16.62-17.56,27.87-40.81,30.1-62.18,4.82-46.2-28.84-84.61-62.16-88.09-13.22-1.38-28.25,3.18-41.87,12.43Z"/>
              </g>
              <g>
                <path class="cls-1" d="M965.6,1574.26c-14.79-50.08-121.96-33.13-159.77-22.94-62.34,16.8-73.82,61.29-62.37,108.05,18.22,74.42,34.89,101.68,98.41,77.57,44.15-16.76,139.73-108.49,123.73-162.68Z"/>
                <path class="cls-1" d="M997.62,1326.58c-14.79-50.08-121.96-33.13-159.77-22.94-62.34,16.8-73.82,61.29-62.37,108.05,18.22,74.42,34.89,101.68,98.41,77.57,44.15-16.76,139.73-108.49,123.73-162.68Z"/>
                <path class="cls-1" d="M867.43,1724.11c-9.35,6.35-17.99,11.14-25.17,13.86-26.28,9.97-44.99,11.22-58.88,3.91-20.03-10.53-30.2-38.13-41-82.25-9.67-39.53-6.56-90.59,63.15-109.38,39.71-10.7,146.06-27.31,161.12,23.69h0c13.58,46.01-51.91,118.03-99.23,150.16ZM771.88,1567.36c-34.49,23.42-34.85,61.13-27.36,91.75,10.65,43.51,20.59,70.68,39.88,80.83,13.29,6.99,31.43,5.71,57.08-4.03,42.99-16.32,139.03-107.27,123.06-161.34-14.49-49.06-121.94-32.03-158.43-22.19-14.02,3.78-25.28,8.9-34.23,14.98Z"/>
              </g>
              <g>
                <path class="cls-1" d="M224.8,2163.59c49.66,16.13,103.61-80.2,108.69-119.03,2.46-18.81-23.07-83.97-52.88-99.45-82.16-42.67-107.74,2.59-113.61,32.53-9.68,49.39,4.05,168.49,57.8,185.94Z"/>
                <path class="cls-1" d="M265.93,2156.05c-.74.5-1.47.98-2.22,1.45-13.79,8.71-27,11.11-39.25,7.13h0c-55.7-18.09-68-138.9-58.54-187.2,2.46-12.58,9.83-35.24,31.35-45.61,20.7-9.98,48.91-5.84,83.84,12.31,29.76,15.45,56.12,80.25,53.46,100.56-3.83,29.24-34.09,87.88-68.66,111.35ZM225.14,2162.55c11.6,3.77,24.18,1.44,37.4-6.9,35.01-22.07,66.01-81.77,69.87-111.22,2.53-19.34-23.84-83.55-52.29-98.33-34.28-17.81-61.83-21.94-81.88-12.28-20.71,9.97-27.77,31.87-30.15,44.05-9.09,46.37,3.41,167.26,57.06,184.68Z"/>
              </g>
              <g>
                <ellipse class="cls-1" cx="101.66" cy="1867.09" rx="34.81" ry="41.35" transform="translate(-1623.23 1145.22) rotate(-64.17)"/>
                <path class="cls-1" d="M129.16,1897.89c-3.4,2.31-7.31,4.05-11.64,5.15-10.14,2.58-21.34,1.29-31.51-3.64-21.07-10.2-31.19-32.99-22.57-50.82,8.63-17.83,32.79-24.03,53.85-13.83h0c10.18,4.92,18.13,12.9,22.4,22.46,4.3,9.62,4.36,19.69.16,28.36-2.42,5-6.08,9.17-10.7,12.31ZM75.39,1838.12c-4.23,2.87-7.68,6.71-9.96,11.43-8.1,16.73,1.57,38.21,21.54,47.88,9.71,4.7,20.37,5.94,30.01,3.48,9.58-2.44,17-8.22,20.9-16.29,3.91-8.07,3.84-17.48-.19-26.5-4.06-9.08-11.64-16.68-21.35-21.38-14.35-6.94-30.18-5.93-40.96,1.38Z"/>
              </g>
              <g>
                <ellipse class="cls-1" cx="41.79" cy="2191.73" rx="34.81" ry="41.35" transform="translate(-1949.24 1274.54) rotate(-64.17)"/>
                <path class="cls-1" d="M69.3,2222.53c-3.4,2.31-7.31,4.05-11.64,5.15-10.14,2.58-21.34,1.29-31.51-3.64-21.07-10.2-31.19-32.99-22.57-50.82,8.63-17.82,32.79-24.03,53.85-13.83h0c10.18,4.92,18.13,12.9,22.4,22.46,4.3,9.62,4.36,19.69.16,28.36-2.42,5-6.08,9.17-10.7,12.31ZM15.52,2162.77c-4.23,2.87-7.68,6.71-9.96,11.43-8.1,16.73,1.57,38.21,21.54,47.88,9.71,4.7,20.37,5.94,30.01,3.48,9.58-2.44,17-8.22,20.9-16.29,3.91-8.07,3.84-17.48-.19-26.5-4.06-9.08-11.64-16.68-21.35-21.38-14.35-6.94-30.18-5.93-40.96,1.38Z"/>
              </g>
              <g>
                <ellipse class="cls-1" cx="354.41" cy="1466.71" rx="65.79" ry="63.62" transform="translate(-762.67 452.33) rotate(-34.17)"/>
                <path class="cls-1" d="M390.77,1520.25c-30.52,20.72-71.65,13.55-91.7-15.97-20.05-29.53-11.53-70.4,18.99-91.12,30.52-20.72,71.65-13.55,91.7,15.97,20.05,29.52,11.53,70.4-18.99,91.12ZM319.29,1414.98c-29.51,20.04-37.77,59.54-18.41,88.07,19.36,28.52,59.13,35.42,88.64,15.39,29.51-20.04,37.77-59.54,18.4-88.06-19.36-28.52-59.13-35.42-88.64-15.39Z"/>
              </g>
              <g>
                <ellipse class="cls-1" cx="881.22" cy="1879.18" rx="65.79" ry="63.62" transform="translate(-903.4 819.46) rotate(-34.17)"/>
                <path class="cls-1" d="M917.57,1932.72c-30.52,20.72-71.65,13.55-91.7-15.97-20.05-29.52-11.53-70.4,18.99-91.12,30.52-20.72,71.65-13.55,91.7,15.97,20.05,29.52,11.53,70.4-18.99,91.12ZM846.1,1827.45c-29.51,20.04-37.77,59.54-18.4,88.06,19.36,28.52,59.13,35.42,88.64,15.39,29.51-20.04,37.77-59.54,18.41-88.06-19.36-28.52-59.13-35.42-88.64-15.39Z"/>
              </g>
              <g>
                <path class="cls-1" d="M1362.09,1999.13c-22.11-10.7-55.32,2.25-64.72,21.67-9.4,19.42,8.6,34.52,30.7,45.22,22.11,10.7,51.96-1.53,61.35-20.94,9.4-19.42-5.23-35.25-27.34-45.94Z"/>
                <path class="cls-1" d="M1375.72,2061.8c-13.42,9.11-32.26,12.89-48.12,5.21-28.93-14-39.43-29.71-31.21-46.69,4.65-9.6,15.19-18.08,28.22-22.68,13.56-4.79,27.4-4.61,37.97.51,26.54,12.84,36.43,29.68,27.85,47.41-3,6.2-8.22,11.85-14.7,16.25ZM1312,2006.39c-6.16,4.18-10.95,9.34-13.64,14.89-7.58,15.67,2.58,30.39,30.19,43.75,22.44,10.86,51.11-2.3,59.89-20.43,10.74-22.2-12.2-37.39-26.83-44.47-10.05-4.86-23.27-5.01-36.28-.41-4.87,1.72-9.38,4-13.33,6.68Z"/>
              </g>
              <g>
                <ellipse class="cls-1" cx="439.9" cy="1677.49" rx="35.82" ry="33.65" transform="translate(-1261.68 1342.67) rotate(-64.17)"/>
                <path class="cls-1" d="M458.19,1707.73c-10.12,6.87-23.1,8.45-34.38,2.99-17.25-8.35-24.06-30.05-15.19-48.37,4.29-8.87,11.57-15.63,20.5-19.05,8.95-3.43,18.49-3.09,26.86.96h0c8.37,4.05,14.55,11.32,17.42,20.47,2.86,9.13,2.07,19.04-2.22,27.9-3.07,6.34-7.63,11.47-12.98,15.1ZM422.83,1649.05c-5.17,3.51-9.39,8.4-12.22,14.26-8.34,17.23-1.98,37.62,14.17,45.44,16.15,7.82,36.08.16,44.42-17.08,4.05-8.36,4.79-17.7,2.1-26.29-2.68-8.57-8.46-15.37-16.27-19.15h0c-7.81-3.78-16.73-4.09-25.12-.88-2.51.96-4.88,2.21-7.09,3.7Z"/>
              </g>
              <g>
                <path class="cls-1" d="M559.42,2354.82c-16.91-11.3-36.36-8.22-43.16,11.94-5.22,15.46-5.19,36.15,11.54,44.24,16.73,8.1,41.92-.24,49.03-14.93,7.11-14.69-1.96-30.93-17.41-41.26Z"/>
                <path class="cls-1" d="M567.69,2407.69c-3.33,2.26-7.21,4.13-11.43,5.46-10.25,3.21-20.79,2.8-28.93-1.14-17.45-8.44-17.42-29.83-12.1-45.59,3.06-9.07,8.74-15.25,16.42-17.86,8.58-2.92,18.93-.97,28.39,5.36h0c17.37,11.61,24.52,28.76,17.79,42.66-2.03,4.19-5.58,8.02-10.14,11.12ZM527.2,2353.19c-4.44,3.01-7.81,7.74-9.9,13.93-5.03,14.9-5.18,35.08,10.98,42.9,7.64,3.7,17.59,4.07,27.32,1.02,9.43-2.95,17-8.73,20.25-15.44,6.32-13.07-.36-28.72-17.03-39.87h0c-8.89-5.94-18.53-7.8-26.46-5.11-1.84.63-3.56,1.48-5.15,2.56Z"/>
              </g>
              <g>
                <path class="cls-1" d="M1048.94,2021.96c-32.67-20.36-71.82-7.7-86.01,33.52-12.16,35.32-15.61,77.67,15.62,92.78,31.23,15.11,81.19-4.43,97.47-38.05,16.27-33.63,2.37-69.9-27.08-88.25Z"/>
                <path class="cls-1" d="M1051.77,2138.74c-22.37,15.19-52.4,20.82-73.7,10.52-37.59-18.19-23.84-71.89-16.18-94.13,6.96-20.2,20.23-34.67,37.36-40.75,16.27-5.77,34.12-3.41,50.27,6.66h0c31.55,19.67,43.11,57.38,27.49,89.66-5.37,11.1-14.41,20.69-25.24,28.05ZM988.18,2022.43c-10.79,7.33-19.19,18.82-24.21,33.41-7.47,21.69-20.95,74.01,15.06,91.44,30.65,14.83,80-4.47,96-37.54,15.13-31.26,3.91-67.78-26.67-86.84h0c-15.57-9.7-32.75-12-48.37-6.45-4.19,1.49-8.14,3.5-11.81,5.99Z"/>
              </g>
              <g>
                <path class="cls-1" d="M1131.07,1589.38c-37.24,14.98-45.78,51.57-29.29,87.54,18.33,39.99,50.8,63,85.14,35.68,27.15-21.6,44.71-53.51,29.29-87.54s-52.95-48.62-85.14-35.68Z"/>
                <path class="cls-1" d="M1183.21,1716.69c-11.83,8.03-23.85,10.65-35.79,7.8-18.13-4.33-34.69-21.06-46.63-47.12-9.19-20.06-10.63-40.21-4.03-56.76,5.78-14.51,17.51-25.66,33.91-32.26,33.26-13.38,71.27,2.54,86.55,36.24,19.63,43.31-14.17,76.57-29.61,88.85-1.46,1.16-2.93,2.24-4.39,3.24ZM1118.62,1597.18c-9.17,6.23-15.93,14.45-19.83,24.25-6.37,15.98-4.95,35.52,3.99,55.03,11.48,25.06,27.94,41.78,45.15,45.89,12.74,3.04,25.64-.54,38.31-10.62,15.04-11.97,47.97-44.33,28.97-86.22-14.79-32.63-51.56-48.05-83.73-35.11-4.69,1.89-8.99,4.16-12.85,6.78Z"/>
              </g>
              <g>
                <path class="cls-1" d="M1103.07,2454.33c-31.23-15.11-69.12,11.14-85.4,44.77-16.27,33.63-5.65,87.4,27.43,92.41,65.3,9.89,70.36-.19,86.01-33.52,15.88-33.81,3.19-88.55-28.04-103.66Z"/>
                <path class="cls-1" d="M1111.39,2589.49c-11.37,7.72-29.38,8.71-66.46,3.1-11.48-1.74-21-9.21-27.53-21.61-10.8-20.49-11.1-50.93-.72-72.37,8.32-17.2,22.01-32.19,37.53-41.14,17.05-9.82,34.56-11.29,49.33-4.14,30.86,14.93,45.54,68.97,28.56,105.12-6.86,14.6-11.71,24.93-20.71,31.04ZM1050.35,2462.49c-13.09,8.89-24.46,22.13-31.7,37.08-10.1,20.86-9.81,50.47.69,70.39,4.32,8.2,12.32,18.4,25.91,20.46,64.79,9.81,69.44-.09,84.85-32.9,16.21-34.52,1.8-88-27.52-102.2h0c-14.09-6.82-30.88-5.38-47.28,4.07-1.67.96-3.33,2-4.95,3.1Z"/>
              </g>
              <g>
                <path class="cls-1" d="M440.79,2073.51c-13.91,68.77-79.52,73.65-77.21,102.52,5.23,65.19,92.46,71.33,168.87,24.38,63.79-39.2,75.16-97.55,49.85-132.6-25.31-35.04-126.67-67.7-141.51,5.69Z"/>
                <path class="cls-1" d="M565.55,2050.69c7.4,5.13,13.51,10.76,17.64,16.48,11.29,15.63,15.25,35.56,11.15,56.11-5.93,29.7-27.71,57.42-61.31,78.07-49.52,30.43-105.64,39.27-139.63,22.01-18.5-9.4-29.18-25.73-30.91-47.24-1.02-12.71,10.25-20.83,24.51-31.09,19.92-14.34,44.72-32.19,52.71-71.73,4.77-23.58,18.98-38.57,41.1-43.36,27.27-5.9,62.07,5.04,84.75,20.75ZM387.41,2217.24c2.18,1.51,4.51,2.89,6.98,4.15,33.34,16.93,88.59,8.12,137.49-21.92,33.08-20.32,54.5-47.54,60.31-76.63,3.98-19.94.16-39.26-10.77-54.39-16.42-22.74-64.75-44.03-100.14-36.38-21.2,4.59-34.82,18.98-39.41,41.64-8.17,40.38-34.42,59.28-53.58,73.08-13.7,9.86-24.52,17.66-23.61,29.13,1.43,17.83,9.24,31.96,22.73,41.3Z"/>
              </g>
              <g>
                <path class="cls-1" d="M699.45,1846.89c-11.07-66.59-70.44-156.47-112.83-147.99-39.77,7.95-48.92,108.2-41.59,173.67,7.51,67.08,14.93,110.49,57.57,103.4,42.64-7.09,107.93-62.48,96.85-129.07Z"/>
                <path class="cls-1" d="M700.13,1879.7c-10.07,52.72-63.19,91.67-97.36,97.35-12.04,2-21.64.14-29.36-5.69-18.7-14.14-24.02-49.81-29.48-98.66-7.64-68.22,2.88-166.95,42.47-174.87,10.19-2.04,21.63,1.26,33.99,9.79,34.92,24.11,71.62,87.81,80.15,139.1,1.9,11.44,1.6,22.48-.4,32.98ZM549.42,1763.05c-6.47,33.88-7.11,75.44-3.31,109.39,5.41,48.3,10.62,83.55,28.62,97.15,7.21,5.45,16.26,7.18,27.67,5.28,40.21-6.69,107.18-60.28,95.95-127.81-8.44-50.79-44.73-113.83-79.23-137.65-11.85-8.18-22.72-11.36-32.3-9.45-19.01,3.8-31.03,29.71-37.4,63.08Z"/>
              </g>
              <g>
                <ellipse class="cls-1" cx="705.11" cy="2132.89" rx="42.05" ry="47.88" transform="translate(-1296.72 1113.55) rotate(-44.72)"/>
                <path class="cls-1" d="M734.09,2172.21c-7.46,5.06-16.59,7.44-26.36,6.76-12.27-.86-24.09-6.44-33.28-15.71-9.19-9.28-14.65-21.15-15.39-33.43-.74-12.33,3.38-23.61,11.59-31.74,16.92-16.75,46.12-14.75,65.13,4.44h0c19,19.19,20.71,48.42,3.8,65.17-1.7,1.69-3.54,3.2-5.49,4.52ZM677.32,2095.43c-1.81,1.23-3.53,2.63-5.12,4.22-7.75,7.68-11.64,18.35-10.94,30.04.7,11.75,5.94,23.12,14.76,32.02,8.81,8.9,20.13,14.25,31.87,15.06,11.69.81,22.39-2.97,30.15-10.65,16.04-15.89,14.33-43.73-3.82-62.06h0c-16.34-16.5-40.52-19.75-56.89-8.64Z"/>
              </g>
              <g>
                <path class="cls-1" d="M149.76,1656.7c-12.07-12.18-30.52-13.47-41.23-2.87s-18.12,36.71-2.47,43.72c11.21,5.02,37.52-3.11,49.23-5.33,14.8-2.81,6.54-23.33-5.53-35.52Z"/>
                <path class="cls-1" d="M160.17,1691.46c-1.28.87-2.84,1.49-4.66,1.83-2.38.45-5.34,1.15-8.77,1.95-13.45,3.15-31.87,7.45-41.12,3.31-4.98-2.23-8.17-6.5-9.23-12.35-2.08-11.46,4.29-26.13,11.38-33.16,5.4-5.35,12.85-7.99,20.95-7.42,8.05.56,15.8,4.22,21.83,10.3h0c8.4,8.48,15.9,22.09,13.25,30.6-.65,2.08-1.88,3.74-3.63,4.93ZM112.61,1651.89c-1.17.8-2.28,1.7-3.3,2.71-6.7,6.63-12.72,20.45-10.77,31.2.94,5.18,3.62,8.79,7.97,10.74,8.56,3.84,27.31-.54,39.72-3.44,3.45-.81,6.43-1.5,8.86-1.96,3.5-.67,5.72-2.43,6.6-5.26,2.31-7.42-4.65-20.27-12.71-28.41h0c-5.65-5.7-12.9-9.13-20.42-9.66-5.92-.41-11.45,1.02-15.95,4.08Z"/>
              </g>
              <g>
                <path class="cls-1" d="M318.37,1789.26c-35.95-32.4-78-55.91-100.8-33.33-22.8,22.58-3.37,78.47,25.47,117.46,28.78,38.91,55.91,44.56,85.44,31.99,34.48-14.68,40.33-70.64-10.11-116.11Z"/>
                <path class="cls-1" d="M336.16,1902.43c-2.26,1.54-4.69,2.86-7.26,3.96-33.04,14.07-59.79,4.09-86.75-32.34-30.22-40.86-47.97-96.5-25.36-118.89,28.11-27.84,80.91,14.01,102.31,33.3h0c27.31,24.62,40.94,55.35,36.45,82.21-2.28,13.65-9.2,24.85-19.39,31.77ZM222.66,1753.14c-1.5,1.02-2.94,2.2-4.32,3.57-21.77,21.56-4.09,75.92,25.58,116.02,26.24,35.47,52.18,45.23,84.12,31.63,13.45-5.73,22.68-18.14,25.34-34.07,4.36-26.11-9.01-56.1-35.75-80.22h0c-19.85-17.9-67.29-55.73-94.97-36.94Z"/>
              </g>
              <g>
                <ellipse class="cls-1" cx="1392.07" cy="2273.5" rx="44.14" ry="50.25" transform="translate(-1196.82 1637.63) rotate(-44.72)"/>
                <path class="cls-1" d="M1422.45,2314.73c-7.81,5.3-17.38,7.79-27.62,7.08-12.87-.9-25.26-6.75-34.89-16.47-19.92-20.12-21.71-50.76-3.99-68.32,17.72-17.55,48.35-15.46,68.28,4.66h0c19.92,20.12,21.71,50.77,3.99,68.32-1.79,1.77-3.71,3.35-5.76,4.74ZM1362.87,2234.14c-1.9,1.29-3.71,2.77-5.39,4.44-16.86,16.7-15.07,45.95,4,65.21,9.26,9.35,21.15,14.97,33.48,15.83,12.28.85,23.54-3.12,31.68-11.19,16.86-16.7,15.07-45.95-4-65.21-17.17-17.34-42.58-20.75-59.78-9.07Z"/>
              </g>
              <g>
                <path class="cls-1" d="M347.82,2297.58c-3.39-21.29-40.45-24.12-59.55-6.54-15.91,14.64-16.07,36.95,3.13,52.24,16.98,13.53,39.94,18.24,52.21,3.64,14.55-17.33,7.37-29.53,4.22-49.34Z"/>
                <path class="cls-1" d="M339.15,2352.44c-13.5,9.17-33.66,3.48-48.44-8.3-9.41-7.49-14.78-17.19-15.14-27.31-.35-9.74,3.9-19.18,11.96-26.6,11.65-10.72,30.89-14.79,45.71-9.64,8.87,3.08,14.44,9.05,15.67,16.81h0c.62,3.91,1.4,7.5,2.14,10.96,3.01,13.95,5.39,24.97-6.6,39.26-1.61,1.92-3.39,3.52-5.3,4.81ZM293.24,2288.51c-1.51,1.02-2.92,2.14-4.23,3.34-7.58,6.97-11.57,15.82-11.25,24.9.34,9.47,5.42,18.58,14.32,25.67,16.04,12.78,38.58,18.18,50.68,3.79,11.3-13.47,9.14-23.5,6.14-37.38-.76-3.5-1.54-7.11-2.17-11.08-1.1-6.92-6.15-12.27-14.22-15.07-12.22-4.25-28.17-1.7-39.27,5.84Z"/>
              </g>
              <g>
                <path class="cls-1" d="M1330.22,2464.25c-14.26-14.4-42.68-21.57-59.63-4.78-16.96,16.79-19.85,33.18-5.59,47.58,14.26,14.4,40.27,21.36,57.23,4.57,16.96-16.79,22.25-32.96,7.99-47.36Z"/>
                <path class="cls-1" d="M1318.02,2516.5c-16.83,11.43-40.11,5.14-53.8-8.68-7.24-7.31-10.35-15.32-9.22-23.81,1.08-8.14,6.06-16.65,14.82-25.32,16.8-16.64,45.72-10.82,61.19,4.79,7.11,7.18,9.8,15.18,8,23.78-1.63,7.77-7.01,16.23-16,25.13-1.58,1.56-3.25,2.93-4.98,4.11ZM1275.83,2456.57c-1.57,1.06-3.06,2.29-4.46,3.68-8.4,8.32-13.17,16.41-14.18,24.05-1.03,7.78,1.86,15.17,8.6,21.97,14.35,14.49,39.73,20.36,55.67,4.56,8.68-8.6,13.86-16.68,15.4-24.02,1.66-7.94-.76-15.07-7.41-21.79-13.43-13.56-37.45-19.43-53.61-8.45Z"/>
              </g>
            </g>
            <g>
              <g>
                <ellipse class="cls-1" cx="125.63" cy="910.19" rx="62.79" ry="79.79" transform="translate(-181.31 44.16) rotate(-11.66)"/>
                <path class="cls-1" d="M161.18,980.99c-5.82,4.05-12.29,6.87-19.23,8.3-34.43,7.1-69.77-22.6-78.77-66.21-4.35-21.09-1.97-42.25,6.69-59.6,8.71-17.43,22.71-28.93,39.44-32.38,34.43-7.1,69.77,22.6,78.77,66.21,4.35,21.09,1.97,42.25-6.69,59.6-5.1,10.2-12.01,18.37-20.21,24.08ZM91.21,840.99c-7.95,5.53-14.64,13.45-19.59,23.35-8.47,16.96-10.79,37.68-6.53,58.34,8.78,42.56,43.08,71.59,76.47,64.7,16.13-3.33,29.65-14.46,38.09-31.34,8.47-16.96,10.79-37.68,6.53-58.34-8.78-42.56-43.08-71.59-76.47-64.7-6.67,1.38-12.9,4.09-18.5,7.99Z"/>
              </g>
              <g>
                <ellipse class="cls-1" cx="670.54" cy="248.03" rx="63.75" ry="50.16" transform="translate(297.93 858.2) rotate(-78.89)"/>
                <path class="cls-1" d="M702.53,194.44c15.32,13.37,23.02,37.82,18,63.41-3.31,16.88-11.61,31.74-23.36,41.84-11.8,10.15-25.67,14.29-39.06,11.66-13.39-2.63-24.67-11.71-31.75-25.57-7.06-13.79-9.12-30.69-5.8-47.57,6.86-34.91,34.86-58.91,62.42-53.5,7.36,1.45,13.97,4.85,19.55,9.73ZM639.51,300.43c5.49,4.79,11.9,8.01,18.9,9.38,12.91,2.54,26.32-1.48,37.75-11.31,11.49-9.87,19.6-24.42,22.85-40.96,6.69-34.07-9.61-66.06-36.32-71.31-26.72-5.25-53.91,18.2-60.6,52.27h0c-3.25,16.54-1.24,33.07,5.66,46.56,3.14,6.14,7.13,11.32,11.77,15.37Z"/>
              </g>
              <g>
                <ellipse class="cls-1" cx="189.65" cy="105.06" rx="63.75" ry="50.16" transform="translate(-14.2 178.86) rotate(-48.89)"/>
                <path class="cls-1" d="M232.08,56.44c21.16,18.47,19.35,55.3-4.05,82.11-23.39,26.81-59.64,33.59-80.81,15.12-21.16-18.47-19.35-55.3,4.04-82.11,23.39-26.81,59.65-33.59,80.81-15.12ZM148.24,152.5c20.52,17.91,55.78,11.19,78.61-14.97,22.83-26.16,24.71-62.01,4.2-79.91-20.52-17.91-55.78-11.19-78.61,14.97-22.83,26.16-24.71,62.01-4.19,79.92Z"/>
              </g>
              <g>
                <path class="cls-1" d="M909.43,535.03c8.91-45.37-19.24-97.46-53.27-104.14-34.03-6.68-81.48,34.79-90.39,80.16-8.91,45.37,20.58,87.51,54.61,94.19,34.03,6.68,80.14-24.84,89.05-70.21Z"/>
                <path class="cls-1" d="M880.34,442.34c22.72,19.83,36.77,58.64,30.04,92.88-9.29,47.3-56.94,77.51-90.2,70.98-17.12-3.36-33.17-15.4-44.05-33.03-11.53-18.69-15.55-40.81-11.33-62.3,8.91-45.39,56.82-87.75,91.53-80.93,8.62,1.69,16.75,6.09,24,12.41ZM792.98,590.22c8.29,7.24,17.76,12.13,27.58,14.06,32.39,6.36,78.83-23.19,87.91-69.44,8.52-43.37-18.47-96.31-52.51-103-33.8-6.64-80.51,34.91-89.25,79.39-4.13,21.01-.19,42.64,11.08,60.91,4.32,7,9.47,13.1,15.19,18.09Z"/>
              </g>
              <g>
                <path class="cls-1" d="M319.18,388.12c40.58-6.25,75.59-45.49,70.91-75.92-4.69-30.44-53.65-57.55-94.23-51.31-40.58,6.25-66.88,43.6-62.19,74.04,4.69,30.44,44.93,59.44,85.51,53.19Z"/>
                <path class="cls-1" d="M372.87,283.1c10.06,8.78,16.53,18.96,18.07,28.96,2.3,14.93-4.51,32.33-18.69,47.75-14.3,15.55-33.6,26.18-52.93,29.16h0c-19.02,2.93-39.73-1.8-56.82-12.97-16.28-10.64-27.37-25.95-29.68-40.95-4.64-30.13,21.28-68.61,62.91-75.02,19.46-3,41.74,1.37,61.12,11.99,6.01,3.29,11.4,7.04,16.03,11.07ZM254.59,367.87c2.73,2.38,5.69,4.63,8.85,6.69,16.74,10.94,37.01,15.57,55.61,12.71h0c18.95-2.92,37.88-13.35,51.92-28.62,13.62-14.81,20.44-32.12,18.26-46.32-2.17-14.08-14.58-28.58-33.22-38.78-18.78-10.29-41.22-14.7-60.03-11.8-40.65,6.26-65.98,43.73-61.47,73.05,1.79,11.63,9.08,23.48,20.06,33.07Z"/>
              </g>
              <g>
                <path class="cls-1" d="M98.24,567.16c-39.56,23.93-.95,111.91,16.29,142,28.41,49.61,69.09,49.44,106.57,29.12,59.64-32.34,79.24-52.75,44.3-101.74-24.28-34.05-124.34-95.28-167.16-69.38Z"/>
                <path class="cls-1" d="M248.66,617.54c7.54,6.58,13.58,12.9,17.53,18.44,14.45,20.26,19.73,36.01,16.59,49.55-4.51,19.52-25.86,34.44-61.22,53.61-31.68,17.17-76.11,26-107.88-29.49-18.1-31.6-56.24-118.95-15.95-143.32h0c36.35-21.98,112.76,17.91,150.93,51.21ZM135.9,734.63c27.81,24.27,60.2,16.1,84.74,2.79,34.87-18.91,55.91-33.53,60.26-52.34,2.99-12.96-2.18-28.2-16.28-47.98-23.64-33.15-123.14-94.95-165.86-69.11-38.76,23.45,0,111.64,16.63,140.69,6.39,11.16,13.3,19.65,20.53,25.95Z"/>
              </g>
              <g>
                <path class="cls-1" d="M769.61,1069.09c2.64-46.16-91.99-70.7-126.39-66.32-16.67,2.12-66.73,38.65-73.28,67.65-18.07,79.97,26.45,91.7,53.42,89.99,44.48-2.82,143.4-41.36,146.25-91.32Z"/>
                <path class="cls-1" d="M753.9,1035.56c.59.52,1.17,1.04,1.74,1.57,10.56,9.86,15.59,20.63,14.94,32.01h0c-2.96,51.78-103.67,89.48-147.17,92.24-11.33.72-32.4-.49-46.11-16.6-13.2-15.49-16-40.58-8.32-74.58,6.54-28.96,56.11-66.11,74.11-68.41,25.91-3.3,82.94,9.43,110.81,33.76ZM768.63,1069.04c.62-10.78-4.2-21.04-14.32-30.48-26.77-25.02-84.88-38.15-110.97-34.82-17.13,2.18-66.2,39.21-72.45,66.9-7.54,33.37-4.88,57.89,7.9,72.89,13.2,15.49,33.54,16.61,44.51,15.92,41.76-2.65,142.49-40.54,145.34-90.41Z"/>
              </g>
              <g>
                <ellipse class="cls-1" cx="543.35" cy="1241.25" rx="36.62" ry="30.82" transform="translate(-779.35 1535.18) rotate(-78.89)"/>
                <path class="cls-1" d="M563.55,1210.76c2.74,2.39,5.12,5.35,7.03,8.81,4.49,8.11,5.9,17.98,3.97,27.81-4,20.34-21.24,34.14-38.45,30.76-17.21-3.38-27.95-22.68-23.96-43.01h0c1.93-9.82,6.97-18.43,14.19-24.24,7.27-5.85,15.89-8.16,24.25-6.52,4.82.95,9.23,3.14,12.95,6.4ZM524.45,1270.26c3.41,2.98,7.48,5.07,12.03,5.96,16.15,3.17,32.37-9.94,36.16-29.22,1.84-9.37.5-18.78-3.77-26.49-4.24-7.65-10.86-12.71-18.66-14.24-7.79-1.53-15.84.64-22.66,6.13-6.87,5.52-11.66,13.72-13.51,23.09-2.72,13.85,1.7,27.18,10.4,34.77Z"/>
              </g>
              <g>
                <ellipse class="cls-1" cx="834.86" cy="1219.51" rx="36.62" ry="30.82" transform="translate(-522.69 1803.68) rotate(-78.89)"/>
                <path class="cls-1" d="M855.06,1189.02c2.74,2.39,5.12,5.35,7.03,8.81,4.49,8.11,5.9,17.98,3.97,27.81-4,20.34-21.24,34.14-38.45,30.76-17.2-3.38-27.95-22.68-23.96-43.01h0c1.93-9.82,6.97-18.43,14.19-24.24,7.27-5.85,15.89-8.16,24.25-6.52,4.82.95,9.23,3.14,12.95,6.4ZM815.97,1248.52c3.41,2.98,7.48,5.07,12.03,5.96,16.15,3.17,32.37-9.94,36.16-29.22,1.84-9.37.5-18.78-3.77-26.49-4.24-7.65-10.86-12.71-18.66-14.24-7.79-1.53-15.84.64-22.66,6.13-6.87,5.52-11.66,13.72-13.51,23.09-2.72,13.85,1.7,27.18,10.4,34.77Z"/>
              </g>
              <g>
                <ellipse class="cls-1" cx="143.59" cy="1114.82" rx="56.34" ry="58.26" transform="translate(-790.75 489.96) rotate(-48.89)"/>
                <path class="cls-1" d="M181.27,1071.64c24.61,21.48,27.72,58.32,6.95,82.13-20.78,23.81-57.7,25.71-82.31,4.23-24.61-21.48-27.72-58.32-6.94-82.13,20.78-23.81,57.7-25.71,82.31-4.23ZM107.18,1156.53c23.8,20.77,59.49,18.96,79.57-4.04,20.07-23,17.04-58.61-6.76-79.38-23.8-20.77-59.49-18.96-79.56,4.04-20.07,23-17.04,58.61,6.76,79.38Z"/>
              </g>
              <g>
                <ellipse class="cls-1" cx="378.38" cy="570.85" rx="56.34" ry="58.26" transform="translate(-300.51 480.57) rotate(-48.89)"/>
                <path class="cls-1" d="M416.06,527.67c24.61,21.48,27.72,58.32,6.94,82.13-20.78,23.81-57.7,25.71-82.31,4.23-24.61-21.48-27.72-58.32-6.95-82.13,20.78-23.81,57.7-25.71,82.31-4.23ZM341.97,612.56c23.8,20.77,59.49,18.96,79.56-4.04,20.07-23,17.04-58.61-6.76-79.38-23.8-20.77-59.49-18.96-79.57,4.04-20.07,23-17.04,58.61,6.76,79.38Z"/>
              </g>
              <g>
                <path class="cls-1" d="M372.96,132.02c-4.19,21.34,14.37,46.87,33.11,50.56,18.74,3.68,27.63-15.13,31.83-36.47,4.19-21.34-12.99-44.16-31.74-47.84-18.74-3.68-29.01,12.41-33.2,33.75Z"/>
                <path class="cls-1" d="M423.57,106.25c10.82,9.44,18.29,24.73,15.28,40.05-5.48,27.93-16.58,40.45-32.97,37.23-9.27-1.82-18.9-8.95-25.77-19.06-7.16-10.54-10.11-22.43-8.1-32.63,5.03-25.62,17.23-37.88,34.34-34.52,5.98,1.18,11.99,4.37,17.22,8.93ZM390.44,173.28c4.97,4.34,10.47,7.28,15.82,8.33,15.12,2.97,25.45-9.04,30.68-35.7,4.25-21.66-13.46-43.26-30.97-46.7-21.43-4.21-29.28,18.86-32.06,32.98-1.9,9.7.94,21.06,7.81,31.16,2.57,3.79,5.54,7.14,8.72,9.91Z"/>
              </g>
              <g>
                <ellipse class="cls-1" cx="304.89" cy="994.19" rx="29.8" ry="31.72" transform="translate(-729.43 1101.75) rotate(-78.89)"/>
                <path class="cls-1" d="M326.68,971.72c8.16,7.12,12.43,17.89,10.3,28.77-3.27,16.65-20.32,27.37-38.01,23.89-8.56-1.68-15.99-6.4-20.93-13.27-4.95-6.9-6.81-15.14-5.22-23.22h0c1.59-8.08,6.42-15.01,13.62-19.52,7.17-4.5,15.84-6.05,24.4-4.37,6.12,1.2,11.54,3.95,15.86,7.72ZM284.37,1015.21c4.17,3.64,9.3,6.15,14.96,7.26,16.64,3.27,32.66-6.76,35.73-22.36,3.06-15.59-7.98-30.94-24.62-34.21-8.07-1.59-16.23-.13-22.99,4.11-6.73,4.22-11.26,10.7-12.74,18.25h0c-1.48,7.54.26,15.25,4.89,21.71,1.39,1.93,2.99,3.69,4.76,5.24Z"/>
              </g>
              <g>
                <path class="cls-1" d="M858.13,739.49c-5.88,17.02,1.14,32.99,19.94,34.28,14.42.99,32.13-3.69,35.3-19.84,3.17-16.15-9.63-35.85-23.81-38.64-14.18-2.79-26.05,8.64-31.42,24.19Z"/>
                <path class="cls-1" d="M901.55,720.52c2.69,2.35,5.16,5.25,7.24,8.57,5.06,8.06,7.07,17.18,5.53,25.03-3.31,16.84-21.63,21.63-36.32,20.62-8.46-.58-15.03-4.05-18.99-10.05-4.43-6.69-5.09-16-1.8-25.52h0c6.04-17.49,19.11-27.46,32.53-24.83,4.04.79,8.13,2.97,11.81,6.18ZM863.98,767.45c3.58,3.12,8.38,4.95,14.16,5.35,13.9.96,31.21-3.46,34.28-19.05,1.45-7.37-.47-15.98-5.27-23.62-4.65-7.41-11.3-12.6-17.78-13.87-12.62-2.48-24.52,6.77-30.31,23.55h0c-3.09,8.95-2.52,17.63,1.58,23.81.95,1.44,2.07,2.72,3.35,3.83Z"/>
              </g>
              <g>
                <path class="cls-1" d="M462.95,395.09c-10.09,32.56,9.55,63.24,48.05,66.13,32.99,2.47,70.03-4.1,75.95-34.24,5.92-30.15-22.05-68.55-54.51-74.92-32.46-6.38-60.4,13.7-69.49,43.04Z"/>
                <path class="cls-1" d="M562.33,366.4c18.04,15.74,29.62,40.2,25.58,60.76-7.13,36.29-56.21,36.58-76.98,35.03-18.87-1.41-34.25-9.53-43.31-22.83-8.6-12.63-10.59-28.46-5.6-44.55h0c9.75-31.45,39.45-49.83,70.61-43.71,10.72,2.11,20.96,7.68,29.7,15.31ZM477.01,447.02c8.7,7.59,20.43,12.2,34.06,13.22,20.25,1.52,68.1,1.29,74.93-33.46,5.81-29.58-21.82-67.51-53.75-73.78-30.17-5.93-58.93,11.89-68.38,42.37h0c-4.81,15.52-2.91,30.74,5.35,42.88,2.21,3.25,4.83,6.19,7.79,8.77Z"/>
              </g>
              <g>
                <path class="cls-1" d="M73.97,422.04c21.21,28.52,54.47,27.61,81.56,5.4,30.13-24.69,42.53-57.68,11.41-80.94-24.61-18.39-55.89-26.26-81.56-5.4-25.67,20.86-29.74,56.29-11.41,80.94Z"/>
                <path class="cls-1" d="M171.29,348.75c9.54,8.32,14.49,18.03,14.73,28.9.37,16.51-10.24,34.45-29.87,50.54-15.11,12.38-32.05,18.14-47.71,16.22-13.72-1.69-25.92-9.22-35.26-21.79-18.94-25.48-13.85-61.62,11.57-82.28,32.68-26.56,68.76-5.09,82.76,5.37,1.32.99,2.58,2,3.76,3.04ZM83.46,430.94c7.4,6.46,15.96,10.39,25.23,11.53,15.12,1.86,31.54-3.75,46.23-15.79,18.88-15.47,29.5-33.33,29.15-48.99-.26-11.59-6.23-21.84-17.71-30.42-13.63-10.19-48.75-31.11-80.37-5.42-24.62,20-29.56,54.97-11.24,79.61,2.67,3.59,5.58,6.76,8.7,9.48Z"/>
              </g>
              <g>
                <path class="cls-1" d="M821.08,251.49c-5.92,30.15,25.09,56.7,57.55,63.07,32.46,6.38,76.13-14.82,72.98-44.27-6.22-58.15-15.99-60.22-48.05-66.13-32.53-6-76.55,17.18-82.48,47.33Z"/>
                <path class="cls-1" d="M934.98,213.96c9.17,8.01,14.07,23.21,17.6,56.23,1.09,10.22-3.17,20.06-12.31,28.44-15.12,13.85-41.12,20.96-61.82,16.89-16.6-3.26-32.52-11.61-43.67-22.89-12.24-12.39-17.44-27.07-14.64-41.32,5.85-29.79,48.83-54.51,83.61-48.1,14.05,2.59,23.98,4.42,31.24,10.75ZM839.93,294.8c10.56,9.21,24.45,15.97,38.89,18.81,20.14,3.96,45.43-2.95,60.13-16.42,6.05-5.54,12.99-14.69,11.69-26.8-6.17-57.7-15.7-59.45-47.26-65.27-33.21-6.12-75.78,18.25-81.34,46.56h0c-2.67,13.6,2.34,27.66,14.12,39.58,1.2,1.22,2.46,2.4,3.77,3.54Z"/>
              </g>
              <g>
                <path class="cls-1" d="M643.87,904.36c62.03-3.56,80.96,51.54,105.17,43.07,54.66-19.14,40.3-95.23-17.1-150.12-47.92-45.82-100.46-42.44-124.78-12.87-24.32,29.56-29.49,123.72,36.7,119.92Z"/>
                <path class="cls-1" d="M596.27,802.64c2.73-7.49,6.18-13.99,10.15-18.82,10.85-13.19,27.03-21.06,45.55-22.17,26.77-1.6,55.41,10.81,80.66,34.95,37.2,35.57,57.39,81.64,50.25,114.64-3.89,17.96-15.47,30.78-33.51,37.1-10.66,3.73-20.14-4.09-32.14-14-16.76-13.84-37.63-31.06-73.29-29.01-21.27,1.22-37.3-7.58-46.38-25.45-11.18-22.03-9.64-54.3-1.29-77.25ZM778.98,917.75c.8-2.21,1.47-4.51,1.99-6.91,7-32.36-12.97-77.7-49.7-112.82-24.85-23.76-52.97-35.98-79.19-34.42-17.97,1.07-33.66,8.7-44.16,21.46-15.78,19.18-23.15,65.36-8.63,93.95,8.69,17.12,24.09,25.56,44.53,24.38,36.43-2.09,58.51,16.14,74.64,29.46,11.53,9.52,20.64,17.03,30.26,13.67,14.95-5.24,25.29-15.11,30.26-28.76Z"/>
              </g>
              <g>
                <path class="cls-1" d="M391.6,733.8c-54.54,24.46-118.17,95.53-101.38,129.92,15.76,32.27,103.68,17.56,158.1-3.44,55.77-21.52,91.27-37.63,75.61-72.56-15.66-34.93-77.79-78.38-132.33-53.92Z"/>
                <path class="cls-1" d="M419.55,725.83c47.42-3.24,92.73,33.5,105.28,61.49,4.42,9.86,4.99,18.51,1.73,26.43-7.9,19.2-37.26,31.77-77.87,47.44-56.71,21.88-143.64,35.09-159.32,2.96-4.04-8.27-3.79-18.81.74-31.31,12.8-35.33,59.1-81.09,101.11-99.93,9.37-4.2,18.9-6.43,28.34-7.08ZM353.54,881.14c30.47-2.08,66.22-10.88,94.44-21.77,40.15-15.49,69.17-27.89,76.77-46.37,3.05-7.4,2.49-15.54-1.7-24.89-14.77-32.93-75.73-78.24-131.04-53.43-41.6,18.66-87.43,63.91-100.08,98.82-4.34,11.99-4.62,22.01-.82,29.79,7.53,15.42,32.43,19.9,62.44,17.85Z"/>
              </g>
              <g>
                <ellipse class="cls-1" cx="635.28" cy="664.62" rx="42.4" ry="37.24" transform="translate(-260.04 873.66) rotate(-59.43)"/>
                <path class="cls-1" d="M662.44,630.96c6.01,5.25,10.1,12.53,11.71,21.05,2.03,10.71-.09,22.08-5.97,32.04-5.88,9.96-14.82,17.31-25.17,20.7-10.4,3.41-20.98,2.42-29.79-2.78-18.15-10.72-23.01-36.19-10.85-56.78h0c12.16-20.59,36.82-28.63,54.96-17.91,1.83,1.08,3.53,2.31,5.11,3.69ZM609.45,696.85c1.46,1.27,3.05,2.43,4.77,3.44,8.32,4.91,18.33,5.84,28.19,2.61,9.9-3.25,18.46-10.29,24.1-19.84,5.64-9.55,7.67-20.45,5.73-30.68-1.93-10.19-7.58-18.51-15.9-23.43-17.22-10.17-40.68-2.44-52.29,17.23h0c-10.46,17.71-7.8,39.15,5.4,50.67Z"/>
              </g>
              <g>
                <path class="cls-1" d="M352.34,1247.37c-7.72,13.08-4.67,29.17,6.81,35.96s35.52,7.27,38-7.71c1.78-10.73-11.1-31.44-15.64-40.97-5.74-12.04-21.45-.35-29.18,12.73Z"/>
                <path class="cls-1" d="M379.77,1230.64c1.03.9,1.91,2.1,2.62,3.58.92,1.94,2.18,4.32,3.64,7.08,5.72,10.81,13.55,25.62,12.08,34.47-.79,4.76-3.73,8.46-8.5,10.68-9.34,4.36-23.34,2.21-30.96-2.29-5.8-3.42-9.73-9.2-11.07-16.28-1.33-7.02.06-14.49,3.92-21.01h0c5.37-9.1,15.34-18.58,23.23-18.23,1.93.09,3.63.77,5.04,2ZM356.58,1280.27c.95.83,1.97,1.57,3.07,2.21,7.19,4.25,20.37,6.29,29.14,2.2,4.22-1.97,6.71-5.08,7.4-9.24,1.36-8.2-6.61-23.27-11.88-33.24-1.47-2.77-2.73-5.17-3.68-7.15-1.36-2.85-3.37-4.35-5.99-4.47-6.87-.31-16.31,8.54-21.47,17.27h0c-3.61,6.12-4.92,13.1-3.68,19.66.98,5.17,3.45,9.58,7.08,12.75Z"/>
              </g>
              <g>
                <path class="cls-1" d="M427.96,1073.15c-19.67,38.07-30.34,79.38-5.88,93.83,24.47,14.45,67.97-14.76,94.87-48.23,26.85-33.4,25.59-57.91,8.18-80.37-20.33-26.23-69.58-18.66-97.17,34.77Z"/>
                <path class="cls-1" d="M520.88,1032.45c1.83,1.59,3.51,3.37,5.02,5.33,19.48,25.13,16.96,50.29-8.19,81.57-28.19,35.07-71.86,62.79-96.13,48.46-30.16-17.81-6.2-72.45,5.51-95.11h0c14.94-28.93,38.2-47.51,62.21-49.71,12.2-1.12,23.35,2.29,31.57,9.46ZM418.54,1163.24c1.21,1.06,2.55,2.02,4.03,2.9,23.36,13.8,65.95-13.57,93.62-48,24.48-30.45,27-54.87,8.17-79.16-7.93-10.23-20.64-15.35-34.88-14.04-23.35,2.14-46.02,20.33-60.66,48.66h0c-10.86,21.03-32.6,70.16-10.28,89.65Z"/>
              </g>
              <g>
                <ellipse class="cls-1" cx="601.21" cy="44.63" rx="44.5" ry="39.08" transform="translate(257.05 539.61) rotate(-59.43)"/>
                <path class="cls-1" d="M629.69,9.34c6.3,5.5,10.58,13.14,12.28,22.07,2.13,11.22-.1,23.15-6.26,33.59-12.75,21.59-38.6,30.01-57.61,18.78-19.02-11.23-24.12-37.93-11.37-59.52h0c12.75-21.59,38.6-30.02,57.61-18.78,1.92,1.13,3.7,2.43,5.35,3.86ZM574.06,78.49c1.54,1.34,3.21,2.55,5.01,3.62,18.09,10.69,42.74,2.57,54.95-18.09,5.92-10.03,8.06-21.48,6.02-32.24-2.03-10.71-7.96-19.46-16.71-24.62-18.09-10.69-42.74-2.57-54.95,18.09-10.99,18.6-8.2,41.14,5.67,53.24Z"/>
              </g>
              <g>
                <path class="cls-1" d="M856.69,933.59c-17.47,7.69-11.56,40.07,7.8,52.48,16.12,10.33,35.26,5.45,44.04-14.43,7.77-17.59,6.64-38.31-8.63-45.53-18.11-8.56-26.95.33-43.21,7.49Z"/>
                <path class="cls-1" d="M905.63,928.68c10.89,9.5,10.55,28.04,3.79,43.35-4.3,9.74-11.4,16.53-19.99,19.11-8.26,2.49-17.31.97-25.47-4.26-11.8-7.57-19.61-23.13-18.53-36.98.65-8.29,4.51-14.4,10.87-17.2h0c3.21-1.41,6.11-2.88,8.91-4.3,11.27-5.72,20.17-10.24,35.11-3.17,2.01.95,3.77,2.11,5.32,3.46ZM861.2,982.38c1.22,1.06,2.49,2.02,3.81,2.87,7.68,4.92,16.15,6.35,23.86,4.03,8.03-2.42,14.7-8.82,18.77-18.04,7.34-16.61,6.89-37.14-8.15-44.26-14.08-6.65-22.18-2.54-33.4,3.15-2.82,1.43-5.74,2.92-9,4.35-5.68,2.5-9.13,8.03-9.71,15.57-.89,11.42,4.88,24.51,13.83,32.32Z"/>
              </g>
              <g>
                <path class="cls-1" d="M778.49,54.7c-9.13,15.45-8.88,41.41,9.32,52.15,18.19,10.75,32.88,9.54,42.01-5.92,9.13-15.45,9.23-39.3-8.96-50.04-18.19-10.75-33.24-11.65-42.36,3.81Z"/>
                <path class="cls-1" d="M825.99,53.4c13.57,11.85,13.42,33.2,4.66,48.03-4.63,7.85-10.8,12.31-18.32,13.25-7.21.91-15.63-1.45-25.02-6.99-18.03-10.65-19.55-36.73-9.66-53.48,4.55-7.7,10.8-11.81,18.57-12.2,7.02-.35,15.47,2.35,25.13,8.05,1.7,1,3.24,2.12,4.64,3.34ZM784.15,103.01c1.26,1.1,2.65,2.11,4.15,3,9.01,5.32,17.02,7.59,23.79,6.74,6.89-.87,12.57-5.01,16.89-12.31,9.18-15.55,8.5-38.61-8.62-48.71-9.32-5.5-17.41-8.12-24.04-7.79-7.18.36-12.74,4.04-16.99,11.25-8.59,14.55-8.22,36.44,4.82,47.82Z"/>
              </g>
            </g>
          </g>
        </g>
      </g>
    </g>
  </g>
</svg>