<?xml version="1.0" encoding="UTF-8"?>
<svg id="Layer_2" xmlns="http://www.w3.org/2000/svg" viewBox="0 0 1490.74 1497.61">
  <defs>
    <style>
      .cls-1 {
        fill: none;
        stroke: #1a2933;
        stroke-miterlimit: 10;
      }
    </style>
  </defs>
  <g id="Layer_1-2" data-name="Layer_1">
    <g>
      <g>
        <g>
          <ellipse class="cls-1" cx="531.71" cy="33.96" rx="40.97" ry="32.24" transform="translate(4.29 109.45) rotate(-11.8)"/>
          <path class="cls-1" d="M495.4,52.3c-2.09-2.98-3.54-6.3-4.28-9.86-3.69-17.67,11.51-35.85,33.9-40.53,10.82-2.26,21.69-1.07,30.61,3.36,8.96,4.45,14.88,11.62,16.67,20.21,3.69,17.67-11.51,35.85-33.9,40.53-10.82,2.26-21.69,1.07-30.61-3.36-5.24-2.6-9.45-6.14-12.39-10.35ZM567.2,16.2c-2.85-4.07-6.93-7.5-12.01-10.03-8.72-4.33-19.36-5.49-29.96-3.28-21.84,4.56-36.7,22.21-33.12,39.34,1.73,8.28,7.46,15.21,16.14,19.51,8.72,4.33,19.36,5.49,29.96,3.28,21.84-4.56,36.7-22.21,33.12-39.34-.71-3.42-2.12-6.62-4.12-9.49Z"/>
        </g>
        <g>
          <ellipse class="cls-1" cx="872.38" cy="312.89" rx="25.76" ry="32.73" transform="translate(399.2 1109.8) rotate(-79.03)"/>
          <path class="cls-1" d="M899.94,329.25c-6.85,7.88-19.39,11.87-32.53,9.32-8.67-1.68-16.31-5.92-21.51-11.94-5.22-6.05-7.37-13.16-6.04-20.04,1.33-6.88,5.98-12.68,13.09-16.34,7.07-3.64,15.74-4.72,24.41-3.04,17.93,3.48,30.29,17.82,27.55,31.98-.73,3.78-2.47,7.18-4.97,10.05ZM845.44,297.03c-2.45,2.83-4.1,6.12-4.79,9.71-1.29,6.63.79,13.51,5.86,19.37,5.08,5.88,12.56,10.03,21.06,11.68,17.5,3.39,33.9-5.02,36.56-18.74,2.66-13.73-9.41-27.65-26.91-31.05h0c-8.49-1.65-16.98-.59-23.9,2.97-3.15,1.62-5.8,3.67-7.87,6.06Z"/>
        </g>
        <g>
          <ellipse class="cls-1" cx="945.18" cy="65.8" rx="25.76" ry="32.73" transform="translate(275.78 736.32) rotate(-49.03)"/>
          <path class="cls-1" d="M970.19,87.52c-9.46,10.89-28.37,10-42.16-1.97s-17.32-30.58-7.87-41.47c9.46-10.89,28.37-10.01,42.16,1.97s17.32,30.58,7.86,41.47ZM920.76,44.6c-9.17,10.56-5.67,28.65,7.79,40.34,13.46,11.69,31.87,12.61,41.04,2.05s5.67-28.66-7.79-40.34-31.87-12.61-41.04-2.05Z"/>
        </g>
        <g>
          <path class="cls-1" d="M725.33,435.91c23.31,4.52,50.02-10.01,53.4-27.48,3.39-17.48-17.97-41.79-41.27-46.31-23.31-4.52-44.9,10.68-48.29,28.16-3.39,17.48,12.86,41.12,36.16,45.63Z"/>
          <path class="cls-1" d="M772.89,420.86c-10.15,11.69-30.06,18.95-47.65,15.54-24.3-4.71-39.87-29.14-36.56-46.22,1.71-8.79,7.87-17.05,16.9-22.66,9.58-5.94,20.93-8.04,31.97-5.9,23.32,4.52,45.12,29.06,41.67,46.89-.86,4.43-3.1,8.61-6.34,12.34ZM696.84,376.2c-3.7,4.27-6.21,9.13-7.18,14.18-3.23,16.64,12.01,40.44,35.77,45.05,22.28,4.32,49.43-9.6,52.82-27.09,3.37-17.36-18.03-41.29-40.88-45.72-10.79-2.09-21.89-.04-31.26,5.76-3.59,2.23-6.71,4.88-9.27,7.82Z"/>
        </g>
        <g>
          <path class="cls-1" d="M800.01,132.67c3.26,20.83,23.45,38.75,39.07,36.31,15.62-2.45,29.48-27.62,26.22-48.45-3.26-20.83-22.47-34.28-38.09-31.84-15.62,2.45-30.46,23.15-27.2,43.97Z"/>
          <path class="cls-1" d="M854,160.1c-4.49,5.18-9.71,8.51-14.85,9.31-7.66,1.2-16.61-2.28-24.54-9.54-8-7.32-13.49-17.22-15.04-27.14h0c-1.53-9.76.87-20.4,6.59-29.19,5.44-8.37,13.29-14.09,20.98-15.29,15.46-2.42,35.26,10.84,38.6,32.21,1.56,9.99-.65,21.43-6.08,31.4-1.68,3.09-3.6,5.86-5.66,8.24ZM810.32,99.48c-1.22,1.41-2.37,2.93-3.42,4.55-5.6,8.61-7.95,19.02-6.45,28.57h0c1.52,9.73,6.9,19.43,14.76,26.62,7.62,6.97,16.52,10.46,23.8,9.32,7.23-1.13,14.65-7.52,19.87-17.1,5.26-9.65,7.49-21.18,5.98-30.84-3.27-20.87-22.54-33.82-37.59-31.47-5.97.93-12.05,4.69-16.95,10.34Z"/>
        </g>
        <g>
          <path class="cls-1" d="M707.8,19.46c-12.34-20.28-57.46-.34-72.89,8.54-25.44,14.65-25.3,35.54-14.81,54.76,16.68,30.58,27.19,40.62,52.29,22.62,17.45-12.51,48.76-63.96,35.41-85.91Z"/>
          <path class="cls-1" d="M682.13,96.76c-3.37,3.88-6.61,6.99-9.44,9.03-10.39,7.45-18.46,10.17-25.42,8.58-10.03-2.29-17.71-13.24-27.6-31.37-8.86-16.24-13.44-39.04,15-55.43,16.2-9.33,61-29.03,73.57-8.37h0c11.33,18.63-9.05,57.92-26.1,77.56ZM621.86,39.01c-12.43,14.31-8.19,30.93-1.33,43.51,9.75,17.88,17.29,28.66,26.95,30.87,6.66,1.52,14.48-1.16,24.61-8.42,16.99-12.18,48.59-63.35,35.27-85.25-12.09-19.87-57.32.14-72.21,8.72-5.72,3.29-10.07,6.86-13.3,10.57Z"/>
        </g>
        <g>
          <path class="cls-1" d="M450.95,364.81c23.7,1.3,36.18-47.32,33.89-64.98-1.11-8.56-19.93-34.21-34.83-37.54-41.08-9.18-47.05,13.7-46.14,27.54,1.5,22.83,21.42,73.57,47.07,74.98Z"/>
          <path class="cls-1" d="M468.14,356.7c-.27.31-.53.6-.8.9-5.05,5.44-10.57,8.03-16.42,7.71h0c-26.59-1.45-46.08-53.11-47.55-75.44-.38-5.82.21-16.63,8.46-23.7,7.93-6.8,20.81-8.27,38.28-4.36,14.88,3.32,34.02,28.72,35.22,37.96,1.73,13.3-4.74,42.59-17.19,56.94ZM450.97,364.31c5.54.3,10.79-2.18,15.63-7.39,12.81-13.78,19.48-43.63,17.74-57.02-1.14-8.79-20.22-33.94-34.44-37.11-17.14-3.83-29.73-2.43-37.41,4.15-7.94,6.8-8.49,17.24-8.12,22.87,1.41,21.44,21,73.11,46.6,74.51Z"/>
        </g>
        <g>
          <ellipse class="cls-1" cx="362.27" cy="248.86" rx="15.83" ry="18.8" transform="translate(49.02 557.15) rotate(-79.03)"/>
          <path class="cls-1" d="M377.95,259.19c-1.22,1.41-2.74,2.63-4.51,3.62-4.16,2.32-9.23,3.05-14.27,2.08-10.45-2.03-17.55-10.86-15.84-19.7,1.71-8.84,11.61-14.38,22.05-12.36h0c5.05.98,9.47,3.55,12.46,7.26,3.01,3.73,4.21,8.15,3.38,12.44-.48,2.48-1.6,4.74-3.27,6.66ZM347.35,239.19c-1.52,1.75-2.59,3.85-3.05,6.18-1.61,8.3,5.14,16.61,15.05,18.53,4.81.93,9.64.23,13.6-1.97,3.92-2.19,6.51-5.59,7.29-9.6.78-4-.35-8.13-3.17-11.62-2.84-3.52-7.06-5.97-11.87-6.9-7.12-1.38-13.95.91-17.84,5.38Z"/>
        </g>
        <g>
          <ellipse class="cls-1" cx="373.8" cy="398.5" rx="15.83" ry="18.8" transform="translate(-88.55 689.64) rotate(-79.03)"/>
          <path class="cls-1" d="M389.48,408.83c-1.22,1.41-2.74,2.63-4.51,3.62-4.16,2.32-9.23,3.05-14.27,2.08-10.45-2.03-17.55-10.86-15.84-19.7,1.71-8.84,11.61-14.38,22.05-12.36h0c5.05.98,9.47,3.55,12.46,7.26,3.01,3.73,4.21,8.15,3.38,12.44-.48,2.48-1.6,4.74-3.27,6.66ZM358.88,388.84c-1.52,1.75-2.59,3.85-3.05,6.18-1.61,8.3,5.14,16.61,15.05,18.53,4.81.93,9.64.23,13.6-1.97,3.92-2.19,6.51-5.59,7.29-9.6.78-4-.35-8.13-3.17-11.62-2.84-3.52-7.06-5.97-11.87-6.9-7.12-1.38-13.95.91-17.84,5.38Z"/>
        </g>
        <g>
          <ellipse class="cls-1" cx="426.67" cy="43.44" rx="29.91" ry="28.93" transform="translate(114.12 337.12) rotate(-49.03)"/>
          <path class="cls-1" d="M448.89,62.74c-11,12.66-29.91,14.31-42.16,3.67s-13.27-29.59-2.28-42.26,29.91-14.31,42.16-3.67,13.27,29.59,2.28,42.26ZM405.21,24.81c-10.63,12.25-9.66,30.57,2.18,40.85s30.11,8.67,40.75-3.57,9.66-30.57-2.18-40.85-30.11-8.68-40.75,3.57Z"/>
        </g>
        <g>
          <ellipse class="cls-1" cx="706.26" cy="163.3" rx="29.91" ry="28.93" transform="translate(119.89 589.5) rotate(-49.03)"/>
          <path class="cls-1" d="M728.48,182.59c-11,12.66-29.91,14.31-42.16,3.67-12.25-10.64-13.27-29.59-2.28-42.26,11-12.66,29.91-14.31,42.16-3.67,12.25,10.64,13.27,29.59,2.28,42.26ZM684.8,144.66c-10.63,12.25-9.66,30.57,2.18,40.85s30.11,8.67,40.75-3.57,9.66-30.57-2.18-40.85c-11.83-10.28-30.11-8.67-40.75,3.57Z"/>
        </g>
        <g>
          <path class="cls-1" d="M931.57,159.95c-10.96-2.12-24.05,7.44-25.91,17.07-1.87,9.63,7.8,14.17,18.76,16.29,10.96,2.12,22.65-6.73,24.52-16.36s-6.41-14.88-17.37-17Z"/>
          <path class="cls-1" d="M944.86,185.91c-4.83,5.57-12.67,9.42-20.54,7.9-14.35-2.78-20.79-8.46-19.16-16.88.92-4.76,4.57-9.72,9.76-13.26,5.4-3.69,11.5-5.22,16.74-4.2,13.16,2.55,19.47,8.8,17.77,17.59-.6,3.07-2.23,6.16-4.57,8.85ZM910.4,168.98c-2.22,2.56-3.73,5.38-4.26,8.13-1.51,7.77,4.67,13.05,18.37,15.71,11.13,2.16,22.19-6.97,23.94-15.96,2.13-11.01-9.72-15.01-16.97-16.42-4.98-.97-10.81.51-15.99,4.05-1.94,1.33-3.66,2.85-5.08,4.49Z"/>
        </g>
        <g>
          <ellipse class="cls-1" cx="488.81" cy="126.11" rx="16.29" ry="15.3" transform="translate(271.99 581.99) rotate(-79.03)"/>
          <path class="cls-1" d="M500.37,137.26c-3.65,4.2-9.17,6.41-14.76,5.32-8.55-1.66-14.08-10.4-12.32-19.49.85-4.4,3.26-8.22,6.79-10.76,3.53-2.55,7.77-3.51,11.92-2.71h0c4.15.8,7.71,3.28,10.04,6.97,2.32,3.68,3.13,8.12,2.28,12.52-.61,3.15-2.01,5.93-3.95,8.15ZM477.99,115.6c-1.86,2.14-3.15,4.78-3.71,7.69-1.66,8.55,3.51,16.76,11.52,18.32,8.01,1.55,15.87-4.14,17.53-12.68.8-4.15.04-8.34-2.14-11.8-2.18-3.45-5.51-5.77-9.38-6.52h0c-3.87-.75-7.83.15-11.14,2.54-.99.72-1.89,1.54-2.68,2.45Z"/>
        </g>
        <g>
          <path class="cls-1" d="M620.29,409.84c-8.75-3-16.93.63-17.58,10.28-.49,7.4,1.93,16.49,10.23,18.1,8.29,1.61,18.4-4.99,19.81-12.28,1.41-7.29-4.47-13.36-12.46-16.1Z"/>
          <path class="cls-1" d="M630.08,432.1c-1.2,1.38-2.69,2.66-4.39,3.73-4.13,2.61-8.81,3.65-12.85,2.87-8.65-1.68-11.14-11.08-10.63-18.62.29-4.34,2.06-7.72,5.14-9.77,3.43-2.28,8.21-2.63,13.1-.96h0c8.99,3.08,14.13,9.78,12.79,16.67-.4,2.08-1.51,4.18-3.16,6.07ZM605.94,412.88c-1.6,1.84-2.53,4.31-2.73,7.27-.47,7.14,1.81,16.02,9.83,17.57,3.79.73,8.21-.26,12.12-2.73,3.8-2.4,6.45-5.82,7.1-9.15,1.26-6.48-3.51-12.58-12.13-15.53h0c-4.6-1.58-9.05-1.27-12.22.84-.74.49-1.39,1.07-1.96,1.72Z"/>
        </g>
        <g>
          <path class="cls-1" d="M796.61,206.49c-16.73-5.14-32.46,4.99-33.89,24.76-1.23,16.94,2.19,35.95,17.68,38.95,15.49,3,35.17-11.41,38.4-28.08,3.23-16.67-7.11-30.99-22.19-35.63Z"/>
          <path class="cls-1" d="M811.47,257.48c-8.06,9.28-20.6,15.26-31.16,13.21-18.64-3.61-18.86-28.81-18.08-39.48.7-9.69,4.85-17.6,11.67-22.27,6.48-4.43,14.6-5.47,22.87-2.93h0c16.16,4.97,25.63,20.19,22.53,36.2-1.07,5.51-3.92,10.77-7.82,15.27ZM769.96,213.78c-3.89,4.48-6.24,10.51-6.74,17.5-.75,10.4-.58,34.97,17.28,38.43,15.2,2.94,34.63-11.29,37.81-27.69,3-15.5-6.18-30.24-21.84-35.05h0c-7.97-2.45-15.79-1.45-22.01,2.8-1.67,1.14-3.17,2.49-4.49,4.01Z"/>
        </g>
        <g>
          <path class="cls-1" d="M782.28,6.82c-14.62,10.92-14.11,28-2.67,41.88,12.72,15.44,29.67,21.76,41.57,5.75,9.41-12.66,13.41-28.73,2.67-41.88-10.74-13.15-28.94-15.2-41.57-5.75Z"/>
          <path class="cls-1" d="M820.03,56.69c-4.26,4.91-9.24,7.46-14.82,7.6-8.47.21-17.7-5.21-25.99-15.27-6.38-7.74-9.36-16.43-8.39-24.47.85-7.05,4.7-13.32,11.14-18.13,13.06-9.76,31.62-7.19,42.26,5.84,13.68,16.74,2.7,35.3-2.65,42.5-.51.68-1.02,1.33-1.55,1.94ZM777.72,11.7c-3.31,3.81-5.32,8.21-5.89,12.97-.94,7.76,1.96,16.19,8.17,23.72,7.97,9.67,17.15,15.11,25.19,14.91,5.95-.15,11.2-3.23,15.6-9.13,5.21-7.01,15.91-25.07,2.68-41.27-10.3-12.61-28.26-15.1-40.89-5.67-1.84,1.38-3.47,2.88-4.86,4.48Z"/>
        </g>
        <g>
          <path class="cls-1" d="M870.8,390.19c-15.49-3-29.08,12.95-32.31,29.63-3.23,16.67,7.7,39.07,22.83,37.41,29.85-3.27,30.9-8.29,33.89-24.76,3.04-16.71-8.92-39.28-24.41-42.29Z"/>
          <path class="cls-1" d="M890.22,448.62c-4.1,4.72-11.9,7.25-28.85,9.11-5.25.57-10.3-1.6-14.62-6.29-7.13-7.75-10.81-21.09-8.75-31.72,1.65-8.53,5.92-16.71,11.7-22.45,6.35-6.3,13.87-8.99,21.2-7.57,15.3,2.97,28.05,25,24.8,42.87-1.31,7.22-2.24,12.32-5.48,16.05ZM848.59,399.92c-4.72,5.43-8.17,12.58-9.61,19.99-2.01,10.35,1.57,23.32,8.51,30.85,2.85,3.1,7.56,6.65,13.77,5.97,29.62-3.24,30.51-8.13,33.45-24.35,3.1-17.06-9.47-38.88-24.01-41.71h0c-6.99-1.35-14.2,1.24-20.3,7.3-.62.62-1.23,1.27-1.81,1.94Z"/>
        </g>
        <g>
          <path class="cls-1" d="M535.36,300.04c1.91,31.84-26.36,41.63-21.98,54.05,9.9,28.04,48.95,20.57,77.05-8.97,23.47-24.66,21.66-51.63,6.45-64.08-15.21-12.45-63.56-14.98-61.53,19Z"/>
          <path class="cls-1" d="M587.53,275.47c3.85,1.39,7.19,3.15,9.67,5.19,6.79,5.55,10.85,13.85,11.44,23.36.86,13.74-5.48,28.46-17.84,41.46-18.22,19.14-41.84,29.57-58.8,25.95-9.22-1.98-15.82-7.9-19.09-17.16-1.93-5.47,2.08-10.35,7.15-16.52,7.08-8.63,15.9-19.36,14.8-37.67-.65-10.92,3.84-19.16,13.01-23.84,11.3-5.77,27.87-5.02,39.66-.76ZM528.66,369.43c1.13.41,2.32.75,3.55,1.01,16.63,3.55,39.88-6.76,57.86-25.66,12.17-12.79,18.41-27.24,17.57-40.7-.57-9.23-4.51-17.27-11.07-22.64-9.87-8.08-33.59-11.8-48.25-4.31-8.78,4.49-13.09,12.4-12.46,22.89,1.12,18.7-8.21,30.06-15.03,38.36-4.87,5.93-8.72,10.62-6.98,15.55,2.71,7.67,7.79,12.97,14.8,15.5Z"/>
        </g>
        <g>
          <path class="cls-1" d="M622.62,170.3c-12.63-27.97-49.2-60.55-66.84-51.88-16.55,8.13-8.88,53.25,1.97,81.17,11.12,28.61,19.44,46.81,37.35,38.73,17.91-8.09,40.15-40.04,27.52-68.01Z"/>
          <path class="cls-1" d="M626.74,184.63c1.72,24.34-17.08,47.65-31.44,54.13-5.06,2.28-9.5,2.58-13.57.92-9.87-4.03-16.36-19.09-24.46-39.92-11.31-29.09-18.2-73.71-1.72-81.8,4.24-2.08,9.65-1.97,16.08.34,18.16,6.53,41.71,30.24,51.44,51.79,2.17,4.8,3.33,9.69,3.67,14.54ZM546.91,150.94c1.11,15.64,5.67,33.98,11.3,48.46,8.01,20.6,14.41,35.48,23.9,39.36,3.8,1.55,7.98,1.26,12.78-.91,16.89-7.62,40.07-38.98,27.27-67.35-9.63-21.34-32.92-44.81-50.86-51.26-6.16-2.22-11.31-2.34-15.3-.39-7.91,3.89-10.17,16.67-9.08,32.08Z"/>
        </g>
        <g>
          <ellipse class="cls-1" cx="658.44" cy="295.32" rx="19.12" ry="21.77" transform="translate(70.37 713.56) rotate(-59.58)"/>
          <path class="cls-1" d="M675.76,309.22c-2.69,3.09-6.42,5.2-10.79,6.04-5.49,1.05-11.34-.02-16.46-3.03-5.12-3.01-8.9-7.59-10.66-12.9-1.76-5.33-1.27-10.77,1.39-15.3,5.48-9.33,18.55-11.86,29.14-5.64h0c10.59,6.22,14.75,18.87,9.27,28.19-.55.94-1.18,1.82-1.89,2.63ZM641.86,282.1c-.65.75-1.24,1.57-1.76,2.45-2.51,4.28-2.98,9.42-1.3,14.48,1.68,5.08,5.31,9.47,10.22,12.35,4.91,2.88,10.51,3.91,15.76,2.91,5.23-1.01,9.49-3.91,12.01-8.19,5.2-8.85,1.2-20.89-8.91-26.83h0c-9.11-5.35-20.11-3.96-26.01,2.84Z"/>
        </g>
        <g>
          <path class="cls-1" d="M358.88,150.79c-6.72-3.95-14.98-2.36-18.45,3.54s-3.69,18.25,4.01,19.5c5.51.9,16.13-5.74,21.01-8.08,6.17-2.96.15-11.02-6.57-14.96Z"/>
          <path class="cls-1" d="M367.51,164.86c-.46.53-1.08.99-1.84,1.35-1,.48-2.22,1.13-3.63,1.88-5.55,2.95-13.14,6.99-17.68,6.25-2.45-.4-4.35-1.9-5.5-4.35-2.25-4.79-1.16-11.98,1.14-15.9,1.75-2.98,4.71-5.01,8.34-5.7,3.6-.69,7.44.01,10.79,1.98h0c4.68,2.75,9.56,7.85,9.39,11.91-.04.99-.39,1.86-1.02,2.59ZM341.99,153.01c-.42.49-.8,1.01-1.13,1.58-2.17,3.7-3.21,10.47-1.09,14.97,1.02,2.17,2.62,3.44,4.75,3.79,4.21.69,11.94-3.42,17.05-6.14,1.42-.76,2.65-1.41,3.66-1.9,1.46-.7,2.23-1.74,2.29-3.08.15-3.53-4.41-8.37-8.9-11h0c-3.15-1.85-6.73-2.51-10.1-1.86-2.65.51-4.91,1.78-6.54,3.65Z"/>
        </g>
        <g>
          <path class="cls-1" d="M448.43,189.39c-19.57-10.05-40.79-15.48-48.18-2.9-7.39,12.58,7.67,34.88,24.88,48.65,17.18,13.74,29.77,13.06,41.27,4.1,13.44-10.47,9.49-35.75-17.98-49.85Z"/>
          <path class="cls-1" d="M469.44,237.05c-.82.94-1.73,1.8-2.73,2.59-12.88,10.04-25.8,8.77-41.89-4.1-18.04-14.43-32.33-36.81-25-49.29,9.11-15.51,37.19-3.27,48.84,2.71h0c14.87,7.64,24.44,19.55,25.6,31.88.59,6.26-1.15,11.99-4.82,16.22ZM402.16,184.68c-.54.62-1.04,1.31-1.48,2.07-7.05,12.01,7.05,33.84,24.77,48.01,15.67,12.53,28.21,13.79,40.65,4.09,5.24-4.09,7.85-10.62,7.17-17.93-1.13-11.98-10.5-23.6-25.06-31.08h0c-10.81-5.55-36.07-16.65-46.04-5.16Z"/>
        </g>
        <g>
          <ellipse class="cls-1" cx="976.73" cy="277.04" rx="20.07" ry="22.85" transform="translate(243.25 979) rotate(-59.58)"/>
          <path class="cls-1" d="M994.88,291.61c-2.82,3.24-6.73,5.45-11.31,6.33-5.76,1.11-11.89-.02-17.25-3.17-11.1-6.52-15.46-19.78-9.72-29.56,5.74-9.78,19.45-12.43,30.55-5.91h0c11.1,6.52,15.46,19.78,9.72,29.56-.58.98-1.24,1.91-1.98,2.75ZM959.31,263.14c-.69.79-1.31,1.65-1.85,2.58-5.46,9.3-1.26,21.95,9.36,28.19,5.16,3.03,11.04,4.11,16.56,3.05,5.5-1.06,9.98-4.11,12.62-8.61,5.46-9.3,1.26-21.95-9.36-28.19-9.57-5.62-21.13-4.16-27.33,2.98Z"/>
        </g>
        <g>
          <path class="cls-1" d="M520.63,409.34c-3.97-8.96-20.59-5.89-26.93,4.07-5.28,8.29-2.75,18.11,7.46,22.59,9.04,3.97,19.68,3.36,23.37-4.49,4.37-9.31-.2-13.84-3.9-22.18Z"/>
          <path class="cls-1" d="M523.21,434.47c-4.87,5.6-14.38,5.45-22.25,2-5.01-2.2-8.5-5.83-9.84-10.24-1.29-4.24-.52-8.88,2.15-13.08,3.87-6.07,11.85-10.1,18.96-9.56,4.26.32,7.4,2.3,8.85,5.56h0c.73,1.65,1.49,3.13,2.22,4.57,2.95,5.78,5.28,10.34,1.67,18.02-.48,1.03-1.08,1.94-1.77,2.73ZM495.59,411.72c-.54.63-1.04,1.28-1.47,1.96-2.52,3.95-3.24,8.3-2.04,12.25,1.25,4.12,4.55,7.53,9.28,9.61,8.54,3.75,19.08,3.49,22.71-4.24,3.4-7.24,1.28-11.39-1.66-17.14-.74-1.45-1.5-2.94-2.24-4.62-1.29-2.91-4.13-4.68-8.01-4.97-5.86-.44-12.58,2.54-16.58,7.14Z"/>
        </g>
        <g>
          <path class="cls-1" d="M971.78,368.07c-7.95-4.67-21.27-4.51-26.76,4.85s-4.85,16.89,3.09,21.56c7.95,4.67,20.19,4.69,25.68-4.66,5.49-9.36,5.94-17.08-2.01-21.75Z"/>
          <path class="cls-1" d="M972.51,392.45c-6.07,6.99-17.03,6.93-24.66,2.46-4.04-2.37-6.33-5.53-6.83-9.39-.47-3.7.72-8.03,3.56-12.86,5.45-9.27,18.83-10.09,27.45-5.03,3.96,2.33,6.08,5.53,6.29,9.52.19,3.6-1.19,7.95-4.1,12.91-.51.87-1.09,1.67-1.71,2.39ZM946.98,371.04c-.56.65-1.08,1.36-1.53,2.14-2.72,4.63-3.88,8.75-3.43,12.22.45,3.54,2.59,6.45,6.34,8.65,8,4.7,19.83,4.32,25-4.49,2.81-4.79,4.15-8.95,3.97-12.35-.2-3.69-2.09-6.53-5.8-8.71-7.48-4.39-18.72-4.17-24.55,2.54Z"/>
        </g>
      </g>
      <g>
        <g>
          <ellipse class="cls-1" cx="390.02" cy="501.43" rx="40.97" ry="32.24" transform="translate(-94.29 90.35) rotate(-11.8)"/>
          <path class="cls-1" d="M353.71,519.77c-2.09-2.98-3.54-6.3-4.28-9.86-3.69-17.67,11.51-35.85,33.9-40.53,10.82-2.26,21.69-1.07,30.61,3.36,8.96,4.45,14.88,11.62,16.67,20.21,3.69,17.67-11.51,35.85-33.9,40.53-10.82,2.26-21.69,1.07-30.61-3.36-5.24-2.6-9.45-6.14-12.39-10.35ZM425.5,483.66c-2.85-4.07-6.93-7.5-12.01-10.03-8.72-4.33-19.36-5.49-29.96-3.28-21.84,4.56-36.7,22.21-33.12,39.34,1.73,8.28,7.46,15.21,16.14,19.51,8.72,4.33,19.36,5.49,29.96,3.28,21.84-4.56,36.7-22.21,33.12-39.34-.71-3.42-2.12-6.62-4.12-9.49Z"/>
        </g>
        <g>
          <ellipse class="cls-1" cx="730.69" cy="780.36" rx="25.76" ry="32.73" transform="translate(-174.45 1349.2) rotate(-79.03)"/>
          <path class="cls-1" d="M758.25,796.71c-6.85,7.88-19.39,11.87-32.53,9.32-8.67-1.68-16.31-5.92-21.51-11.94-5.22-6.05-7.37-13.16-6.04-20.04,1.33-6.88,5.98-12.68,13.09-16.34,7.07-3.64,15.74-4.72,24.41-3.04,17.93,3.48,30.29,17.82,27.55,31.98-.73,3.78-2.47,7.18-4.97,10.05ZM703.74,764.49c-2.45,2.83-4.1,6.12-4.79,9.71-1.29,6.63.79,13.51,5.86,19.37,5.08,5.88,12.56,10.03,21.06,11.68,17.5,3.39,33.9-5.02,36.56-18.74,2.66-13.73-9.41-27.65-26.91-31.05h0c-8.49-1.65-16.98-.59-23.9,2.97-3.15,1.62-5.8,3.67-7.87,6.06Z"/>
        </g>
        <g>
          <ellipse class="cls-1" cx="803.48" cy="533.27" rx="25.76" ry="32.73" transform="translate(-125.97 790.3) rotate(-49.03)"/>
          <path class="cls-1" d="M828.5,554.99c-9.46,10.89-28.37,10-42.16-1.97s-17.32-30.58-7.87-41.47c9.46-10.89,28.37-10.01,42.16,1.97s17.32,30.58,7.86,41.47ZM779.07,512.07c-9.17,10.56-5.67,28.65,7.79,40.34,13.46,11.69,31.87,12.61,41.04,2.05s5.67-28.66-7.79-40.34-31.87-12.61-41.04-2.05Z"/>
        </g>
        <g>
          <path class="cls-1" d="M583.64,903.38c23.31,4.52,50.02-10.01,53.4-27.48,3.39-17.48-17.97-41.79-41.27-46.31-23.31-4.52-44.9,10.68-48.29,28.16-3.39,17.48,12.86,41.12,36.16,45.63Z"/>
          <path class="cls-1" d="M631.19,888.32c-10.15,11.69-30.06,18.95-47.65,15.54-24.3-4.71-39.87-29.14-36.56-46.22,1.71-8.79,7.87-17.05,16.9-22.66,9.58-5.94,20.93-8.04,31.97-5.9,23.32,4.52,45.12,29.06,41.67,46.89-.86,4.43-3.1,8.61-6.34,12.34ZM555.15,843.66c-3.7,4.27-6.21,9.13-7.18,14.18-3.23,16.64,12.01,40.44,35.77,45.05,22.28,4.32,49.43-9.6,52.82-27.09,3.37-17.36-18.03-41.29-40.88-45.72-10.79-2.09-21.89-.04-31.26,5.76-3.59,2.23-6.71,4.88-9.27,7.82Z"/>
        </g>
        <g>
          <path class="cls-1" d="M658.31,600.13c3.26,20.83,23.45,38.75,39.07,36.31,15.62-2.45,29.48-27.62,26.22-48.45-3.26-20.83-22.47-34.28-38.09-31.84-15.62,2.45-30.46,23.15-27.2,43.97Z"/>
          <path class="cls-1" d="M712.3,627.57c-4.49,5.18-9.71,8.51-14.85,9.31-7.66,1.2-16.61-2.28-24.54-9.54-8-7.32-13.49-17.22-15.04-27.14h0c-1.53-9.76.87-20.4,6.59-29.19,5.44-8.37,13.29-14.09,20.98-15.29,15.46-2.42,35.26,10.84,38.6,32.21,1.56,9.99-.65,21.43-6.08,31.4-1.68,3.09-3.6,5.86-5.66,8.24ZM668.63,566.94c-1.22,1.41-2.37,2.93-3.42,4.55-5.6,8.61-7.95,19.02-6.45,28.57h0c1.52,9.73,6.9,19.43,14.76,26.62,7.62,6.97,16.52,10.46,23.8,9.32,7.23-1.13,14.65-7.52,19.87-17.1,5.26-9.65,7.49-21.18,5.98-30.84-3.27-20.87-22.54-33.82-37.59-31.47-5.97.93-12.05,4.69-16.95,10.34Z"/>
        </g>
        <g>
          <path class="cls-1" d="M566.11,486.92c-12.34-20.28-57.46-.34-72.89,8.54-25.44,14.65-25.3,35.54-14.81,54.76,16.68,30.58,27.19,40.62,52.29,22.62,17.45-12.51,48.76-63.96,35.41-85.91Z"/>
          <path class="cls-1" d="M540.43,564.22c-3.37,3.88-6.61,6.99-9.44,9.03-10.39,7.45-18.46,10.17-25.42,8.58-10.03-2.29-17.71-13.24-27.6-31.37-8.86-16.24-13.44-39.04,15-55.43,16.2-9.33,61-29.03,73.57-8.37h0c11.33,18.63-9.05,57.92-26.1,77.56ZM480.17,506.47c-12.43,14.31-8.19,30.93-1.33,43.51,9.75,17.88,17.29,28.66,26.95,30.87,6.66,1.52,14.48-1.16,24.61-8.42,16.99-12.18,48.59-63.35,35.27-85.25-12.09-19.87-57.32.14-72.21,8.72-5.72,3.29-10.07,6.86-13.3,10.57Z"/>
        </g>
        <g>
          <path class="cls-1" d="M309.25,832.27c23.7,1.3,36.18-47.32,33.89-64.98-1.11-8.56-19.93-34.21-34.83-37.54-41.08-9.18-47.05,13.7-46.14,27.54,1.5,22.83,21.42,73.57,47.07,74.98Z"/>
          <path class="cls-1" d="M326.45,824.16c-.27.31-.53.6-.8.9-5.05,5.44-10.57,8.03-16.42,7.71h0c-26.59-1.45-46.08-53.11-47.55-75.44-.38-5.82.21-16.63,8.46-23.7,7.93-6.8,20.81-8.27,38.28-4.36,14.88,3.32,34.02,28.72,35.22,37.96,1.73,13.3-4.74,42.59-17.19,56.94ZM309.28,831.77c5.54.3,10.79-2.18,15.63-7.39,12.81-13.78,19.48-43.63,17.74-57.02-1.14-8.79-20.22-33.94-34.44-37.11-17.14-3.83-29.73-2.43-37.41,4.15-7.94,6.8-8.49,17.24-8.12,22.87,1.41,21.44,21,73.11,46.6,74.51Z"/>
        </g>
        <g>
          <ellipse class="cls-1" cx="220.57" cy="716.32" rx="15.83" ry="18.8" transform="translate(-524.63 796.55) rotate(-79.03)"/>
          <path class="cls-1" d="M236.25,726.65c-1.22,1.41-2.74,2.63-4.51,3.62-4.16,2.32-9.23,3.05-14.27,2.08-10.45-2.03-17.55-10.86-15.84-19.7,1.71-8.84,11.61-14.38,22.05-12.36h0c5.05.98,9.47,3.55,12.46,7.26,3.01,3.73,4.21,8.15,3.38,12.44-.48,2.48-1.6,4.74-3.27,6.66ZM205.65,706.65c-1.52,1.75-2.59,3.85-3.05,6.18-1.61,8.3,5.14,16.61,15.05,18.53,4.81.93,9.64.23,13.6-1.97,3.92-2.19,6.51-5.59,7.29-9.6.78-4-.35-8.13-3.17-11.62-2.84-3.52-7.06-5.97-11.87-6.9-7.12-1.38-13.95.91-17.84,5.38Z"/>
        </g>
        <g>
          <ellipse class="cls-1" cx="232.11" cy="865.97" rx="15.83" ry="18.8" transform="translate(-662.2 929.05) rotate(-79.03)"/>
          <path class="cls-1" d="M247.79,876.3c-1.22,1.41-2.74,2.63-4.51,3.62-4.16,2.32-9.23,3.05-14.27,2.08-10.45-2.03-17.55-10.86-15.84-19.7,1.71-8.84,11.61-14.38,22.05-12.36h0c5.05.98,9.47,3.55,12.46,7.26,3.01,3.73,4.21,8.15,3.38,12.44-.48,2.48-1.6,4.74-3.27,6.66ZM217.19,856.3c-1.52,1.75-2.59,3.85-3.05,6.18-1.61,8.3,5.14,16.61,15.05,18.53,4.81.93,9.64.23,13.6-1.97,3.92-2.19,6.51-5.59,7.29-9.6.78-4-.35-8.13-3.17-11.62-2.84-3.52-7.06-5.97-11.87-6.9-7.12-1.38-13.95.91-17.84,5.38Z"/>
        </g>
        <g>
          <ellipse class="cls-1" cx="284.98" cy="510.91" rx="29.91" ry="28.93" transform="translate(-287.63 391.1) rotate(-49.03)"/>
          <path class="cls-1" d="M307.19,530.2c-11,12.66-29.91,14.31-42.16,3.67s-13.27-29.59-2.28-42.26,29.91-14.31,42.16-3.67,13.27,29.59,2.28,42.26ZM263.51,492.27c-10.63,12.25-9.66,30.57,2.18,40.85s30.11,8.67,40.75-3.57,9.66-30.57-2.18-40.85-30.11-8.68-40.75,3.57Z"/>
        </g>
        <g>
          <ellipse class="cls-1" cx="564.57" cy="630.76" rx="29.91" ry="28.93" transform="translate(-281.86 643.48) rotate(-49.03)"/>
          <path class="cls-1" d="M586.79,650.05c-11,12.66-29.91,14.31-42.16,3.67-12.25-10.64-13.27-29.59-2.28-42.26,11-12.66,29.91-14.31,42.16-3.67,12.25,10.64,13.27,29.59,2.28,42.26ZM543.11,612.12c-10.63,12.25-9.66,30.57,2.18,40.85s30.11,8.67,40.75-3.57,9.66-30.57-2.18-40.85c-11.83-10.28-30.11-8.67-40.75,3.57Z"/>
        </g>
        <g>
          <path class="cls-1" d="M789.87,627.42c-10.96-2.12-24.05,7.44-25.91,17.07-1.87,9.63,7.8,14.17,18.76,16.29,10.96,2.12,22.65-6.73,24.52-16.36s-6.41-14.88-17.37-17Z"/>
          <path class="cls-1" d="M803.17,653.37c-4.83,5.57-12.67,9.42-20.54,7.9-14.35-2.78-20.79-8.46-19.16-16.88.92-4.76,4.57-9.72,9.76-13.26,5.4-3.69,11.5-5.22,16.74-4.2,13.16,2.55,19.47,8.8,17.77,17.59-.6,3.07-2.23,6.16-4.57,8.85ZM768.71,636.45c-2.22,2.56-3.73,5.38-4.26,8.13-1.51,7.77,4.67,13.05,18.37,15.71,11.13,2.16,22.19-6.97,23.94-15.96,2.13-11.01-9.72-15.01-16.97-16.42-4.98-.97-10.81.51-15.99,4.05-1.94,1.33-3.66,2.85-5.08,4.49Z"/>
        </g>
        <g>
          <ellipse class="cls-1" cx="347.12" cy="593.57" rx="16.29" ry="15.3" transform="translate(-301.66 821.39) rotate(-79.03)"/>
          <path class="cls-1" d="M358.68,604.73c-3.65,4.2-9.17,6.41-14.76,5.32-8.55-1.66-14.08-10.4-12.32-19.49.85-4.4,3.26-8.22,6.79-10.76,3.53-2.55,7.77-3.51,11.92-2.71h0c4.15.8,7.71,3.28,10.04,6.97,2.32,3.68,3.13,8.12,2.28,12.52-.61,3.15-2.01,5.93-3.95,8.15ZM336.3,583.06c-1.86,2.14-3.15,4.78-3.71,7.69-1.66,8.55,3.51,16.76,11.52,18.32,8.01,1.55,15.87-4.14,17.53-12.68.8-4.15.04-8.34-2.14-11.8-2.18-3.45-5.51-5.77-9.38-6.52h0c-3.87-.75-7.83.15-11.14,2.54-.99.72-1.89,1.54-2.68,2.45Z"/>
        </g>
        <g>
          <path class="cls-1" d="M478.6,877.3c-8.75-3-16.93.63-17.58,10.28-.49,7.4,1.93,16.49,10.23,18.1,8.29,1.61,18.4-4.99,19.81-12.28,1.41-7.29-4.47-13.36-12.46-16.1Z"/>
          <path class="cls-1" d="M488.39,899.57c-1.2,1.38-2.69,2.66-4.39,3.73-4.13,2.61-8.81,3.65-12.85,2.87-8.65-1.68-11.14-11.08-10.63-18.62.29-4.34,2.06-7.72,5.14-9.77,3.43-2.28,8.21-2.63,13.1-.96h0c8.99,3.08,14.13,9.78,12.79,16.67-.4,2.08-1.51,4.18-3.16,6.07ZM464.25,880.34c-1.6,1.84-2.53,4.31-2.73,7.27-.47,7.14,1.81,16.02,9.83,17.57,3.79.73,8.21-.26,12.12-2.73,3.8-2.4,6.45-5.82,7.1-9.15,1.26-6.48-3.51-12.58-12.13-15.53h0c-4.6-1.58-9.05-1.27-12.22.84-.74.49-1.39,1.07-1.96,1.72Z"/>
        </g>
        <g>
          <path class="cls-1" d="M654.92,673.96c-16.73-5.14-32.46,4.99-33.89,24.76-1.23,16.94,2.19,35.95,17.68,38.95,15.49,3,35.17-11.41,38.4-28.08,3.23-16.67-7.11-30.99-22.19-35.63Z"/>
          <path class="cls-1" d="M669.78,724.95c-8.06,9.28-20.6,15.26-31.16,13.21-18.64-3.61-18.86-28.81-18.08-39.48.7-9.69,4.85-17.6,11.67-22.27,6.48-4.43,14.6-5.47,22.87-2.93h0c16.16,4.97,25.63,20.19,22.53,36.2-1.07,5.51-3.92,10.77-7.82,15.27ZM628.27,681.25c-3.89,4.48-6.24,10.51-6.74,17.5-.75,10.4-.58,34.97,17.28,38.43,15.2,2.94,34.63-11.29,37.81-27.69,3-15.5-6.18-30.24-21.84-35.05h0c-7.97-2.45-15.79-1.45-22.01,2.8-1.67,1.14-3.17,2.49-4.49,4.01Z"/>
        </g>
        <g>
          <path class="cls-1" d="M640.59,474.28c-14.62,10.92-14.11,28-2.67,41.88,12.72,15.44,29.67,21.76,41.57,5.75,9.41-12.66,13.41-28.73,2.67-41.88-10.74-13.15-28.94-15.2-41.57-5.75Z"/>
          <path class="cls-1" d="M678.34,524.15c-4.26,4.91-9.24,7.46-14.82,7.6-8.47.21-17.7-5.21-25.99-15.27-6.38-7.74-9.36-16.43-8.39-24.47.85-7.05,4.7-13.32,11.14-18.13,13.06-9.76,31.62-7.19,42.26,5.84,13.68,16.74,2.7,35.3-2.65,42.5-.51.68-1.02,1.33-1.55,1.94ZM636.03,479.16c-3.31,3.81-5.32,8.21-5.89,12.97-.94,7.76,1.96,16.19,8.17,23.72,7.97,9.67,17.15,15.11,25.19,14.91,5.95-.15,11.2-3.23,15.6-9.13,5.21-7.01,15.91-25.07,2.68-41.27-10.3-12.61-28.26-15.1-40.89-5.67-1.84,1.38-3.47,2.88-4.86,4.48Z"/>
        </g>
        <g>
          <path class="cls-1" d="M729.11,857.65c-15.49-3-29.08,12.95-32.31,29.63-3.23,16.67,7.7,39.07,22.83,37.41,29.85-3.27,30.9-8.29,33.89-24.76,3.04-16.71-8.92-39.28-24.41-42.29Z"/>
          <path class="cls-1" d="M748.52,916.08c-4.1,4.72-11.9,7.25-28.85,9.11-5.25.57-10.3-1.6-14.62-6.29-7.13-7.75-10.81-21.09-8.75-31.72,1.65-8.53,5.92-16.71,11.7-22.45,6.35-6.3,13.87-8.99,21.2-7.57,15.3,2.97,28.05,25,24.8,42.87-1.31,7.22-2.24,12.32-5.48,16.05ZM706.89,867.39c-4.72,5.43-8.17,12.58-9.61,19.99-2.01,10.35,1.57,23.32,8.51,30.85,2.85,3.1,7.56,6.65,13.77,5.97,29.62-3.24,30.51-8.13,33.45-24.35,3.1-17.06-9.47-38.88-24.01-41.71h0c-6.99-1.35-14.2,1.24-20.3,7.3-.62.62-1.23,1.27-1.81,1.94Z"/>
        </g>
        <g>
          <path class="cls-1" d="M393.67,767.5c1.91,31.84-26.36,41.63-21.98,54.05,9.9,28.04,48.95,20.57,77.05-8.97,23.47-24.66,21.66-51.63,6.45-64.08-15.21-12.45-63.56-14.98-61.53,19Z"/>
          <path class="cls-1" d="M445.84,742.93c3.85,1.39,7.19,3.15,9.67,5.19,6.79,5.55,10.85,13.85,11.44,23.36.86,13.74-5.48,28.46-17.84,41.46-18.22,19.14-41.84,29.57-58.8,25.95-9.22-1.98-15.82-7.9-19.09-17.16-1.93-5.47,2.08-10.35,7.15-16.52,7.08-8.63,15.9-19.36,14.8-37.67-.65-10.92,3.84-19.16,13.01-23.84,11.3-5.77,27.87-5.02,39.66-.76ZM386.97,836.89c1.13.41,2.32.75,3.55,1.01,16.63,3.55,39.88-6.76,57.86-25.66,12.17-12.79,18.41-27.24,17.57-40.7-.57-9.23-4.51-17.27-11.07-22.64-9.87-8.08-33.59-11.8-48.25-4.31-8.78,4.49-13.09,12.4-12.46,22.89,1.12,18.7-8.21,30.06-15.03,38.36-4.87,5.93-8.72,10.62-6.98,15.55,2.71,7.67,7.79,12.97,14.8,15.5Z"/>
        </g>
        <g>
          <path class="cls-1" d="M480.92,637.76c-12.63-27.97-49.2-60.55-66.84-51.88-16.55,8.13-8.88,53.25,1.97,81.17,11.12,28.61,19.44,46.81,37.35,38.73,17.91-8.09,40.15-40.04,27.52-68.01Z"/>
          <path class="cls-1" d="M485.05,652.1c1.72,24.34-17.08,47.65-31.44,54.13-5.06,2.28-9.5,2.58-13.57.92-9.87-4.03-16.36-19.09-24.46-39.92-11.31-29.09-18.2-73.71-1.72-81.8,4.24-2.08,9.65-1.97,16.08.34,18.16,6.53,41.71,30.24,51.44,51.79,2.17,4.8,3.33,9.69,3.67,14.54ZM405.22,618.4c1.11,15.64,5.67,33.98,11.3,48.46,8.01,20.6,14.41,35.48,23.9,39.36,3.8,1.55,7.98,1.26,12.78-.91,16.89-7.62,40.07-38.98,27.27-67.35-9.63-21.34-32.92-44.81-50.86-51.26-6.16-2.22-11.31-2.34-15.3-.39-7.91,3.89-10.17,16.67-9.08,32.08Z"/>
        </g>
        <g>
          <ellipse class="cls-1" cx="516.75" cy="762.78" rx="19.12" ry="21.77" transform="translate(-402.68 822.13) rotate(-59.58)"/>
          <path class="cls-1" d="M534.07,776.69c-2.69,3.09-6.42,5.2-10.79,6.04-5.49,1.05-11.34-.02-16.46-3.03-5.12-3.01-8.9-7.59-10.66-12.9-1.76-5.33-1.27-10.77,1.39-15.3,5.48-9.33,18.55-11.86,29.14-5.64h0c10.59,6.22,14.75,18.87,9.27,28.19-.55.94-1.18,1.82-1.89,2.63ZM500.17,749.56c-.65.75-1.24,1.57-1.76,2.45-2.51,4.28-2.98,9.42-1.3,14.48,1.68,5.08,5.31,9.47,10.22,12.35,4.91,2.88,10.51,3.91,15.76,2.91,5.23-1.01,9.49-3.91,12.01-8.19,5.2-8.85,1.2-20.89-8.91-26.83h0c-9.11-5.35-20.11-3.96-26.01,2.84Z"/>
        </g>
        <g>
          <path class="cls-1" d="M217.19,618.25c-6.72-3.95-14.98-2.36-18.45,3.54s-3.69,18.25,4.01,19.5c5.51.9,16.13-5.74,21.01-8.08,6.17-2.96.15-11.02-6.57-14.96Z"/>
          <path class="cls-1" d="M225.81,632.32c-.46.53-1.08.99-1.84,1.35-1,.48-2.22,1.13-3.63,1.88-5.55,2.95-13.14,6.99-17.68,6.25-2.45-.4-4.35-1.9-5.5-4.35-2.25-4.79-1.16-11.98,1.14-15.9,1.75-2.98,4.71-5.01,8.34-5.7,3.6-.69,7.44.01,10.79,1.98h0c4.68,2.75,9.56,7.85,9.39,11.91-.04.99-.39,1.86-1.02,2.59ZM200.3,620.47c-.42.49-.8,1.01-1.13,1.58-2.17,3.7-3.21,10.47-1.09,14.97,1.02,2.17,2.62,3.44,4.75,3.79,4.21.69,11.94-3.42,17.05-6.14,1.42-.76,2.65-1.41,3.66-1.9,1.46-.7,2.23-1.74,2.29-3.08.15-3.53-4.41-8.37-8.9-11h0c-3.15-1.85-6.73-2.51-10.1-1.86-2.65.51-4.91,1.78-6.54,3.65Z"/>
        </g>
        <g>
          <path class="cls-1" d="M306.74,656.86c-19.57-10.05-40.79-15.48-48.18-2.9-7.39,12.58,7.67,34.88,24.88,48.65,17.18,13.74,29.77,13.06,41.27,4.1,13.44-10.47,9.49-35.75-17.98-49.85Z"/>
          <path class="cls-1" d="M327.75,704.52c-.82.94-1.73,1.8-2.73,2.59-12.88,10.04-25.8,8.77-41.89-4.1-18.04-14.43-32.33-36.81-25-49.29,9.11-15.51,37.19-3.27,48.84,2.71h0c14.87,7.64,24.44,19.55,25.6,31.88.59,6.26-1.15,11.99-4.82,16.22ZM260.47,652.14c-.54.62-1.04,1.31-1.48,2.07-7.05,12.01,7.05,33.84,24.77,48.01,15.67,12.53,28.21,13.79,40.65,4.09,5.24-4.09,7.85-10.62,7.17-17.93-1.13-11.98-10.5-23.6-25.06-31.08h0c-10.81-5.55-36.07-16.65-46.04-5.16Z"/>
        </g>
        <g>
          <ellipse class="cls-1" cx="835.03" cy="744.5" rx="20.07" ry="22.85" transform="translate(-229.8 1087.57) rotate(-59.58)"/>
          <path class="cls-1" d="M853.19,759.07c-2.82,3.24-6.73,5.45-11.31,6.33-5.76,1.11-11.89-.02-17.25-3.17-11.1-6.52-15.46-19.78-9.72-29.56,5.74-9.78,19.45-12.43,30.55-5.91h0c11.1,6.52,15.46,19.78,9.72,29.56-.58.98-1.24,1.91-1.98,2.75ZM817.62,730.6c-.69.79-1.31,1.65-1.85,2.58-5.46,9.3-1.26,21.95,9.36,28.19,5.16,3.03,11.04,4.11,16.56,3.05,5.5-1.06,9.98-4.11,12.62-8.61,5.46-9.3,1.26-21.95-9.36-28.19-9.57-5.62-21.13-4.16-27.33,2.98Z"/>
        </g>
        <g>
          <path class="cls-1" d="M378.94,876.81c-3.97-8.96-20.59-5.89-26.93,4.07-5.28,8.29-2.75,18.11,7.46,22.59,9.04,3.97,19.68,3.36,23.37-4.49,4.37-9.31-.2-13.84-3.9-22.18Z"/>
          <path class="cls-1" d="M381.52,901.93c-4.87,5.6-14.38,5.45-22.25,2-5.01-2.2-8.5-5.83-9.84-10.24-1.29-4.24-.52-8.88,2.15-13.08,3.87-6.07,11.85-10.1,18.96-9.56,4.26.32,7.4,2.3,8.85,5.56h0c.73,1.65,1.49,3.13,2.22,4.57,2.95,5.78,5.28,10.34,1.67,18.02-.48,1.03-1.08,1.94-1.77,2.73ZM353.89,879.19c-.54.63-1.04,1.28-1.47,1.96-2.52,3.95-3.24,8.3-2.04,12.25,1.25,4.12,4.55,7.53,9.28,9.61,8.54,3.75,19.08,3.49,22.71-4.24,3.4-7.24,1.28-11.39-1.66-17.14-.74-1.45-1.5-2.94-2.24-4.62-1.29-2.91-4.13-4.68-8.01-4.97-5.86-.44-12.58,2.54-16.58,7.14Z"/>
        </g>
        <g>
          <path class="cls-1" d="M830.09,835.53c-7.95-4.67-21.27-4.51-26.76,4.85s-4.85,16.89,3.09,21.56c7.95,4.67,20.19,4.69,25.68-4.66,5.49-9.36,5.94-17.08-2.01-21.75Z"/>
          <path class="cls-1" d="M830.82,859.92c-6.07,6.99-17.03,6.93-24.66,2.46-4.04-2.37-6.33-5.53-6.83-9.39-.47-3.7.72-8.03,3.56-12.86,5.45-9.27,18.83-10.09,27.45-5.03,3.96,2.33,6.08,5.53,6.29,9.52.19,3.6-1.19,7.95-4.1,12.91-.51.87-1.09,1.67-1.71,2.39ZM805.29,838.5c-.56.65-1.08,1.36-1.53,2.14-2.72,4.63-3.88,8.75-3.43,12.22.45,3.54,2.59,6.45,6.34,8.65,8,4.7,19.83,4.32,25-4.49,2.81-4.79,4.15-8.95,3.97-12.35-.2-3.69-2.09-6.53-5.8-8.71-7.48-4.39-18.72-4.17-24.55,2.54Z"/>
        </g>
      </g>
      <g>
        <g>
          <ellipse class="cls-1" cx="953.2" cy="520.71" rx="40.97" ry="32.24" transform="translate(176.22 1279.69) rotate(-72.98)"/>
          <path class="cls-1" d="M951.76,561.36c-3.62.39-7.23.06-10.7-1-17.26-5.29-25.86-27.37-19.16-49.24,3.24-10.57,9.52-19.52,17.7-25.2,8.22-5.71,17.36-7.43,25.74-4.87,17.26,5.29,25.86,27.37,19.16,49.24-3.24,10.57-9.52,19.52-17.7,25.2-4.81,3.34-9.93,5.32-15.04,5.87ZM954.74,481.06c-4.94.53-9.91,2.45-14.58,5.69-8,5.55-14.15,14.31-17.32,24.67-6.53,21.34,1.77,42.86,18.5,47.99,8.08,2.47,16.92.79,24.88-4.73,8-5.55,14.15-14.31,17.32-24.67,6.53-21.34-1.77-42.86-18.5-47.99-3.34-1.02-6.82-1.34-10.3-.96Z"/>
        </g>
        <g>
          <ellipse class="cls-1" cx="1361.81" cy="356.72" rx="32.73" ry="25.76" transform="translate(216.13 1174.77) rotate(-50.21)"/>
          <path class="cls-1" d="M1389.43,340.47c3.61,9.8,1.05,22.71-7.52,33-5.65,6.79-13.05,11.44-20.83,13.09-7.82,1.66-15.09.11-20.47-4.37-5.38-4.49-8.22-11.35-8-19.34.22-7.95,3.46-16.07,9.11-22.85,11.69-14.04,30.22-17.95,41.3-8.72,2.96,2.47,5.1,5.63,6.41,9.2ZM1334.92,372.68c1.29,3.51,3.39,6.54,6.2,8.88,5.19,4.32,12.22,5.82,19.79,4.21,7.61-1.62,14.85-6.17,20.38-12.82,11.41-13.7,11.95-32.12,1.21-41.07-10.74-8.95-28.77-5.09-40.18,8.61h0c-5.54,6.65-8.71,14.59-8.92,22.37-.1,3.54.42,6.86,1.51,9.82Z"/>
        </g>
        <g>
          <ellipse class="cls-1" cx="1180.43" cy="173.82" rx="32.73" ry="25.76" transform="translate(12.61 418.42) rotate(-20.21)"/>
          <path class="cls-1" d="M1211.52,162.38c4.98,13.53-4.91,29.68-22.06,35.99s-35.14.43-40.12-13.1,4.91-29.68,22.06-35.99c17.14-6.31,35.14-.43,40.12,13.1ZM1150.09,184.99c4.83,13.12,22.37,18.79,39.1,12.63,16.73-6.16,26.41-21.84,21.58-34.96-4.83-13.12-22.37-18.79-39.1-12.63s-26.41,21.84-21.58,34.96Z"/>
        </g>
        <g>
          <path class="cls-1" d="M1398.7,544.87c15.19-18.24,15.35-48.64,1.67-60.04-13.68-11.4-45.27-4.41-60.47,13.83-15.19,18.24-12.29,44.49,1.39,55.89,13.68,11.4,42.22,8.56,57.41-9.68Z"/>
          <path class="cls-1" d="M1408.43,495.95c5.35,14.53,2.11,35.48-9.35,49.24-15.84,19.02-44.75,20.88-58.12,9.74-6.88-5.73-11.15-15.11-11.7-25.73-.59-11.26,3.05-22.22,10.25-30.86,15.2-18.25,47.22-25.52,61.17-13.9,3.46,2.89,6.05,6.87,7.75,11.5ZM1332.64,541.03c1.95,5.3,5.01,9.84,8.96,13.13,13.02,10.85,41.22,8.98,56.71-9.62,14.52-17.44,15.42-47.93,1.73-59.33-13.59-11.32-44.87-4.11-59.76,13.77-7.04,8.45-10.59,19.16-10.02,30.16.22,4.22,1.04,8.24,2.38,11.89Z"/>
        </g>
        <g>
          <path class="cls-1" d="M1169.03,333.24c19.82,7.19,45.26-1.86,50.65-16.73,5.39-14.87-9.98-39.14-29.8-46.33-19.82-7.19-40.87,3.16-46.26,18.03-5.39,14.87,5.59,37.85,25.41,45.03Z"/>
          <path class="cls-1" d="M1219.09,299.17c2.37,6.43,2.77,12.61,1,17.5-2.64,7.29-10,13.45-20.19,16.9-10.28,3.48-21.59,3.51-31.03.09h0c-9.29-3.37-17.45-10.6-22.4-19.84-4.71-8.8-5.93-18.43-3.28-25.76,5.33-14.71,26.49-25.66,46.83-18.29,9.5,3.45,18.46,10.9,24.58,20.46,1.9,2.97,3.4,5.98,4.49,8.94ZM1144.92,308.2c.64,1.75,1.42,3.49,2.34,5.19,4.84,9.05,12.83,16.13,21.92,19.43h0c9.26,3.36,20.35,3.32,30.44-.1,9.78-3.31,17.12-9.43,19.64-16.36,2.49-6.88.47-16.47-5.4-25.65-5.92-9.26-14.95-16.78-24.13-20.11-19.86-7.2-40.5,3.44-45.69,17.76-2.06,5.68-1.7,12.81.89,19.84Z"/>
        </g>
        <g>
          <path class="cls-1" d="M1025.39,359.45c-23.72,1.03-28,50.18-27.66,67.98.57,29.35,18.94,39.29,40.83,39.38,34.83.13,48.69-4.24,45.02-34.91-2.55-21.32-32.53-73.56-58.2-72.44Z"/>
          <path class="cls-1" d="M1080.73,419.21c1.77,4.82,2.94,9.16,3.35,12.63,1.52,12.69.01,21.08-4.73,26.41-6.84,7.68-20.14,9.14-40.79,9.06-18.5-.07-40.69-7.05-41.33-39.87-.36-18.69,3.98-67.44,28.13-68.49h0c21.79-.94,46.38,35.85,55.36,60.26ZM1001.08,444.16c6.55,17.79,23.15,22.09,37.48,22.14,20.37.08,33.45-1.33,40.04-8.73,4.54-5.1,5.97-13.24,4.49-25.62-2.48-20.76-32.07-73.11-57.68-72-23.24,1.01-27.51,50.29-27.18,67.47.13,6.6,1.15,12.13,2.85,16.75Z"/>
        </g>
        <g>
          <path class="cls-1" d="M1204.11,750.97c12.56-20.14-24.01-54.51-40.59-61.02-8.03-3.15-39.58.97-49.68,12.42-27.84,31.57-10.68,47.82,1.89,53.7,20.73,9.69,74.78,16.7,88.38-5.09Z"/>
          <path class="cls-1" d="M1205.3,732c.14.38.27.76.4,1.14,2.33,7.04,1.94,13.13-1.16,18.1h0c-14.09,22.59-68.75,14.76-89.02,5.28-5.28-2.47-14.47-8.21-16.68-18.84-2.13-10.23,2.79-22.22,14.63-35.64,10.08-11.43,41.56-15.95,50.24-12.55,12.48,4.9,35.03,24.69,41.59,42.51ZM1203.69,750.71c2.93-4.7,3.29-10.51,1.06-17.26-5.89-17.87-28.83-38.1-41.41-43.03-8.25-3.24-39.48,1.35-49.12,12.28-11.62,13.17-16.46,24.87-14.4,34.78,2.13,10.23,11.02,15.75,16.13,18.14,19.46,9.1,74.17,16.85,87.75-4.91Z"/>
        </g>
        <g>
          <ellipse class="cls-1" cx="1059.77" cy="772.77" rx="18.8" ry="15.83" transform="translate(-212.27 1092.46) rotate(-50.21)"/>
          <path class="cls-1" d="M1076.38,764.01c.64,1.75.99,3.67,1,5.7.02,4.76-1.77,9.56-5.06,13.5-6.81,8.18-17.98,10.14-24.9,4.38-6.92-5.76-7-17.1-.19-25.28h0c3.29-3.95,7.68-6.58,12.37-7.42,4.72-.84,9.17.24,12.53,3.04,1.94,1.62,3.38,3.69,4.26,6.07ZM1044.11,781.18c.8,2.18,2.12,4.13,3.95,5.65,6.49,5.41,17.03,3.5,23.49-4.25,3.14-3.77,4.85-8.34,4.83-12.86-.02-4.49-1.76-8.4-4.89-11.01-3.13-2.61-7.29-3.61-11.71-2.82-4.45.79-8.64,3.31-11.77,7.07-4.64,5.57-5.93,12.66-3.88,18.22Z"/>
        </g>
        <g>
          <ellipse class="cls-1" cx="1196.44" cy="834.81" rx="18.8" ry="15.83" transform="translate(-210.74 1219.8) rotate(-50.21)"/>
          <path class="cls-1" d="M1213.05,826.05c.64,1.75.99,3.67,1,5.7.02,4.76-1.77,9.56-5.06,13.5-6.81,8.18-17.98,10.14-24.9,4.38-6.92-5.76-7-17.1-.19-25.28h0c3.29-3.95,7.68-6.58,12.37-7.42,4.72-.84,9.17.24,12.53,3.04,1.94,1.62,3.38,3.69,4.26,6.07ZM1180.78,843.22c.8,2.18,2.12,4.13,3.95,5.65,6.49,5.41,17.03,3.5,23.49-4.25,3.14-3.77,4.85-8.34,4.83-12.86-.02-4.49-1.76-8.4-4.89-11.01-3.13-2.61-7.29-3.61-11.71-2.82-4.45.79-8.64,3.31-11.77,7.07-4.64,5.57-5.93,12.66-3.88,18.22Z"/>
        </g>
        <g>
          <ellipse class="cls-1" cx="910.86" cy="617.31" rx="28.93" ry="29.91" transform="translate(-157.16 352.6) rotate(-20.21)"/>
          <path class="cls-1" d="M938.47,607.14c5.79,15.74-1.88,33.1-17.11,38.71s-32.33-2.64-38.12-18.38,1.88-33.1,17.11-38.71,32.33,2.64,38.12,18.38ZM884.18,627.13c5.6,15.22,22.13,23.2,36.84,17.79,14.71-5.41,22.12-22.2,16.52-37.42-5.6-15.22-22.13-23.2-36.84-17.78s-22.12,22.2-16.52,37.42Z"/>
        </g>
        <g>
          <ellipse class="cls-1" cx="1150.66" cy="430.14" rx="28.93" ry="29.91" transform="translate(-77.75 423.91) rotate(-20.21)"/>
          <path class="cls-1" d="M1178.28,419.98c5.79,15.74-1.88,33.1-17.11,38.7s-32.33-2.64-38.12-18.38c-5.79-15.74,1.88-33.1,17.11-38.71,15.23-5.6,32.33,2.64,38.12,18.38ZM1123.99,439.96c5.6,15.22,22.13,23.2,36.84,17.78,14.71-5.41,22.12-22.2,16.52-37.42-5.6-15.22-22.13-23.2-36.84-17.79s-22.12,22.2-16.52,37.42Z"/>
        </g>
        <g>
          <path class="cls-1" d="M1256.36,231.14c-7.15,8.58-5.08,24.65,2.46,30.93,7.54,6.28,16.17,0,23.32-8.58,7.15-8.58,5.03-23.09-2.51-29.37s-16.12-1.56-23.27,7.02Z"/>
          <path class="cls-1" d="M1285.5,232c2.55,6.92,2.15,15.65-2.98,21.8-9.35,11.23-17.44,14.14-24.03,8.65-3.73-3.11-6.31-8.69-6.91-14.94-.63-6.51.97-12.59,4.39-16.7,8.58-10.3,17.09-12.82,23.98-7.09,2.41,2,4.32,4.93,5.56,8.27ZM1254.06,254.03c1.17,3.18,2.92,5.86,5.07,7.65,6.08,5.06,13.69,2.2,22.62-8.52,7.25-8.71,4.59-22.8-2.44-28.66-8.62-7.18-17.84,1.28-22.57,6.96-3.25,3.9-4.76,9.72-4.16,15.96.23,2.34.74,4.58,1.49,6.61Z"/>
        </g>
        <g>
          <ellipse class="cls-1" cx="1013.24" cy="602.72" rx="15.3" ry="16.29" transform="translate(-98.36 995.49) rotate(-50.21)"/>
          <path class="cls-1" d="M1028.59,597.97c1.92,5.22,1.19,11.12-2.45,15.5-5.58,6.69-15.9,7.32-23.01,1.39-3.44-2.87-5.63-6.82-6.16-11.14-.53-4.33.67-8.5,3.37-11.75h0c2.7-3.25,6.59-5.18,10.94-5.44,4.34-.26,8.63,1.18,12.07,4.04,2.46,2.05,4.22,4.62,5.24,7.39ZM998.82,607.13c.98,2.66,2.67,5.06,4.95,6.96,6.69,5.57,16.38,5,21.6-1.27,5.22-6.27,4.03-15.9-2.66-21.47-3.24-2.7-7.28-4.06-11.37-3.81-4.07.24-7.71,2.05-10.23,5.08h0c-2.53,3.03-3.64,6.93-3.15,10.98.15,1.21.44,2.4.86,3.53Z"/>
        </g>
        <g>
          <path class="cls-1" d="M1325.21,624.32c-6.84,6.22-7.62,15.14.53,20.35,6.25,4,15.38,6.26,20.79-.24,5.41-6.49,4.5-18.52-1.21-23.27-5.7-4.75-13.86-2.53-20.12,3.15Z"/>
          <path class="cls-1" d="M1349.44,626.48c.63,1.72,1.03,3.64,1.15,5.64.29,4.87-1.05,9.48-3.68,12.64-5.64,6.77-15.08,4.41-21.44.34-3.67-2.35-5.77-5.53-6.08-9.21-.35-4.11,1.65-8.46,5.48-11.94h0c7.03-6.39,15.38-7.66,20.77-3.17,1.63,1.35,2.93,3.34,3.79,5.69ZM1320.95,638.36c.84,2.29,2.56,4.3,5.06,5.9,6.02,3.86,14.91,6.13,20.13-.14,2.47-2.96,3.73-7.32,3.45-11.94-.27-4.48-1.98-8.46-4.59-10.63-5.07-4.22-12.71-2.99-19.46,3.14h0c-3.6,3.27-5.48,7.32-5.16,11.11.07.88.26,1.73.56,2.55Z"/>
        </g>
        <g>
          <path class="cls-1" d="M1232.07,371.81c-12.57,12.18-11.28,30.84,5.35,41.63,14.25,9.24,32.56,15.41,42.65,3.29,10.1-12.12,6.96-36.31-6.09-47.18s-30.58-8.71-41.91,2.26Z"/>
          <path class="cls-1" d="M1283.9,383.38c4.25,11.54,3.44,25.41-3.45,33.67-12.15,14.59-34.33,2.63-43.31-3.19-8.15-5.29-13.08-12.73-13.88-20.96-.76-7.81,2.24-15.43,8.46-21.45h0c12.14-11.76,30.05-12.72,42.58-2.29,4.31,3.59,7.55,8.63,9.61,14.21ZM1225.6,398.67c2.05,5.56,6.2,10.53,12.08,14.35,8.75,5.67,30.36,17.36,42,3.39,9.91-11.89,6.81-35.79-6.03-46.48-12.13-10.1-29.47-9.16-41.24,2.24h0c-5.99,5.8-8.89,13.13-8.16,20.63.2,2.01.65,3.98,1.35,5.87Z"/>
        </g>
        <g>
          <path class="cls-1" d="M1050.22,288.1c2.52,18.07,17.73,25.86,35.41,22.53,19.65-3.7,33.37-15.5,25.08-33.65-6.55-14.35-18.7-25.6-35.41-22.53-16.7,3.07-27.26,18.03-25.08,33.65Z"/>
          <path class="cls-1" d="M1112.11,279.07c2.24,6.1,2.08,11.69-.49,16.65-3.9,7.53-13.1,13-25.91,15.41-9.86,1.86-18.91.27-25.49-4.45-5.77-4.14-9.4-10.54-10.51-18.5-2.25-16.14,8.94-31.17,25.49-34.21,21.26-3.91,32.23,14.65,35.95,22.81.35.77.67,1.54.95,2.29ZM1052.29,294.45c1.74,4.73,4.63,8.61,8.52,11.41,6.35,4.56,15.13,6.08,24.72,4.28,12.32-2.32,21.5-7.74,25.2-14.88,2.74-5.29,2.57-11.37-.48-18.07-3.63-7.95-14.29-26.03-34.86-22.25-16.02,2.94-26.86,17.48-24.68,33.09.32,2.28.85,4.42,1.58,6.42Z"/>
        </g>
        <g>
          <path class="cls-1" d="M1428.77,395.38c-10.1,12.12-2.67,31.72,10.38,42.59,13.05,10.87,37.94,12.09,43.78-1.96,11.53-27.73,7.64-31.06-5.35-41.63-13.18-10.72-38.72-11.12-48.81,1Z"/>
          <path class="cls-1" d="M1489.32,406.54c2.16,5.87.62,13.92-5.93,29.66-2.03,4.87-6.37,8.25-12.55,9.78-10.23,2.51-23.69-.69-32.01-7.62-6.67-5.56-11.79-13.24-14.03-21.07-2.46-8.6-1.19-16.49,3.59-22.22,9.98-11.98,35.43-12.52,49.51-1.06,5.69,4.63,9.71,7.9,11.42,12.54ZM1426.59,419.53c2.48,6.75,7.08,13.22,12.88,18.05,8.1,6.75,21.19,9.87,31.13,7.42,4.09-1.01,9.47-3.42,11.87-9.19,11.44-27.51,7.58-30.65-5.2-41.05-13.45-10.94-38.63-10.45-48.11.93h0c-4.56,5.47-5.76,13.04-3.39,21.31.24.84.52,1.69.83,2.53Z"/>
        </g>
        <g>
          <path class="cls-1" d="M1188.07,645.79c28.82,13.68,23.77,43.17,36.76,45.32,29.34,4.85,41.62-32.96,29.29-71.83-10.29-32.45-34.79-43.87-53.03-36.55-18.24,7.32-43.77,48.46-13.02,63.06Z"/>
          <path class="cls-1" d="M1191.69,588.24c3.07-2.7,6.23-4.78,9.21-5.97,8.14-3.27,17.36-2.83,25.98,1.24,12.45,5.88,22.3,18.53,27.72,35.62,7.99,25.19,5.73,50.92-5.61,64.02-6.18,7.13-14.55,10.05-24.23,8.45-5.72-.95-8.06-6.81-11.03-14.23-4.14-10.36-9.3-23.26-25.86-31.13-9.88-4.69-14.94-12.61-14.62-22.89.39-12.68,9.04-26.83,18.46-35.11ZM1245.63,685.12c.91-.8,1.77-1.67,2.6-2.62,11.13-12.85,13.31-38.2,5.42-63.07-5.34-16.83-14.99-29.26-27.19-35.02-8.36-3.95-17.3-4.38-25.18-1.22-11.84,4.75-26.53,23.74-27.04,40.19-.3,9.86,4.55,17.45,14.05,21.96,16.92,8.03,22.38,21.69,26.36,31.66,2.85,7.13,5.1,12.76,10.26,13.61,8.02,1.33,15.12-.57,20.72-5.5Z"/>
        </g>
        <g>
          <path class="cls-1" d="M1116.47,506.8c-30.6-2.42-76.77,13.91-77.68,33.54-.86,18.42,42.37,33.46,72.06,37.41,30.42,4.05,50.39,5.54,51.94-14.05,1.55-19.59-15.72-54.48-46.32-56.9Z"/>
          <path class="cls-1" d="M1131.02,510.1c22.16,10.23,33.51,37.94,32.27,53.64-.44,5.53-2.31,9.57-5.73,12.33-8.29,6.7-24.61,5.13-46.77,2.18-30.94-4.12-73.35-19.59-72.49-37.93.22-4.72,2.93-9.4,8.05-13.92,14.47-12.76,46.6-21.96,70.17-20.1,5.25.42,10.1,1.76,14.51,3.8ZM1063.01,563.79c14.24,6.57,32.51,11.42,47.9,13.47,21.9,2.92,38.03,4.48,46.01-1.97,3.2-2.58,4.95-6.39,5.37-11.63,1.46-18.47-14.83-53.9-45.86-56.36-23.34-1.85-55.13,7.24-69.43,19.85-4.91,4.33-7.51,8.78-7.71,13.22-.41,8.8,9.7,16.95,23.73,23.43Z"/>
        </g>
        <g>
          <ellipse class="cls-1" cx="1243.27" cy="535.68" rx="21.77" ry="19.12" transform="translate(-99.08 711.07) rotate(-30.75)"/>
          <path class="cls-1" d="M1263.8,527.22c1.42,3.85,1.46,8.13.09,12.37-1.72,5.32-5.48,9.92-10.59,12.96-5.1,3.04-10.94,4.14-16.44,3.12-5.52-1.03-10.04-4.08-12.73-8.59-5.53-9.3-1.45-21.97,9.11-28.25h0c10.55-6.28,23.64-3.82,29.17,5.47.56.94,1.02,1.91,1.39,2.92ZM1223.7,543.84c.34.93.78,1.84,1.3,2.72,2.54,4.26,6.82,7.15,12.06,8.12,5.26.98,10.85-.09,15.74-3,4.89-2.91,8.5-7.32,10.14-12.41,1.64-5.07,1.15-10.21-1.39-14.47-5.25-8.82-17.72-11.12-27.8-5.13h0c-9.07,5.4-13.16,15.71-10.05,24.15Z"/>
        </g>
        <g>
          <path class="cls-1" d="M972.23,728.45c-6.7,3.99-9.29,11.99-5.79,17.87s14.21,12.03,19.02,5.89c3.45-4.39,2.75-16.9,3.05-22.31.38-6.84-9.58-5.44-16.28-1.46Z"/>
          <path class="cls-1" d="M988.71,727.68c.24.66.34,1.42.3,2.26-.06,1.1-.08,2.48-.1,4.08-.09,6.28-.21,14.88-3.05,18.5-1.53,1.95-3.76,2.89-6.46,2.72-5.28-.34-11.06-4.76-13.38-8.66-1.77-2.97-2.12-6.54-.98-10.06,1.13-3.49,3.6-6.51,6.94-8.5h0c4.66-2.78,11.49-4.59,14.96-2.49.85.51,1.45,1.24,1.78,2.14ZM966.03,744.32c.22.6.5,1.19.84,1.75,2.19,3.68,7.63,7.86,12.58,8.17,2.39.15,4.28-.63,5.61-2.34,2.63-3.36,2.76-12.11,2.84-17.9.02-1.61.04-3,.11-4.12.09-1.62-.45-2.79-1.6-3.49-3.02-1.83-9.45-.17-13.93,2.49h0c-3.14,1.87-5.44,4.69-6.5,7.95-.83,2.57-.81,5.16.05,7.49Z"/>
        </g>
        <g>
          <path class="cls-1" d="M1049.22,668.61c-18.24,12.3-33.23,28.28-25.77,40.82,7.46,12.54,34.25,10.1,54.62,1.65,20.32-8.43,25.8-19.78,23.49-34.19-2.69-16.82-26.74-25.55-52.34-8.28Z"/>
          <path class="cls-1" d="M1101.1,673.18c.43,1.17.75,2.38.95,3.64,2.58,16.12-4.76,26.83-23.79,34.73-21.34,8.85-47.84,10.58-55.24-1.86-9.2-15.46,15.06-34.16,25.92-41.49h0c13.86-9.35,28.92-11.99,40.27-7.06,5.77,2.5,9.95,6.79,11.89,12.04ZM1022.78,706.87c.29.77.65,1.54,1.1,2.3,7.12,11.97,33.05,10.14,54,1.45,18.53-7.68,25.68-18.06,23.19-33.64-1.05-6.56-5.52-12-12.25-14.92-11.04-4.79-25.74-2.18-39.32,6.97h0c-10.08,6.8-31.97,23.57-26.72,37.85Z"/>
        </g>
        <g>
          <ellipse class="cls-1" cx="1380.7" cy="248.02" rx="22.85" ry="20.07" transform="translate(67.34 740.89) rotate(-30.75)"/>
          <path class="cls-1" d="M1402.23,239.14c1.48,4.03,1.53,8.53.09,12.97-1.81,5.58-5.75,10.41-11.1,13.59-11.06,6.58-24.78,4.01-30.58-5.74-5.8-9.74-1.52-23.03,9.55-29.61h0c11.06-6.58,24.78-4.01,30.58,5.74.58.98,1.07,2.01,1.46,3.06ZM1360.13,256.58c.36.98.82,1.94,1.37,2.86,5.52,9.27,18.62,11.69,29.21,5.39,5.14-3.06,8.92-7.69,10.66-13.04,1.73-5.33,1.21-10.73-1.46-15.21-5.52-9.27-18.62-11.69-29.21-5.39-9.53,5.67-13.83,16.51-10.56,25.38Z"/>
        </g>
        <g>
          <path class="cls-1" d="M1276.73,711.4c-9.76-.84-15.08,15.2-9.42,25.56,4.71,8.62,14.54,11.14,23.39,4.35,7.83-6.01,12.43-15.62,7.33-22.64-6.05-8.32-12.22-6.49-21.31-7.28Z"/>
          <path class="cls-1" d="M1299.98,721.25c2.56,6.96-2.16,15.23-8.98,20.46-4.34,3.33-9.21,4.64-13.71,3.68-4.33-.92-8.04-3.83-10.42-8.2-3.45-6.32-3.14-15.25.76-21.23,2.33-3.58,5.58-5.38,9.14-5.07h0c1.79.16,3.46.21,5.07.26,6.49.2,11.61.36,16.6,7.22.67.92,1.18,1.88,1.54,2.87ZM1266.74,734.49c.29.78.62,1.52,1.01,2.23,2.25,4.11,5.71,6.84,9.75,7.7,4.21.89,8.79-.35,12.9-3.5,7.4-5.67,12.26-15.03,7.23-21.95-4.7-6.47-9.37-6.61-15.82-6.81-1.63-.05-3.31-.1-5.13-.26-3.17-.27-6.09,1.37-8.21,4.62-3.21,4.92-3.84,12.24-1.73,17.97Z"/>
        </g>
        <g>
          <path class="cls-1" d="M1458.08,296.24c-7.92,4.71-14.2,16.46-8.65,25.79,5.55,9.32,12.46,12.4,20.38,7.69,7.92-4.71,13.84-15.42,8.29-24.75s-12.1-13.44-20.02-8.72Z"/>
          <path class="cls-1" d="M1479.79,307.36c3.2,8.68-2.13,18.26-9.74,22.78-4.02,2.39-7.9,2.88-11.52,1.46-3.47-1.37-6.68-4.5-9.55-9.32-5.5-9.24.24-21.36,8.83-26.47,3.95-2.35,7.77-2.66,11.37-.92,3.25,1.57,6.39,4.87,9.33,9.82.52.87.94,1.75,1.27,2.65ZM1448.72,319.4c.3.81.67,1.6,1.13,2.37,2.75,4.62,5.79,7.61,9.05,8.9,3.32,1.31,6.9.84,10.64-1.38,7.97-4.74,13.34-15.3,8.12-24.06-2.84-4.77-5.84-7.95-8.91-9.43-3.32-1.61-6.73-1.32-10.43.88-7.46,4.44-12.68,14.39-9.61,22.73Z"/>
        </g>
      </g>
      <g>
        <g>
          <ellipse class="cls-1" cx="687.04" cy="1164.87" rx="40.97" ry="32.24" transform="translate(-627.94 1480.76) rotate(-72.98)"/>
          <path class="cls-1" d="M685.6,1205.52c-3.62.39-7.23.06-10.7-1-17.26-5.29-25.86-27.37-19.16-49.24,3.24-10.57,9.52-19.52,17.7-25.2,8.22-5.71,17.36-7.43,25.74-4.87,17.26,5.29,25.86,27.37,19.16,49.24-3.24,10.57-9.52,19.52-17.7,25.2-4.81,3.34-9.93,5.32-15.04,5.87ZM688.59,1125.22c-4.94.53-9.91,2.45-14.58,5.69-8,5.55-14.15,14.31-17.32,24.67-6.53,21.34,1.77,42.86,18.5,47.99,8.08,2.47,16.92.79,24.88-4.73,8-5.55,14.15-14.31,17.32-24.67,6.53-21.34-1.77-42.86-18.5-47.99-3.34-1.02-6.82-1.34-10.3-.96Z"/>
        </g>
        <g>
          <ellipse class="cls-1" cx="1095.66" cy="1000.88" rx="32.73" ry="25.76" transform="translate(-374.62 1202.14) rotate(-50.21)"/>
          <path class="cls-1" d="M1123.27,984.63c3.61,9.8,1.05,22.71-7.52,33-5.65,6.79-13.05,11.44-20.83,13.09-7.82,1.66-15.09.11-20.47-4.37-5.38-4.49-8.22-11.35-8-19.34.22-7.95,3.46-16.07,9.11-22.85,11.69-14.04,30.22-17.95,41.3-8.72,2.96,2.47,5.1,5.63,6.41,9.2ZM1068.76,1016.84c1.29,3.51,3.39,6.54,6.2,8.88,5.19,4.32,12.22,5.82,19.79,4.21,7.61-1.62,14.85-6.17,20.38-12.82,11.41-13.7,11.95-32.12,1.21-41.07-10.74-8.95-28.77-5.09-40.18,8.61h0c-5.54,6.65-8.71,14.59-8.92,22.37-.1,3.54.42,6.86,1.51,9.82Z"/>
        </g>
        <g>
          <ellipse class="cls-1" cx="914.27" cy="817.98" rx="32.73" ry="25.76" transform="translate(-226.26 366.13) rotate(-20.21)"/>
          <path class="cls-1" d="M945.36,806.54c4.98,13.53-4.91,29.68-22.06,35.99s-35.14.43-40.12-13.1,4.91-29.68,22.06-35.99c17.14-6.31,35.14-.43,40.12,13.1ZM883.93,829.15c4.83,13.12,22.37,18.79,39.1,12.63,16.73-6.16,26.41-21.84,21.58-34.96-4.83-13.12-22.37-18.79-39.1-12.63s-26.41,21.84-21.58,34.96Z"/>
        </g>
        <g>
          <path class="cls-1" d="M1132.54,1189.03c15.19-18.24,15.35-48.64,1.67-60.04-13.68-11.4-45.27-4.41-60.47,13.83-15.19,18.24-12.29,44.49,1.39,55.89,13.68,11.4,42.22,8.56,57.41-9.68Z"/>
          <path class="cls-1" d="M1142.28,1140.11c5.35,14.53,2.11,35.48-9.35,49.24-15.84,19.02-44.75,20.88-58.12,9.74-6.88-5.73-11.15-15.11-11.7-25.73-.59-11.26,3.05-22.22,10.25-30.86,15.2-18.25,47.22-25.52,61.17-13.9,3.46,2.89,6.05,6.87,7.75,11.5ZM1066.49,1185.19c1.95,5.3,5.01,9.84,8.96,13.13,13.02,10.85,41.22,8.98,56.71-9.62,14.52-17.44,15.42-47.93,1.73-59.33-13.59-11.32-44.87-4.11-59.76,13.77-7.04,8.45-10.59,19.16-10.02,30.16.22,4.22,1.04,8.24,2.38,11.89Z"/>
        </g>
        <g>
          <path class="cls-1" d="M902.87,977.41c19.82,7.19,45.26-1.86,50.65-16.73,5.39-14.87-9.98-39.14-29.8-46.33-19.82-7.19-40.87,3.16-46.26,18.03-5.39,14.87,5.59,37.85,25.41,45.03Z"/>
          <path class="cls-1" d="M952.93,943.33c2.37,6.43,2.77,12.61,1,17.5-2.64,7.29-10,13.45-20.19,16.9-10.28,3.48-21.59,3.51-31.03.09h0c-9.29-3.37-17.45-10.6-22.4-19.84-4.71-8.8-5.93-18.43-3.28-25.76,5.33-14.71,26.49-25.66,46.83-18.29,9.5,3.45,18.46,10.9,24.58,20.46,1.9,2.97,3.4,5.98,4.49,8.94ZM878.76,952.36c.64,1.75,1.42,3.49,2.34,5.19,4.84,9.05,12.83,16.13,21.92,19.43h0c9.26,3.36,20.35,3.32,30.44-.1,9.78-3.31,17.12-9.43,19.64-16.36,2.49-6.88.47-16.47-5.4-25.65-5.92-9.26-14.95-16.78-24.13-20.11-19.86-7.2-40.5,3.44-45.69,17.76-2.06,5.68-1.7,12.81.89,19.84Z"/>
        </g>
        <g>
          <path class="cls-1" d="M759.23,1003.61c-23.72,1.03-28,50.18-27.66,67.98.57,29.35,18.94,39.29,40.83,39.38,34.83.13,48.69-4.24,45.02-34.91-2.55-21.32-32.53-73.56-58.2-72.44Z"/>
          <path class="cls-1" d="M653.47,962.3c-23.72,1.03-28,50.18-27.66,67.98.57,29.35,18.94,39.29,40.83,39.38,34.83.13,48.69-4.24,45.02-34.91-2.55-21.32-32.53-73.56-58.2-72.44Z"/>
          <path class="cls-1" d="M814.57,1063.37c1.77,4.82,2.94,9.16,3.35,12.63,1.52,12.69.01,21.08-4.73,26.41-6.84,7.68-20.14,9.14-40.79,9.06-18.5-.07-40.69-7.05-41.33-39.87-.36-18.69,3.98-67.44,28.13-68.49h0c21.79-.94,46.38,35.85,55.36,60.26ZM734.93,1088.32c6.55,17.79,23.15,22.09,37.48,22.14,20.37.08,33.45-1.33,40.04-8.73,4.54-5.1,5.97-13.24,4.49-25.62-2.48-20.76-32.07-73.11-57.68-72-23.24,1.01-27.51,50.29-27.18,67.47.13,6.6,1.15,12.13,2.85,16.75Z"/>
        </g>
        <g>
          <path class="cls-1" d="M937.95,1395.13c12.56-20.14-24.01-54.51-40.59-61.02-8.03-3.15-39.58.97-49.68,12.42-27.84,31.57-10.68,47.82,1.89,53.7,20.73,9.69,74.78,16.7,88.38-5.09Z"/>
          <path class="cls-1" d="M939.14,1376.16c.14.38.27.76.4,1.14,2.33,7.04,1.94,13.13-1.16,18.1h0c-14.09,22.59-68.75,14.76-89.02,5.28-5.28-2.47-14.47-8.21-16.68-18.84-2.13-10.23,2.79-22.22,14.63-35.64,10.08-11.43,41.56-15.95,50.24-12.55,12.48,4.9,35.03,24.69,41.59,42.51ZM937.53,1394.87c2.93-4.7,3.29-10.51,1.06-17.26-5.89-17.87-28.83-38.1-41.41-43.03-8.25-3.24-39.48,1.35-49.12,12.28-11.62,13.17-16.46,24.87-14.4,34.78,2.13,10.23,11.02,15.75,16.13,18.14,19.46,9.1,74.17,16.85,87.75-4.91Z"/>
        </g>
        <g>
          <ellipse class="cls-1" cx="793.62" cy="1416.93" rx="18.8" ry="15.83" transform="translate(-803.02 1119.84) rotate(-50.21)"/>
          <path class="cls-1" d="M810.23,1408.17c.64,1.75.99,3.67,1,5.7.02,4.76-1.77,9.56-5.06,13.5-6.81,8.18-17.98,10.14-24.9,4.38-6.92-5.76-7-17.1-.19-25.28h0c3.29-3.95,7.68-6.58,12.37-7.42,4.72-.84,9.17.24,12.53,3.04,1.94,1.62,3.38,3.69,4.26,6.07ZM777.96,1425.34c.8,2.18,2.12,4.13,3.95,5.65,6.49,5.41,17.03,3.5,23.49-4.25,3.14-3.77,4.85-8.34,4.83-12.86-.02-4.49-1.76-8.4-4.89-11.01-3.13-2.61-7.29-3.61-11.71-2.82-4.45.79-8.64,3.31-11.77,7.07-4.64,5.57-5.93,12.66-3.88,18.22Z"/>
        </g>
        <g>
          <ellipse class="cls-1" cx="930.28" cy="1478.97" rx="18.8" ry="15.83" transform="translate(-801.49 1247.18) rotate(-50.21)"/>
          <path class="cls-1" d="M946.89,1470.21c.64,1.75.99,3.67,1,5.7.02,4.76-1.77,9.56-5.06,13.5-6.81,8.18-17.98,10.14-24.9,4.38-6.92-5.76-7-17.1-.19-25.28h0c3.29-3.95,7.68-6.58,12.37-7.42,4.72-.84,9.17.24,12.53,3.04,1.94,1.62,3.38,3.69,4.26,6.07ZM914.62,1487.38c.8,2.18,2.12,4.13,3.95,5.65,6.49,5.41,17.03,3.5,23.49-4.25,3.14-3.77,4.85-8.34,4.83-12.86-.02-4.49-1.76-8.4-4.89-11.01-3.13-2.61-7.29-3.61-11.71-2.82-4.45.79-8.64,3.31-11.77,7.07-4.64,5.57-5.93,12.66-3.88,18.22Z"/>
        </g>
        <g>
          <ellipse class="cls-1" cx="644.7" cy="1261.47" rx="28.93" ry="29.91" transform="translate(-396.03 300.32) rotate(-20.21)"/>
          <path class="cls-1" d="M672.32,1251.31c5.79,15.74-1.88,33.1-17.11,38.71s-32.33-2.64-38.12-18.38,1.88-33.1,17.11-38.71,32.33,2.64,38.12,18.38ZM618.03,1271.29c5.6,15.22,22.13,23.2,36.84,17.79,14.71-5.41,22.12-22.2,16.52-37.42-5.6-15.22-22.13-23.2-36.84-17.78s-22.12,22.2-16.52,37.42Z"/>
        </g>
        <g>
          <ellipse class="cls-1" cx="884.5" cy="1074.3" rx="28.93" ry="29.91" transform="translate(-316.63 371.63) rotate(-20.21)"/>
          <path class="cls-1" d="M912.12,1064.14c5.79,15.74-1.88,33.1-17.11,38.7s-32.33-2.64-38.12-18.38c-5.79-15.74,1.88-33.1,17.11-38.71,15.23-5.6,32.33,2.64,38.12,18.38ZM857.83,1084.12c5.6,15.22,22.13,23.2,36.84,17.78,14.71-5.41,22.12-22.2,16.52-37.42-5.6-15.22-22.13-23.2-36.84-17.79s-22.12,22.2-16.52,37.42Z"/>
        </g>
        <g>
          <path class="cls-1" d="M990.2,875.3c-7.15,8.58-5.08,24.65,2.46,30.93,7.54,6.28,16.17,0,23.32-8.58,7.15-8.58,5.03-23.09-2.51-29.37s-16.12-1.56-23.27,7.02Z"/>
          <path class="cls-1" d="M1019.35,876.16c2.55,6.92,2.15,15.65-2.98,21.8-9.35,11.23-17.44,14.14-24.03,8.65-3.73-3.11-6.31-8.69-6.91-14.94-.63-6.51.97-12.59,4.39-16.7,8.58-10.3,17.09-12.82,23.98-7.09,2.41,2,4.32,4.93,5.56,8.27ZM987.91,898.19c1.17,3.18,2.92,5.86,5.07,7.65,6.08,5.06,13.69,2.2,22.62-8.52,7.25-8.71,4.59-22.8-2.44-28.66-8.62-7.18-17.84,1.28-22.57,6.96-3.25,3.9-4.76,9.72-4.16,15.96.23,2.34.74,4.58,1.49,6.61Z"/>
        </g>
        <g>
          <ellipse class="cls-1" cx="747.08" cy="1246.88" rx="15.3" ry="16.29" transform="translate(-689.12 1022.87) rotate(-50.21)"/>
          <path class="cls-1" d="M762.43,1242.13c1.92,5.22,1.19,11.12-2.45,15.5-5.58,6.69-15.9,7.32-23.01,1.39-3.44-2.87-5.63-6.82-6.16-11.14-.53-4.33.67-8.5,3.37-11.75h0c2.7-3.25,6.59-5.18,10.94-5.44,4.34-.26,8.63,1.18,12.07,4.04,2.46,2.05,4.22,4.62,5.24,7.39ZM732.66,1251.3c.98,2.66,2.67,5.06,4.95,6.96,6.69,5.57,16.38,5,21.6-1.27,5.22-6.27,4.03-15.9-2.66-21.47-3.24-2.7-7.28-4.06-11.37-3.81-4.07.24-7.71,2.05-10.23,5.08h0c-2.53,3.03-3.64,6.93-3.15,10.98.15,1.21.44,2.4.86,3.53Z"/>
        </g>
        <g>
          <path class="cls-1" d="M1059.05,1268.48c-6.84,6.22-7.62,15.14.53,20.35,6.25,4,15.38,6.26,20.79-.24,5.41-6.49,4.5-18.52-1.21-23.27-5.7-4.75-13.86-2.53-20.12,3.15Z"/>
          <path class="cls-1" d="M1083.28,1270.64c.63,1.72,1.03,3.64,1.15,5.64.29,4.87-1.05,9.48-3.68,12.64-5.64,6.77-15.08,4.41-21.44.34-3.67-2.35-5.77-5.53-6.08-9.21-.35-4.11,1.65-8.46,5.48-11.94h0c7.03-6.39,15.38-7.66,20.77-3.17,1.63,1.35,2.93,3.34,3.79,5.69ZM1054.79,1282.52c.84,2.29,2.56,4.3,5.06,5.9,6.02,3.86,14.91,6.13,20.13-.14,2.47-2.96,3.73-7.32,3.45-11.94-.27-4.48-1.98-8.46-4.59-10.63-5.07-4.22-12.71-2.99-19.46,3.14h0c-3.6,3.27-5.48,7.32-5.16,11.11.07.88.26,1.73.56,2.55Z"/>
        </g>
        <g>
          <path class="cls-1" d="M965.91,1015.97c-12.57,12.18-11.28,30.84,5.35,41.63,14.25,9.24,32.56,15.41,42.65,3.29,10.1-12.12,6.96-36.31-6.09-47.18s-30.58-8.71-41.91,2.26Z"/>
          <path class="cls-1" d="M1017.74,1027.54c4.25,11.54,3.44,25.41-3.45,33.67-12.15,14.59-34.33,2.63-43.31-3.19-8.15-5.29-13.08-12.73-13.88-20.96-.76-7.81,2.24-15.43,8.46-21.45h0c12.14-11.76,30.05-12.72,42.58-2.29,4.31,3.59,7.55,8.63,9.61,14.21ZM959.45,1042.83c2.05,5.56,6.2,10.53,12.08,14.35,8.75,5.67,30.36,17.36,42,3.39,9.91-11.89,6.81-35.79-6.03-46.48-12.13-10.1-29.47-9.16-41.24,2.24h0c-5.99,5.8-8.89,13.13-8.16,20.63.2,2.01.65,3.98,1.35,5.87Z"/>
        </g>
        <g>
          <path class="cls-1" d="M784.06,932.26c2.52,18.07,17.73,25.86,35.41,22.53,19.65-3.7,33.37-15.5,25.08-33.65-6.55-14.35-18.7-25.6-35.41-22.53-16.7,3.07-27.26,18.03-25.08,33.65Z"/>
          <path class="cls-1" d="M845.95,923.23c2.24,6.1,2.08,11.69-.49,16.65-3.9,7.53-13.1,13-25.91,15.41-9.86,1.86-18.91.27-25.49-4.45-5.77-4.14-9.4-10.54-10.51-18.5-2.25-16.14,8.94-31.17,25.49-34.21,21.26-3.91,32.23,14.65,35.95,22.81.35.77.67,1.54.95,2.29ZM786.14,938.61c1.74,4.73,4.63,8.61,8.52,11.41,6.35,4.56,15.13,6.08,24.72,4.28,12.32-2.32,21.5-7.74,25.2-14.88,2.74-5.29,2.57-11.37-.48-18.07-3.63-7.95-14.29-26.03-34.86-22.25-16.02,2.94-26.86,17.48-24.68,33.09.32,2.28.85,4.42,1.58,6.42Z"/>
        </g>
        <g>
          <path class="cls-1" d="M1162.61,1039.54c-10.1,12.12-2.67,31.72,10.38,42.59,13.05,10.87,37.94,12.09,43.78-1.96,11.53-27.73,7.64-31.06-5.35-41.63-13.18-10.72-38.72-11.12-48.81,1Z"/>
          <path class="cls-1" d="M1223.17,1050.7c2.16,5.87.62,13.92-5.93,29.66-2.03,4.87-6.37,8.25-12.55,9.78-10.23,2.51-23.69-.69-32.01-7.62-6.67-5.56-11.79-13.24-14.03-21.07-2.46-8.6-1.19-16.49,3.59-22.22,9.98-11.98,35.43-12.52,49.51-1.06,5.69,4.63,9.71,7.9,11.42,12.54ZM1160.43,1063.69c2.48,6.75,7.08,13.22,12.88,18.05,8.1,6.75,21.19,9.87,31.13,7.42,4.09-1.01,9.47-3.42,11.87-9.19,11.44-27.51,7.58-30.65-5.2-41.05-13.45-10.94-38.63-10.45-48.11.93h0c-4.56,5.47-5.76,13.04-3.39,21.31.24.84.52,1.69.83,2.53Z"/>
        </g>
        <g>
          <path class="cls-1" d="M921.91,1289.95c28.82,13.68,23.77,43.17,36.76,45.32,29.34,4.85,41.62-32.96,29.29-71.83-10.29-32.45-34.79-43.87-53.03-36.55-18.24,7.32-43.77,48.46-13.02,63.06Z"/>
          <path class="cls-1" d="M925.53,1232.4c3.07-2.7,6.23-4.78,9.21-5.97,8.14-3.27,17.36-2.83,25.98,1.24,12.45,5.88,22.3,18.53,27.72,35.62,7.99,25.19,5.73,50.92-5.61,64.02-6.18,7.13-14.55,10.05-24.23,8.45-5.72-.95-8.06-6.81-11.03-14.23-4.14-10.36-9.3-23.26-25.86-31.13-9.88-4.69-14.94-12.61-14.62-22.89.39-12.68,9.04-26.83,18.46-35.11ZM979.47,1329.28c.91-.8,1.77-1.67,2.6-2.62,11.13-12.85,13.31-38.2,5.42-63.07-5.34-16.83-14.99-29.26-27.19-35.02-8.36-3.95-17.3-4.38-25.18-1.22-11.84,4.75-26.53,23.74-27.04,40.19-.3,9.86,4.55,17.45,14.05,21.96,16.92,8.03,22.38,21.69,26.36,31.66,2.85,7.13,5.1,12.76,10.26,13.61,8.02,1.33,15.12-.57,20.72-5.5Z"/>
        </g>
        <g>
          <path class="cls-1" d="M850.31,1150.96c-30.6-2.42-76.77,13.91-77.68,33.54-.86,18.42,42.37,33.46,72.06,37.41,30.42,4.05,50.39,5.54,51.94-14.05,1.55-19.59-15.72-54.48-46.32-56.9Z"/>
          <path class="cls-1" d="M864.86,1154.26c22.16,10.23,33.51,37.94,32.27,53.64-.44,5.53-2.31,9.57-5.73,12.33-8.29,6.7-24.61,5.13-46.77,2.18-30.94-4.12-73.35-19.59-72.49-37.93.22-4.72,2.93-9.4,8.05-13.92,14.47-12.76,46.6-21.96,70.17-20.1,5.25.42,10.1,1.76,14.51,3.8ZM796.86,1207.95c14.24,6.57,32.51,11.42,47.9,13.47,21.9,2.92,38.03,4.48,46.01-1.97,3.2-2.58,4.95-6.39,5.37-11.63,1.46-18.47-14.83-53.9-45.86-56.36-23.34-1.85-55.13,7.24-69.43,19.85-4.91,4.33-7.51,8.78-7.71,13.22-.41,8.8,9.7,16.95,23.73,23.43Z"/>
        </g>
        <g>
          <ellipse class="cls-1" cx="977.12" cy="1179.84" rx="21.77" ry="19.12" transform="translate(-465.9 665.56) rotate(-30.75)"/>
          <path class="cls-1" d="M997.65,1171.38c1.42,3.85,1.46,8.13.09,12.37-1.72,5.32-5.48,9.92-10.59,12.96-5.1,3.04-10.94,4.14-16.44,3.12-5.52-1.03-10.04-4.08-12.73-8.59-5.53-9.3-1.45-21.97,9.11-28.25h0c10.55-6.28,23.64-3.82,29.17,5.47.56.94,1.02,1.91,1.39,2.92ZM957.54,1188c.34.93.78,1.84,1.3,2.72,2.54,4.26,6.82,7.15,12.06,8.12,5.26.98,10.85-.09,15.74-3,4.89-2.91,8.5-7.32,10.14-12.41,1.64-5.07,1.15-10.21-1.39-14.47-5.25-8.82-17.72-11.12-27.8-5.13h0c-9.07,5.4-13.16,15.71-10.05,24.15Z"/>
        </g>
        <g>
          <path class="cls-1" d="M706.07,1372.61c-6.7,3.99-9.29,11.99-5.79,17.87s14.21,12.03,19.02,5.89c3.45-4.39,2.75-16.9,3.05-22.31.38-6.84-9.58-5.44-16.28-1.46Z"/>
          <path class="cls-1" d="M722.55,1371.84c.24.66.34,1.42.3,2.26-.06,1.1-.08,2.48-.1,4.08-.09,6.28-.21,14.88-3.05,18.5-1.53,1.95-3.76,2.89-6.46,2.72-5.28-.34-11.06-4.76-13.38-8.66-1.77-2.97-2.12-6.54-.98-10.06,1.13-3.49,3.6-6.51,6.94-8.5h0c4.66-2.78,11.49-4.59,14.96-2.49.85.51,1.45,1.24,1.78,2.14ZM699.87,1388.48c.22.6.5,1.19.84,1.75,2.19,3.68,7.63,7.86,12.58,8.17,2.39.15,4.28-.63,5.61-2.34,2.63-3.36,2.76-12.11,2.84-17.9.02-1.61.04-3,.11-4.12.09-1.62-.45-2.79-1.6-3.49-3.02-1.83-9.45-.17-13.93,2.49h0c-3.14,1.87-5.44,4.69-6.5,7.95-.83,2.57-.81,5.16.05,7.49Z"/>
        </g>
        <g>
          <path class="cls-1" d="M783.06,1312.77c-18.24,12.3-33.23,28.28-25.77,40.82,7.46,12.54,34.25,10.1,54.62,1.65,20.32-8.43,25.8-19.78,23.49-34.19-2.69-16.82-26.74-25.55-52.34-8.28Z"/>
          <path class="cls-1" d="M834.95,1317.34c.43,1.17.75,2.38.95,3.64,2.58,16.12-4.76,26.83-23.79,34.73-21.34,8.85-47.84,10.58-55.24-1.86-9.2-15.46,15.06-34.16,25.92-41.49h0c13.86-9.35,28.92-11.99,40.27-7.06,5.77,2.5,9.95,6.79,11.89,12.04ZM756.62,1351.03c.29.77.65,1.54,1.1,2.3,7.12,11.97,33.05,10.14,54,1.45,18.53-7.68,25.68-18.06,23.19-33.64-1.05-6.56-5.52-12-12.25-14.92-11.04-4.79-25.74-2.18-39.32,6.97h0c-10.08,6.8-31.97,23.57-26.72,37.85Z"/>
        </g>
        <g>
          <ellipse class="cls-1" cx="1114.55" cy="892.18" rx="22.85" ry="20.07" transform="translate(-299.48 695.38) rotate(-30.75)"/>
          <path class="cls-1" d="M1136.07,883.3c1.48,4.03,1.53,8.53.09,12.97-1.81,5.58-5.75,10.41-11.1,13.59-11.06,6.58-24.78,4.01-30.58-5.74-5.8-9.74-1.52-23.03,9.55-29.61h0c11.06-6.58,24.78-4.01,30.58,5.74.58.98,1.07,2.01,1.46,3.06ZM1093.98,900.74c.36.98.82,1.94,1.37,2.86,5.52,9.27,18.62,11.69,29.21,5.39,5.14-3.06,8.92-7.69,10.66-13.04,1.73-5.33,1.21-10.73-1.46-15.21-5.52-9.27-18.62-11.69-29.21-5.39-9.53,5.67-13.83,16.51-10.56,25.38Z"/>
        </g>
        <g>
          <path class="cls-1" d="M1010.57,1355.56c-9.76-.84-15.08,15.2-9.42,25.56,4.71,8.62,14.54,11.14,23.39,4.35,7.83-6.01,12.43-15.62,7.33-22.64-6.05-8.32-12.22-6.49-21.31-7.28Z"/>
          <path class="cls-1" d="M1033.82,1365.41c2.56,6.96-2.16,15.23-8.98,20.46-4.34,3.33-9.21,4.64-13.71,3.68-4.33-.92-8.04-3.83-10.42-8.2-3.45-6.32-3.14-15.25.76-21.23,2.33-3.58,5.58-5.38,9.14-5.07h0c1.79.16,3.46.21,5.07.26,6.49.2,11.61.36,16.6,7.22.67.92,1.18,1.88,1.54,2.87ZM1000.58,1378.65c.29.78.62,1.52,1.01,2.23,2.25,4.11,5.71,6.84,9.75,7.7,4.21.89,8.79-.35,12.9-3.5,7.4-5.67,12.26-15.03,7.23-21.95-4.7-6.47-9.37-6.61-15.82-6.81-1.63-.05-3.31-.1-5.13-.26-3.17-.27-6.09,1.37-8.21,4.62-3.21,4.92-3.84,12.24-1.73,17.97Z"/>
        </g>
        <g>
          <path class="cls-1" d="M1191.92,940.4c-7.92,4.71-14.2,16.46-8.65,25.79,5.55,9.32,12.46,12.4,20.38,7.69,7.92-4.71,13.84-15.42,8.29-24.75s-12.1-13.44-20.02-8.72Z"/>
          <path class="cls-1" d="M1213.64,951.52c3.2,8.68-2.13,18.26-9.74,22.78-4.02,2.39-7.9,2.88-11.52,1.46-3.47-1.37-6.68-4.5-9.55-9.32-5.5-9.24.24-21.36,8.83-26.47,3.95-2.35,7.77-2.66,11.37-.92,3.25,1.57,6.39,4.87,9.33,9.82.52.87.94,1.75,1.27,2.65ZM1182.56,963.56c.3.81.67,1.6,1.13,2.37,2.75,4.62,5.79,7.61,9.05,8.9,3.32,1.31,6.9.84,10.64-1.38,7.97-4.74,13.34-15.3,8.12-24.06-2.84-4.77-5.84-7.95-8.91-9.43-3.32-1.61-6.73-1.32-10.43.88-7.46,4.44-12.68,14.39-9.61,22.73Z"/>
        </g>
      </g>
      <g>
        <g>
          <ellipse class="cls-1" cx="374.05" cy="1301.34" rx="28.55" ry="36.28" transform="translate(-941.31 1622.61) rotate(-87.69)"/>
          <path class="cls-1" d="M409.19,1293.42c1.15,3.01,1.68,6.17,1.55,9.39-.64,15.97-17.63,28.3-37.86,27.49-9.78-.4-18.86-3.77-25.56-9.49-6.73-5.75-10.27-13.2-9.96-20.95.64-15.97,17.63-28.3,37.86-27.49,9.78.4,18.86,3.77,25.56,9.49,3.94,3.37,6.79,7.31,8.41,11.56ZM339.74,1308.93c1.57,4.11,4.33,7.94,8.15,11.2,6.55,5.6,15.44,8.9,25.02,9.28,19.74.8,36.31-11.15,36.94-26.64.3-7.48-3.13-14.67-9.65-20.24-6.55-5.6-15.44-8.9-25.02-9.28-19.74-.8-36.31,11.15-36.94,26.64-.12,3.09.39,6.14,1.49,9.04Z"/>
        </g>
        <g>
          <ellipse class="cls-1" cx="141.7" cy="988.25" rx="22.81" ry="28.98" transform="translate(-813.44 697.68) rotate(-64.92)"/>
          <path class="cls-1" d="M121.56,968.25c7.58-5.29,19.21-6.01,29.95-.98,7.08,3.31,12.73,8.61,15.9,14.9,3.18,6.32,3.49,12.9.86,18.51-2.63,5.62-7.88,9.6-14.76,11.2-6.86,1.6-14.54.65-21.62-2.66-14.65-6.86-22.17-21.85-16.75-33.41,1.45-3.09,3.67-5.63,6.44-7.56ZM161.41,1007.69c2.72-1.9,4.84-4.37,6.21-7.31,2.54-5.42,2.23-11.77-.85-17.9-3.1-6.15-8.62-11.33-15.56-14.58-14.3-6.69-30.2-3.01-35.45,8.2-5.25,11.21,2.11,25.78,16.41,32.47h0c6.94,3.25,14.46,4.18,21.16,2.61,3.06-.71,5.78-1.9,8.07-3.51Z"/>
        </g>
        <g>
          <ellipse class="cls-1" cx="25.84" cy="1184.73" rx="22.81" ry="28.98" transform="translate(-673.52 228.1) rotate(-34.92)"/>
          <path class="cls-1" d="M9.05,1160.68c10.47-7.31,26.52-2.47,35.78,10.8,9.26,13.26,8.27,30-2.2,37.31s-26.52,2.47-35.78-10.8c-9.26-13.26-8.27-30,2.2-37.31ZM42.23,1208.21c10.15-7.09,11.06-23.38,2.02-36.33-9.04-12.94-24.65-17.71-34.8-10.62s-11.06,23.38-2.02,36.33,24.65,17.71,34.8,10.62Z"/>
        </g>
        <g>
          <path class="cls-1" d="M294.54,914.34c-19.04-8.91-45.11-2.2-51.8,12.08-6.68,14.28,6.41,39.77,25.45,48.68,19.04,8.91,40.87.52,47.55-13.76,6.68-14.28-2.16-38.09-21.2-47Z"/>
          <path class="cls-1" d="M250.45,917c11.24-7.85,29.91-9.79,44.28-3.06,19.85,9.29,27.95,33.63,21.42,47.58-3.36,7.18-10.44,12.95-19.41,15.81-9.51,3.04-19.71,2.38-28.73-1.84-19.05-8.91-32.48-34.7-25.66-49.27,1.69-3.62,4.52-6.72,8.11-9.23ZM306.12,971.78c4.1-2.86,7.3-6.51,9.23-10.63,6.36-13.59-1.58-37.32-20.99-46.41-18.2-8.52-44.52-2.42-51.21,11.86-6.64,14.19,6.57,39.35,25.23,48.09,8.82,4.13,18.79,4.76,28.09,1.8,3.56-1.14,6.82-2.74,9.65-4.72Z"/>
        </g>
        <g>
          <path class="cls-1" d="M164.95,1158.65c1.7-18.59-11.77-38.34-25.72-39.62-13.94-1.27-31.28,17.35-32.98,35.95-1.7,18.59,11.9,34.29,25.84,35.56,13.94,1.27,31.16-13.3,32.85-31.89Z"/>
          <path class="cls-1" d="M124.5,1123.43c4.98-3.48,10.18-5.21,14.76-4.79,6.84.62,13.77,5.54,19.02,13.49,5.29,8.02,7.86,17.7,7.06,26.56h0c-.8,8.71-5.15,17.33-11.96,23.65-6.48,6.01-14.45,9.23-21.32,8.6-13.8-1.26-27.94-16.92-26.2-35.99.81-8.91,5.19-18.26,12-25.65,2.11-2.29,4.36-4.26,6.64-5.86ZM148.92,1184.92c1.35-.94,2.67-2,3.92-3.17,6.66-6.18,10.93-14.62,11.71-23.14h0c.79-8.68-1.73-18.18-6.93-26.05-5.04-7.63-11.93-12.55-18.43-13.14-6.45-.59-14.21,3.3-20.76,10.4-6.6,7.16-11.01,16.57-11.79,25.19-1.7,18.62,12.05,33.91,25.49,35.14,5.33.49,11.36-1.43,16.79-5.22Z"/>
        </g>
        <g>
          <path class="cls-1" d="M219.69,1275.78c6.22,20.08,49.27,12.7,64.44,8.4,25.01-7.09,29.4-25.06,24.54-43.83-7.72-29.86-14.58-40.75-40.03-30.71-17.69,6.98-55.68,44.41-48.96,66.14Z"/>
          <path class="cls-1" d="M258.43,1214.94c3.73-2.6,7.18-4.58,10.06-5.71,10.53-4.15,18.05-4.75,23.68-1.88,8.12,4.13,12.36,15.19,16.93,32.9,4.1,15.86,3.12,36.43-24.85,44.36-15.93,4.52-58.66,11.76-64.99-8.69h0c-5.71-18.45,20.28-47.79,39.16-60.97ZM297.72,1277.54c13.76-9.61,13.71-24.79,10.53-37.08-4.52-17.46-8.66-28.35-16.48-32.33-5.39-2.74-12.68-2.13-22.96,1.92-17.22,6.79-55.41,43.91-48.7,65.6,6.09,19.68,49.26,12.25,63.9,8.1,5.62-1.59,10.13-3.71,13.7-6.21Z"/>
        </g>
        <g>
          <path class="cls-1" d="M514.83,1034.64c-20.08-6.23-41.29,32.83-43.13,48.49-.89,7.59,9.73,33.68,21.81,39.76,33.3,16.75,43.36-1.61,45.57-13.69,3.64-19.93-2.51-67.81-24.24-74.55Z"/>
          <path class="cls-1" d="M498.32,1037.9c.29-.21.59-.4.88-.6,5.51-3.58,10.81-4.62,15.76-3.08h0c22.52,6.99,28.1,55.56,24.55,75.05-.93,5.08-3.77,14.24-12.38,18.52-8.28,4.12-19.66,2.61-33.82-4.52-12.06-6.06-23.01-32.01-22.05-40.2,1.39-11.79,13.26-35.56,27.06-45.19ZM514.7,1035.07c-4.69-1.46-9.74-.45-15.02,2.98-13.98,9.07-26.15,33.26-27.54,45.14-.92,7.8,10.04,33.51,21.57,39.31,13.9,6.99,25.01,8.51,33.03,4.51,8.28-4.12,11.01-12.98,11.91-17.89,3.41-18.72-2.25-67.32-23.94-74.05Z"/>
        </g>
        <g>
          <ellipse class="cls-1" cx="565.96" cy="1153.37" rx="14.01" ry="16.65" transform="translate(-718.56 1177.07) rotate(-64.92)"/>
          <path class="cls-1" d="M554.73,1141.11c1.36-.95,2.92-1.67,4.66-2.14,4.07-1.09,8.58-.63,12.7,1.3,8.54,3.99,12.73,13.12,9.35,20.34-3.38,7.22-13.07,9.84-21.61,5.85h0c-4.12-1.93-7.37-5.1-9.14-8.92-1.78-3.85-1.86-7.91-.21-11.42.95-2.02,2.4-3.73,4.24-5.01ZM576.69,1164.89c1.69-1.18,3.06-2.74,3.95-4.65,3.17-6.78-.83-15.37-8.92-19.16-3.93-1.84-8.23-2.28-12.1-1.25-3.84,1.03-6.8,3.4-8.33,6.67-1.53,3.27-1.45,7.06.22,10.67,1.68,3.64,4.77,6.65,8.71,8.49,5.81,2.72,12.18,2.23,16.48-.77Z"/>
        </g>
        <g>
          <ellipse class="cls-1" cx="588.36" cy="1022.36" rx="14.01" ry="16.65" transform="translate(-587 1121.88) rotate(-64.92)"/>
          <path class="cls-1" d="M577.13,1010.1c1.36-.95,2.92-1.67,4.66-2.14,4.07-1.09,8.58-.63,12.7,1.3,8.54,3.99,12.73,13.12,9.35,20.34-3.38,7.22-13.07,9.84-21.61,5.85h0c-4.12-1.93-7.37-5.1-9.14-8.92-1.78-3.85-1.86-7.91-.21-11.42.95-2.02,2.4-3.73,4.24-5.01ZM599.09,1033.88c1.69-1.18,3.06-2.74,3.95-4.65,3.17-6.78-.83-15.37-8.92-19.16-3.93-1.84-8.23-2.28-12.1-1.25-3.84,1.03-6.8,3.4-8.33,6.67-1.53,3.27-1.45,7.06.22,10.67,1.68,3.64,4.77,6.65,8.71,8.49,5.81,2.72,12.18,2.23,16.48-.77Z"/>
        </g>
        <g>
          <ellipse class="cls-1" cx="466.31" cy="1315.87" rx="26.49" ry="25.61" transform="translate(-669.29 503.84) rotate(-34.92)"/>
          <path class="cls-1" d="M451.39,1294.51c12.18-8.5,28.77-5.83,37,5.95s5.01,28.28-7.17,36.78-28.77,5.83-37-5.95c-8.22-11.78-5.01-28.28,7.17-36.78ZM480.71,1336.51c11.78-8.22,14.89-24.17,6.95-35.55-7.95-11.38-23.99-13.95-35.77-5.73-11.78,8.22-14.89,24.17-6.95,35.55,7.95,11.38,23.99,13.95,35.77,5.73Z"/>
        </g>
        <g>
          <ellipse class="cls-1" cx="252.07" cy="1152.58" rx="26.49" ry="25.61" transform="translate(-614.39 351.81) rotate(-34.92)"/>
          <path class="cls-1" d="M237.15,1131.22c12.18-8.5,28.77-5.83,37,5.95,8.22,11.78,5.01,28.28-7.17,36.78-12.18,8.5-28.77,5.83-37-5.95-8.22-11.78-5.01-28.28,7.17-36.78ZM266.48,1173.22c11.78-8.22,14.89-24.17,6.95-35.55-7.95-11.38-23.99-13.95-35.77-5.73-11.78,8.22-14.89,24.17-6.95,35.55,7.95,11.38,23.99,13.95,35.77,5.73Z"/>
        </g>
        <g>
          <path class="cls-1" d="M57.85,1106.81c8.96,4.19,22.26-1.2,25.94-9.06,3.68-7.87-3.64-13.85-12.6-18.04-8.96-4.19-20.91.89-24.59,8.75s2.29,14.16,11.25,18.35Z"/>
          <path class="cls-1" d="M52.04,1081.66c5.35-3.74,12.92-5.36,19.35-2.35,11.72,5.48,16.03,11.75,12.81,18.63-1.82,3.89-6.02,7.36-11.24,9.28-5.43,2-11.01,2-15.29,0-10.75-5.03-14.82-11.76-11.46-18.94,1.18-2.51,3.25-4.81,5.83-6.62ZM77.98,1103.63c2.46-1.72,4.36-3.82,5.41-6.06,2.97-6.35-1.2-12.22-12.38-17.46-9.09-4.25-20.56,1.19-24,8.54-4.21,8.99,5.11,14.99,11.03,17.76,4.07,1.9,9.39,1.9,14.61-.02,1.95-.72,3.76-1.66,5.33-2.76Z"/>
        </g>
        <g>
          <ellipse class="cls-1" cx="430.79" cy="1231.46" rx="14.42" ry="13.55" transform="translate(-867.17 1099.63) rotate(-64.92)"/>
          <path class="cls-1" d="M423.26,1219.39c4.04-2.82,9.26-3.52,13.82-1.39,6.99,3.27,9.84,11.97,6.37,19.39-1.68,3.59-4.58,6.35-8.15,7.78-3.59,1.43-7.43,1.34-10.82-.25h0c-3.39-1.59-5.92-4.48-7.12-8.15-1.2-3.66-.93-7.65.75-11.24,1.2-2.57,3.01-4.66,5.15-6.15ZM437.81,1242.82c2.06-1.44,3.73-3.43,4.85-5.8,3.27-6.98.6-15.15-5.94-18.22-6.54-3.06-14.53.12-17.79,7.11-1.59,3.39-1.84,7.15-.71,10.59,1.12,3.43,3.49,6.14,6.65,7.62h0c3.17,1.48,6.76,1.56,10.12.22,1.01-.4,1.95-.91,2.83-1.53Z"/>
        </g>
        <g>
          <path class="cls-1" d="M379.12,959.41c6.87,4.46,14.68,3.12,17.31-5.03,2.02-6.25,1.9-14.58-4.88-17.75-6.78-3.17-16.88.31-19.66,6.27-2.79,5.95.95,12.44,7.23,16.52Z"/>
          <path class="cls-1" d="M375.52,938.18c1.33-.93,2.88-1.7,4.57-2.26,4.11-1.35,8.36-1.23,11.65.31,7.07,3.31,7.17,11.92,5.11,18.29-1.19,3.67-3.44,6.19-6.52,7.28-3.44,1.22-7.62.49-11.46-2.01h0c-7.05-4.58-10.02-11.45-7.39-17.08.79-1.7,2.2-3.26,4.02-4.53ZM392.1,959.9c1.77-1.24,3.1-3.16,3.91-5.66,1.95-6.03,1.9-14.15-4.64-17.21-3.09-1.45-7.1-1.55-11-.27-3.78,1.24-6.8,3.6-8.07,6.32-2.48,5.29.3,11.56,7.07,15.96h0c3.61,2.35,7.5,3.04,10.68,1.92.74-.26,1.43-.62,2.06-1.06Z"/>
        </g>
        <g>
          <path class="cls-1" d="M183.8,1095.98c13.26,8.03,28.95,2.73,34.45-13.94,4.71-14.28,5.88-31.35-6.77-37.27-12.65-5.92-32.66,2.21-39.04,15.83s-.59,28.15,11.36,35.39Z"/>
          <path class="cls-1" d="M182.05,1048.98c8.93-6.23,20.99-8.66,29.62-4.62,15.23,7.13,9.97,28.82,7.01,37.81-2.69,8.17-7.96,14.06-14.83,16.6-6.52,2.41-13.72,1.55-20.27-2.42h0c-12.81-7.75-17.66-22.87-11.53-35.95,2.1-4.5,5.69-8.41,10.01-11.42ZM208.26,1095.47c4.31-3.01,7.62-7.68,9.57-13.58,2.89-8.77,8.04-29.9-6.54-36.73-12.42-5.81-32.18,2.22-38.45,15.62-5.93,12.66-1.22,27.31,11.19,34.82h0c6.32,3.83,13.25,4.66,19.51,2.35,1.68-.62,3.26-1.45,4.72-2.47Z"/>
        </g>
        <g>
          <path class="cls-1" d="M153,1270.56c14.91-6.23,18.16-21,11.33-35.39-7.59-16-20.78-25.1-34.46-13.92-10.82,8.84-17.72,21.78-11.33,35.39,6.39,13.62,21.57,19.3,34.46,13.92Z"/>
          <path class="cls-1" d="M131.35,1219.58c4.72-3.29,9.54-4.41,14.37-3.33,7.32,1.65,14.08,8.3,19.02,18.72,3.81,8.03,4.49,16.13,1.92,22.83-2.25,5.87-6.91,10.42-13.48,13.16-13.32,5.56-28.71-.65-35.03-14.14-8.13-17.33,5.3-30.9,11.45-35.93.58-.48,1.17-.92,1.75-1.33ZM157.97,1267.35c3.66-2.56,6.34-5.9,7.86-9.87,2.48-6.47,1.81-14.33-1.89-22.13-4.75-10.03-11.47-16.67-18.41-18.24-5.14-1.16-10.32.35-15.37,4.48-5.99,4.9-19.08,18.1-11.21,34.86,6.12,13.06,21.01,19.07,33.89,13.7,1.88-.78,3.6-1.72,5.14-2.8Z"/>
        </g>
        <g>
          <path class="cls-1" d="M159.74,922.2c12.65,5.92,27.77-4.85,34.14-18.47,6.38-13.62,1.82-35.22-11.53-37.06-26.34-3.64-28.32.45-34.45,13.94-6.22,13.7-.82,35.66,11.83,41.58Z"/>
          <path class="cls-1" d="M155.68,867.83c4.54-3.17,11.78-3.66,26.74-1.6,4.63.64,8.5,3.6,11.2,8.55,4.45,8.19,4.73,20.44.67,29.13-3.26,6.97-8.69,13.08-14.89,16.76-6.81,4.04-13.86,4.73-19.84,1.93-12.5-5.85-18.69-27.53-12.05-42.17,2.68-5.91,4.58-10.1,8.17-12.6ZM180.92,918.64c5.22-3.65,9.73-9.04,12.57-15.09,3.96-8.45,3.68-20.37-.65-28.33-1.78-3.28-5.06-7.34-10.54-8.1-26.14-3.61-27.95.4-33.99,13.69-6.34,13.98-.26,35.44,11.62,41h0c5.71,2.67,12.46,2,19.01-1.89.67-.4,1.33-.82,1.98-1.28Z"/>
        </g>
        <g>
          <path class="cls-1" d="M428.35,1072.04c5.24-27.76,31.63-30.06,30.54-41.68-2.45-26.22-37.59-28.23-68.11-8.93-25.48,16.11-29.75,39.67-19.37,53.64,10.37,13.97,51.35,26.59,56.94-3.03Z"/>
          <path class="cls-1" d="M378.25,1081.88c-3.01-2.03-5.49-4.26-7.19-6.54-4.63-6.23-6.33-14.24-4.78-22.53,2.23-11.99,10.85-23.26,24.27-31.75,19.78-12.51,42.32-16.36,56.1-9.59,7.5,3.69,11.88,10.2,12.69,18.86.48,5.11-4.02,8.44-9.71,12.65-7.94,5.88-17.83,13.19-20.84,29.15-1.8,9.52-7.44,15.63-16.32,17.67-10.95,2.52-25.01-1.7-34.23-7.91ZM449.09,1013.9c-.88-.6-1.83-1.14-2.83-1.63-13.51-6.64-35.71-2.81-55.23,9.55-13.21,8.36-21.69,19.42-23.88,31.16-1.5,8.05.14,15.8,4.62,21.84,6.73,9.07,26.3,17.39,40.5,14.12,8.51-1.96,13.92-7.82,15.65-16.97,3.08-16.3,13.54-24.05,21.19-29.7,5.46-4.04,9.78-7.24,9.35-11.85-.67-7.17-3.89-12.82-9.37-16.51Z"/>
        </g>
        <g>
          <path class="cls-1" d="M325.41,1164.63c4.81,26.75,29.18,62.62,46.2,58.99,15.97-3.41,19.13-43.82,15.83-70.13-3.37-26.97-6.59-44.4-23.72-41.32-17.13,3.08-43.12,25.72-38.31,52.47Z"/>
          <path class="cls-1" d="M324.97,1151.42c3.78-21.28,24.96-37.24,38.68-39.7,4.84-.87,8.71-.17,11.85,2.14,7.6,5.59,9.93,19.93,12.39,39.57,3.43,27.42-.28,67.23-16.18,70.62-4.09.87-8.71-.39-13.73-3.76-14.18-9.52-29.29-34.97-32.99-55.58-.83-4.59-.76-9.04-.01-13.28ZM386.25,1197.59c2.43-13.67,2.47-30.41.76-44.06-2.43-19.42-4.71-33.58-12.03-38.96-2.93-2.16-6.58-2.8-11.17-1.98-16.15,2.9-42.83,24.83-37.96,51.95,3.67,20.4,18.6,45.59,32.62,55,4.81,3.23,9.21,4.45,13.05,3.63,7.63-1.63,12.34-12.12,14.73-25.59Z"/>
        </g>
        <g>
          <ellipse class="cls-1" cx="321.63" cy="1049.52" rx="16.93" ry="19.28" transform="translate(-652.08 542.75) rotate(-45.47)"/>
          <path class="cls-1" d="M309.76,1033.85c2.98-2.08,6.64-3.08,10.57-2.86,4.95.28,9.73,2.46,13.48,6.15,3.75,3.69,6.01,8.44,6.37,13.38.36,4.96-1.24,9.52-4.5,12.84-6.72,6.83-18.49,6.18-26.24-1.44h0c-7.75-7.63-8.59-19.39-1.87-26.21.68-.69,1.41-1.31,2.19-1.85ZM333.02,1064.46c.72-.5,1.41-1.08,2.04-1.72,3.08-3.13,4.59-7.45,4.25-12.15-.34-4.73-2.51-9.28-6.11-12.81-3.59-3.54-8.18-5.63-12.91-5.9-4.71-.27-9,1.31-12.08,4.44-6.38,6.48-5.54,17.68,1.86,24.96h0c6.67,6.56,16.42,7.74,22.95,3.18Z"/>
        </g>
        <g>
          <path class="cls-1" d="M547.7,1238.31c4.92,4.84,12.36,5.26,16.61.94s7.1-14.87.77-17.61c-4.54-1.96-15.09,1.45-19.79,2.4-5.94,1.21-2.51,9.43,2.41,14.27Z"/>
          <path class="cls-1" d="M543.33,1224.37c.51-.36,1.14-.61,1.87-.76.96-.19,2.15-.49,3.52-.83,5.4-1.34,12.79-3.17,16.54-1.55,2.01.87,3.32,2.57,3.78,4.92.9,4.6-1.59,10.54-4.41,13.41-2.15,2.18-5.13,3.28-8.4,3.1-3.24-.18-6.38-1.62-8.84-4.03h0c-3.43-3.37-6.51-8.81-5.49-12.25.25-.84.74-1.52,1.43-2ZM562.68,1240.05c.47-.33.91-.7,1.31-1.11,2.66-2.71,5.01-8.3,4.17-12.62-.41-2.08-1.5-3.52-3.26-4.28-3.47-1.5-10.99.36-15.97,1.59-1.38.34-2.58.64-3.56.84-1.41.29-2.29,1.01-2.63,2.15-.89,3,1.98,8.14,5.27,11.37h0c2.3,2.27,5.24,3.61,8.27,3.78,2.39.13,4.6-.47,6.4-1.72Z"/>
        </g>
        <g>
          <path class="cls-1" d="M479.13,1185.83c14.64,12.86,31.69,22.1,40.75,12.89,9.06-9.21.95-31.61-10.87-47.15-11.79-15.51-22.74-17.64-34.56-12.43-13.8,6.09-15.87,28.65,4.68,46.69Z"/>
          <path class="cls-1" d="M471.37,1140.37c.9-.63,1.87-1.18,2.9-1.63,13.23-5.84,24.05-1.96,35.09,12.57,12.38,16.29,19.82,38.6,10.83,47.73-11.17,11.35-32.65-5.22-41.36-12.87h0c-11.12-9.77-16.77-22.07-15.11-32.91.85-5.51,3.57-10.05,7.64-12.89ZM517.85,1199.87c.6-.42,1.17-.9,1.72-1.46,8.65-8.79,1.25-30.59-10.9-46.57-10.75-14.14-21.24-17.93-34.03-12.29-5.38,2.38-9.04,7.42-10.02,13.85-1.62,10.53,3.92,22.54,14.81,32.11h0c8.09,7.1,27.38,22.08,38.43,14.37Z"/>
        </g>
        <g>
          <ellipse class="cls-1" cx="44.35" cy="996.52" rx="17.77" ry="20.23" transform="translate(-697.12 329.25) rotate(-45.47)"/>
          <path class="cls-1" d="M31.9,980.08c3.12-2.18,6.96-3.23,11.08-2.99,5.19.29,10.21,2.58,14.13,6.45,8.13,7.99,9.01,20.32,1.96,27.48-7.04,7.16-19.38,6.48-27.51-1.52h0c-8.13-7.99-9.01-20.32-1.96-27.48.71-.72,1.48-1.37,2.29-1.94ZM56.3,1012.21c.76-.53,1.48-1.13,2.15-1.81,6.7-6.81,5.82-18.58-1.95-26.23-3.78-3.71-8.59-5.91-13.56-6.2-4.95-.28-9.46,1.38-12.7,4.67-6.7,6.81-5.82,18.58,1.95,26.23,7,6.89,17.25,8.13,24.11,3.34Z"/>
        </g>
        <g>
          <path class="cls-1" d="M464.61,981.35c1.47,8.55,16.41,9.5,24.01,2.32,6.33-5.98,6.27-14.96-1.53-21.01-6.91-5.36-16.18-7.14-21.04-1.19-5.77,7.05-2.81,11.93-1.44,19.89Z"/>
          <path class="cls-1" d="M467.81,959.22c5.39-3.76,13.53-1.58,19.54,3.09,3.83,2.97,6.04,6.84,6.24,10.92.19,3.92-1.47,7.74-4.67,10.77-4.63,4.38-12.36,6.12-18.35,4.12-3.59-1.2-5.86-3.57-6.4-6.68h0c-.27-1.57-.6-3.01-.92-4.4-1.29-5.6-2.3-10.02,2.45-15.84.64-.78,1.35-1.43,2.11-1.97ZM486.63,984.71c.6-.42,1.17-.88,1.68-1.37,3.01-2.85,4.58-6.43,4.4-10.08-.18-3.81-2.28-7.45-5.9-10.26-6.52-5.06-15.63-7.12-20.42-1.26-4.48,5.48-3.56,9.51-2.28,15.08.32,1.4.66,2.85.93,4.45.48,2.78,2.54,4.91,5.8,5.99,4.94,1.65,11.35.53,15.78-2.56Z"/>
        </g>
        <g>
          <path class="cls-1" d="M68.24,919.4c5.82,5.72,17.29,8.46,24.03,1.61,6.74-6.85,7.82-13.46,2-19.18-5.82-5.72-16.32-8.39-23.06-1.54s-8.79,13.39-2.97,19.11Z"/>
          <path class="cls-1" d="M72.88,898.3c6.72-4.69,16.12-2.28,21.7,3.21,2.95,2.91,4.25,6.11,3.84,9.54-.39,3.28-2.35,6.74-5.83,10.27-6.68,6.78-18.35,4.6-24.66-1.61-2.9-2.85-4.03-6.06-3.35-9.53.61-3.14,2.74-6.57,6.31-10.2.63-.64,1.29-1.2,1.98-1.68ZM90.18,922.21c.63-.44,1.22-.94,1.78-1.5,3.34-3.39,5.22-6.67,5.58-9.76.37-3.14-.83-6.1-3.58-8.8-5.85-5.76-16.1-7.99-22.44-1.54-3.45,3.51-5.49,6.79-6.07,9.75-.63,3.21.39,6.06,3.1,8.73,5.48,5.39,15.18,7.62,21.63,3.12Z"/>
        </g>
      </g>
    </g>
  </g>
</svg>