<?xml version="1.0" encoding="UTF-8"?>
<svg id="Layer_2" xmlns="http://www.w3.org/2000/svg" viewBox="0 0 600.55 506.11">
  <defs>
    <style>
      .cls-1 {
        stroke: #1a2933;
        stroke-miterlimit: 10;
        stroke-width: 2.42px;
      }

      .cls-1, .cls-2 {
        fill: #1a2933;
      }

      .cls-3 {
        fill: #ffb732;
      }
    </style>
  </defs>
  <g id="Layer_1-2" data-name="Layer_1">
    <g id="stacked-light">
      <g>
        <ellipse class="cls-1" cx="367.35" cy="90.11" rx="33.09" ry="26.04" transform="translate(139.89 392.32) rotate(-66.82)"/>
        <path class="cls-1" d="M338.76,236.31c9.59,16.61,32.59,25.21,45.05,18.02,12.46-7.19,15.97-33.09,6.39-49.7s-30.3-21.73-42.75-14.54c-12.46,7.19-18.27,29.62-8.68,46.23Z"/>
        <path class="cls-1" d="M373.7,43.66c5.84-18.27-30.23-35.23-43.82-39.93-22.41-7.76-35.07,3.39-41.24,19.97-9.82,26.37-10.38,38.09,13.9,43.87,16.87,4.02,64.84-4.14,71.16-23.91Z"/>
        <path class="cls-1" d="M151.07,153.95c11.76,15.15,48.03-2.99,57.58-13.75,4.63-5.21,10.31-30.27,4.45-41.13-16.16-29.92-33.27-21.44-41.24-13.55-13.13,13.01-33.53,52.03-20.8,68.42Z"/>
        <ellipse class="cls-1" cx="320.08" cy="102.25" rx="12.79" ry="15.19" transform="translate(-8.24 173.74) rotate(-30)"/>
        <path class="cls-1" d="M456.97,140.89c0-12.9-10.82-23.37-24.16-23.37-13.35,0-24.16,10.46-24.16,23.37,0,12.9,10.82,23.37,24.16,23.37,13.35,0,24.16-10.46,24.16-23.37Z"/>
        <path class="cls-1" d="M459.81,203.88c0-12.9-10.82-23.37-24.16-23.37-13.35,0-24.16,10.46-24.16,23.37,0,12.9,10.82,23.37,24.16,23.37,13.35,0,24.16-10.46,24.16-23.37Z"/>
        <path class="cls-1" d="M309.91,209.98c-4.51-7.81-17.27-10.73-24.13-6.77-6.86,3.96-4.51,12.26,0,20.07,4.51,7.81,16.1,10.26,22.96,6.29,6.86-3.96,5.68-11.79,1.17-19.6Z"/>
        <ellipse class="cls-1" cx="291.17" cy="85.45" rx="13.16" ry="12.36" transform="translate(-3.72 157.03) rotate(-30)"/>
        <path class="cls-1" d="M244.18,294.85c-2.81-6.92-9.35-10-15.58-5.28-4.78,3.62-9.03,9.91-5.62,15.83s12.79,8.58,17.98,5.58,5.78-9.8,3.22-16.13Z"/>
        <path class="cls-1" d="M268.8,72.76c-5.73-12.93-20.23-17.16-33.05-7.56-10.98,8.22-20.77,20.38-14.4,31.42,6.37,11.04,25.59,15.41,37.47,8.55,11.88-6.86,15.14-20.75,9.98-32.4Z"/>
        <path class="cls-1" d="M354.15,262.55c-14.41-3.13-24.55,6.23-26.96,20.56-2.68,15.93,2.44,29.62,18.51,28.41,12.71-.96,24.63-7.04,26.96-20.56,2.33-13.52-6.06-25.7-18.51-28.41Z"/>
        <path class="cls-1" d="M311.44,279.03c-6.37-11.04-23.3-10.88-35.18-4.01-11.88,6.86-19.75,25.39-10.73,33.74,17.8,16.48,21.42,14.46,33.05,7.56,11.8-7,19.24-26.25,12.87-37.28Z"/>
        <path class="cls-1" d="M282.42,168.6c-10.19-23.67,8.6-38.87,1.86-47.1-15.22-18.59-42.83-2.2-56.08,27.96-11.06,25.18-2.29,45.17,12.69,50.46,14.97,5.28,52.4-6.06,41.53-31.32Z"/>
        <path class="cls-1" d="M231.91,277.91c23.26-8.58,51.6-36.19,45.62-50.9-5.61-13.8-42.41-10.19-65.52-3.04-23.68,7.33-38.83,13-33.34,27.89,5.5,14.9,29.98,34.63,53.24,26.05Z"/>
        <ellipse class="cls-1" cx="262.63" cy="29.91" rx="15.45" ry="17.59" transform="translate(-1.04 48.58) rotate(-10.55)"/>
        <path class="cls-1" d="M236.4,38.28c-1.15-6.19-6.5-10.39-11.93-9.38-5.44,1.01-13.08,7.42-9.77,12.78,2.37,3.84,12.04,6.8,16.06,8.54,5.08,2.2,6.8-5.74,5.65-11.93Z"/>
        <path class="cls-1" d="M181.04,198.4c-4.24-17.26-12.17-33.08-23.75-30.92-11.59,2.16-17.21,23.15-16.49,40.95.72,17.76,7.8,25.07,19.36,27.35,13.5,2.65,26.83-13.14,20.88-37.37Z"/>
        <ellipse class="cls-1" cx="203.97" cy="184.98" rx="16.21" ry="18.46" transform="translate(-30.41 40.46) rotate(-10.55)"/>
        <path class="cls-1" d="M210.61,57.28c3.36-7.17-7.31-15.67-16.75-14.27-7.85,1.17-12.5,7.91-9.83,16.52,2.37,7.62,8.37,13.78,15.11,11.88,7.99-2.26,8.33-7.45,11.46-14.12Z"/>
        <path class="cls-1" d="M327.73,251.28c-1.36-7.32-8.52-15.36-17.13-13.76-8.62,1.6-12.88,5.99-11.51,13.3,1.36,7.32,7.83,14.8,16.45,13.19,8.62-1.6,13.56-5.42,12.2-12.74Z"/>
      </g>
      <g>
        <path class="cls-3" d="M38.27,415.9c.29,0,.58.05.86.16.29.11.56.29.83.56l4.82,5.08c-2.11,2.76-4.76,4.84-7.94,6.25-3.18,1.4-6.94,2.11-11.29,2.11-3.98,0-7.55-.68-10.71-2.03-3.16-1.36-5.83-3.23-8.03-5.62-2.2-2.39-3.88-5.22-5.06-8.5-1.18-3.28-1.76-6.83-1.76-10.67s.67-7.51,2.02-10.78c1.34-3.28,3.22-6.1,5.63-8.48s5.3-4.22,8.66-5.54c3.36-1.32,7.07-1.98,11.12-1.98,1.97,0,3.82.17,5.56.52s3.37.83,4.88,1.44c1.51.61,2.9,1.34,4.18,2.2,1.27.85,2.4,1.79,3.38,2.83l-4.1,5.51c-.26.34-.58.64-.94.92-.36.28-.86.41-1.51.41-.43,0-.84-.1-1.22-.29-.38-.19-.79-.43-1.22-.7-.43-.28-.91-.58-1.42-.9-.52-.32-1.13-.62-1.84-.9-.71-.28-1.54-.51-2.48-.7-.95-.19-2.06-.29-3.33-.29-2.21,0-4.22.39-6.05,1.17-1.82.78-3.39,1.9-4.7,3.35-1.31,1.45-2.33,3.21-3.06,5.27-.73,2.06-1.1,4.38-1.1,6.95s.37,5.08,1.1,7.16,1.73,3.85,2.99,5.27,2.73,2.51,4.41,3.26c1.68.74,3.48,1.12,5.4,1.12,1.1,0,2.11-.05,3.02-.16.91-.11,1.76-.29,2.54-.56.78-.26,1.52-.61,2.23-1.03.71-.42,1.42-.94,2.14-1.57.29-.24.6-.44.94-.59s.68-.23,1.04-.23Z"/>
        <path class="cls-3" d="M96.84,429.47h-12.24v-22.18h-21.31v22.18h-12.24v-52.45h12.24v21.92h21.31v-21.92h12.24v52.45Z"/>
        <path class="cls-3" d="M139.97,377.02v9.36h-21.53v12.24h16.49v9h-16.49v12.49h21.53v9.36h-33.77v-52.45h33.77Z"/>
        <path class="cls-3" d="M181.37,377.02v9.36h-21.53v12.24h16.49v9h-16.49v12.49h21.53v9.36h-33.77v-52.45h33.77Z"/>
        <path class="cls-3" d="M201.17,410.07v19.4h-12.17v-52.45h17.06c3.79,0,7.03.39,9.7,1.17,2.68.78,4.86,1.87,6.55,3.26,1.69,1.39,2.92,3.04,3.69,4.93.77,1.9,1.15,3.96,1.15,6.19,0,1.71-.23,3.31-.68,4.82s-1.13,2.91-2.03,4.19c-.9,1.28-2,2.43-3.31,3.44-1.31,1.01-2.81,1.84-4.52,2.48.82.41,1.58.91,2.29,1.51.71.6,1.33,1.33,1.85,2.2l11.16,18.25h-11.02c-2.04,0-3.5-.77-4.39-2.3l-8.71-15.23c-.38-.67-.83-1.15-1.35-1.44s-1.24-.43-2.18-.43h-3.1ZM201.17,401.68h4.9c1.66,0,3.07-.21,4.23-.63,1.16-.42,2.12-1,2.86-1.75s1.28-1.61,1.62-2.61c.34-1,.5-2.07.5-3.22,0-2.3-.75-4.1-2.25-5.4-1.5-1.3-3.82-1.94-6.97-1.94h-4.9v15.55Z"/>
        <path class="cls-3" d="M250.92,429.47h-12.24v-52.45h12.24v52.45Z"/>
        <path class="cls-3" d="M313.13,403.23c0,3.79-.65,7.32-1.96,10.58-1.31,3.26-3.15,6.1-5.53,8.51-2.38,2.41-5.24,4.3-8.59,5.67-3.35,1.37-7.06,2.05-11.14,2.05s-7.8-.68-11.16-2.05c-3.36-1.37-6.23-3.26-8.62-5.67-2.39-2.41-4.24-5.25-5.54-8.51-1.31-3.26-1.96-6.79-1.96-10.58s.65-7.32,1.96-10.58c1.31-3.26,3.16-6.1,5.54-8.5,2.39-2.4,5.26-4.28,8.62-5.65,3.36-1.37,7.08-2.05,11.16-2.05s7.79.69,11.14,2.07c3.35,1.38,6.21,3.27,8.59,5.67,2.38,2.4,4.22,5.23,5.53,8.5,1.31,3.26,1.96,6.78,1.96,10.55ZM300.67,403.23c0-2.59-.34-4.93-1.01-7-.67-2.08-1.64-3.83-2.9-5.27-1.26-1.44-2.8-2.54-4.63-3.31-1.82-.77-3.9-1.15-6.23-1.15s-4.45.38-6.28,1.15c-1.84.77-3.38,1.87-4.64,3.31-1.26,1.44-2.23,3.2-2.9,5.27-.67,2.08-1.01,4.41-1.01,7s.34,4.96,1.01,7.04c.67,2.08,1.64,3.83,2.9,5.27,1.26,1.44,2.81,2.54,4.64,3.29s3.93,1.13,6.28,1.13,4.4-.38,6.23-1.13,3.37-1.85,4.63-3.29c1.26-1.44,2.23-3.2,2.9-5.27.67-2.08,1.01-4.42,1.01-7.04Z"/>
        <path class="cls-3" d="M363.53,387.68c-.36.58-.74,1.01-1.13,1.3-.4.29-.91.43-1.53.43-.55,0-1.15-.17-1.78-.52-.64-.35-1.36-.74-2.16-1.17-.8-.43-1.72-.82-2.75-1.17-1.03-.35-2.21-.52-3.53-.52-2.28,0-3.98.49-5.09,1.46-1.12.97-1.67,2.29-1.67,3.94,0,1.06.33,1.93,1.01,2.63.67.7,1.55,1.3,2.65,1.8s2.34.97,3.74,1.39c1.4.42,2.84.89,4.3,1.4,1.46.52,2.9,1.12,4.3,1.82,1.4.7,2.65,1.58,3.74,2.66,1.09,1.08,1.97,2.39,2.65,3.94s1.01,3.41,1.01,5.6c0,2.42-.42,4.69-1.26,6.8-.84,2.11-2.06,3.95-3.65,5.53-1.6,1.57-3.56,2.81-5.9,3.71-2.34.9-5,1.35-7.97,1.35-1.63,0-3.29-.17-4.99-.5-1.69-.34-3.33-.81-4.91-1.42-1.58-.61-3.07-1.34-4.46-2.18-1.39-.84-2.6-1.78-3.64-2.81l3.6-5.69c.26-.43.64-.78,1.12-1.04.48-.26,1-.4,1.55-.4.72,0,1.45.23,2.18.68.73.46,1.56.96,2.48,1.51s1.99,1.06,3.19,1.51c1.2.46,2.62.68,4.25.68,2.21,0,3.92-.49,5.15-1.46,1.22-.97,1.84-2.51,1.84-4.63,0-1.22-.34-2.22-1.01-2.99-.67-.77-1.55-1.4-2.65-1.91-1.09-.5-2.33-.95-3.73-1.33s-2.82-.81-4.28-1.28-2.89-1.04-4.28-1.73c-1.39-.68-2.63-1.58-3.73-2.7s-1.97-2.51-2.65-4.18c-.67-1.67-1.01-3.73-1.01-6.17,0-1.97.4-3.89,1.19-5.76s1.96-3.54,3.49-5c1.54-1.46,3.42-2.63,5.65-3.51,2.23-.88,4.79-1.31,7.67-1.31,1.61,0,3.17.13,4.7.38s2.97.62,4.34,1.12c1.37.49,2.65,1.08,3.83,1.76,1.19.68,2.25,1.46,3.19,2.32l-3.02,5.65Z"/>
        <path class="cls-3" d="M412.13,377.02v9.65h-14.76v42.8h-12.17v-42.8h-14.76v-9.65h41.69Z"/>
        <path class="cls-3" d="M439.7,419.86c1.63,0,3.09-.27,4.37-.81s2.37-1.31,3.26-2.32,1.57-2.24,2.03-3.69.7-3.1.7-4.95v-31.07h12.17v31.07c0,3.22-.52,6.17-1.57,8.86-1.04,2.69-2.54,5-4.48,6.95s-4.31,3.46-7.09,4.54c-2.78,1.08-5.92,1.62-9.4,1.62s-6.65-.54-9.43-1.62-5.15-2.59-7.09-4.54c-1.94-1.94-3.43-4.26-4.46-6.95-1.03-2.69-1.55-5.64-1.55-8.86v-31.07h12.17v31.03c0,1.85.23,3.5.7,4.95.47,1.45,1.15,2.69,2.03,3.71s1.97,1.8,3.26,2.34,2.74.81,4.37.81Z"/>
        <path class="cls-3" d="M518.47,403.23c0,3.79-.65,7.29-1.96,10.49-1.31,3.2-3.15,5.98-5.53,8.32-2.38,2.34-5.24,4.16-8.59,5.47-3.35,1.31-7.06,1.96-11.14,1.96h-20.38v-52.45h20.38c4.08,0,7.79.66,11.14,1.98s6.21,3.14,8.59,5.47c2.38,2.33,4.22,5.09,5.53,8.3,1.31,3.2,1.96,6.69,1.96,10.46ZM506.02,403.23c0-2.59-.34-4.93-1.01-7.02-.67-2.09-1.64-3.86-2.9-5.31-1.26-1.45-2.8-2.57-4.63-3.35-1.82-.78-3.9-1.17-6.23-1.17h-8.14v33.73h8.14c2.33,0,4.4-.39,6.23-1.17,1.82-.78,3.37-1.9,4.63-3.35s2.23-3.22,2.9-5.31c.67-2.09,1.01-4.44,1.01-7.06Z"/>
        <path class="cls-3" d="M538.34,429.47h-12.24v-52.45h12.24v52.45Z"/>
        <path class="cls-3" d="M600.55,403.23c0,3.79-.65,7.32-1.96,10.58-1.31,3.26-3.15,6.1-5.53,8.51-2.38,2.41-5.24,4.3-8.59,5.67-3.35,1.37-7.06,2.05-11.14,2.05s-7.8-.68-11.16-2.05c-3.36-1.37-6.23-3.26-8.62-5.67-2.39-2.41-4.24-5.25-5.54-8.51-1.31-3.26-1.96-6.79-1.96-10.58s.65-7.32,1.96-10.58c1.31-3.26,3.16-6.1,5.54-8.5,2.39-2.4,5.26-4.28,8.62-5.65,3.36-1.37,7.08-2.05,11.16-2.05s7.79.69,11.14,2.07c3.35,1.38,6.21,3.27,8.59,5.67,2.38,2.4,4.22,5.23,5.53,8.5,1.31,3.26,1.96,6.78,1.96,10.55ZM588.1,403.23c0-2.59-.34-4.93-1.01-7-.67-2.08-1.64-3.83-2.9-5.27-1.26-1.44-2.8-2.54-4.63-3.31-1.82-.77-3.9-1.15-6.23-1.15s-4.45.38-6.28,1.15c-1.84.77-3.38,1.87-4.64,3.31-1.26,1.44-2.23,3.2-2.9,5.27-.67,2.08-1.01,4.41-1.01,7s.34,4.96,1.01,7.04c.67,2.08,1.64,3.83,2.9,5.27,1.26,1.44,2.81,2.54,4.64,3.29s3.93,1.13,6.28,1.13,4.4-.38,6.23-1.13,3.37-1.85,4.63-3.29c1.26-1.44,2.23-3.2,2.9-5.27.67-2.08,1.01-4.42,1.01-7.04Z"/>
      </g>
      <g>
        <path class="cls-2" d="M50.28,476.63h4.94c3.58,0,5.08,1.7,5.08,5.59v12.68c0,3.89-1.5,5.59-5.08,5.59h-4.94v-23.85ZM55.22,499.77c3.07,0,4.33-1.4,4.33-4.87v-12.68c0-3.47-1.26-4.87-4.33-4.87h-4.19v22.42h4.19Z"/>
        <path class="cls-2" d="M73.52,488.69v3.14h-8.38v3.71c0,3,1.29,4.6,3.78,4.6s3.88-1.6,3.88-4.6v-.31h.72v.27c0,3.41-1.6,5.32-4.6,5.32s-4.53-1.91-4.53-5.32v-6.82c0-3.41,1.57-5.32,4.53-5.32s4.6,1.91,4.6,5.32ZM72.8,491.15v-2.49c0-3-1.33-4.6-3.88-4.6s-3.78,1.6-3.78,4.6v2.49h7.67Z"/>
        <path class="cls-2" d="M76.79,496.53v-.61h.72v.61c0,2.32,1.46,3.61,3.75,3.61s3.75-1.26,3.75-3.58c0-2.49-1.91-3.37-3.85-4.22-2.08-.92-4.19-1.87-4.19-4.8,0-2.56,1.77-4.16,4.22-4.16s4.23,1.57,4.23,4.29v.27h-.68v-.27c0-2.35-1.5-3.61-3.55-3.61s-3.51,1.26-3.51,3.48c0,2.42,1.87,3.27,3.82,4.16,2.08.92,4.22,1.91,4.22,4.87,0,2.69-1.74,4.26-4.43,4.26s-4.5-1.57-4.5-4.29Z"/>
        <path class="cls-2" d="M89.43,477.55h.75v3.2h-.75v-3.2ZM89.43,483.72h.75v16.77h-.75v-16.77Z"/>
        <path class="cls-2" d="M103.47,483.72v17.69c0,3.07-1.43,4.7-4.43,4.7s-4.46-1.4-4.46-3.95v-.21h.71v.21c0,2.15,1.33,3.27,3.75,3.27s3.71-1.33,3.71-3.99v-4.57c-.71,2.15-2.32,3.41-4.43,3.41-2.52,0-3.95-1.64-3.95-4.81v-7.33c0-3.17,1.43-4.77,3.95-4.77,2.18,0,3.82,1.36,4.5,3.65l.03-3.31h.61ZM102.75,493.97v-4.29c0-3.41-1.77-5.62-4.33-5.62-2.18,0-3.34,1.47-3.34,4.23v7.09c0,2.76,1.16,4.22,3.34,4.22,2.55,0,4.33-2.21,4.33-5.62Z"/>
        <path class="cls-2" d="M116.9,488.15v12.34h-.75v-12.2c0-2.8-1.09-4.23-3.3-4.23-2.49,0-4.16,2.18-4.16,5.62v10.8h-.75v-16.77h.65v3.27c.68-2.28,2.28-3.61,4.4-3.61,2.55,0,3.92,1.6,3.92,4.77Z"/>
        <path class="cls-2" d="M129.2,484.4v13.05c0,1.87.68,2.69,2.22,2.69.61,0,1.16-.07,1.7-.38v.72c-.58.27-1.02.34-1.77.34-1.94,0-2.9-1.09-2.9-3.34v-13.08h-2.35v-.68h2.35l.14-5.32h.61v5.32h3.92v.68h-3.92Z"/>
        <path class="cls-2" d="M145.39,488.15v12.34h-.75v-12.2c0-2.8-1.09-4.23-3.24-4.23-2.56,0-4.22,2.18-4.22,5.62v10.8h-.75v-23.85h.75v10.02c.71-2.04,2.25-3.27,4.33-3.27,2.52,0,3.88,1.6,3.88,4.77Z"/>
        <path class="cls-2" d="M157.62,500.48c-.17-.78-.24-2.01-.24-3.41-.65,2.35-2.32,3.75-4.67,3.75s-3.78-1.5-3.78-3.99,1.16-3.85,4.4-5.22c3.51-1.46,3.99-1.84,3.99-3.37v-.65c0-2.21-1.33-3.54-3.54-3.54s-3.78,1.26-3.78,3.71v.31h-.72v-.27c0-2.9,1.88-4.43,4.5-4.43s4.26,1.6,4.26,4.29v8.76c0,1.67.07,3.1.31,4.05h-.71ZM157.32,494.52v-4.57c-.34.75-1.29,1.26-3.75,2.28-2.83,1.16-3.92,2.42-3.92,4.57s1.16,3.34,3.2,3.34c2.69,0,4.46-2.18,4.46-5.62Z"/>
        <path class="cls-2" d="M164.27,484.4v13.05c0,1.87.68,2.69,2.22,2.69.61,0,1.16-.07,1.7-.38v.72c-.58.27-1.02.34-1.77.34-1.94,0-2.9-1.09-2.9-3.34v-13.08h-2.35v-.68h2.35l.14-5.32h.61v5.32h3.92v.68h-3.92Z"/>
        <path class="cls-2" d="M177.56,476.63h4.94c3.58,0,5.08,1.7,5.08,5.59v12.68c0,3.89-1.5,5.59-5.08,5.59h-4.94v-23.85ZM182.5,499.77c3.07,0,4.33-1.4,4.33-4.87v-12.68c0-3.47-1.26-4.87-4.33-4.87h-4.19v22.42h4.19Z"/>
        <path class="cls-2" d="M200.8,488.69v3.14h-8.38v3.71c0,3,1.29,4.6,3.78,4.6s3.88-1.6,3.88-4.6v-.31h.72v.27c0,3.41-1.6,5.32-4.6,5.32s-4.53-1.91-4.53-5.32v-6.82c0-3.41,1.57-5.32,4.53-5.32s4.6,1.91,4.6,5.32ZM200.08,491.15v-2.49c0-3-1.33-4.6-3.88-4.6s-3.78,1.6-3.78,4.6v2.49h7.67Z"/>
        <path class="cls-2" d="M204.79,476.63h.75v23.85h-.75v-23.85Z"/>
        <path class="cls-2" d="M210,477.55h.75v3.2h-.75v-3.2ZM210,483.72h.75v16.77h-.75v-16.77Z"/>
        <path class="cls-2" d="M224.04,483.72v17.69c0,3.07-1.43,4.7-4.43,4.7s-4.46-1.4-4.46-3.95v-.21h.71v.21c0,2.15,1.33,3.27,3.75,3.27s3.71-1.33,3.71-3.99v-4.57c-.71,2.15-2.32,3.41-4.43,3.41-2.52,0-3.95-1.64-3.95-4.81v-7.33c0-3.17,1.43-4.77,3.95-4.77,2.18,0,3.82,1.36,4.5,3.65l.03-3.31h.61ZM223.33,493.97v-4.29c0-3.41-1.77-5.62-4.33-5.62-2.18,0-3.34,1.47-3.34,4.23v7.09c0,2.76,1.16,4.22,3.34,4.22,2.55,0,4.33-2.21,4.33-5.62Z"/>
        <path class="cls-2" d="M237.47,488.15v12.34h-.75v-12.2c0-2.8-1.09-4.23-3.24-4.23-2.56,0-4.23,2.18-4.23,5.62v10.8h-.75v-23.85h.75v10.02c.72-2.04,2.25-3.27,4.33-3.27,2.52,0,3.88,1.6,3.88,4.77Z"/>
        <path class="cls-2" d="M243.7,484.4v13.05c0,1.87.68,2.69,2.22,2.69.61,0,1.16-.07,1.7-.38v.72c-.58.27-1.02.34-1.77.34-1.94,0-2.9-1.09-2.9-3.34v-13.08h-2.35v-.68h2.35l.14-5.32h.61v5.32h3.92v.68h-3.92Z"/>
        <path class="cls-2" d="M250.21,496.53v-.61h.72v.61c0,2.32,1.46,3.61,3.75,3.61s3.75-1.26,3.75-3.58c0-2.49-1.91-3.37-3.85-4.22-2.08-.92-4.19-1.87-4.19-4.8,0-2.56,1.77-4.16,4.22-4.16s4.23,1.57,4.23,4.29v.27h-.68v-.27c0-2.35-1.5-3.61-3.55-3.61s-3.51,1.26-3.51,3.48c0,2.42,1.87,3.27,3.82,4.16,2.08.92,4.22,1.91,4.22,4.87,0,2.69-1.74,4.26-4.43,4.26s-4.5-1.57-4.5-4.29Z"/>
        <path class="cls-2" d="M263.3,500.48h-.24v-2.79h.75v2.76l-.85,2.9h-.38l.72-2.86Z"/>
        <path class="cls-2" d="M274.55,476.63h4.94c3.58,0,5.08,1.7,5.08,5.59v12.68c0,3.89-1.5,5.59-5.08,5.59h-4.94v-23.85ZM279.49,499.77c3.07,0,4.33-1.4,4.33-4.87v-12.68c0-3.47-1.26-4.87-4.33-4.87h-4.19v22.42h4.19Z"/>
        <path class="cls-2" d="M297.79,488.69v3.14h-8.38v3.71c0,3,1.29,4.6,3.78,4.6s3.88-1.6,3.88-4.6v-.31h.72v.27c0,3.41-1.6,5.32-4.6,5.32s-4.53-1.91-4.53-5.32v-6.82c0-3.41,1.57-5.32,4.53-5.32s4.6,1.91,4.6,5.32ZM297.07,491.15v-2.49c0-3-1.33-4.6-3.88-4.6s-3.78,1.6-3.78,4.6v2.49h7.67Z"/>
        <path class="cls-2" d="M300.65,483.72h.75l4.33,15.85,4.33-15.85h.72l-4.57,16.77h-.99l-4.57-16.77Z"/>
        <path class="cls-2" d="M322.87,488.69v3.14h-8.38v3.71c0,3,1.29,4.6,3.78,4.6s3.88-1.6,3.88-4.6v-.31h.72v.27c0,3.41-1.6,5.32-4.6,5.32s-4.53-1.91-4.53-5.32v-6.82c0-3.41,1.57-5.32,4.53-5.32s4.6,1.91,4.6,5.32ZM322.15,491.15v-2.49c0-3-1.33-4.6-3.88-4.6s-3.78,1.6-3.78,4.6v2.49h7.67Z"/>
        <path class="cls-2" d="M326.86,476.63h.75v23.85h-.75v-23.85Z"/>
        <path class="cls-2" d="M331.77,495.51v-6.82c0-3.41,1.57-5.32,4.53-5.32s4.6,1.91,4.6,5.32v6.82c0,3.41-1.6,5.32-4.6,5.32s-4.53-1.91-4.53-5.32ZM340.15,495.54v-6.88c0-2.96-1.3-4.6-3.85-4.6s-3.82,1.64-3.82,4.6v6.88c0,2.96,1.3,4.6,3.82,4.6s3.85-1.64,3.85-4.6Z"/>
        <path class="cls-2" d="M354.15,488.15v7.9c0,3.14-1.43,4.77-3.95,4.77-2.11,0-3.71-1.26-4.43-3.41v8.35h-.75v-22.05h.61l.03,3.44c.65-2.38,2.32-3.78,4.53-3.78,2.52,0,3.95,1.6,3.95,4.77ZM353.41,488.29c0-2.76-1.13-4.23-3.34-4.23-2.56,0-4.3,2.22-4.3,5.62v4.84c0,3.41,1.74,5.62,4.3,5.62,2.21,0,3.34-1.47,3.34-4.22v-7.63Z"/>
        <path class="cls-2" d="M374.67,487.71v12.78h-.72v-12.68c0-2.45-1.06-3.75-3.1-3.75-2.35,0-3.95,2.22-3.95,5.62v10.8h-.75v-12.68c0-2.45-1.06-3.75-3.07-3.75-2.35,0-3.95,2.22-3.95,5.62v10.8h-.75v-16.77h.61l.03,3.24c.65-2.22,2.15-3.58,4.19-3.58s3.37,1.16,3.65,3.48c.65-2.18,2.11-3.48,4.12-3.48,2.35,0,3.68,1.47,3.68,4.33Z"/>
        <path class="cls-2" d="M387.86,488.69v3.14h-8.38v3.71c0,3,1.29,4.6,3.78,4.6s3.88-1.6,3.88-4.6v-.31h.72v.27c0,3.41-1.6,5.32-4.6,5.32s-4.53-1.91-4.53-5.32v-6.82c0-3.41,1.57-5.32,4.53-5.32s4.6,1.91,4.6,5.32ZM387.14,491.15v-2.49c0-3-1.33-4.6-3.88-4.6s-3.78,1.6-3.78,4.6v2.49h7.67Z"/>
        <path class="cls-2" d="M400.81,488.15v12.34h-.75v-12.2c0-2.8-1.09-4.23-3.3-4.23-2.49,0-4.16,2.18-4.16,5.62v10.8h-.75v-16.77h.65v3.27c.68-2.28,2.28-3.61,4.4-3.61,2.55,0,3.92,1.6,3.92,4.77Z"/>
        <path class="cls-2" d="M407.04,484.4v13.05c0,1.87.68,2.69,2.22,2.69.61,0,1.16-.07,1.7-.38v.72c-.58.27-1.02.34-1.77.34-1.94,0-2.9-1.09-2.9-3.34v-13.08h-2.35v-.68h2.35l.14-5.32h.61v5.32h3.92v.68h-3.92Z"/>
        <path class="cls-2" d="M422.24,484.4v13.05c0,1.87.68,2.69,2.22,2.69.61,0,1.16-.07,1.7-.38v.72c-.58.27-1.02.34-1.77.34-1.94,0-2.9-1.09-2.9-3.34v-13.08h-2.35v-.68h2.35l.14-5.32h.61v5.32h3.92v.68h-3.92Z"/>
        <path class="cls-2" d="M438.43,488.15v12.34h-.75v-12.2c0-2.8-1.09-4.23-3.24-4.23-2.56,0-4.22,2.18-4.22,5.62v10.8h-.75v-23.85h.75v10.02c.71-2.04,2.25-3.27,4.33-3.27,2.52,0,3.88,1.6,3.88,4.77Z"/>
        <path class="cls-2" d="M450.67,500.48c-.17-.78-.24-2.01-.24-3.41-.65,2.35-2.32,3.75-4.67,3.75s-3.78-1.5-3.78-3.99,1.16-3.85,4.4-5.22c3.51-1.46,3.99-1.84,3.99-3.37v-.65c0-2.21-1.33-3.54-3.54-3.54s-3.78,1.26-3.78,3.71v.31h-.72v-.27c0-2.9,1.88-4.43,4.5-4.43s4.26,1.6,4.26,4.29v8.76c0,1.67.07,3.1.31,4.05h-.71ZM450.36,494.52v-4.57c-.34.75-1.29,1.26-3.75,2.28-2.83,1.16-3.92,2.42-3.92,4.57s1.16,3.34,3.2,3.34c2.69,0,4.46-2.18,4.46-5.62Z"/>
        <path class="cls-2" d="M457.31,484.4v13.05c0,1.87.68,2.69,2.22,2.69.61,0,1.16-.07,1.7-.38v.72c-.58.27-1.02.34-1.77.34-1.94,0-2.9-1.09-2.9-3.34v-13.08h-2.35v-.68h2.35l.14-5.32h.61v5.32h3.92v.68h-3.92Z"/>
        <path class="cls-2" d="M470.6,476.63h4.94c3.58,0,5.08,1.7,5.08,5.59v12.68c0,3.89-1.5,5.59-5.08,5.59h-4.94v-23.85ZM475.54,499.77c3.07,0,4.33-1.4,4.33-4.87v-12.68c0-3.47-1.26-4.87-4.33-4.87h-4.19v22.42h4.19Z"/>
        <path class="cls-2" d="M493.84,488.69v3.14h-8.38v3.71c0,3,1.29,4.6,3.78,4.6s3.88-1.6,3.88-4.6v-.31h.72v.27c0,3.41-1.6,5.32-4.6,5.32s-4.53-1.91-4.53-5.32v-6.82c0-3.41,1.57-5.32,4.53-5.32s4.6,1.91,4.6,5.32ZM493.13,491.15v-2.49c0-3-1.33-4.6-3.88-4.6s-3.78,1.6-3.78,4.6v2.49h7.67Z"/>
        <path class="cls-2" d="M497.83,476.63h.75v23.85h-.75v-23.85Z"/>
        <path class="cls-2" d="M503.05,477.55h.75v3.2h-.75v-3.2ZM503.05,483.72h.75v16.77h-.75v-16.77Z"/>
        <path class="cls-2" d="M507.2,483.72h.75l4.33,15.85,4.33-15.85h.72l-4.57,16.77h-.99l-4.57-16.77Z"/>
        <path class="cls-2" d="M529.42,488.69v3.14h-8.38v3.71c0,3,1.29,4.6,3.78,4.6s3.88-1.6,3.88-4.6v-.31h.72v.27c0,3.41-1.6,5.32-4.6,5.32s-4.53-1.91-4.53-5.32v-6.82c0-3.41,1.57-5.32,4.53-5.32s4.6,1.91,4.6,5.32ZM528.7,491.15v-2.49c0-3-1.33-4.6-3.88-4.6s-3.78,1.6-3.78,4.6v2.49h7.67Z"/>
        <path class="cls-2" d="M539.23,483.62v.75c-.41-.21-.78-.27-1.26-.27-2.59,0-3.82,2.08-3.82,6.41v9.98h-.75v-16.77h.61l.03,3.34c.55-2.52,1.84-3.68,3.89-3.68.48,0,.88.03,1.29.24Z"/>
        <path class="cls-2" d="M541.35,496.53v-.61h.72v.61c0,2.32,1.46,3.61,3.75,3.61s3.75-1.26,3.75-3.58c0-2.49-1.91-3.37-3.85-4.22-2.08-.92-4.19-1.87-4.19-4.8,0-2.56,1.77-4.16,4.22-4.16s4.23,1.57,4.23,4.29v.27h-.68v-.27c0-2.35-1.5-3.61-3.55-3.61s-3.51,1.26-3.51,3.48c0,2.42,1.87,3.27,3.82,4.16,2.08.92,4.22,1.91,4.22,4.87,0,2.69-1.74,4.26-4.43,4.26s-4.5-1.57-4.5-4.29Z"/>
      </g>
    </g>
  </g>
</svg>