<?xml version="1.0" encoding="UTF-8"?>
<svg id="Layer_2" xmlns="http://www.w3.org/2000/svg" viewBox="0 0 397.98 399.39">
  <defs>
    <style>
      .cls-1 {
        fill: #1a2933;
        stroke: #1a2933;
        stroke-miterlimit: 10;
        stroke-width: 3px;
      }
    </style>
  </defs>
  <g id="Layer_1-2" data-name="Layer_1">
    <g id="submark-light">
      <g>
        <ellipse class="cls-1" cx="282.02" cy="111.55" rx="40.97" ry="32.24" transform="translate(68.45 326.88) rotate(-66.82)"/>
        <path class="cls-1" d="M246.64,292.53c11.87,20.56,40.35,31.2,55.77,22.3s19.77-40.97,7.9-61.53c-11.87-20.56-37.51-26.9-52.93-18-15.42,8.9-22.62,36.66-10.75,57.22Z"/>
        <path class="cls-1" d="M289.89,54.05c7.23-22.61-37.42-43.61-54.24-49.43-27.74-9.6-43.42,4.2-51.06,24.72-12.15,32.64-12.84,47.16,17.21,54.31,20.89,4.97,80.27-5.12,88.09-29.59Z"/>
        <path class="cls-1" d="M14.29,190.57c14.56,18.75,59.45-3.71,71.28-17.01,5.73-6.45,12.76-37.48,5.51-50.91-20.01-37.03-41.19-26.54-51.04-16.78C23.78,121.97-1.47,170.28,14.29,190.57Z"/>
        <ellipse class="cls-1" cx="223.51" cy="126.58" rx="15.83" ry="18.8" transform="translate(-33.34 128.71) rotate(-30)"/>
        <ellipse class="cls-1" cx="363.05" cy="174.41" rx="29.91" ry="28.93"/>
        <ellipse class="cls-1" cx="366.57" cy="252.38" rx="29.91" ry="28.93"/>
        <path class="cls-1" d="M210.92,259.93c-5.58-9.67-21.38-13.28-29.88-8.38-8.49,4.9-5.58,15.18,0,24.85,5.58,9.67,19.93,12.69,28.43,7.79s7.03-14.59,1.45-24.26Z"/>
        <ellipse class="cls-1" cx="187.72" cy="105.78" rx="16.29" ry="15.3" transform="translate(-27.74 108.03) rotate(-30)"/>
        <path class="cls-1" d="M129.55,364.99c-3.47-8.57-11.58-12.38-19.29-6.53-5.91,4.48-11.18,12.27-6.96,19.59,4.22,7.32,15.83,10.62,22.26,6.91s7.16-12.14,3.99-19.97Z"/>
        <path class="cls-1" d="M160.03,90.07c-7.09-16-25.05-21.24-40.91-9.36-13.6,10.18-25.71,25.23-17.82,38.89,7.89,13.66,31.67,19.07,46.38,10.58,14.71-8.49,18.74-25.69,12.35-40.11Z"/>
        <path class="cls-1" d="M265.68,325.01c-17.83-3.88-30.39,7.71-33.37,25.45-3.32,19.72,3.02,36.67,22.91,35.16,15.73-1.19,30.49-8.71,33.37-25.45s-7.5-31.81-22.91-35.16Z"/>
        <path class="cls-1" d="M212.82,345.41c-7.89-13.66-28.85-13.46-43.56-4.97-14.71,8.49-24.45,31.43-13.28,41.77,22.04,20.4,26.52,17.9,40.91,9.36,14.61-8.66,23.81-32.49,15.93-46.15Z"/>
        <path class="cls-1" d="M176.88,208.71c-12.61-29.3,10.65-48.11,2.31-58.3-18.84-23.01-53.02-2.72-69.42,34.61-13.69,31.17-2.83,55.92,15.7,62.46,18.53,6.54,64.87-7.5,51.41-38.77Z"/>
        <path class="cls-1" d="M114.36,344.03c28.79-10.62,63.87-44.8,56.47-63.01-6.94-17.08-52.49-12.62-81.11-3.77-29.32,9.07-48.07,16.09-41.27,34.53,6.8,18.44,37.11,42.87,65.9,32.25Z"/>
        <ellipse class="cls-1" cx="152.39" cy="37.03" rx="19.12" ry="21.77" transform="translate(-4.2 28.52) rotate(-10.55)"/>
        <path class="cls-1" d="M119.92,47.38c-1.43-7.66-8.04-12.86-14.77-11.61-6.73,1.25-16.19,9.18-12.1,15.81,2.93,4.75,14.91,8.41,19.88,10.57,6.28,2.72,8.42-7.11,6.99-14.77Z"/>
        <path class="cls-1" d="M51.4,245.6c-5.25-21.37-15.06-40.95-29.4-38.28-14.34,2.67-21.31,28.66-20.42,50.69.89,21.98,9.65,31.04,23.97,33.85,16.72,3.28,33.21-16.27,25.85-46.26Z"/>
        <ellipse class="cls-1" cx="79.77" cy="228.99" rx="20.07" ry="22.85" transform="translate(-40.57 18.47) rotate(-10.55)"/>
        <path class="cls-1" d="M87.99,70.9c4.16-8.87-9.05-19.4-20.73-17.67-9.72,1.44-15.48,9.79-12.16,20.45,2.93,9.43,10.37,17.06,18.71,14.7,9.9-2.8,10.31-9.23,14.19-17.48Z"/>
        <path class="cls-1" d="M232.98,311.06c-1.69-9.06-10.54-19.01-21.21-17.03-10.67,1.99-15.94,7.41-14.25,16.47s9.69,18.32,20.36,16.33c10.67-1.99,16.79-6.72,15.1-15.77Z"/>
      </g>
    </g>
  </g>
</svg>