<?xml version="1.0" encoding="UTF-8"?>
<svg id="Layer_2" xmlns="http://www.w3.org/2000/svg" viewBox="0 0 811.46 74.91">
  <defs>
    <style>
      .cls-1 {
        fill: #1a2933;
      }
    </style>
  </defs>
  <g id="Layer_1-2" data-name="Layer_1">
    <g id="typelogo-dark">
      <path class="cls-1" d="M51.71,53.31c.39,0,.78.07,1.17.22.39.15.76.4,1.12.75l6.52,6.86c-2.85,3.73-6.43,6.54-10.73,8.44-4.3,1.9-9.38,2.85-15.25,2.85-5.38,0-10.21-.92-14.47-2.75-4.26-1.83-7.88-4.36-10.85-7.59-2.97-3.23-5.25-7.05-6.84-11.48-1.59-4.43-2.38-9.23-2.38-14.42s.91-10.14,2.72-14.57c1.82-4.43,4.35-8.24,7.61-11.45s7.16-5.71,11.7-7.49c4.54-1.78,9.55-2.68,15.03-2.68,2.66,0,5.16.24,7.52.71s4.55,1.12,6.59,1.94c2.04.83,3.92,1.82,5.64,2.97,1.72,1.15,3.24,2.43,4.57,3.82l-5.54,7.44c-.36.46-.78.87-1.26,1.24-.49.37-1.17.56-2.04.56-.58,0-1.13-.13-1.65-.39-.52-.26-1.07-.58-1.65-.95-.58-.37-1.22-.78-1.92-1.22-.7-.44-1.52-.84-2.48-1.22-.96-.37-2.08-.69-3.36-.95-1.28-.26-2.78-.39-4.5-.39-2.98,0-5.71.53-8.17,1.58-2.46,1.05-4.58,2.56-6.35,4.52-1.77,1.96-3.15,4.34-4.14,7.13-.99,2.79-1.48,5.92-1.48,9.39s.49,6.86,1.48,9.68c.99,2.82,2.34,5.2,4.04,7.13s3.69,3.4,5.96,4.4c2.27,1.01,4.7,1.51,7.3,1.51,1.49,0,2.85-.07,4.09-.22,1.23-.15,2.38-.4,3.43-.75,1.05-.36,2.06-.82,3.02-1.39.96-.57,1.92-1.27,2.89-2.12.39-.32.81-.59,1.26-.8s.92-.32,1.41-.32Z"/>
      <path class="cls-1" d="M130.85,71.65h-16.54v-29.96h-28.8v29.96h-16.54V.78h16.54v29.62h28.8V.78h16.54v70.87Z"/>
      <path class="cls-1" d="M189.12.78v12.65h-29.09v16.54h22.28v12.16h-22.28v16.88h29.09v12.65h-45.63V.78h45.63Z"/>
      <path class="cls-1" d="M245.06.78v12.65h-29.09v16.54h22.28v12.16h-22.28v16.88h29.09v12.65h-45.63V.78h45.63Z"/>
      <path class="cls-1" d="M271.82,45.43v26.22h-16.44V.78h23.06c5.12,0,9.49.53,13.11,1.58,3.62,1.05,6.57,2.52,8.85,4.4,2.29,1.88,3.95,4.1,4.99,6.66,1.04,2.56,1.56,5.35,1.56,8.37,0,2.3-.31,4.48-.92,6.52s-1.53,3.93-2.75,5.67c-1.22,1.74-2.71,3.28-4.47,4.64-1.77,1.36-3.8,2.48-6.11,3.36,1.1.55,2.13,1.23,3.09,2.04.96.81,1.79,1.8,2.51,2.97l15.08,24.66h-14.89c-2.76,0-4.73-1.04-5.93-3.11l-11.77-20.58c-.52-.91-1.13-1.56-1.82-1.94s-1.68-.58-2.94-.58h-4.18ZM271.82,34.1h6.61c2.24,0,4.14-.28,5.72-.85,1.57-.57,2.86-1.35,3.87-2.36s1.74-2.18,2.19-3.53c.45-1.34.68-2.8.68-4.35,0-3.11-1.01-5.54-3.04-7.3-2.03-1.75-5.16-2.63-9.41-2.63h-6.61v21.01Z"/>
      <path class="cls-1" d="M339.04,71.65h-16.54V.78h16.54v70.87Z"/>
      <path class="cls-1" d="M424.38,38.67c0,5.13-.88,9.89-2.65,14.3-1.77,4.41-4.26,8.25-7.47,11.5-3.21,3.26-7.08,5.81-11.6,7.66-4.52,1.85-9.54,2.77-15.05,2.77s-10.54-.92-15.08-2.77c-4.54-1.85-8.42-4.4-11.65-7.66-3.23-3.26-5.72-7.09-7.49-11.5-1.77-4.41-2.65-9.18-2.65-14.3s.88-9.89,2.65-14.3c1.77-4.41,4.26-8.24,7.49-11.48,3.23-3.24,7.11-5.79,11.65-7.64,4.54-1.85,9.57-2.77,15.08-2.77s10.53.93,15.05,2.8c4.52,1.87,8.39,4.42,11.6,7.66,3.21,3.24,5.7,7.07,7.47,11.48,1.77,4.41,2.65,9.16,2.65,14.25ZM407.55,38.67c0-3.5-.45-6.66-1.36-9.46-.91-2.8-2.21-5.18-3.92-7.13-1.7-1.95-3.79-3.44-6.25-4.48-2.46-1.04-5.27-1.56-8.41-1.56s-6.01.52-8.49,1.56c-2.48,1.04-4.57,2.53-6.27,4.48-1.7,1.94-3.01,4.32-3.92,7.13-.91,2.81-1.36,5.96-1.36,9.46s.45,6.71,1.36,9.51c.91,2.81,2.21,5.18,3.92,7.13,1.7,1.94,3.79,3.43,6.27,4.45s5.31,1.53,8.49,1.53,5.95-.51,8.41-1.53,4.55-2.51,6.25-4.45c1.7-1.95,3.01-4.32,3.92-7.13.91-2.8,1.36-5.97,1.36-9.51Z"/>
      <path class="cls-1" d="M491.19,15.18c-.49.78-1,1.36-1.53,1.75-.53.39-1.22.58-2.07.58-.75,0-1.55-.23-2.41-.7-.86-.47-1.83-1-2.92-1.58-1.09-.58-2.33-1.11-3.72-1.58-1.39-.47-2.98-.71-4.77-.71-3.08,0-5.38.66-6.88,1.97-1.51,1.31-2.26,3.09-2.26,5.33,0,1.43.45,2.61,1.36,3.55.91.94,2.1,1.75,3.57,2.43s3.16,1.31,5.06,1.87c1.9.57,3.83,1.2,5.81,1.9,1.98.7,3.92,1.52,5.81,2.46,1.9.94,3.58,2.14,5.06,3.6,1.48,1.46,2.67,3.23,3.58,5.33.91,2.09,1.36,4.61,1.36,7.56,0,3.28-.57,6.34-1.7,9.19-1.14,2.85-2.78,5.34-4.94,7.47-2.16,2.12-4.81,3.79-7.98,5.01-3.16,1.22-6.75,1.82-10.77,1.82-2.2,0-4.45-.23-6.74-.68-2.29-.45-4.5-1.1-6.64-1.92-2.14-.83-4.15-1.81-6.03-2.94-1.88-1.13-3.52-2.4-4.91-3.79l4.86-7.69c.36-.58.86-1.05,1.51-1.41.65-.36,1.35-.53,2.09-.53.97,0,1.95.31,2.94.92.99.62,2.11,1.3,3.36,2.04s2.68,1.43,4.31,2.04c1.62.62,3.53.92,5.74.92,2.98,0,5.3-.66,6.96-1.97,1.65-1.31,2.48-3.4,2.48-6.25,0-1.65-.45-3-1.36-4.04-.91-1.04-2.1-1.9-3.57-2.58-1.48-.68-3.15-1.28-5.04-1.8s-3.81-1.1-5.79-1.73-3.91-1.41-5.79-2.33c-1.88-.92-3.56-2.14-5.04-3.65s-2.67-3.39-3.57-5.64c-.91-2.25-1.36-5.04-1.36-8.34,0-2.66.54-5.25,1.61-7.78s2.64-4.78,4.72-6.76c2.07-1.98,4.62-3.56,7.64-4.74,3.02-1.18,6.47-1.78,10.36-1.78,2.17,0,4.29.17,6.35.51s4.01.84,5.86,1.51c1.85.67,3.58,1.46,5.18,2.38,1.61.92,3.04,1.97,4.31,3.14l-4.09,7.64Z"/>
      <path class="cls-1" d="M556.86.78v13.04h-19.94v57.84h-16.44V13.82h-19.94V.78h56.33Z"/>
      <path class="cls-1" d="M594.12,58.66c2.2,0,4.17-.36,5.91-1.09s3.2-1.78,4.4-3.14,2.12-3.02,2.75-4.99.95-4.19.95-6.69V.78h16.44v41.98c0,4.35-.7,8.33-2.12,11.97-1.41,3.63-3.43,6.76-6.06,9.39s-5.82,4.67-9.58,6.13c-3.76,1.46-7.99,2.19-12.7,2.19s-8.98-.73-12.74-2.19-6.96-3.5-9.58-6.13c-2.63-2.63-4.64-5.76-6.03-9.39-1.39-3.63-2.09-7.62-2.09-11.97V.78h16.44v41.93c0,2.5.32,4.73.95,6.69.63,1.96,1.55,3.63,2.75,5.01s2.67,2.43,4.4,3.16,3.71,1.09,5.91,1.09Z"/>
      <path class="cls-1" d="M700.55,36.19c0,5.13-.88,9.85-2.65,14.18-1.77,4.33-4.26,8.07-7.47,11.24-3.21,3.16-7.08,5.63-11.6,7.39-4.52,1.77-9.54,2.65-15.05,2.65h-27.53V.78h27.53c5.51,0,10.53.89,15.05,2.68s8.39,4.25,11.6,7.39c3.21,3.15,5.7,6.88,7.47,11.21,1.77,4.33,2.65,9.04,2.65,14.13ZM683.72,36.19c0-3.5-.46-6.66-1.36-9.48-.91-2.82-2.21-5.21-3.92-7.18-1.7-1.96-3.79-3.47-6.25-4.52-2.46-1.05-5.27-1.58-8.41-1.58h-10.99v45.58h10.99c3.14,0,5.95-.53,8.41-1.58,2.46-1.05,4.55-2.56,6.25-4.52s3.01-4.35,3.92-7.18c.91-2.82,1.36-6,1.36-9.53Z"/>
      <path class="cls-1" d="M727.4,71.65h-16.54V.78h16.54v70.87Z"/>
      <path class="cls-1" d="M811.46,36.19c0,5.13-.88,9.89-2.65,14.3-1.77,4.41-4.26,8.25-7.47,11.5-3.21,3.26-7.08,5.81-11.6,7.66-4.52,1.85-9.54,2.77-15.05,2.77s-10.54-.92-15.08-2.77c-4.54-1.85-8.42-4.4-11.65-7.66-3.23-3.26-5.72-7.09-7.49-11.5-1.77-4.41-2.65-9.18-2.65-14.3s.88-9.89,2.65-14.3c1.77-4.41,4.26-8.24,7.49-11.48,3.23-3.24,7.11-5.79,11.65-7.64,4.54-1.85,9.57-2.77,15.08-2.77s10.53.93,15.05,2.8c4.52,1.87,8.39,4.42,11.6,7.66,3.21,3.24,5.7,7.07,7.47,11.48,1.77,4.41,2.65,9.16,2.65,14.25ZM794.63,36.19c0-3.5-.45-6.66-1.36-9.46-.91-2.8-2.21-5.18-3.92-7.13-1.7-1.95-3.79-3.44-6.25-4.48-2.46-1.04-5.27-1.56-8.41-1.56s-6.01.52-8.49,1.56c-2.48,1.04-4.57,2.53-6.27,4.48-1.7,1.94-3.01,4.32-3.92,7.13-.91,2.81-1.36,5.96-1.36,9.46s.45,6.71,1.36,9.51c.91,2.81,2.21,5.18,3.92,7.13,1.7,1.94,3.79,3.43,6.27,4.45s5.31,1.53,8.49,1.53,5.95-.51,8.41-1.53c2.46-1.02,4.55-2.51,6.25-4.45,1.7-1.95,3.01-4.32,3.92-7.13.91-2.8,1.36-5.97,1.36-9.51Z"/>
    </g>
  </g>
</svg>