<?xml version="1.0" encoding="UTF-8"?>
<svg id="Layer_1" data-name="Layer 1" xmlns="http://www.w3.org/2000/svg" viewBox="0 0 2000 1000">
  <defs>
    <style>
      .cls-1, .cls-2, .cls-3 {
        stroke-linecap: round;
      }

      .cls-1, .cls-3, .cls-4 {
        fill: none;
        stroke: #fefefe;
        stroke-width: 19.42px;
      }

      .cls-1, .cls-4 {
        stroke-miterlimit: 10;
      }

      .cls-2 {
        stroke: #d4af37;
        stroke-width: 2.55px;
      }

      .cls-2, .cls-3, .cls-5 {
        stroke-linejoin: round;
      }

      .cls-2, .cls-6 {
        fill: #d4af37;
      }

      .cls-7, .cls-6, .cls-8 {
        stroke-width: 0px;
      }

      .cls-7, .cls-5 {
        fill: #036;
      }

      .cls-5 {
        stroke: #036;
        stroke-linecap: square;
        stroke-width: .85px;
      }

      .cls-8 {
        fill: #fefefe;
      }
    </style>
  </defs>
  <g id="LogoHorizontal">
    <g id="HorizontalType">
      <g>
        <path class="cls-5" d="M926.7,611.18h24.53v32.06c-3.98,1.3-7.72,2.21-11.23,2.73s-7.1.78-10.77.78c-9.33,0-16.46-2.74-21.38-8.23s-7.38-13.36-7.38-23.62,2.86-17.77,8.57-23.35c5.71-5.58,13.63-8.38,23.75-8.38,6.34,0,12.46,1.27,18.36,3.81l-4.36,10.49c-4.51-2.26-9.21-3.38-14.09-3.38-5.67,0-10.21,1.9-13.62,5.71-3.41,3.81-5.12,8.93-5.12,15.35s1.37,11.84,4.12,15.38,6.75,5.31,11.99,5.31c2.74,0,5.51-.28,8.33-.85v-12.9h-11.72v-10.91Z"/>
        <path class="cls-5" d="M965.95,645.91v-61.84h13.11v51.01h25.08v10.83h-38.2Z"/>
        <path class="cls-5" d="M1071.02,614.9c0,10.24-2.54,18.1-7.61,23.6s-12.35,8.25-21.83,8.25-16.75-2.75-21.83-8.25-7.61-13.39-7.61-23.69,2.55-18.15,7.64-23.58,12.39-8.14,21.89-8.14,16.77,2.74,21.81,8.21c5.03,5.47,7.55,13.34,7.55,23.6ZM1025.89,614.9c0,6.91,1.31,12.11,3.93,15.61s6.54,5.25,11.76,5.25c10.46,0,15.69-6.95,15.69-20.85s-5.2-20.9-15.61-20.9c-5.22,0-9.15,1.76-11.8,5.27-2.65,3.51-3.98,8.72-3.98,15.63Z"/>
        <path class="cls-5" d="M1083.84,584.07h19.25c8.77,0,15.14,1.25,19.1,3.74,3.96,2.5,5.94,6.46,5.94,11.91,0,3.69-.87,6.73-2.6,9.09-1.73,2.37-4.04,3.79-6.92,4.27v.42c3.92.87,6.75,2.51,8.48,4.91,1.73,2.4,2.6,5.58,2.6,9.56,0,5.64-2.04,10.04-6.11,13.2s-9.61,4.74-16.6,4.74h-23.14v-61.84ZM1096.95,608.56h7.61c3.55,0,6.13-.55,7.72-1.65s2.39-2.92,2.39-5.46c0-2.37-.87-4.07-2.6-5.1s-4.48-1.54-8.23-1.54h-6.89v13.75ZM1096.95,618.96v16.12h8.54c3.61,0,6.27-.69,7.99-2.07s2.58-3.5,2.58-6.34c0-5.13-3.67-7.7-11-7.7h-8.12Z"/>
        <path class="cls-5" d="M1179.9,645.91l-4.48-14.72h-22.55l-4.48,14.72h-14.13l21.83-62.1h16.03l21.91,62.1h-14.13ZM1172.29,620.19c-4.15-13.34-6.48-20.88-7-22.63s-.9-3.13-1.12-4.15c-.93,3.61-3.6,12.53-7.99,26.78h16.12Z"/>
        <path class="cls-5" d="M1201.82,645.91v-61.84h13.11v51.01h25.08v10.83h-38.2Z"/>
      </g>
      <g>
        <path class="cls-2" d="M1009.91,461.6c0,7.62-1.31,14.7-3.94,21.25-2.63,6.55-6.32,12.25-11.09,17.09s-10.52,8.64-17.24,11.38c-6.72,2.75-14.18,4.12-22.37,4.12s-15.66-1.37-22.41-4.12c-6.75-2.75-12.52-6.54-17.31-11.38-4.79-4.84-8.5-10.54-11.13-17.09-2.63-6.55-3.94-13.64-3.94-21.25s1.31-14.7,3.94-21.25c2.63-6.55,6.34-12.24,11.13-17.06,4.8-4.82,10.57-8.6,17.31-11.35,6.75-2.75,14.22-4.12,22.41-4.12s15.65,1.38,22.37,4.16c6.72,2.77,12.47,6.57,17.24,11.38,4.77,4.82,8.47,10.51,11.09,17.06,2.63,6.56,3.94,13.62,3.94,21.18ZM984.9,461.6c0-5.2-.67-9.89-2.02-14.06-1.35-4.17-3.29-7.7-5.82-10.59-2.53-2.89-5.63-5.11-9.29-6.65-3.66-1.54-7.83-2.31-12.51-2.31s-8.93.77-12.61,2.31-6.79,3.76-9.32,6.65c-2.53,2.89-4.47,6.42-5.82,10.59-1.35,4.17-2.02,8.86-2.02,14.06s.67,9.97,2.02,14.13c1.35,4.17,3.29,7.7,5.82,10.59s5.64,5.09,9.32,6.61c3.69,1.52,7.89,2.28,12.61,2.28s8.84-.76,12.51-2.28c3.66-1.52,6.76-3.72,9.29-6.61,2.53-2.89,4.47-6.42,5.82-10.59,1.35-4.17,2.02-8.88,2.02-14.13Z"/>
        <path class="cls-2" d="M1165.04,408.98l-32.53,105.32h-22.12l-19.81-65.27c-.39-1.01-.75-2.13-1.08-3.36-.34-1.23-.67-2.52-1.01-3.87-.34,1.35-.68,2.64-1.01,3.87-.34,1.23-.7,2.35-1.08,3.36l-20.1,65.27h-22.12l-32.53-105.32h20.53c2.12,0,3.89.48,5.31,1.44,1.42.96,2.35,2.24,2.78,3.83l14.46,54.94c.44,1.74.87,3.63,1.3,5.67.43,2.05.87,4.18,1.3,6.4.87-4.53,1.93-8.55,3.18-12.08l17.06-54.94c.44-1.35,1.36-2.56,2.78-3.65,1.42-1.08,3.14-1.62,5.17-1.62h7.23c2.12,0,3.83.49,5.13,1.48,1.3.99,2.29,2.26,2.96,3.8l16.91,54.94c1.25,3.38,2.31,7.21,3.18,11.49.38-2.17.78-4.2,1.19-6.11.41-1.91.83-3.7,1.26-5.39l14.46-54.94c.38-1.4,1.3-2.62,2.75-3.69,1.45-1.06,3.18-1.59,5.2-1.59h19.23Z"/>
        <path class="cls-2" d="M1238.98,494.78v19.52h-63.47v-105.32h24.43v85.8h39.03Z"/>
        <path class="cls-2" d="M1319.22,408.98c7.28,0,13.47.67,18.58,2.02,5.11,1.35,9.28,3.25,12.5,5.71,3.23,2.46,5.58,5.45,7.05,8.96,1.47,3.52,2.2,7.45,2.2,11.78,0,2.36-.34,4.64-1.01,6.83-.68,2.19-1.74,4.24-3.18,6.14-1.45,1.91-3.3,3.65-5.57,5.24-2.26,1.59-4.99,2.96-8.17,4.12,6.94,1.69,12.07,4.41,15.4,8.17,3.33,3.76,4.99,8.63,4.99,14.6,0,4.48-.87,8.65-2.6,12.51-1.73,3.86-4.28,7.22-7.63,10.08-3.35,2.87-7.48,5.11-12.4,6.73-4.92,1.61-10.53,2.42-16.84,2.42h-42.07v-105.32h38.74ZM1304.91,427.26v26.02h12.72c2.7,0,5.13-.19,7.3-.58s4.01-1.06,5.53-2.02,2.67-2.29,3.47-3.98c.79-1.69,1.19-3.8,1.19-6.36s-.31-4.59-.94-6.25c-.63-1.66-1.59-3-2.89-4.01-1.3-1.01-2.95-1.74-4.95-2.17-2-.44-4.37-.65-7.12-.65h-14.31ZM1322.11,495.86c3.23,0,5.87-.41,7.92-1.23,2.05-.82,3.65-1.88,4.81-3.18,1.15-1.3,1.95-2.77,2.38-4.41.43-1.64.65-3.3.65-4.99,0-1.93-.25-3.66-.76-5.2-.51-1.54-1.37-2.84-2.6-3.9-1.23-1.06-2.86-1.88-4.88-2.46-2.02-.58-4.58-.87-7.66-.87h-17.06v26.24h17.2Z"/>
        <path class="cls-2" d="M1463.43,514.3h-22.12c-4.1,0-7.04-1.54-8.82-4.63l-17.49-30.57c-.82-1.3-1.74-2.26-2.75-2.86-1.01-.6-2.46-.91-4.34-.91h-6.22v38.96h-24.43v-105.32h34.26c7.61,0,14.11.78,19.48,2.35,5.37,1.56,9.76,3.75,13.16,6.54,3.4,2.8,5.87,6.09,7.41,9.9,1.54,3.81,2.31,7.95,2.31,12.43,0,3.42-.46,6.65-1.37,9.69s-2.26,5.84-4.05,8.42c-1.78,2.58-3.99,4.88-6.61,6.91-2.63,2.02-5.65,3.69-9.07,4.98,1.59.82,3.08,1.84,4.48,3.07,1.4,1.23,2.65,2.69,3.76,4.37l22.41,36.65ZM1411.53,458.49c3.33,0,6.16-.42,8.49-1.26s4.25-2.01,5.75-3.51c1.49-1.49,2.58-3.24,3.25-5.24.67-2,1.01-4.16,1.01-6.47,0-4.63-1.51-8.24-4.52-10.84-3.01-2.6-7.67-3.9-13.99-3.9h-9.83v31.23h9.83Z"/>
        <path class="cls-2" d="M1496.9,514.3h-24.58v-105.32h24.58v105.32Z"/>
        <path class="cls-2" d="M1612.84,461.6c0,7.62-1.31,14.64-3.94,21.07-2.63,6.43-6.33,12-11.1,16.7s-10.52,8.36-17.24,10.98c-6.72,2.63-14.18,3.94-22.37,3.94h-40.91v-105.32h40.91c8.19,0,15.65,1.33,22.37,3.97,6.72,2.65,12.47,6.31,17.24,10.99s8.47,10.23,11.1,16.66c2.63,6.43,3.94,13.43,3.94,21ZM1587.83,461.6c0-5.2-.67-9.9-2.02-14.09-1.35-4.19-3.29-7.75-5.82-10.66-2.53-2.91-5.63-5.16-9.29-6.72-3.66-1.56-7.83-2.35-12.5-2.35h-16.34v67.73h16.34c4.67,0,8.84-.78,12.5-2.35,3.66-1.57,6.76-3.81,9.29-6.73,2.53-2.91,4.47-6.47,5.82-10.66,1.35-4.19,2.02-8.91,2.02-14.17Z"/>
        <path class="cls-2" d="M1677.9,459.72h37.44v44.46c-5.4,3.95-11.14,6.82-17.24,8.6-6.1,1.78-12.47,2.67-19.12,2.67-8.67,0-16.57-1.36-23.67-4.08-7.11-2.73-13.19-6.48-18.25-11.28-5.06-4.79-8.96-10.48-11.71-17.06-2.75-6.58-4.12-13.72-4.12-21.43s1.3-15.07,3.9-21.65c2.6-6.58,6.33-12.26,11.17-17.02,4.84-4.77,10.7-8.48,17.57-11.13,6.87-2.65,14.54-3.97,23.02-3.97,4.38,0,8.5.36,12.36,1.08,3.86.72,7.41,1.71,10.66,2.96s6.23,2.75,8.93,4.48c2.7,1.73,5.11,3.61,7.23,5.64l-7.08,10.77c-1.11,1.69-2.54,2.72-4.3,3.11-1.76.39-3.65-.05-5.67-1.3-1.93-1.16-3.75-2.16-5.46-3-1.71-.84-3.46-1.53-5.24-2.06-1.78-.53-3.66-.91-5.64-1.16-1.98-.24-4.19-.36-6.65-.36-4.58,0-8.7.81-12.36,2.42-3.66,1.62-6.78,3.89-9.36,6.83-2.58,2.94-4.57,6.47-5.96,10.59-1.4,4.12-2.1,8.71-2.1,13.77,0,5.59.77,10.55,2.31,14.89,1.54,4.34,3.72,8,6.54,10.99s6.19,5.26,10.12,6.83c3.93,1.56,8.28,2.35,13.05,2.35,2.94,0,5.6-.29,7.99-.87,2.39-.58,4.71-1.35,6.98-2.31v-15.98h-10.41c-1.54,0-2.75-.41-3.61-1.23-.87-.82-1.3-1.85-1.3-3.11v-13.44Z"/>
        <path class="cls-2" d="M1756.32,427.77v24.58h33.11v18.07h-33.11v25.08h43.23v18.79h-67.8v-105.32h67.8v18.79h-43.23Z"/>
      </g>
    </g>
    <g id="Submark">
      <g id="stroke">
        <path class="cls-7" d="M519.83,763.94c-104.25,0-198.34-61.83-239.71-157.53-14.14-32.75-21.32-67.57-21.32-103.5s6.56-67.71,19.51-99.18c19.44-47.29,52.12-87.57,94.5-116.51,43.41-29.64,94.25-45.31,147.01-45.31,55.98,0,109.35,17.46,154.33,50.49,44.07,32.36,76.4,76.77,93.48,128.42,8.75,26.31,13.19,53.93,13.19,82.08,0,35.05-6.83,69.07-20.32,101.11-19.65,46.79-52.34,86.62-94.52,115.18-43.22,29.26-93.76,44.73-146.16,44.73Z"/>
        <path class="cls-8" d="M519.83,249.53c112.12,0,207.21,72.81,240.58,173.69,8.33,25.04,12.8,51.83,12.8,79.69,0,34.81-7.01,67.95-19.72,98.16-38.31,91.21-128.52,155.25-233.66,155.25s-193.82-62.95-232.72-152.94c-13.3-30.8-20.69-64.76-20.69-100.48s6.73-66.61,18.94-96.28c37.91-92.18,128.62-157.1,234.48-157.1M519.83,234.31c-54.3,0-106.62,16.13-151.31,46.63-43.61,29.78-77.24,71.24-97.25,119.9-13.32,32.39-20.08,66.73-20.08,102.07s7.38,72.81,21.94,106.51c20.55,47.53,54.21,87.93,97.36,116.83,44.24,29.63,95.88,45.3,149.34,45.3s105.95-15.92,150.43-46.04c43.41-29.39,77.04-70.38,97.27-118.54,13.87-32.97,20.91-67.99,20.91-104.06,0-28.97-4.57-57.4-13.58-84.5-8.74-26.43-21.55-51.3-38.06-73.88-16.3-22.31-35.86-41.91-58.14-58.26-46.3-34-101.22-51.97-158.83-51.97h0Z"/>
      </g>
      <g id="bRIDGE">
        <g>
          <line class="cls-4" x1="732.13" y1="599.29" x2="732.13" y2="477.52"/>
          <line class="cls-4" x1="691.26" y1="593.07" x2="691.26" y2="521.49"/>
          <line class="cls-4" x1="347.17" y1="594.96" x2="347.17" y2="509.08"/>
          <line class="cls-4" x1="306.28" y1="601.76" x2="306.28" y2="457.1"/>
        </g>
        <g>
          <path class="cls-1" d="M526.6,582.99c83.29,0,161.65,7.71,230.15,21.24.15.03.24.19.18.34"/>
          <path class="cls-1" d="M284.8,606.93c-.06-.14.02-.31.17-.34,71.14-15,153.65-23.61,241.63-23.61"/>
        </g>
        <g>
          <path class="cls-3" d="M526.01,582.99c-113.51,0-209.79-74.5-243.66-177.82-.02-.06-.02-.12,0-.17"/>
          <path class="cls-3" d="M763.42,421.98c.02.06.02.12,0,.17-38.41,94.39-130.25,160.83-237.4,160.83"/>
        </g>
      </g>
      <g id="background">
        <path class="cls-8" d="M519.83,249.53c112.12,0,207.21,72.81,240.58,173.69,8.33,25.04,12.8,51.83,12.8,79.69,0,34.81-7.01,67.95-19.72,98.16-38.31,91.21-128.52,155.25-233.66,155.25s-193.82-62.95-232.72-152.94c-13.3-30.8-20.69-64.76-20.69-100.48s6.73-66.61,18.94-96.28c37.91-92.18,128.62-157.1,234.48-157.1M519.83,236.51c-53.86,0-105.75,15.99-150.06,46.25-43.25,29.53-76.61,70.65-96.45,118.92-13.21,32.12-19.92,66.18-19.92,101.23s7.32,72.21,21.76,105.64c20.38,47.14,53.77,87.21,96.56,115.87,43.87,29.39,95.09,44.92,148.12,44.92s105.07-15.79,149.19-45.66c43.05-29.15,76.41-69.8,96.47-117.57,13.76-32.7,20.74-67.43,20.74-103.2,0-28.73-4.53-56.92-13.47-83.8-8.67-26.22-21.37-50.88-37.74-73.27-16.17-22.12-35.57-41.57-57.66-57.79-45.92-33.72-100.39-51.54-157.53-51.54h0Z"/>
      </g>
      <g id="eye-r">
        <path class="cls-6" d="M629.39,469.55c-28.27,0-51.27-20.11-51.27-44.82,0-19.83,14.55-37.06,36.2-42.88l65.29-23.65.78-.26h.91c2.93-.01,5.31,2.37,5.31,5.29v.15l-.81,14.11c-.3,6.03-3.64,11.46-8.94,14.48l-7.76,4.44c7.41,7.9,11.56,17.91,11.56,28.32,0,24.72-23,44.82-51.27,44.82Z"/>
        <path class="cls-8" d="M681.31,362.99c.13,0,.24.1.24.23l-.81,13.97c-.22,4.3-2.63,8.22-6.39,10.37l-13.8,7.9c9.24,7.2,15.04,17.62,15.04,29.27,0,21.97-20.68,39.75-46.19,39.75s-46.19-17.78-46.19-39.75c0-17.83,13.64-32.93,32.44-37.97h.05l65.53-23.74s.06-.01.08-.01M681.31,352.84c-1.13,0-2.24.18-3.31.54l-.12.04-.12.04-64.97,23.54c-11.21,3.05-20.92,9.03-28.09,17.28-7.63,8.78-11.66,19.31-11.66,30.44,0,13.63,6.06,26.34,17.06,35.81,10.56,9.09,24.51,14.09,39.28,14.09s28.72-5,39.28-14.09c11-9.46,17.06-22.18,17.06-35.81,0-9.65-3.14-18.98-8.89-26.9l2.54-1.45c6.79-3.88,11.08-10.84,11.49-18.62l.8-13.94.02-.29v-.29c0-5.72-4.66-10.38-10.39-10.38h0Z"/>
      </g>
      <g id="eye-l">
        <path class="cls-6" d="M411.14,469.55c-28.27,0-51.27-20.11-51.27-44.82,0-10.41,4.14-20.42,11.56-28.32l-7.76-4.44c-5.29-3.02-8.64-8.45-8.94-14.52l-.81-14.07v-.15c0-2.92,2.38-5.3,5.31-5.3h.83l.99.32,65.17,23.61c21.65,5.81,36.2,23.05,36.2,42.88,0,24.72-23,44.82-51.27,44.82Z"/>
        <path class="cls-8" d="M359.22,362.99s.06,0,.08.01l65.53,23.74h.05c18.8,5.05,32.44,20.14,32.44,37.97,0,21.97-20.68,39.75-46.19,39.75s-46.19-17.78-46.19-39.75c0-11.66,5.8-22.08,15.04-29.27l-13.8-7.9c-3.76-2.15-6.18-6.07-6.39-10.37l-.81-13.97c0-.13.11-.23.24-.23M359.22,352.84c-5.73,0-10.39,4.66-10.39,10.38v.29l.02.29.8,13.94c.41,7.78,4.7,14.74,11.49,18.62l2.54,1.45c-5.74,7.93-8.89,17.25-8.89,26.9,0,13.63,6.06,26.34,17.06,35.81,10.56,9.09,24.51,14.09,39.28,14.09s28.72-5,39.28-14.09c11-9.46,17.06-22.18,17.06-35.81,0-11.13-4.03-21.66-11.66-30.44-7.17-8.26-16.88-14.23-28.09-17.28l-64.97-23.54-.12-.04-.12-.04c-1.07-.36-2.18-.54-3.31-.54h0Z"/>
      </g>
      <g>
        <g id="pen">
          <g>
            <g>
              <path class="cls-8" d="M519.72,552.02s-17.8-67.97-46.77-83.4c-.2-.11-.16-.38.05-.44,11.12-3.12,15.29-17.75,15.98-30.01.57-10.12.17-20.3-1.17-30.33-1.16-8.62-3.1-17.33-7.57-24.65-7.43-12.15-20.65-18.72-33.36-24.15-45.38-19.4-93.79-32.55-134.74-60.87-5.82-4.02-11.68-8.61-14.73-15.2-5.45-11.82-.31-26.1-2.75-38.98-.04-.26.25-.41.41-.21,10.79,13.81,21.85,27.76,36.05,37.55,8.66,5.97,18.26,10.23,27.79,14.46,32.98,14.62,65.96,29.23,98.93,43.85,15.1,6.69,31.02,14.07,40.32,28.29,8.12,12.42,9.88,28.13,11.38,43.14,1.57,15.5,3.01,31.85-2.99,46.1-1.17,2.79-2.65,5.59-2.65,8.64.02,6.25,5.92,10.37,9.33,15.49,4.47,6.72,4.65,15.52,4.66,23.73,0,15.5,1.7,46.25,1.7,46.25l.13.75Z"/>
              <path class="cls-8" d="M534.41,547.97c-2.16-8.24-4.93-16.36-7.9-24.33-6.02-16.13-12.99-32.54-23.21-46.51-6.19-8.45-13.28-16.62-22.65-21.67l5.46,5.46-.13-.24-2.38,18.45.18-.2-6.72,3.92c8.7-2.56,15.88-8.78,20.11-16.76,4.07-7.66,5.77-15.67,6.73-24.2.91-8.05.73-16.33.14-24.4-.67-9.21-1.69-18.7-4.39-27.57s-7.44-17.69-14.2-24.66c-5.49-5.67-12.26-10.28-19.22-13.95-7.27-3.83-14.96-6.9-22.56-10.03-7.2-2.96-14.45-5.8-21.72-8.58-16.32-6.26-32.72-12.3-48.83-19.08l3.64,1.54c-16.72-7.06-33.13-14.93-48.51-24.6-4.25-2.67-8.46-5.43-12.46-8.47l3.08,2.38c-2.9-2.24-5.61-4.69-7.85-7.6l2.38,3.08c-1.31-1.76-2.4-3.62-3.26-5.64l1.54,3.64c-.89-2.23-1.46-4.54-1.81-6.91l.54,4.05c-.69-5.24-.33-10.52-.05-15.77.35-6.58.16-12.88-1.02-19.39v8.1l.05-.22c-2.33,3.03-4.67,6.07-7,9.1l.17-.09h-15.37l.19.09-3.08-2.38c8.63,11.04,17.38,22.18,28.04,31.35,6.1,5.25,12.64,9.98,19.69,13.86,6.39,3.52,13.08,6.47,19.75,9.43,29.04,12.87,58.09,25.74,87.13,38.62,13.46,5.97,27.69,11.36,39.46,20.42l-3.08-2.38c3.65,2.85,6.98,6.05,9.84,9.69l-2.38-3.08c2.67,3.46,4.82,7.24,6.54,11.26l-1.54-3.64c3.14,7.52,4.73,15.54,5.82,23.59l-.54-4.05c.94,7.1,1.66,14.25,2.2,21.39.55,7.34.73,14.73-.2,22.04l.54-4.05c-.66,4.85-1.82,9.59-3.7,14.12l1.54-3.64c-1.49,3.49-3.35,6.93-4.06,10.69-.87,4.59-.97,9.42.78,13.83.79,2.01,1.58,4.06,2.75,5.88,1.26,1.95,2.75,3.76,4.21,5.56s2.96,3.4,4.35,5.19l-2.38-3.08c1.26,1.66,2.28,3.42,3.09,5.34l-1.54-3.64c1.05,2.63,1.67,5.36,2.05,8.16l-.54-4.05c.66,5.2.5,10.44.58,15.67.06,4.48.2,8.97.36,13.45.29,8.2.66,16.41,1.08,24.6.16,3.07.36,5.93.9,9,.62,3.55,4,7.35,7,9.1,3.26,1.91,8.07,2.72,11.73,1.54s7.24-3.48,9.1-7l1.54-3.64c.73-2.7.73-5.4,0-8.1l-.13-.75.54,4.05c-.4-7.35-.75-14.7-1.05-22.06-.24-5.82-.45-11.65-.57-17.47-.05-2.57-.07-5.15-.08-7.72-.02-4.97-.39-9.79-1.09-14.72s-2.34-9.98-4.87-14.44-6.05-7.8-9.09-11.66l2.38,3.08c-.97-1.26-1.84-2.57-2.49-4.02l1.54,3.64c-.38-.93-.65-1.85-.81-2.84l.54,4.05c-.11-.98-.09-1.92.03-2.9l-.54,4.05c.28-1.59.83-3.09,1.45-4.58l-1.54,3.64c2.33-5.41,4.58-10.67,5.7-16.48s1.72-11.55,1.8-17.36c.13-9.4-.93-18.81-1.96-28.13-1.11-10.01-2.32-20.25-5.68-29.8-3.61-10.28-9.04-19.66-16.97-27.22-13.65-13-31.43-19.82-48.36-27.33-19.3-8.55-38.6-17.11-57.9-25.66-9.64-4.27-19.28-8.54-28.92-12.82-8.78-3.89-17.6-7.83-25.67-13.09-1.97-1.28-3.88-2.65-5.74-4.08l3.08,2.38c-7.43-5.77-13.98-12.56-20.08-19.71-3.05-3.58-6-7.25-8.92-10.95-.73-.92-1.45-1.85-2.18-2.78-2.5-3.2-5.9-5.02-9.93-5.56-7.53-1.01-14.79,3.58-16.88,11-1.02,3.61-.2,6.84.28,10.38l-.54-4.05c.82,6.73,0,13.47-.17,20.21-.23,8.91,1.06,17.82,5.35,25.74,4.11,7.58,10.81,13.1,17.69,18.03,5.47,3.92,11.18,7.52,16.98,10.92,24.54,14.38,51.22,24.75,77.73,34.84,14.39,5.48,28.81,10.88,43,16.86l-3.64-1.54c8.72,3.68,17.47,7.57,25.02,13.37l-3.08-2.38c3.11,2.43,5.95,5.17,8.39,8.28l-2.38-3.08c2.19,2.87,3.95,5.97,5.36,9.29l-1.54-3.64c2.49,6.05,3.78,12.47,4.66,18.92l-.54-4.05c1.53,11.58,2.2,23.71.7,35.33l.54-4.05c-.59,4.34-1.59,8.63-3.28,12.69l1.54-3.64c-.94,2.2-2.08,4.28-3.53,6.19l2.38-3.08c-1.01,1.29-2.13,2.45-3.41,3.46l3.08-2.38c-1.09.82-2.25,1.51-3.5,2.05l3.64-1.54c-3.13,1.27-6.32,2.05-8.69,4.74s-3.72,5.3-4.19,8.74.15,6.57,1.81,9.71c2.33,4.4,7.03,6.21,10.77,9.09l-3.08-2.38c4.02,3.14,7.48,6.92,10.6,10.95l-2.38-3.08c7.94,10.32,13.81,22.15,18.86,34.1l-1.54-3.64c4.49,10.66,8.35,21.61,11.5,32.73.21.75.42,1.49.62,2.24.96,3.68,3.73,7.19,7,9.1s8.07,2.72,11.73,1.54,7.24-3.48,9.1-7,2.6-7.67,1.54-11.73Z"/>
            </g>
            <g>
              <path class="cls-8" d="M742.15,282.96c-3.05,6.59-8.91,11.18-14.73,15.2-40.95,28.32-89.36,41.47-134.74,60.87-12.71,5.43-25.94,12-33.37,24.15-4.47,7.32-6.4,16.03-7.56,24.65-1.34,10.04-1.73,20.22-1.17,30.33.7,12.26,4.87,26.89,15.98,30.01.21.06.25.33.05.44-28.98,15.43-46.89,83.4-46.89,83.4l.12-.75s1.82-30.75,1.83-46.25c0-8.22.17-17.01,4.66-23.73,3.41-5.12,9.31-9.24,9.33-15.49,0-3.05-1.47-5.85-2.65-8.64-6-14.25-4.56-30.59-2.99-46.1,1.51-15.01,3.26-30.72,11.38-43.14,9.29-14.22,25.21-21.6,40.31-28.29,32.98-14.62,65.96-29.23,98.93-43.85,9.54-4.23,19.14-8.49,27.8-14.46,14.19-9.79,25.26-23.74,36.05-37.55.16-.2.45-.05.4.21-2.43,12.88,2.71,27.16-2.74,38.98Z"/>
              <path class="cls-8" d="M729,275.27c-.79,1.66-1.74,3.21-2.84,4.69l2.38-3.08c-2.25,2.91-4.96,5.36-7.85,7.6l3.08-2.38c-14.28,10.88-30.58,19.36-46.83,26.85-4.67,2.15-9.39,4.22-14.13,6.22l3.64-1.54c-14.35,6.04-28.94,11.5-43.49,17.04-15.22,5.8-30.62,11.5-45.33,18.51-7.25,3.45-13.93,7.67-20.06,12.87-3.44,2.92-6.22,6.29-8.94,9.88-3.01,3.98-5.01,8.31-6.89,12.93-3.41,8.35-4.61,17.38-5.61,26.29s-1.24,17.4-.81,26.1c.23,4.68.8,9.37,1.73,13.96s2.5,8.7,4.39,12.88c4.03,8.9,11.65,15.99,21.08,18.76l-6.72-3.92.18.2-2.38-18.45-.13.24,5.46-5.46c-7.31,3.93-13.59,9.96-18.68,16.46-5.84,7.47-10.87,15.3-15.17,23.76-7.07,13.93-12.78,28.64-17.46,43.54-.91,2.9-1.8,5.81-2.58,8.75,9.79,2.7,19.58,5.4,29.37,8.1.99-6.01,1.09-12.13,1.39-18.2.46-9.14.87-18.28,1.05-27.42.11-5.7-.11-11.43.61-17.1l-.54,4.05c.38-2.8,1-5.53,2.05-8.16l-1.54,3.64c.81-1.92,1.84-3.68,3.09-5.34l-2.38,3.08c1.39-1.78,2.92-3.43,4.35-5.19s2.95-3.61,4.21-5.56c1.18-1.82,1.96-3.88,2.75-5.88,1.75-4.42,1.65-9.24.78-13.83-.71-3.75-2.57-7.2-4.06-10.69l1.54,3.64c-1.88-4.53-3.04-9.27-3.7-14.12l.54,4.05c-.93-7.32-.75-14.7-.2-22.04.54-7.14,1.26-14.29,2.2-21.39l-.54,4.05c1.09-8.05,2.68-16.07,5.81-23.59l-1.54,3.64c1.72-4.02,3.87-7.79,6.54-11.26l-2.38,3.08c2.86-3.64,6.19-6.84,9.84-9.69l-3.08,2.38c10.34-7.96,22.56-12.93,34.4-18.18,14.43-6.39,28.86-12.79,43.28-19.18s29.04-12.87,43.56-19.31c6.74-2.99,13.54-5.89,20.13-9.19,7.5-3.76,14.35-8.24,20.94-13.42,12.35-9.7,22.14-22.1,31.75-34.4l-3.08,2.38.19-.09h-15.37l.17.09c-2.33-3.03-4.67-6.07-7-9.1l.05.22v-8.1c-1.18,6.52-1.36,12.82-1.02,19.39.28,5.26.64,10.53-.05,15.77l.54-4.05c-.35,2.38-.92,4.68-1.81,6.91l1.54-3.64c-.13.32-.27.64-.41.95-1.11,1.75-1.72,3.64-1.81,5.66-.45,2.02-.36,4.05.27,6.07.97,3.53,3.7,7.36,7,9.1,3.53,1.87,7.82,2.8,11.73,1.54,3.54-1.15,7.51-3.46,9.1-7,1.09-2.44,2.22-4.91,2.94-7.5s1.01-5.36,1.36-8.05c.41-3.2.46-6.41.35-9.64-.22-6.47-.94-12.95-.15-19.41l-.54,4.05c.48-3.52,1.29-6.78.28-10.38-1.9-6.75-8.01-10.96-14.85-11.27-4.63-.21-9.17,2.28-11.95,5.84-.67.86-1.34,1.71-2.01,2.56-2.97,3.77-5.97,7.51-9.08,11.17-6.1,7.15-12.64,13.94-20.08,19.71l3.08-2.38c-7.6,5.83-16.08,10.23-24.77,14.2-9.38,4.28-18.84,8.38-28.26,12.55-19.3,8.55-38.6,17.11-57.9,25.66-8.97,3.98-18,7.84-26.89,11.98s-16.57,8.69-24.08,14.56c-7.42,5.8-13.8,13.41-17.82,21.94-4.35,9.22-6.83,18.74-8.21,28.8-1.42,10.35-2.66,20.8-3.14,31.24-.22,4.77-.21,9.57.25,14.33.56,5.74,1.37,11.55,3.19,17.04,1.1,3.31,2.57,6.47,3.94,9.67l-1.54-3.64c.62,1.49,1.17,2.98,1.45,4.58l-.54-4.05c.13.98.15,1.92.03,2.9l.54-4.05c-.16.99-.43,1.91-.81,2.84l1.54-3.64c-.66,1.45-1.53,2.76-2.49,4.02l2.38-3.08c-2.75,3.49-5.84,6.68-8.32,10.4-2.59,3.9-4.36,8.62-5.25,13.21-1.47,7.63-1.4,15.2-1.53,22.9-.19,11.11-.74,22.21-1.32,33.31-.15,2.75-.29,5.49-.46,8.24l.54-4.05-.12.75c-.63,2.02-.73,4.05-.27,6.07.09,2.03.69,3.91,1.81,5.66,1.85,3.16,5.47,6.17,9.1,7,3.9.89,8.27.7,11.73-1.54s5.97-5.2,7-9.1c2.04-7.75,4.64-15.38,7.41-22.89,1.46-3.96,3-7.88,4.64-11.77l-1.54,3.64c5.09-12.06,11.03-24,19.05-34.41l-2.38,3.08c3.13-4.02,6.59-7.8,10.61-10.95l-3.08,2.38c3.75-2.89,8.44-4.67,10.78-9.09,1.62-3.08,2.27-6.25,1.81-9.71s-1.86-6.09-4.19-8.74-5.56-3.47-8.69-4.74l3.64,1.54c-1.25-.55-2.41-1.23-3.5-2.05l3.08,2.38c-1.28-1.01-2.4-2.17-3.41-3.46l2.38,3.08c-1.44-1.91-2.58-4-3.53-6.19l1.54,3.64c-1.69-4.06-2.69-8.34-3.28-12.69l.54,4.05c-1.51-11.62-.83-23.75.7-35.33l-.54,4.05c.88-6.46,2.17-12.88,4.66-18.92l-1.54,3.64c1.41-3.32,3.17-6.42,5.36-9.29l-2.38,3.08c2.44-3.12,5.28-5.85,8.39-8.28l-3.08,2.38c7.55-5.8,16.3-9.69,25.02-13.37l-3.64,1.54c20.45-8.61,41.38-16.02,62-24.21,21.59-8.57,43.06-17.85,62.92-30,5.12-3.14,10.21-6.41,15-10.04,6.42-4.88,12.62-10.3,16.16-17.75,1.79-3.76,2.68-7.59,1.54-11.73-.97-3.53-3.7-7.36-7-9.1-3.53-1.87-7.82-2.8-11.73-1.54-3.59,1.16-7.42,3.46-9.1,7Z"/>
            </g>
          </g>
        </g>
        <g id="pen-2" data-name="pen">
          <g>
            <g>
              <path class="cls-6" d="M519.78,552.02s-17.8-67.97-46.77-83.4c-.2-.11-.16-.38.05-.44,11.12-3.12,15.29-17.75,15.98-30.01.57-10.12.17-20.3-1.17-30.33-1.16-8.62-3.1-17.33-7.57-24.65-7.43-12.15-20.65-18.72-33.36-24.15-45.38-19.4-93.79-32.55-134.74-60.87-5.82-4.02-11.68-8.61-14.73-15.2-5.45-11.82-.31-26.1-2.75-38.98-.04-.26.25-.41.41-.21,10.79,13.81,21.85,27.76,36.05,37.55,8.66,5.97,18.26,10.23,27.79,14.46,32.98,14.62,65.96,29.23,98.93,43.85,15.1,6.69,31.02,14.07,40.32,28.29,8.12,12.42,9.88,28.13,11.38,43.14,1.57,15.5,3.01,31.85-2.99,46.1-1.17,2.79-2.65,5.59-2.65,8.64.02,6.25,5.92,10.37,9.33,15.49,4.47,6.72,4.65,15.52,4.66,23.73,0,15.5,1.7,46.25,1.7,46.25l.13.75Z"/>
              <path class="cls-6" d="M523.43,551.01c-2.16-8.24-4.93-16.36-7.9-24.33-5.69-15.24-12.41-30.58-22.06-43.77-5.03-6.87-10.96-13.48-18.55-17.56l1.36,1.36-.13-.24-.59,4.58.18-.2-1.67.97c9.48-2.79,14.54-11.94,16.86-20.94,1.25-4.85,1.79-9.85,2-14.84.28-6.68.15-13.38-.39-20.05-.99-12.11-2.75-25.12-9.48-35.54-5.93-9.17-15.04-15.52-24.67-20.33-10.28-5.13-21.11-9.25-31.81-13.42s-22.18-8.45-33.26-12.73c-22.02-8.5-43.9-17.59-64.28-29.57-5.09-2.99-10.07-6.15-14.92-9.5-4.19-2.89-8.51-6.09-11.4-10.36-6.49-9.6-3.4-21.88-3.51-32.69-.03-2.98-.3-5.94-.83-8.87v2.01l.05-.22-1.74,2.26.17-.09h-3.82c-.71-.36.4.75.42.78.22.28.45.57.67.85.61.78,1.23,1.57,1.85,2.35,1.23,1.56,2.48,3.12,3.73,4.67,2.39,2.95,4.82,5.87,7.33,8.72,5.03,5.69,10.39,11.12,16.34,15.86,12.61,10.07,27.5,16.12,42.12,22.6,31.33,13.89,62.75,27.6,94,41.67,12.04,5.42,24.34,11.5,32.89,21.85,9.07,10.97,11.41,25.84,12.9,39.56,1.61,14.81,3.81,30.63-.5,45.18-1.08,3.63-2.98,6.97-4,10.61s-.58,7.51,1.18,10.97c1.48,2.91,3.81,5.35,5.91,7.82,1.96,2.29,3.62,4.79,4.58,7.83,1.97,6.25,1.66,12.88,1.73,19.36.06,5.43.23,10.85.43,16.27.32,8.8.73,17.59,1.2,26.38.05.93.16,1.82.32,2.75.35,2.01,2.82,3.14,4.65,2.64,2.12-.58,2.99-2.63,2.64-4.65-.25-1.43-.01.66,0,.11,0-.28-.03-.57-.05-.85-.06-1.15-.12-2.3-.18-3.44-.21-4.04-.4-8.07-.58-12.11-.43-9.68-.85-19.38-.88-29.07-.02-6.39-.02-12.99-1.91-19.16-.95-3.08-2.35-5.98-4.29-8.55-1.64-2.17-3.83-4.45-5.3-6.41-.39-.52-.76-1.06-1.1-1.62-.19-.3-.36-.61-.53-.93-.05-.09-.43-.87-.24-.44-.59-1.37-.74-2.14-.57-3.55.36-3.06,2.22-6,3.28-8.86,2.43-6.61,3.41-13.72,3.65-20.73s-.31-14.06-.99-21.05-1.32-13.49-2.4-20.17c-2.11-12.98-6.38-25.59-15.47-35.39-8.37-9.03-19.49-14.92-30.56-19.98-13.56-6.2-27.25-12.11-40.88-18.15-14.05-6.23-28.11-12.46-42.16-18.68-7.12-3.16-14.24-6.31-21.36-9.47-6.48-2.87-12.97-5.75-19.19-9.18-11.9-6.56-21.69-15.58-30.55-25.8-4.51-5.2-8.52-10.81-13-16.02-1.55-1.8-4.24-2.23-6.03-.43s-.93,3.92-.71,6c.35,3.35.28,6.73.14,10.09-.3,6.75-.91,13.48.28,20.18,1.17,6.62,4.65,12.4,9.49,17s10.64,8.3,16.26,11.88,11.6,7.04,17.58,10.23c24.24,12.93,50.09,22.48,75.71,32.23,12.48,4.75,25,9.49,37.21,14.89,10.49,4.64,21.51,10.32,28.05,20.05,3.68,5.48,5.67,11.76,6.95,18.18,1.43,7.14,2.08,14.46,2.33,21.73.13,3.85.13,7.7-.01,11.55-.06,1.56-.13,3.13-.25,4.68-.05.56-.1,1.11-.16,1.67-.1.94-.12,1.09-.22,1.73-.78,5.15-2.09,10.14-4.55,14.34-.33.56-.68,1.11-1.05,1.65-.15.21-.29.42-.45.63.32-.42-.07.08-.12.14-.76.91-1.59,1.76-2.5,2.52-.53.44.7-.47-.26.19-.2.14-.4.28-.61.41-.47.3-.96.56-1.45.82-.13.07-.86.38-.29.15-.23.09-.47.18-.71.26-.97.32-1.87.59-2.58,1.4-1.16,1.32-1.42,3.02-.59,4.58.92,1.75,3.45,2.67,5.05,3.79.31.22.62.45.93.67.16.11.31.23.46.35-.64-.49-.21-.16-.08-.05.68.57,1.37,1.13,2.04,1.72,2.78,2.49,5.28,5.28,7.6,8.21.54.69-.11-.16.42.55.3.4.6.8.9,1.21.6.82,1.19,1.65,1.76,2.49,1.14,1.66,2.24,3.36,3.29,5.08,2.16,3.52,4.15,7.14,6.02,10.82s3.6,7.39,5.24,11.15c.21.47.41.95.62,1.42.09.22.57,1.34.29.67.39.93.78,1.87,1.16,2.81.74,1.81,1.45,3.64,2.15,5.46,2.24,5.88,4.3,11.83,6.18,17.84.88,2.83,1.75,5.68,2.5,8.55,1.23,4.7,8.53,2.71,7.29-2.01Z"/>
            </g>
            <g>
              <path class="cls-6" d="M742.21,282.96c-3.05,6.59-8.91,11.18-14.73,15.2-40.95,28.32-89.36,41.47-134.74,60.87-12.71,5.43-25.94,12-33.37,24.15-4.47,7.32-6.4,16.03-7.56,24.65-1.34,10.04-1.73,20.22-1.17,30.33.7,12.26,4.87,26.89,15.98,30.01.21.06.25.33.05.44-28.98,15.43-46.89,83.4-46.89,83.4l.12-.75s1.82-30.75,1.83-46.25c0-8.22.17-17.01,4.66-23.73,3.41-5.12,9.31-9.24,9.33-15.49,0-3.05-1.47-5.85-2.65-8.64-6-14.25-4.56-30.59-2.99-46.1,1.51-15.01,3.26-30.72,11.38-43.14,9.29-14.22,25.21-21.6,40.31-28.29,32.98-14.62,65.96-29.23,98.93-43.85,9.54-4.23,19.14-8.49,27.8-14.46,14.19-9.79,25.26-23.74,36.05-37.55.16-.2.45-.05.4.21-2.43,12.88,2.71,27.16-2.74,38.98Z"/>
              <path class="cls-6" d="M738.95,281.05c-4.17,8.78-13.42,14.1-21.34,19.11-8.94,5.65-18.24,10.7-27.75,15.32-18.91,9.19-38.59,16.65-58.23,24.11-9.82,3.73-19.64,7.47-29.38,11.41s-18.68,7.42-27.26,12.54c-8.24,4.91-15.72,11.45-20.2,20.06-5.17,9.92-6.74,21.37-7.64,32.39-.86,10.53-1.13,21.55.94,31.97,1.61,8.09,5.05,16.52,12.08,21.34,1.65,1.13,3.53,1.95,5.45,2.52l-1.67-.97.18.2-.59-4.58-.13.24,1.36-1.36c-6.5,3.5-11.86,8.9-16.36,14.67-5.2,6.66-9.55,13.91-13.38,21.44-6.63,13.06-11.92,26.84-16.31,40.81-.91,2.9-1.8,5.81-2.58,8.75l7.29,2.01c.37-2.25.42-4.53.54-6.8.26-4.74.5-9.48.72-14.21.26-5.67.49-11.34.66-17.01.16-5.69.01-11.41.31-17.1.18-3.36.6-6.66,1.64-9.87.96-2.94,2.62-5.38,4.51-7.6,2.1-2.47,4.43-4.9,5.91-7.82,1.8-3.54,2.24-7.39,1.1-11.22s-3.01-7.13-4.07-10.87c-1-3.51-1.63-7.1-1.95-10.74-.66-7.73-.18-15.51.52-23.22,1.28-14,2.21-29.1,8.61-41.88s17.46-20.09,29.51-26.12c6.58-3.3,13.37-6.18,20.1-9.16,7.87-3.49,15.74-6.98,23.61-10.46,15.83-7.02,31.67-14.03,47.5-21.05,7.85-3.48,15.7-6.93,23.53-10.44,7.16-3.2,14.28-6.53,20.93-10.71,13-8.16,23.45-19.5,33.02-31.36,1.14-1.41,2.27-2.83,3.39-4.25.62-.78,1.23-1.56,1.85-2.35.28-.36.56-.71.84-1.07.03-.03,1.14-1.15.42-.78h-3.82l.17.09-1.74-2.26.05.22v-2.01c-1.21,6.68-.74,13.36-.41,20.09.29,5.97.55,12.4-1.95,17.99-.83,1.86-.54,4.06,1.36,5.17,1.62.94,4.33.52,5.17-1.36,3.58-7.98,3.27-16.47,2.81-25.01-.22-4.16-.43-8.35-.03-12.5.24-2.48,1.2-5.25-1.45-6.86-1.24-.75-2.73-.78-3.98-.09-1.13.62-1.84,1.82-2.62,2.82-10.14,12.95-20.75,26.21-34.54,35.46-7.3,4.9-15.28,8.66-23.29,12.24-8.68,3.88-17.38,7.71-26.06,11.56-17.43,7.72-34.85,15.45-52.28,23.17-8.64,3.83-17.29,7.64-25.92,11.49-6.9,3.08-13.77,6.27-20.18,10.29-6.49,4.07-12.48,8.97-17.19,15.04-4.99,6.43-8.25,13.93-10.32,21.77-2.13,8.09-3.08,16.45-3.93,24.75-.88,8.59-1.79,17.22-1.54,25.87s1.79,17.17,5.27,25.2c.71,1.65,1.56,3.41,1.69,5.21.11,1.5-.27,2.7-.93,3.91-1.56,2.86-3.88,5.01-5.97,7.65-5.31,6.7-6.76,14.75-7.01,23.12-.18,6.21-.13,12.43-.34,18.64-.35,10.39-.87,20.78-1.46,31.16-.02.4-.06.81-.07,1.21-.03,1.04.24-1.46,0,.06-.33,2.01.53,4.07,2.64,4.65,1.96.54,4.13-.66,4.65-2.64,2.14-8.09,4.86-16.06,7.78-23.9.65-1.74,1.31-3.47,1.99-5.19.34-.87.69-1.74,1.05-2.61.19-.47.38-.93.57-1.4.09-.21.17-.42.26-.62.03-.08.39-.92.2-.49-.09.22.37-.86.48-1.12.18-.42.36-.84.55-1.27.42-.96.84-1.91,1.27-2.86.87-1.93,1.77-3.85,2.7-5.75,3.59-7.33,7.61-14.5,12.45-21.09.33-.45.67-.89,1-1.34.08-.11.44-.57.02-.02.2-.26.41-.52.61-.78.64-.8,1.3-1.6,1.97-2.37,1.33-1.54,2.73-3.02,4.21-4.42.73-.69,1.47-1.36,2.24-2,.38-.32.76-.62,1.14-.93-.7.56.39-.29.62-.45,1.69-1.22,4.53-2.27,5.51-4.12.83-1.58.56-3.27-.59-4.58-.89-1.01-2.11-1.18-3.29-1.66.52.21-.48-.24-.62-.32-.44-.23-.86-.48-1.27-.75-.15-.1-1.01-.73-.58-.39-.34-.27-.66-.56-.98-.85-.68-.64-1.33-1.34-1.91-2.08.31.39-.25-.35-.33-.47-.26-.37-.51-.76-.75-1.14-.52-.85-1-1.73-1.43-2.63-.7-1.45-1.33-3.2-1.89-5.12-1.16-3.98-1.7-7.46-1.97-11.32-.4-5.73-.4-11.5-.13-17.23.48-10.46,1.53-21.57,5.57-31.34,3.47-8.4,9.9-14.72,17.48-19.46,7.94-4.97,16.72-8.51,25.37-12.04,9.56-3.9,19.21-7.59,28.86-11.26,19.58-7.44,39.21-14.84,58.16-23.78,9.39-4.43,18.6-9.25,27.49-14.62,4.4-2.66,8.73-5.45,12.94-8.4s8.08-5.9,11.22-9.76c1.58-1.94,2.97-3.97,4.05-6.23.88-1.84.51-4.08-1.36-5.17-1.65-.96-4.29-.5-5.17,1.36Z"/>
            </g>
          </g>
        </g>
      </g>
    </g>
  </g>
</svg>