<?xml version="1.0" encoding="UTF-8"?>
<svg id="Layer_1" data-name="Layer 1" xmlns="http://www.w3.org/2000/svg" viewBox="0 0 1000 1000">
  <defs>
    <style>
      .cls-1, .cls-2 {
        stroke-miterlimit: 10;
      }

      .cls-1, .cls-2, .cls-3, .cls-4 {
        stroke: #fefefe;
      }

      .cls-1, .cls-2, .cls-4 {
        fill: none;
        stroke-width: 14px;
      }

      .cls-1, .cls-4, .cls-5 {
        stroke-linecap: round;
      }

      .cls-3 {
        stroke-linecap: square;
        stroke-width: .48px;
      }

      .cls-3, .cls-4, .cls-5 {
        stroke-linejoin: round;
      }

      .cls-3, .cls-6 {
        fill: #fefefe;
      }

      .cls-5 {
        stroke: #d4af37;
        stroke-width: 1.43px;
      }

      .cls-5, .cls-7 {
        fill: #d4af37;
      }

      .cls-8 {
        fill: #036;
      }

      .cls-8, .cls-7, .cls-6 {
        stroke-width: 0px;
      }
    </style>
  </defs>
  <g id="LogoVertical">
    <g id="VertıcalType">
      <g>
        <path class="cls-3" d="M425.55,778.53h13.8v18.03c-2.24.73-4.34,1.24-6.32,1.53s-3.99.44-6.05.44c-5.25,0-9.26-1.54-12.02-4.63-2.77-3.08-4.15-7.51-4.15-13.28s1.61-9.99,4.82-13.13c3.21-3.14,7.66-4.71,13.36-4.71,3.57,0,7.01.71,10.32,2.14l-2.45,5.9c-2.54-1.27-5.18-1.9-7.92-1.9-3.19,0-5.74,1.07-7.66,3.21s-2.88,5.02-2.88,8.63.77,6.66,2.32,8.65,3.79,2.99,6.74,2.99c1.54,0,3.1-.16,4.69-.48v-7.25h-6.59v-6.14Z"/>
        <path class="cls-3" d="M447.63,798.06v-34.78h7.37v28.69h14.11v6.09h-21.48Z"/>
        <path class="cls-3" d="M506.71,780.63c0,5.76-1.43,10.18-4.28,13.27s-6.95,4.64-12.27,4.64-9.42-1.55-12.27-4.64-4.28-7.53-4.28-13.32,1.43-10.21,4.29-13.26,6.97-4.58,12.31-4.58,9.43,1.54,12.26,4.61,4.25,7.5,4.25,13.27ZM481.33,780.63c0,3.89.74,6.81,2.21,8.78s3.68,2.95,6.61,2.95c5.88,0,8.82-3.91,8.82-11.73s-2.93-11.75-8.78-11.75c-2.93,0-5.15.99-6.64,2.96s-2.24,4.9-2.24,8.79Z"/>
        <path class="cls-3" d="M513.92,763.28h10.82c4.93,0,8.51.7,10.74,2.11,2.23,1.4,3.34,3.64,3.34,6.7,0,2.08-.49,3.78-1.46,5.11s-2.27,2.13-3.89,2.4v.24c2.2.49,3.79,1.41,4.77,2.76s1.46,3.14,1.46,5.38c0,3.17-1.15,5.65-3.44,7.42s-5.4,2.66-9.34,2.66h-13.01v-34.78ZM521.29,777.06h4.28c2,0,3.45-.31,4.34-.93s1.34-1.64,1.34-3.07c0-1.33-.49-2.29-1.46-2.87s-2.52-.87-4.63-.87h-3.88v7.73ZM521.29,782.91v9.06h4.8c2.03,0,3.53-.39,4.5-1.17s1.45-1.97,1.45-3.57c0-2.89-2.06-4.33-6.18-4.33h-4.57Z"/>
        <path class="cls-3" d="M567.94,798.06l-2.52-8.28h-12.68l-2.52,8.28h-7.94l12.27-34.92h9.01l12.32,34.92h-7.94ZM563.65,783.6c-2.33-7.5-3.64-11.74-3.94-12.73s-.5-1.76-.63-2.33c-.52,2.03-2.02,7.05-4.5,15.06h9.06Z"/>
        <path class="cls-3" d="M580.26,798.06v-34.78h7.37v28.69h14.11v6.09h-21.48Z"/>
      </g>
      <g>
        <path class="cls-5" d="M309.55,716.56c0,4.26-.74,8.23-2.21,11.9-1.47,3.67-3.54,6.86-6.21,9.57s-5.89,4.84-9.65,6.38c-3.77,1.54-7.94,2.31-12.53,2.31s-8.77-.77-12.55-2.31c-3.78-1.54-7.01-3.66-9.69-6.38-2.68-2.71-4.76-5.9-6.23-9.57-1.47-3.67-2.21-7.64-2.21-11.9s.74-8.23,2.21-11.9c1.47-3.67,3.55-6.85,6.23-9.55,2.69-2.7,5.92-4.82,9.69-6.36,3.78-1.54,7.96-2.31,12.55-2.31s8.76.78,12.53,2.33c3.76,1.55,6.98,3.68,9.65,6.38,2.67,2.7,4.74,5.88,6.21,9.55,1.47,3.67,2.21,7.62,2.21,11.86ZM295.55,716.56c0-2.91-.38-5.54-1.13-7.87s-1.84-4.31-3.26-5.93c-1.42-1.62-3.15-2.86-5.2-3.72-2.05-.86-4.39-1.3-7-1.3s-5,.43-7.06,1.3-3.8,2.1-5.22,3.72c-1.42,1.62-2.5,3.59-3.26,5.93s-1.13,4.96-1.13,7.87.38,5.58,1.13,7.91,1.84,4.31,3.26,5.93,3.16,2.85,5.22,3.7,4.42,1.28,7.06,1.28,4.95-.43,7-1.28c2.05-.85,3.78-2.08,5.2-3.7,1.42-1.62,2.5-3.59,3.26-5.93s1.13-4.97,1.13-7.91Z"/>
        <path class="cls-5" d="M396.42,687.1l-18.22,58.98h-12.39l-11.09-36.55c-.22-.57-.42-1.19-.61-1.88-.19-.69-.38-1.41-.57-2.17-.19.76-.38,1.48-.57,2.17-.19.69-.39,1.32-.61,1.88l-11.25,36.55h-12.39l-18.22-58.98h11.5c1.19,0,2.18.27,2.97.81.8.54,1.32,1.26,1.56,2.15l8.09,30.76c.24.97.49,2.03.73,3.18.24,1.15.49,2.34.73,3.58.49-2.54,1.08-4.79,1.78-6.76l9.55-30.76c.24-.76.76-1.44,1.56-2.04.79-.61,1.76-.91,2.89-.91h4.05c1.19,0,2.15.28,2.87.83.73.55,1.28,1.26,1.66,2.13l9.47,30.76c.7,1.89,1.29,4.04,1.78,6.44.22-1.21.44-2.35.67-3.42.23-1.07.47-2.07.71-3.02l8.1-30.76c.22-.78.73-1.47,1.54-2.06.81-.59,1.78-.89,2.91-.89h10.77Z"/>
        <path class="cls-5" d="M437.83,735.14v10.93h-35.54v-58.98h13.68v48.05h21.86Z"/>
        <path class="cls-5" d="M482.76,687.1c4.07,0,7.54.38,10.4,1.13s5.19,1.82,7,3.2c1.81,1.37,3.12,3.05,3.95,5.02.82,1.97,1.23,4.17,1.23,6.6,0,1.32-.19,2.6-.57,3.83-.38,1.23-.97,2.37-1.78,3.44-.81,1.07-1.85,2.04-3.12,2.94-1.27.89-2.79,1.66-4.57,2.31,3.89.95,6.76,2.47,8.62,4.57,1.86,2.11,2.79,4.83,2.79,8.18,0,2.51-.49,4.84-1.46,7-.97,2.16-2.39,4.04-4.27,5.65-1.88,1.61-4.19,2.86-6.94,3.77-2.75.9-5.9,1.35-9.43,1.35h-23.56v-58.98h21.7ZM474.74,697.34v14.57h7.12c1.51,0,2.87-.11,4.09-.32s2.25-.59,3.1-1.13,1.5-1.28,1.94-2.23c.44-.94.67-2.13.67-3.56s-.18-2.57-.53-3.5c-.35-.93-.89-1.68-1.62-2.25-.73-.57-1.65-.97-2.77-1.21-1.12-.24-2.45-.36-3.99-.36h-8.01ZM484.38,735.75c1.81,0,3.29-.23,4.43-.69,1.15-.46,2.04-1.05,2.69-1.78.65-.73,1.09-1.55,1.34-2.47.24-.92.36-1.85.36-2.79,0-1.08-.14-2.05-.42-2.91-.28-.86-.77-1.59-1.46-2.19-.69-.59-1.6-1.05-2.73-1.38-1.13-.32-2.56-.49-4.29-.49h-9.55v14.69h9.63Z"/>
        <path class="cls-5" d="M563.51,746.07h-12.39c-2.29,0-3.94-.86-4.94-2.59l-9.8-17.12c-.46-.73-.97-1.26-1.54-1.6-.57-.34-1.38-.51-2.43-.51h-3.48v21.82h-13.68v-58.98h19.19c4.26,0,7.9.44,10.91,1.32,3.01.88,5.46,2.1,7.37,3.66,1.9,1.57,3.29,3.41,4.15,5.55.86,2.13,1.3,4.45,1.3,6.96,0,1.92-.26,3.72-.77,5.42s-1.27,3.27-2.27,4.71c-1,1.45-2.23,2.73-3.7,3.87-1.47,1.13-3.16,2.06-5.08,2.79.89.46,1.73,1.03,2.51,1.72.78.69,1.48,1.5,2.1,2.45l12.55,20.52ZM534.45,714.82c1.86,0,3.45-.23,4.76-.71s2.38-1.13,3.22-1.96c.84-.84,1.44-1.81,1.82-2.93s.57-2.33.57-3.62c0-2.59-.84-4.61-2.53-6.07-1.69-1.46-4.3-2.19-7.83-2.19h-5.5v17.49h5.5Z"/>
        <path class="cls-5" d="M582.25,746.07h-13.76v-58.98h13.76v58.98Z"/>
        <path class="cls-5" d="M647.18,716.56c0,4.26-.74,8.2-2.21,11.8-1.47,3.6-3.54,6.72-6.21,9.35s-5.89,4.68-9.65,6.15c-3.76,1.47-7.94,2.21-12.53,2.21h-22.91v-58.98h22.91c4.59,0,8.76.74,12.53,2.22,3.77,1.48,6.98,3.54,9.65,6.15,2.67,2.62,4.74,5.73,6.21,9.33,1.47,3.6,2.21,7.52,2.21,11.76ZM633.17,716.56c0-2.91-.38-5.55-1.13-7.89s-1.84-4.34-3.26-5.97c-1.42-1.63-3.15-2.89-5.2-3.76s-4.39-1.32-7-1.32h-9.15v37.93h9.15c2.62,0,4.95-.44,7-1.32,2.05-.88,3.78-2.13,5.2-3.77,1.42-1.63,2.5-3.62,3.26-5.97s1.13-4.99,1.13-7.93Z"/>
        <path class="cls-5" d="M683.61,715.51h20.97v24.89c-3.02,2.21-6.24,3.82-9.65,4.82-3.41,1-6.98,1.5-10.71,1.5-4.86,0-9.28-.76-13.26-2.29-3.98-1.53-7.39-3.63-10.22-6.32-2.83-2.68-5.02-5.87-6.56-9.55-1.54-3.68-2.31-7.68-2.31-12s.73-8.44,2.19-12.12c1.46-3.69,3.54-6.86,6.25-9.53,2.71-2.67,5.99-4.75,9.84-6.23,3.85-1.48,8.14-2.22,12.89-2.22,2.46,0,4.76.2,6.92.61s4.15.96,5.97,1.66,3.49,1.54,5,2.51c1.51.97,2.86,2.02,4.05,3.16l-3.97,6.03c-.62.94-1.42,1.52-2.41,1.74-.99.22-2.04-.03-3.18-.73-1.08-.65-2.1-1.21-3.06-1.68-.96-.47-1.94-.86-2.94-1.16-1-.3-2.05-.51-3.16-.65-1.11-.13-2.35-.2-3.72-.2-2.56,0-4.87.45-6.92,1.36s-3.8,2.18-5.24,3.82c-1.44,1.65-2.56,3.62-3.34,5.93-.78,2.31-1.17,4.88-1.17,7.71,0,3.13.43,5.91,1.3,8.34.86,2.43,2.08,4.48,3.66,6.15s3.47,2.95,5.67,3.83c2.2.88,4.63,1.32,7.31,1.32,1.65,0,3.14-.16,4.47-.49,1.34-.32,2.64-.75,3.91-1.29v-8.95h-5.83c-.86,0-1.54-.23-2.02-.69-.49-.46-.73-1.04-.73-1.74v-7.53Z"/>
        <path class="cls-5" d="M727.52,697.62v13.76h18.54v10.12h-18.54v14.05h24.21v10.52h-37.97v-58.98h37.97v10.52h-24.21Z"/>
      </g>
    </g>
    <g id="Submark">
      <g id="stroke">
        <path class="cls-8" d="M493.22,609.91c-79.49,0-151.24-47.15-182.79-120.12-10.79-24.97-16.25-51.52-16.25-78.92s5.01-51.63,14.88-75.63c14.83-36.06,39.75-66.78,72.06-88.84,33.11-22.6,71.87-34.55,112.11-34.55,86.04,0,161.98,54.83,188.97,136.43,6.67,20.07,10.06,41.13,10.06,62.59,0,26.73-5.21,52.67-15.49,77.1-31.12,74.08-103.16,121.94-183.53,121.94Z"/>
        <path class="cls-6" d="M493.22,217.65c85.5,0,158.01,55.52,183.45,132.45,6.35,19.09,9.76,39.53,9.76,60.77,0,26.54-5.35,51.82-15.04,74.85-29.21,69.55-98,118.39-178.18,118.39s-147.79-48-177.46-116.62c-10.14-23.49-15.78-49.38-15.78-76.62s5.13-50.79,14.44-73.42c28.9-70.29,98.08-119.8,178.8-119.8M493.22,206.04c-41.41,0-81.31,12.3-115.38,35.56-33.26,22.71-58.9,54.32-74.16,91.43-10.16,24.7-15.31,50.89-15.31,77.84s5.63,55.52,16.73,81.22c32.47,75.1,106.31,123.63,188.12,123.63,41.12,0,80.79-12.14,114.71-35.11,33.1-22.41,58.75-53.67,74.17-90.39,10.58-25.14,15.94-51.84,15.94-79.35,0-22.09-3.48-43.77-10.35-64.43-6.67-20.16-16.43-39.12-29.02-56.34-12.43-17.01-27.35-31.96-44.33-44.43-35.3-25.92-77.19-39.63-121.12-39.63h0Z"/>
      </g>
      <g id="bRIDGE">
        <g>
          <line class="cls-2" x1="655.11" y1="484.35" x2="655.11" y2="391.5"/>
          <line class="cls-2" x1="623.95" y1="479.61" x2="623.95" y2="425.03"/>
          <line class="cls-2" x1="361.56" y1="481.05" x2="361.56" y2="415.57"/>
          <line class="cls-2" x1="330.37" y1="486.24" x2="330.37" y2="375.93"/>
        </g>
        <g>
          <path class="cls-1" d="M498.38,471.92c63.51,0,123.26,5.88,175.5,16.19.12.02.18.15.13.26"/>
          <path class="cls-1" d="M314,490.18c-.05-.11.02-.23.13-.26,54.25-11.44,117.16-18,184.25-18"/>
        </g>
        <g>
          <path class="cls-4" d="M497.93,471.92c-86.56,0-159.97-56.81-185.81-135.59-.01-.04-.01-.09,0-.13"/>
          <path class="cls-4" d="M678.96,349.15s.01.09,0,.13c-29.29,71.98-99.32,122.64-181.03,122.64"/>
        </g>
      </g>
      <g id="background">
        <path class="cls-6" d="M493.22,217.65c85.5,0,158.01,55.52,183.45,132.45,6.35,19.09,9.76,39.53,9.76,60.77,0,26.54-5.35,51.82-15.04,74.85-29.21,69.55-98,118.39-178.18,118.39s-147.79-48-177.46-116.62c-10.14-23.49-15.78-49.38-15.78-76.62s5.13-50.79,14.44-73.42c28.9-70.29,98.08-119.8,178.8-119.8M493.22,203.65c-41.89,0-82.25,12.44-116.73,35.98-33.64,22.97-59.58,54.95-75.02,92.5-10.28,24.99-15.49,51.48-15.49,78.74s5.69,56.17,16.92,82.17c32.85,75.98,107.55,125.07,190.32,125.07,41.6,0,81.73-12.28,116.05-35.52,33.48-22.67,59.43-54.29,75.04-91.45,10.7-25.44,16.13-52.45,16.13-80.27,0-22.35-3.52-44.28-10.48-65.19-6.74-20.39-16.62-39.57-29.36-56.99-12.58-17.21-27.67-32.33-44.85-44.95-35.72-26.23-78.09-40.09-122.53-40.09h0Z"/>
      </g>
      <g id="eye-r">
        <path class="cls-7" d="M576.76,385.42c-21.56,0-39.1-15.33-39.1-34.18,0-15.12,11.09-28.26,27.6-32.7l50.34-18.24h.74c2.23-.01,4.05,1.8,4.05,4.03v.11l-.62,10.76c-.23,4.6-2.78,8.74-6.82,11.04l-5.92,3.39c5.65,6.03,8.81,13.66,8.81,21.6,0,18.85-17.54,34.18-39.1,34.18Z"/>
        <path class="cls-6" d="M616.35,304.17c.1,0,.18.07.18.17l-.61,10.65c-.16,3.28-2.01,6.27-4.87,7.91l-10.53,6.02c7.04,5.49,11.47,13.43,11.47,22.32,0,16.75-15.77,30.31-35.23,30.31s-35.22-13.56-35.22-30.31c0-13.6,10.4-25.11,24.74-28.96h.04l49.97-18.1s.04-.01.06-.01M616.35,296.43c-.86,0-1.71.14-2.53.41l-.09.03-.09.03-49.55,17.95c-8.55,2.33-15.95,6.88-21.42,13.18-5.82,6.7-8.89,14.72-8.89,23.21,0,20.98,19.27,38.05,42.97,38.05s42.97-17.07,42.97-38.05c0-7.36-2.4-14.47-6.78-20.52l1.94-1.11c5.18-2.96,8.45-8.27,8.76-14.21l.61-10.62v-.22s.01-.22.01-.22c0-4.36-3.55-7.92-7.92-7.92h0Z"/>
      </g>
      <g id="eye-l">
        <path class="cls-7" d="M410.34,385.42c-21.56,0-39.1-15.33-39.1-34.18,0-7.94,3.16-15.57,8.81-21.6l-5.92-3.39c-4.04-2.31-6.59-6.45-6.82-11.07l-.62-10.73v-.11c0-2.23,1.82-4.04,4.05-4.04h.63l.66.21,49.79,18.04c16.51,4.43,27.6,17.57,27.6,32.7,0,18.85-17.54,34.18-39.09,34.18Z"/>
        <path class="cls-6" d="M370.75,304.17s.04,0,.06.01l49.97,18.1h.04c14.34,3.85,24.74,15.36,24.74,28.96,0,16.75-15.77,30.31-35.22,30.31s-35.22-13.56-35.22-30.31c0-8.89,4.42-16.83,11.47-22.32l-10.53-6.02c-2.87-1.64-4.71-4.63-4.87-7.91l-.61-10.65c0-.1.08-.17.18-.17M370.75,296.43c-4.37,0-7.92,3.55-7.92,7.92v.45s.62,10.62.62,10.62c.31,5.94,3.58,11.25,8.76,14.21l1.93,1.11c-4.38,6.04-6.78,13.16-6.78,20.52,0,20.98,19.27,38.05,42.97,38.05s42.97-17.07,42.97-38.05c0-8.49-3.07-16.51-8.89-23.21-5.47-6.3-12.87-10.85-21.42-13.18l-49.55-17.95-.09-.03-.09-.03c-.82-.27-1.67-.41-2.53-.41h0Z"/>
      </g>
      <g>
        <g id="pen">
          <g>
            <g>
              <path class="cls-6" d="M493.14,448.31s-13.57-51.83-35.66-63.6c-.15-.08-.12-.29.04-.34,8.48-2.38,11.66-13.54,12.19-22.89.43-7.71.13-15.48-.89-23.13-.88-6.57-2.36-13.22-5.77-18.8-5.66-9.27-15.75-14.28-25.44-18.42-34.6-14.79-71.52-24.82-102.75-46.41-4.44-3.06-8.91-6.56-11.23-11.59-4.16-9.01-.24-19.91-2.1-29.73-.03-.2.19-.32.31-.16,8.23,10.53,16.67,21.17,27.49,28.64,6.6,4.55,13.92,7.8,21.19,11.03,25.15,11.15,50.3,22.29,75.44,33.44,11.51,5.1,23.65,10.73,30.74,21.58,6.19,9.47,7.53,21.45,8.68,32.9,1.19,11.82,2.29,24.28-2.28,35.15-.9,2.13-2.02,4.26-2.02,6.59.02,4.77,4.52,7.91,7.12,11.81,3.41,5.13,3.54,11.83,3.55,18.1,0,11.82,1.29,35.27,1.29,35.27l.1.57Z"/>
              <path class="cls-6" d="M504.23,445.25c-1.65-6.28-3.76-12.47-6.03-18.55-4.59-12.29-9.9-24.79-17.69-35.44-4.71-6.43-10.11-12.64-17.23-16.48l4.13,4.13-.1-.18c-.6,4.65-1.2,9.29-1.8,13.94l.14-.15-5.07,2.96c6.61-1.94,12.05-6.67,15.27-12.73s4.39-11.91,5.12-18.4c.7-6.14.56-12.45.11-18.6-.51-7.01-1.29-14.24-3.34-21s-5.66-13.46-10.8-18.75c-4.18-4.31-9.33-7.83-14.64-10.62s-11.39-5.25-17.17-7.63-11.02-4.42-16.57-6.55c-12.44-4.77-24.95-9.38-37.23-14.55l2.75,1.16c-12.75-5.38-25.26-11.39-36.99-18.76-3.24-2.04-6.45-4.14-9.5-6.46l2.33,1.8c-2.21-1.71-4.28-3.58-5.99-5.79l1.8,2.33c-1-1.34-1.83-2.76-2.48-4.3l1.16,2.75c-.68-1.7-1.11-3.46-1.38-5.27l.41,3.06c-.53-4-.25-8.02-.04-12.03.26-5,.12-9.8-.78-14.76v6.11l.04-.16-5.28,6.87.13-.07h-11.61l.14.07-2.33-1.8c6.58,8.42,13.25,16.91,21.39,23.91,4.64,4,9.62,7.6,14.99,10.55,4.88,2.69,9.97,4.93,15.06,7.19,22.15,9.82,44.29,19.63,66.44,29.45,10.26,4.55,21.11,8.67,30.09,15.57l-2.33-1.8c2.78,2.17,5.32,4.61,7.51,7.39l-1.8-2.33c2.03,2.64,3.67,5.52,4.98,8.59l-1.16-2.75c2.39,5.74,3.6,11.85,4.44,17.99l-.41-3.06c.72,5.41,1.27,10.87,1.68,16.31s.56,11.23-.15,16.81l.41-3.06c-.5,3.7-1.39,7.31-2.82,10.77l1.16-2.75c-1.13,2.65-2.54,5.27-3.08,8.12-.66,3.48-.73,7.14.59,10.49.6,1.52,1.2,3.08,2.09,4.46.95,1.48,2.09,2.85,3.19,4.22s2.26,2.6,3.31,3.95l-1.8-2.33c.96,1.27,1.74,2.61,2.36,4.07l-1.16-2.75c.8,2,1.27,4.09,1.56,6.22l-.41-3.06c.5,3.97.38,7.96.44,11.95.05,3.42.15,6.84.27,10.26.22,6.26.51,12.51.83,18.76.12,2.33.27,4.5.68,6.83.47,2.68,3.02,5.55,5.28,6.87,2.46,1.44,6.1,2.05,8.86,1.16s5.47-2.62,6.87-5.28l1.16-2.75c.55-2.04.55-4.08,0-6.11l-.1-.57.41,3.06c-.31-5.6-.57-11.21-.8-16.82-.18-4.44-.34-8.88-.43-13.32-.12-5.74-.08-11.38-.89-17.08-.55-3.85-1.78-7.59-3.7-10.98s-4.6-5.93-6.92-8.87l1.8,2.33c-.74-.96-1.4-1.96-1.9-3.07l1.16,2.75c-.29-.71-.5-1.41-.62-2.16l.41,3.06c-.09-.75-.07-1.47.03-2.21l-.41,3.06c.22-1.22.63-2.36,1.11-3.49l-1.16,2.75c1.77-4.12,3.49-8.12,4.34-12.54s1.31-8.79,1.37-13.21c.1-7.17-.71-14.34-1.49-21.45-.84-7.63-1.77-15.42-4.33-22.7-2.74-7.82-6.88-14.95-12.91-20.7-10.4-9.91-23.95-15.1-36.86-20.82-14.72-6.52-29.43-13.04-44.15-19.57-7.35-3.26-14.7-6.52-22.06-9.78-6.7-2.97-13.42-5.97-19.57-9.98-1.5-.98-2.96-2.02-4.38-3.11l2.33,1.8c-5.67-4.4-10.66-9.58-15.31-15.03-2.33-2.73-4.58-5.53-6.8-8.35-.56-.7-1.11-1.41-1.66-2.12-1.89-2.42-4.46-3.8-7.51-4.21-5.69-.76-11.17,2.7-12.75,8.3-.77,2.73-.15,5.18.21,7.86l-.41-3.06c.63,5.13,0,10.27-.13,15.41-.18,6.77.8,13.55,4.06,19.57s8.22,9.96,13.45,13.71c4.17,2.99,8.52,5.74,12.95,8.33,18.7,10.96,39.04,18.87,59.24,26.56,10.97,4.18,21.97,8.3,32.79,12.85l-2.75-1.16c6.65,2.81,13.32,5.77,19.08,10.2l-2.33-1.8c2.37,1.86,4.54,3.94,6.4,6.32l-1.8-2.33c1.67,2.18,3.01,4.55,4.09,7.08l-1.16-2.75c1.9,4.61,2.88,9.51,3.56,14.43l-.41-3.06c1.16,8.83,1.68,18.08.53,26.94l.41-3.06c-.45,3.31-1.22,6.58-2.5,9.67l1.16-2.75c-.72,1.67-1.59,3.27-2.69,4.72l1.8-2.33c-.77.98-1.62,1.86-2.6,2.64l2.33-1.8c-.83.63-1.71,1.15-2.67,1.57l2.75-1.16c-2.37.96-4.78,1.55-6.57,3.59s-2.81,4-3.16,6.6.11,4.97,1.36,7.33c1.76,3.33,5.34,4.71,8.18,6.89l-2.33-1.8c3.07,2.4,5.7,5.28,8.08,8.35l-1.8-2.33c6.05,7.87,10.53,16.89,14.38,26l-1.16-2.75c3.42,8.13,6.36,16.48,8.77,24.96.16.57.32,1.14.47,1.71.73,2.78,2.82,5.43,5.28,6.87s6.1,2.05,8.86,1.16,5.47-2.62,6.87-5.28,1.96-5.79,1.16-8.86Z"/>
            </g>
            <g>
              <path class="cls-6" d="M662.75,243.14c-2.32,5.03-6.8,8.53-11.23,11.59-31.23,21.59-68.14,31.62-102.75,46.41-9.69,4.14-19.78,9.15-25.45,18.42-3.41,5.58-4.88,12.23-5.77,18.8-1.02,7.65-1.32,15.42-.89,23.13.53,9.35,3.71,20.51,12.19,22.89.16.04.19.25.04.34-22.1,11.77-35.76,63.6-35.76,63.6l.09-.57s1.39-23.45,1.39-35.27c0-6.26.13-12.97,3.55-18.1,2.6-3.9,7.1-7.04,7.12-11.81,0-2.33-1.12-4.46-2.02-6.59-4.58-10.87-3.48-23.33-2.28-35.15,1.15-11.45,2.48-23.43,8.68-32.9,7.08-10.84,19.23-16.47,30.74-21.58,25.15-11.15,50.3-22.29,75.44-33.44,7.28-3.22,14.6-6.47,21.2-11.03,10.82-7.46,19.26-18.1,27.49-28.64.12-.15.34-.04.3.16-1.85,9.82,2.07,20.71-2.09,29.73Z"/>
              <path class="cls-6" d="M652.82,237.33c-.6,1.27-1.33,2.45-2.17,3.58l1.8-2.33c-1.71,2.22-3.78,4.08-5.99,5.79l2.33-1.8c-10.89,8.3-23.32,14.77-35.71,20.48-3.56,1.64-7.16,3.21-10.78,4.74l2.75-1.16c-10.95,4.61-22.07,8.77-33.17,13-11.59,4.42-23.33,8.76-34.54,14.1-5.52,2.63-10.61,5.84-15.28,9.8-2.62,2.22-4.73,4.78-6.8,7.51-2.29,3.03-3.82,6.32-5.25,9.83-2.59,6.36-3.51,13.24-4.28,20.02s-.95,13.27-.62,19.91c.18,3.56.61,7.13,1.32,10.62s1.9,6.62,3.34,9.8c3.06,6.76,8.85,12.15,16.01,14.26l-5.07-2.96.14.15c-.6-4.65-1.2-9.29-1.8-13.94l-.1.18,4.13-4.13c-5.57,3-10.35,7.58-14.22,12.53-4.45,5.69-8.28,11.66-11.55,18.1-5.39,10.61-9.74,21.83-13.31,33.17-.69,2.21-1.38,4.43-1.97,6.67,7.39,2.04,14.79,4.08,22.18,6.11.75-4.57.82-9.23,1.05-13.85.35-6.97.66-13.94.8-20.91.08-4.35-.08-8.72.46-13.04l-.41,3.06c.29-2.13.77-4.22,1.56-6.22l-1.16,2.75c.62-1.46,1.4-2.8,2.36-4.07l-1.8,2.33c1.06-1.36,2.23-2.62,3.31-3.95s2.24-2.74,3.19-4.22c.89-1.38,1.49-2.94,2.09-4.46,1.32-3.35,1.25-7.01.59-10.49-.54-2.85-1.95-5.47-3.08-8.12l1.16,2.75c-1.43-3.45-2.32-7.07-2.82-10.77l.41,3.06c-.71-5.58-.58-11.21-.15-16.81s.96-10.9,1.68-16.31l-.41,3.06c.83-6.14,2.04-12.25,4.43-17.99l-1.16,2.75c1.31-3.06,2.95-5.94,4.99-8.59l-1.8,2.33c2.18-2.78,4.72-5.22,7.5-7.39l-2.33,1.8c7.88-6.07,17.2-9.86,26.23-13.86,11-4.88,22-9.75,33.01-14.63s22.15-9.81,33.22-14.72c5.14-2.28,10.32-4.49,15.35-7.01,5.71-2.86,10.93-6.27,15.95-10.21,9.42-7.4,16.89-16.85,24.21-26.23l-2.33,1.8.14-.07h-11.61l.13.07-5.28-6.87.03.16v-6.11c-.9,4.96-1.03,9.76-.77,14.76.21,4.01.49,8.03-.04,12.03l.41-3.06c-.26,1.81-.7,3.57-1.38,5.27l1.16-2.75c-.1.24-.21.49-.32.72-.84,1.32-1.3,2.75-1.36,4.28-.34,1.53-.27,3.06.21,4.59.73,2.67,2.8,5.56,5.28,6.87,2.67,1.41,5.9,2.12,8.86,1.16,2.67-.86,5.67-2.61,6.87-5.28.83-1.85,1.69-3.73,2.23-5.69s.77-4.06,1.03-6.11c.31-2.44.35-4.89.27-7.35-.17-4.93-.72-9.88-.12-14.8l-.41,3.06c.36-2.66.98-5.13.21-7.86-1.43-5.1-6.05-8.28-11.22-8.51-3.51-.16-6.93,1.73-9.04,4.42-.51.65-1.02,1.3-1.53,1.95-2.26,2.87-4.55,5.73-6.93,8.51-4.65,5.45-9.64,10.63-15.31,15.03l2.33-1.8c-5.8,4.45-12.26,7.8-18.89,10.83-7.15,3.26-14.36,6.39-21.55,9.57-14.72,6.52-29.43,13.04-44.15,19.57-6.84,3.03-13.72,5.98-20.51,9.14s-12.62,6.61-18.34,11.08-10.51,10.21-13.57,16.71c-3.31,7.02-5.2,14.27-6.25,21.93s-2.02,15.84-2.39,23.79c-.17,3.64-.16,7.3.19,10.93.42,4.37,1.04,8.79,2.43,12.97.83,2.51,1.95,4.92,2.99,7.35l-1.16-2.75c.48,1.14.89,2.28,1.11,3.49l-.41-3.06c.1.75.11,1.46.03,2.21l.41-3.06c-.12.75-.33,1.46-.62,2.16l1.16-2.75c-.5,1.11-1.16,2.1-1.9,3.07l1.8-2.33c-2.09,2.66-4.44,5.08-6.32,7.91s-3.32,6.55-3.99,10.05c-1.12,5.8-1.06,11.57-1.17,17.44-.15,8.47-.56,16.94-1.01,25.4-.11,2.09-.22,4.19-.35,6.28l.41-3.06-.09.57c-.48,1.53-.55,3.06-.21,4.59.07,1.53.52,2.96,1.36,4.28,1.4,2.39,4.13,4.66,6.87,5.28,2.94.67,6.25.53,8.86-1.16s4.51-3.93,5.28-6.87c1.56-5.91,3.54-11.73,5.65-17.45,1.11-3.02,2.29-6.01,3.54-8.97l-1.16,2.75c3.88-9.2,8.41-18.3,14.52-26.24l-1.8,2.33c2.38-3.07,5.03-5.95,8.09-8.35l-2.33,1.8c2.84-2.19,6.41-3.55,8.18-6.89,1.23-2.32,1.72-4.72,1.36-7.33s-1.4-4.6-3.16-6.6-4.21-2.63-6.57-3.59l2.75,1.16c-.96-.42-1.84-.94-2.67-1.57l2.33,1.8c-.98-.77-1.83-1.66-2.6-2.64l1.8,2.33c-1.1-1.46-1.97-3.05-2.69-4.72l1.16,2.75c-1.29-3.09-2.05-6.36-2.5-9.67l.41,3.06c-1.15-8.86-.63-18.11.53-26.94l-.41,3.06c.67-4.92,1.66-9.82,3.55-14.43l-1.16,2.75c1.07-2.53,2.42-4.9,4.09-7.08l-1.8,2.33c1.86-2.38,4.02-4.46,6.4-6.32l-2.33,1.8c5.76-4.43,12.43-7.39,19.08-10.2l-2.75,1.16c15.6-6.57,31.55-12.22,47.28-18.46s32.82-13.6,47.95-22.86c3.91-2.39,7.79-4.89,11.44-7.66,4.88-3.71,9.59-7.83,12.28-13.49,1.35-2.84,2.02-5.73,1.16-8.86-.73-2.67-2.8-5.56-5.28-6.87-2.67-1.41-5.9-2.12-8.86-1.16-2.71.88-5.6,2.61-6.87,5.28Z"/>
            </g>
          </g>
        </g>
        <g id="pen-2" data-name="pen">
          <g>
            <g>
              <path class="cls-7" d="M493.18,448.31s-13.57-51.83-35.66-63.6c-.15-.08-.12-.29.04-.34,8.48-2.38,11.66-13.54,12.19-22.89.43-7.71.13-15.48-.89-23.13-.88-6.57-2.36-13.22-5.77-18.8-5.66-9.27-15.75-14.28-25.44-18.42-34.6-14.79-71.52-24.82-102.75-46.41-4.44-3.06-8.91-6.56-11.23-11.59-4.16-9.01-.24-19.91-2.1-29.73-.03-.2.19-.32.31-.16,8.23,10.53,16.67,21.17,27.49,28.64,6.6,4.55,13.92,7.8,21.19,11.03,25.15,11.15,50.3,22.29,75.44,33.44,11.51,5.1,23.65,10.73,30.74,21.58,6.19,9.47,7.53,21.45,8.68,32.9,1.19,11.82,2.29,24.28-2.28,35.15-.9,2.13-2.02,4.26-2.02,6.59.02,4.77,4.52,7.91,7.12,11.81,3.41,5.13,3.54,11.83,3.55,18.1,0,11.82,1.29,35.27,1.29,35.27l.1.57Z"/>
              <path class="cls-7" d="M496.56,447.38c-1.65-6.28-3.76-12.47-6.03-18.55-4.35-11.67-9.49-23.43-16.88-33.53-3.9-5.32-8.48-10.45-14.36-13.61l1.26,1.26-.1-.18-.55,4.24.14-.15-1.54.9c7.44-2.19,11.46-9.32,13.29-16.4.97-3.75,1.38-7.63,1.55-11.48.22-5.1.12-10.21-.3-15.29-.77-9.34-2.12-19.38-7.31-27.41-4.58-7.08-11.59-12.01-19.04-15.73-7.88-3.94-16.2-7.1-24.4-10.3s-16.92-6.45-25.36-9.71c-16.77-6.47-33.24-13.3-48.87-22.48-3.88-2.28-7.68-4.69-11.38-7.25-1.82-1.26-3-2.09-4.58-3.48-.76-.67-1.49-1.37-2.19-2.11-.76-.81-1.24-1.41-1.7-2.09-1.25-1.85-1.86-3.25-2.37-5.33s-.62-3.59-.65-5.89c-.06-4.47.48-8.93.43-13.4-.02-2.32-.24-4.64-.66-6.93v1.86l.04-.16-1.61,2.09.13-.07h-3.53c-.76-.39.06.33.2.5.17.22.34.43.51.65.47.6.94,1.19,1.41,1.79.94,1.19,1.89,2.38,2.84,3.56,1.82,2.25,3.68,4.48,5.59,6.65,3.83,4.34,7.93,8.48,12.46,12.1,9.66,7.71,21.03,12.36,32.24,17.33,23.89,10.59,47.85,21.04,71.68,31.78,4.7,2.11,9.36,4.34,13.74,7.06s7.85,5.44,11.21,9.51c.56.67,1.27,1.65,1.97,2.73.74,1.14,1.41,2.33,2.02,3.54,1.17,2.33,2,4.6,2.78,7.34s1.37,5.52,1.84,8.32.72,4.89,1.04,7.8c.63,5.8,1.26,11.63,1.42,17.47.16,5.88-.14,11.27-1.78,16.82-.86,2.9-2.22,5.14-3.05,8.09s-.46,6.06.96,8.84c1.15,2.27,2.97,4.17,4.61,6.09,1.38,1.62,2.67,3.61,3.33,5.7.4,1.27.67,2.57.89,3.88,0,.05.09.68.03.21.05.38.09.77.12,1.15.07.71.11,1.42.15,2.13.12,2.41.09,4.81.11,7.22.04,4.14.17,8.28.33,12.41.25,6.71.56,13.41.92,20.11.04.76.13,1.5.27,2.26.33,1.86,2.61,2.91,4.31,2.44,1.97-.54,2.77-2.44,2.44-4.31-.21-1.18.02.75.02.25,0-.22-.02-.43-.03-.65-.05-.88-.09-1.75-.14-2.63-.16-3.08-.3-6.16-.44-9.23-.33-7.38-.65-14.78-.67-22.17-.02-4.93-.02-10.02-1.48-14.77-.74-2.4-1.82-4.67-3.34-6.67-.73-.97-1.51-1.91-2.3-2.83-.3-.35-.6-.7-.9-1.05-.18-.22-.37-.44-.55-.66-.11-.13-.22-.26-.32-.4.17.22.18.23.03.04-.3-.4-.58-.81-.84-1.23-.14-.23-.28-.47-.4-.71-.08-.14-.37-.79-.12-.19-.16-.4-.26-.82-.38-1.23-.28-.93,0,.37-.04-.2-.02-.37-.03-.74,0-1.12.06-.62-.21.59.1-.47.08-.26.14-.52.22-.78.15-.48.41-1.16.55-1.5.47-1.13,1.13-2.56,1.6-3.85,1.87-5.09,2.62-10.58,2.8-15.97.18-5.36-.24-10.72-.76-16.05-.5-5.19-1.02-10.39-1.85-15.55-1.62-10.01-4.95-19.71-11.96-27.26-6.42-6.92-14.94-11.45-23.43-15.33-10.34-4.73-20.78-9.23-31.17-13.84s-21.43-9.5-32.15-14.25c-5.43-2.41-10.86-4.81-16.29-7.22-4.94-2.19-9.89-4.39-14.63-7-9.07-4.99-16.35-11.7-23.17-19.57-3.44-3.96-6.49-8.25-9.91-12.22-1.4-1.63-3.88-1.92-5.48-.33-.84.84-1.1,1.96-1,3.1.04.42.13.84.2,1.25.1.61.02-.01.08.66.22,2.57.22,5.12.1,7.69-.23,5.21-.68,10.38.24,15.56s3.64,9.66,7.4,13.24,8.2,6.4,12.53,9.16,8.84,5.37,13.41,7.8c18.53,9.89,38.29,17.18,57.88,24.64,9.48,3.61,19.17,7.29,28.23,11.29,4.22,1.87,8.38,3.91,12.22,6.48,3.28,2.2,6.78,5.36,8.95,8.59,2.82,4.19,4.24,8.7,5.24,13.72,1.08,5.39,1.56,10.81,1.76,16.41.1,2.94.1,5.87,0,8.81-.04,1.19-.1,2.38-.19,3.57-.03.42-.07.85-.12,1.27-.03.27-.06.53-.09.8-.03.26-.03.21.02-.13-.02.16-.05.32-.07.48-.31,2.04-.74,4.06-1.36,6.03-.14.46-.29.92-.46,1.37-.07.2-.15.4-.22.6.01-.03-.38.93-.18.46s-.21.47-.2.44c-.09.19-.18.37-.27.56-.23.45-.47.9-.72,1.34s-.52.85-.8,1.26c-.11.16-.23.32-.34.48.4-.55.1-.13,0-.02-.6.68-1.3,1.26-1.91,1.92-.35.38.65-.42-.07.05-.16.1-.31.21-.47.31-.36.23-.73.42-1.1.62-.17.1-.77.31-.07.05-.18.07-.36.14-.54.2-.84.28-1.62.53-2.24,1.23-1.07,1.22-1.31,2.79-.55,4.24s2.75,2.19,4.07,3.11c.24.17.47.34.71.51.12.09.23.18.35.27-.71-.52-.33-.27-.18-.14.52.44,1.05.86,1.55,1.31,2.12,1.9,4.02,4.03,5.79,6.26.54.68-.3-.41.22.29.23.31.46.61.69.92.46.63.91,1.26,1.34,1.9.87,1.27,1.7,2.56,2.51,3.87,1.65,2.68,3.16,5.45,4.59,8.25s2.74,5.63,3.99,8.51c.16.36.31.72.47,1.09.12.29.46,1.08.16.36.3.71.59,1.42.88,2.14.56,1.38,1.11,2.77,1.64,4.17,1.71,4.48,3.28,9.02,4.71,13.6.67,2.16,1.33,4.33,1.91,6.52.48,1.83,2.5,2.94,4.31,2.44s2.93-2.47,2.44-4.31Z"/>
            </g>
            <g>
              <path class="cls-7" d="M662.79,243.14c-2.32,5.03-6.8,8.53-11.23,11.59-31.23,21.59-68.14,31.62-102.75,46.41-9.69,4.14-19.78,9.15-25.45,18.42-3.41,5.58-4.88,12.23-5.77,18.8-1.02,7.65-1.32,15.42-.89,23.13.53,9.35,3.71,20.51,12.19,22.89.16.04.19.25.04.34-22.1,11.77-35.76,63.6-35.76,63.6l.09-.57s1.39-23.45,1.39-35.27c0-6.26.13-12.97,3.55-18.1,2.6-3.9,7.1-7.04,7.12-11.81,0-2.33-1.12-4.46-2.02-6.59-4.58-10.87-3.48-23.33-2.28-35.15,1.15-11.45,2.48-23.43,8.68-32.9,7.08-10.84,19.23-16.47,30.74-21.58,25.15-11.15,50.3-22.29,75.44-33.44,7.28-3.22,14.6-6.47,21.2-11.03,10.82-7.46,19.26-18.1,27.49-28.64.12-.15.34-.04.3.16-1.85,9.82,2.07,20.71-2.09,29.73Z"/>
              <path class="cls-7" d="M659.77,241.37c-1.59,3.34-3.84,5.66-6.86,8.07-2.5,2-6.12,4.34-9.19,6.28-6.81,4.31-13.91,8.16-21.16,11.68-14.42,7.01-29.17,12.59-44.25,18.32-7.49,2.85-14.98,5.69-22.4,8.7s-14.34,5.69-20.94,9.63-12.16,8.86-15.63,15.52c-4,7.67-5.21,16.49-5.91,25.01-.66,8.09-.85,16.54.74,24.55,1.26,6.34,4,12.87,9.49,16.64,1.3.89,2.79,1.54,4.3,1.98l-1.54-.9.14.15-.55-4.24-.1.18,1.26-1.26c-5,2.69-9.14,6.84-12.6,11.28-4,5.12-7.36,10.68-10.3,16.48-5.08,10-9.14,20.56-12.5,31.26-.69,2.21-1.38,4.43-1.97,6.67l6.75,1.86c.29-1.77.34-3.56.44-5.35.2-3.61.38-7.23.55-10.84.2-4.32.38-8.65.5-12.97.12-4.34.01-8.7.24-13.04.14-2.68.35-4.65,1.23-7.36.12-.36.24-.71.38-1.06-.16.42.06-.15.08-.19.26-.57.55-1.12.87-1.65.3-.5.64-.99.99-1.46-.4.54.28-.35.3-.37.22-.27.44-.53.67-.79,1.64-1.92,3.45-3.82,4.61-6.09,1.45-2.85,1.82-5.95.9-9.04s-2.25-5.29-3.11-8.29c-.79-2.77-1.24-5.39-1.46-8.02-.51-5.9-.14-11.83.4-17.71.26-2.85.55-5.71.86-8.56s.57-4.94,1.06-7.8c.91-5.28,2.32-10.8,4.56-15.27.61-1.22,1.28-2.4,2.02-3.54s1.39-2.03,1.97-2.73c1.66-2.01,3.53-3.84,5.54-5.51.23-.19.47-.38.7-.57.91-.74-.25.18.3-.23s1.07-.8,1.62-1.18c1.1-.77,2.22-1.5,3.37-2.2,2.2-1.35,4.47-2.57,6.77-3.73,5.02-2.51,10.19-4.71,15.33-6.99,6-2.66,12-5.32,18-7.98,12.07-5.35,24.15-10.7,36.22-16.05,5.98-2.65,11.97-5.29,17.95-7.96,5.46-2.44,10.89-4.98,15.96-8.16,9.96-6.25,17.97-14.93,25.31-24.01.87-1.07,1.73-2.16,2.58-3.24.47-.6.94-1.19,1.41-1.79.21-.27.43-.54.64-.81.13-.17.96-.89.2-.5h-3.53l.13.07-1.61-2.09.03.16v-1.86c-.93,5.16-.59,10.29-.33,15.49.12,2.4.19,4.82.02,7.22-.14,1.89-.65,4.46-1.42,6.18s-.5,3.76,1.26,4.79c1.5.87,4.01.48,4.79-1.26,2.78-6.2,2.58-12.74,2.23-19.38-.17-3.17-.33-6.36-.02-9.53.06-.62.11-.82.23-1.65.25-1.63-.13-3.2-1.64-4.12-1.13-.68-2.51-.7-3.66-.07-.93.51-1.49,1.43-2.12,2.25-7.71,9.84-15.95,20.06-26.21,26.94-5.57,3.74-11.65,6.6-17.76,9.33-6.62,2.96-13.25,5.88-19.88,8.81-13.29,5.89-26.58,11.78-39.86,17.67-6.59,2.92-13.18,5.83-19.76,8.76-5.26,2.35-10.5,4.78-15.39,7.85s-9.64,6.93-13.28,11.63c-3.85,4.97-6.38,10.75-7.98,16.81s-2.36,12.65-3.02,19.04-1.36,13.13-1.18,19.73,1.4,13.3,4.1,19.52c.45,1.03,1.16,2.71,1.21,3.66.01.25,0,.5,0,.75.02.91.2-.48-.05.37-.09.31-.17.62-.27.93-.14.38-.15.4-.01.05-.09.19-.19.39-.29.58-1.18,2.16-2.71,3.51-4.46,5.71-4.17,5.25-5.33,11.5-5.53,18.06-.14,4.74-.1,9.48-.26,14.21-.27,7.92-.66,15.84-1.11,23.76-.02.31-.04.61-.05.92-.03.87.22-1.37.02-.12-.31,1.86.49,3.77,2.44,4.31,1.81.5,3.82-.61,4.31-2.44,1.63-6.17,3.7-12.25,5.93-18.22.49-1.33,1-2.65,1.52-3.96.26-.66.53-1.33.8-1.99.14-.36.29-.71.44-1.06.07-.16.13-.32.2-.48.04-.1.33-.79.12-.3-.18.43.26-.61.33-.78.14-.32.28-.64.42-.96.32-.73.64-1.46.97-2.18.67-1.47,1.35-2.93,2.06-4.38,2.74-5.59,5.8-11.06,9.49-16.09.25-.34.51-.68.76-1.02.1-.14.41-.51-.08.11.16-.2.31-.4.47-.59.49-.61.99-1.22,1.51-1.81,1.02-1.17,2.08-2.3,3.21-3.37.55-.53,1.12-1.04,1.71-1.53.29-.24.58-.47.87-.71-.69.57.07-.05.35-.25,1.39-1,3.61-1.83,4.43-3.36s.52-3.03-.55-4.24c-.72-.82-1.79-1.08-2.78-1.42.63.22-.08-.05-.33-.18-.33-.17-.66-.37-.97-.57-.17-.11-.89-.7-.31-.2-.25-.22-.5-.42-.74-.65-.52-.49-1-1.02-1.45-1.58.38.47-.01-.03-.15-.23-.2-.29-.39-.58-.57-.87-.4-.65-.76-1.32-1.09-2-.09-.19-.17-.38-.26-.56-.02-.04-.22-.51-.07-.16s-.05-.12-.06-.16c-.08-.2-.15-.39-.23-.59-.28-.75-.53-1.51-.75-2.28-.44-1.51-.78-3.05-1.04-4.61-.05-.32-.1-.64-.15-.97-.11-.7-.02-.18,0-.03-.02-.16-.04-.32-.06-.48-.09-.79-.17-1.59-.22-2.38-.3-4.37-.3-8.77-.1-13.14.37-8,1.13-16.21,4.22-23.74,2.55-6.19,7.38-10.92,13.04-14.47,6.08-3.81,12.76-6.49,19.2-9.12,7.29-2.98,14.64-5.79,22-8.58,14.98-5.69,30-11.35,44.5-18.19,7.16-3.38,14.19-7.05,20.96-11.15,3.36-2.03,6.66-4.16,9.87-6.41s6.26-4.56,8.68-7.54c1.24-1.52,2.34-3.11,3.18-4.88s.47-3.78-1.26-4.79c-1.53-.89-3.97-.46-4.79,1.26Z"/>
            </g>
          </g>
        </g>
      </g>
    </g>
  </g>
</svg>