<?xml version="1.0" encoding="UTF-8"?>
<svg id="Layer_1" data-name="Layer 1" xmlns="http://www.w3.org/2000/svg" viewBox="0 0 1000 1000">
  <defs>
    <style>
      .cls-1, .cls-2, .cls-3, .cls-4 {
        stroke-miterlimit: 10;
      }

      .cls-1, .cls-2, .cls-5 {
        fill: none;
        stroke: #fefefe;
        stroke-width: 14px;
      }

      .cls-1, .cls-5 {
        stroke-linecap: round;
      }

      .cls-3 {
        stroke-width: 1.74px;
      }

      .cls-3, .cls-4 {
        stroke: #d4af37;
      }

      .cls-3, .cls-4, .cls-6 {
        fill: #d4af37;
      }

      .cls-4 {
        stroke-width: 2px;
      }

      .cls-5 {
        stroke-linejoin: round;
      }

      .cls-7 {
        fill: #036;
      }

      .cls-7, .cls-6, .cls-8 {
        stroke-width: 0px;
      }

      .cls-8 {
        fill: #fefefe;
      }
    </style>
  </defs>
  <g id="LogoStamp">
    <g id="Logo-Stamp">
      <g id="Logo-stamp">
        <g>
          <path class="cls-4" d="M359.07,271.04c1.58,2.21,2.68,4.53,3.3,6.95.61,2.42.73,4.81.37,7.16-.37,2.35-1.22,4.6-2.56,6.75-1.34,2.15-3.17,4.06-5.49,5.72-2.32,1.67-4.71,2.79-7.18,3.37-2.47.58-4.87.67-7.22.27-2.35-.4-4.57-1.28-6.67-2.63-2.1-1.36-3.94-3.14-5.53-5.35-1.58-2.21-2.68-4.52-3.29-6.94-.61-2.42-.72-4.8-.35-7.15.37-2.35,1.23-4.6,2.57-6.75,1.34-2.15,3.17-4.06,5.49-5.72,2.32-1.67,4.71-2.79,7.18-3.37,2.47-.58,4.87-.67,7.22-.25,2.35.41,4.57,1.29,6.66,2.64,2.09,1.35,3.93,3.12,5.5,5.32ZM352.67,275.63c-1.14-1.58-2.36-2.86-3.68-3.81-1.32-.96-2.69-1.6-4.11-1.92-1.42-.32-2.85-.31-4.31.03-1.45.34-2.89,1.01-4.3,2.03s-2.52,2.16-3.31,3.43c-.79,1.27-1.26,2.63-1.42,4.08-.15,1.45.01,2.95.5,4.5.49,1.56,1.3,3.13,2.43,4.71,1.15,1.6,2.38,2.88,3.7,3.83,1.32.96,2.68,1.59,4.1,1.91,1.41.31,2.85.3,4.31-.04,1.46-.34,2.9-1.02,4.32-2.04,1.42-1.02,2.52-2.16,3.3-3.43.78-1.27,1.26-2.62,1.41-4.06.16-1.44,0-2.94-.49-4.49-.49-1.56-1.3-3.13-2.45-4.73Z"/>
          <path class="cls-4" d="M407.41,227.27l4.65,38.69-6.35,2.84-16.89-19.12c-.25-.26-.51-.56-.79-.88-.28-.33-.56-.68-.84-1.06.09.46.17.91.23,1.33.06.42.1.82.13,1.18l2.91,25.37-6.37,2.85-25.7-29.28,5.9-2.64c.61-.27,1.18-.36,1.72-.26.54.1.98.35,1.31.76l13.83,16.8c.36.48.75.99,1.16,1.55.41.56.83,1.15,1.26,1.78-.17-.76-.32-1.49-.43-2.17-.12-.68-.2-1.33-.25-1.94l-2.43-21.9c-.05-.45.06-.92.33-1.43.27-.5.7-.89,1.3-1.16l2.06-.92c.61-.27,1.17-.35,1.68-.23.51.12.96.36,1.35.73l14.67,16.43c.41.42.82.88,1.24,1.4.42.52.84,1.07,1.28,1.66-.17-.71-.32-1.39-.47-2.02s-.27-1.23-.36-1.79l-3.29-21.51c-.07-.45.03-.93.31-1.43.28-.5.72-.88,1.31-1.15l5.53-2.47Z"/>
          <path class="cls-4" d="M450.45,248.77l1.5,6.08-21.44,5.31-8.94-36.13,7.47-1.85,7.44,30.05,13.97-3.46Z"/>
          <path class="cls-4" d="M487.15,213.62c2.49-.11,4.64.03,6.43.42,1.79.39,3.26.99,4.42,1.81,1.16.81,2.02,1.82,2.59,3.03.57,1.21.88,2.57.95,4.09.04.85-.05,1.68-.26,2.48-.21.8-.56,1.55-1.05,2.27-.49.71-1.13,1.37-1.93,1.97-.8.6-1.75,1.12-2.86,1.57,2.55.49,4.47,1.38,5.74,2.67,1.27,1.3,1.96,3.02,2.05,5.17.07,1.57-.17,3.05-.71,4.42-.55,1.38-1.38,2.59-2.5,3.63-1.12,1.04-2.51,1.88-4.19,2.51-1.68.63-3.61,1-5.82,1.09l-14.4.64-1.65-37.18,13.2-.59ZM481.9,219.7l.45,10.05,5.05-.22c1.08-.05,2.03-.18,2.86-.4.83-.22,1.52-.53,2.06-.95s.95-.95,1.23-1.61c.27-.65.39-1.43.35-2.34-.04-.92-.2-1.7-.48-2.34-.28-.64-.68-1.14-1.21-1.51-.53-.37-1.19-.63-1.99-.77-.79-.14-1.73-.19-2.81-.15l-5.51.25ZM489.61,244.86c1.23-.05,2.24-.25,3.02-.58.78-.33,1.4-.76,1.86-1.28.46-.52.76-1.1.92-1.75.16-.65.22-1.31.19-2-.03-.75-.17-1.42-.42-2.01-.25-.59-.63-1.08-1.14-1.48-.51-.4-1.17-.69-1.98-.88-.8-.19-1.79-.25-2.95-.2l-6.53.29.45,10.17,6.59-.29Z"/>
          <path class="cls-4" d="M542.98,253.66l-6.91-.72c-1.29-.13-2.18-.72-2.65-1.77l-5.86-12.09c-.24-.47-.53-.83-.86-1.07-.33-.24-.83-.4-1.51-.47l-2.6-.27-1.47,14.11-7.65-.8,3.85-37.02,11.63,1.21c2.59.27,4.77.77,6.55,1.49s3.21,1.63,4.28,2.7,1.82,2.3,2.22,3.67c.41,1.38.53,2.85.36,4.44-.13,1.22-.42,2.37-.89,3.43-.46,1.06-1.07,2.01-1.83,2.84-.76.83-1.66,1.55-2.7,2.14-1.04.6-2.21,1.04-3.49,1.34.46.32.89.7,1.28,1.13.39.43.72.92,1.01,1.48l7.24,14.21ZM527.07,232.3c1.24.13,2.33.08,3.26-.14.93-.22,1.72-.58,2.36-1.07.64-.49,1.13-1.1,1.48-1.82.35-.72.57-1.52.66-2.41.18-1.75-.26-3.17-1.32-4.26-1.06-1.09-2.79-1.76-5.17-2.01l-3.98-.41-1.22,11.71,3.93.41Z"/>
          <path class="cls-4" d="M558.11,257.31l-7.56-1.68,8.05-36.34,7.56,1.68-8.05,36.34Z"/>
          <path class="cls-4" d="M607.4,253.62c-.92,2.56-2.19,4.76-3.82,6.6-1.63,1.84-3.51,3.25-5.63,4.23-2.12.98-4.44,1.51-6.96,1.59-2.52.08-5.12-.36-7.81-1.33l-13.47-4.83,12.57-35.04,13.47,4.83c2.69.96,4.98,2.28,6.87,3.94,1.89,1.66,3.35,3.55,4.36,5.66,1.01,2.12,1.57,4.4,1.66,6.85.09,2.45-.32,4.95-1.23,7.49ZM599.97,250.96c.66-1.83,1.01-3.57,1.05-5.21.04-1.64-.21-3.13-.74-4.46-.54-1.34-1.36-2.51-2.46-3.52-1.1-1.01-2.47-1.81-4.11-2.4l-6.18-2.22-8.5,23.69,6.18,2.22c1.64.59,3.21.85,4.7.77,1.49-.07,2.87-.46,4.14-1.16,1.27-.7,2.41-1.69,3.41-2.99,1.01-1.29,1.84-2.86,2.51-4.71Z"/>
          <path class="cls-4" d="M634.62,267.64l11.14,6.26-7.53,13.39c-2.33.28-4.59.17-6.78-.32-2.19-.49-4.32-1.33-6.41-2.5-2.67-1.5-4.85-3.27-6.55-5.31-1.7-2.04-2.9-4.23-3.6-6.57-.71-2.34-.91-4.76-.6-7.25.3-2.5,1.13-4.95,2.48-7.34,1.37-2.43,3.02-4.43,4.96-6.01,1.94-1.58,4.05-2.68,6.35-3.31,2.3-.63,4.72-.77,7.28-.41,2.55.36,5.13,1.27,7.72,2.72,1.34.75,2.53,1.57,3.57,2.44,1.04.87,1.95,1.77,2.72,2.71.77.93,1.42,1.89,1.94,2.87.53.98.95,1.98,1.27,2.98l-3.63,1.9c-.57.31-1.12.38-1.65.22-.54-.16-.99-.58-1.36-1.24-.35-.63-.71-1.22-1.08-1.77-.37-.55-.79-1.08-1.26-1.61-.47-.52-1.02-1.03-1.65-1.52-.63-.49-1.39-.99-2.28-1.49-1.51-.85-3.02-1.35-4.53-1.52-1.52-.17-2.97-.01-4.36.46-1.39.47-2.7,1.25-3.91,2.33-1.22,1.08-2.29,2.45-3.22,4.1-1.01,1.79-1.65,3.53-1.94,5.22-.29,1.69-.24,3.28.14,4.77.38,1.49,1.07,2.85,2.08,4.08,1,1.23,2.3,2.29,3.88,3.18,1.07.6,2.09,1.03,3.06,1.29.96.26,1.95.43,2.97.51l3.07-5.46-3.67-2.06c-.43-.24-.71-.55-.82-.92-.12-.37-.07-.73.13-1.09l2.1-3.73Z"/>
          <path class="cls-4" d="M669.94,276.49l-5.87,7.56,9.8,7.62-3.57,4.6-9.8-7.62-6,7.72,12.6,9.79-3.7,4.76-18.72-14.54,22.83-29.39,18.72,14.54-3.7,4.76-12.6-9.79Z"/>
        </g>
        <g>
          <path class="cls-3" d="M406.09,745.96l13.26,5.95-7.78,17.32c-2.46-.26-4.71-.68-6.73-1.25-2.02-.57-4.03-1.3-6.01-2.19-5.04-2.26-8.23-5.47-9.56-9.63-1.33-4.16-.75-9.01,1.74-14.55,2.42-5.39,5.85-8.91,10.29-10.54,4.44-1.63,9.39-1.22,14.86,1.24,3.43,1.54,6.43,3.71,9,6.51l-4.9,4.61c-1.89-2.31-4.15-4.06-6.79-5.25-3.06-1.37-5.98-1.45-8.74-.22-2.77,1.23-4.93,3.58-6.49,7.05-1.63,3.63-2.13,6.73-1.5,9.31.63,2.58,2.36,4.5,5.19,5.78,1.48.66,3.05,1.19,4.71,1.56l3.13-6.97-6.33-2.84,2.65-5.9Z"/>
          <path class="cls-3" d="M427.72,776.15l9.16-35.46,7.52,1.94-7.56,29.25,14.38,3.72-1.6,6.21-21.9-5.66Z"/>
          <path class="cls-3" d="M499.4,768.84c-.46,6.04-2.32,10.58-5.56,13.59-3.25,3.02-7.67,4.31-13.26,3.88-5.6-.43-9.77-2.38-12.51-5.86-2.75-3.48-3.89-8.25-3.42-14.33.47-6.08,2.32-10.6,5.58-13.58,3.25-2.97,7.68-4.25,13.29-3.82,5.61.43,9.78,2.38,12.5,5.83,2.72,3.46,3.85,8.22,3.39,14.28ZM472.75,766.8c-.31,4.08.23,7.21,1.62,9.39s3.63,3.39,6.71,3.63c6.18.47,9.58-3.39,10.21-11.6.63-8.23-2.13-12.57-8.27-13.05-3.08-.24-5.48.62-7.21,2.58-1.72,1.95-2.74,4.97-3.06,9.05Z"/>
          <path class="cls-3" d="M510.95,750.03l11.33-1.24c5.16-.56,8.99-.24,11.48.97,2.49,1.21,3.91,3.42,4.27,6.63.24,2.17-.08,4.02-.95,5.52s-2.13,2.49-3.8,2.96l.03.25c2.36.26,4.13,1.04,5.31,2.34,1.18,1.3,1.89,3.12,2.15,5.46.36,3.32-.55,6.04-2.75,8.16-2.2,2.12-5.35,3.41-9.47,3.86l-13.62,1.49-3.98-36.41ZM520.24,763.6l4.48-.49c2.09-.23,3.57-.72,4.44-1.47.87-.75,1.22-1.87,1.06-3.37-.15-1.39-.77-2.34-1.86-2.83s-2.74-.62-4.94-.38l-4.06.44.88,8.09ZM520.91,769.73l1.04,9.49,5.03-.55c2.12-.23,3.65-.81,4.57-1.74.92-.92,1.29-2.22,1.11-3.9-.33-3.02-2.65-4.3-6.97-3.82l-4.78.52Z"/>
          <path class="cls-3" d="M579.52,773.83l-5-7.62-12.81,3.76-.09,9.11-8.03,2.36,2.04-38.93,9.11-2.68,22.81,31.63-8.03,2.36ZM570.9,760.48c-4.58-6.89-7.17-10.78-7.75-11.69-.59-.91-1.03-1.63-1.33-2.17.07,2.21.05,7.72-.07,16.55l9.16-2.69Z"/>
          <path class="cls-3" d="M599.92,766l-15.96-32.96,6.99-3.38,13.17,27.19,13.37-6.47,2.79,5.77-20.36,9.86Z"/>
        </g>
        <circle class="cls-3" cx="249.5" cy="507.56" r="11"/>
        <circle class="cls-3" cx="750.5" cy="507.56" r="11"/>
      </g>
    </g>
    <g id="Submark">
      <g id="stroke">
        <path class="cls-7" d="M505.39,684.07c-69.72,0-132.64-41.35-160.31-105.35-9.46-21.9-14.25-45.19-14.25-69.22s4.39-45.28,13.05-66.33c13-31.62,34.86-58.57,63.2-77.92,29.03-19.82,63.03-30.3,98.32-30.3,75.45,0,142.05,48.08,165.73,119.65,5.85,17.6,8.82,36.07,8.82,54.89,0,23.44-4.57,46.19-13.59,67.62-27.29,64.96-90.47,106.94-160.96,106.94Z"/>
        <path class="cls-8" d="M505.39,340.05c74.98,0,138.58,48.69,160.89,116.16,5.57,16.75,8.56,34.67,8.56,53.3,0,23.28-4.69,45.45-13.19,65.65-25.62,61-85.95,103.83-156.26,103.83s-129.62-42.1-155.64-102.28c-8.9-20.6-13.84-43.31-13.84-67.19s4.5-44.55,12.66-64.39c25.35-61.65,86.01-105.06,156.81-105.06M505.39,329.87c-36.31,0-71.31,10.78-101.19,31.19-29.17,19.91-51.66,47.64-65.04,80.19-8.91,21.66-13.43,44.63-13.43,68.26s4.94,48.69,14.67,71.23c28.48,65.87,93.24,108.42,164.99,108.42,36.06,0,70.85-10.65,100.6-30.79,29.03-19.66,51.52-47.07,65.05-79.28,9.28-22.05,13.98-45.47,13.98-69.59,0-19.37-3.06-38.38-9.08-56.51-5.85-17.68-14.41-34.31-25.45-49.41-10.9-14.92-23.99-28.03-38.88-38.97-30.96-22.74-67.69-34.75-106.22-34.75h0Z"/>
      </g>
      <g id="bRIDGE">
        <g>
          <line class="cls-2" x1="647.37" y1="573.96" x2="647.37" y2="492.52"/>
          <line class="cls-2" x1="620.04" y1="569.8" x2="620.04" y2="521.93"/>
          <line class="cls-2" x1="389.92" y1="571.06" x2="389.92" y2="513.63"/>
          <line class="cls-2" x1="362.57" y1="575.61" x2="362.57" y2="478.86"/>
        </g>
        <g>
          <path class="cls-1" d="M509.92,563.05c55.7,0,108.1,5.15,153.92,14.2.1.02.16.13.12.23"/>
          <path class="cls-1" d="M348.21,579.07c-.04-.1.01-.21.12-.23,47.57-10.03,102.75-15.79,161.59-15.79"/>
        </g>
        <g>
          <path class="cls-5" d="M509.53,563.05c-75.91,0-140.3-49.83-162.95-118.92-.01-.04-.01-.08,0-.12"/>
          <path class="cls-5" d="M668.29,455.38s.01.08,0,.12c-25.69,63.12-87.11,107.56-158.77,107.56"/>
        </g>
      </g>
      <g id="background">
        <path class="cls-8" d="M505.39,340.05c74.98,0,138.58,48.69,160.89,116.16,5.57,16.75,8.56,34.67,8.56,53.3,0,23.28-4.69,45.45-13.19,65.65-25.62,61-85.95,103.83-156.26,103.83s-129.62-42.1-155.64-102.28c-8.9-20.6-13.84-43.31-13.84-67.19s4.5-44.55,12.66-64.39c25.35-61.65,86.01-105.06,156.81-105.06M505.39,326.05c-37.09,0-72.82,11.01-103.34,31.85-29.78,20.33-52.75,48.65-66.42,81.89-9.1,22.12-13.72,45.58-13.72,69.71s5.04,49.72,14.98,72.75c29.08,67.27,95.22,110.73,168.49,110.73,36.83,0,72.36-10.87,102.74-31.45,29.64-20.07,52.61-48.07,66.43-80.96,9.47-22.52,14.28-46.43,14.28-71.07,0-19.78-3.12-39.2-9.28-57.71-5.97-18.05-14.72-35.03-25.99-50.46-11.13-15.23-24.49-28.62-39.7-39.79-31.62-23.22-69.13-35.49-108.48-35.49h0Z"/>
      </g>
      <g id="eye-r">
        <path class="cls-6" d="M578.66,487.19c-18.91,0-34.29-13.45-34.29-29.98,0-13.26,9.73-24.79,24.21-28.67l44.14-15.99h.65c1.96,0,3.55,1.58,3.55,3.54v.2s-.54,9.34-.54,9.34c-.2,4.03-2.44,7.66-5.98,9.68l-5.19,2.97c4.96,5.29,7.73,11.98,7.73,18.94,0,16.53-15.38,29.98-34.29,29.98Z"/>
        <path class="cls-8" d="M613.38,415.93c.09,0,.16.06.16.15l-.54,9.34c-.14,2.87-1.76,5.5-4.27,6.93l-9.23,5.28c6.18,4.81,10.06,11.78,10.06,19.58,0,14.69-13.83,26.58-30.89,26.58s-30.89-11.89-30.89-26.58c0-11.93,9.12-22.02,21.7-25.4h.04l43.82-15.88s.04,0,.06,0M613.38,409.14c-.76,0-1.5.12-2.22.36l-.08.03-.07.03-43.45,15.74c-15.9,4.33-26.58,17.14-26.58,31.91,0,18.4,16.9,33.37,37.68,33.37s37.68-14.97,37.68-33.37c0-6.46-2.1-12.69-5.94-17.99l1.7-.97c4.54-2.59,7.41-7.25,7.68-12.46l.54-9.32v-.2s.01-.2.01-.2c0-3.83-3.12-6.94-6.95-6.94h0Z"/>
      </g>
      <g id="eye-l">
        <path class="cls-6" d="M432.7,487.19c-18.91,0-34.29-13.45-34.29-29.98,0-6.96,2.77-13.66,7.73-18.94l-5.19-2.97c-3.54-2.02-5.78-5.65-5.98-9.71l-.54-9.41v-.1c0-1.96,1.59-3.55,3.55-3.55h.56l.58.19,43.66,15.82c14.48,3.89,24.21,15.41,24.21,28.67,0,16.53-15.38,29.98-34.29,29.98Z"/>
        <path class="cls-8" d="M397.98,415.93s.04,0,.06,0l43.82,15.88h.04c12.57,3.38,21.7,13.47,21.7,25.4,0,14.69-13.83,26.58-30.89,26.58s-30.89-11.89-30.89-26.58c0-7.8,3.88-14.76,10.06-19.58l-9.23-5.28c-2.52-1.44-4.13-4.06-4.27-6.93l-.54-9.34c0-.09.07-.15.16-.15M397.98,409.14c-3.83,0-6.95,3.11-6.95,6.94v.39s.55,9.31.55,9.31c.27,5.21,3.14,9.87,7.69,12.46l1.7.97c-3.84,5.3-5.94,11.54-5.94,17.99,0,18.4,16.9,33.37,37.68,33.37s37.68-14.97,37.68-33.37c0-14.77-10.67-27.58-26.58-31.91l-43.45-15.74-.07-.03-.08-.03c-.72-.24-1.46-.36-2.22-.36h0Z"/>
      </g>
      <g>
        <g id="pen">
          <g>
            <g>
              <path class="cls-8" d="M505.32,542.34s-11.91-45.46-31.28-55.78c-.13-.07-.11-.26.03-.3,7.43-2.09,10.22-11.87,10.69-20.07.38-6.76.12-13.57-.78-20.28-.78-5.77-2.07-11.59-5.06-16.49-4.97-8.13-13.81-12.52-22.31-16.15-30.35-12.97-62.73-21.77-90.11-40.71-3.89-2.69-7.81-5.76-9.85-10.16-3.65-7.9-.21-17.46-1.84-26.07-.03-.17.16-.28.27-.14,7.22,9.24,14.62,18.57,24.11,25.11,5.79,3.99,12.21,6.84,18.59,9.67,22.05,9.78,44.11,19.55,66.16,29.32,10.1,4.48,20.75,9.41,26.96,18.92,5.43,8.31,6.6,18.82,7.61,28.85,1.05,10.37,2.01,21.3-2,30.83-.79,1.87-1.77,3.74-1.77,5.78.01,4.18,3.96,6.93,6.24,10.36,2.99,4.5,3.11,10.38,3.11,15.87,0,10.36,1.13,30.93,1.13,30.93l.09.5Z"/>
              <path class="cls-8" d="M515.45,539.55c-1.44-5.51-3.29-10.94-5.28-16.27-4.03-10.81-8.7-21.81-15.56-31.18-4.17-5.7-8.95-11.2-15.26-14.6l3.77,3.77-.08-.16-1.64,12.72.12-.14-4.63,2.7c5.89-1.73,10.77-5.95,13.64-11.35s3.89-10.57,4.55-16.34c.61-5.38.49-10.92.1-16.31-.45-6.19-1.13-12.57-2.95-18.52s-5.02-11.93-9.57-16.63c-3.69-3.81-8.24-6.91-12.92-9.38-4.89-2.58-10.06-4.64-15.16-6.74-4.82-1.98-9.67-3.88-14.53-5.74-10.91-4.19-21.88-8.23-32.65-12.76l2.51,1.06c-11.18-4.72-22.16-9.99-32.44-16.45-2.84-1.79-5.66-3.63-8.33-5.66l2.13,1.64c-1.94-1.5-3.75-3.14-5.25-5.08l1.64,2.13c-.88-1.18-1.61-2.42-2.18-3.77l1.06,2.51c-.59-1.49-.98-3.03-1.21-4.62l.38,2.79c-.46-3.5-.22-7.03-.03-10.55.23-4.43.1-8.67-.69-13.05v5.58l.03-.14-4.83,6.28.11-.06h-10.6l.12.06-2.13-1.64c5.77,7.39,11.62,14.83,18.76,20.97,4.1,3.53,8.49,6.71,13.23,9.32,4.28,2.36,8.75,4.33,13.21,6.3,19.42,8.61,38.85,17.22,58.27,25.82,9,3.99,18.52,7.6,26.39,13.66l-2.13-1.64c2.44,1.91,4.67,4.05,6.58,6.48l-1.64-2.13c1.78,2.32,3.22,4.84,4.37,7.53l-1.06-2.51c2.1,5.03,3.16,10.39,3.89,15.78l-.38-2.79c.63,4.75,1.11,9.53,1.47,14.31s.49,9.85-.13,14.74l.38-2.79c-.44,3.24-1.22,6.41-2.48,9.44l1.06-2.51c-1.01,2.36-2.26,4.69-2.74,7.22-.59,3.12-.67,6.42.52,9.42.54,1.36,1.07,2.77,1.87,4.01.85,1.33,1.87,2.56,2.86,3.78s1.98,2.28,2.91,3.47l-1.64-2.13c.84,1.11,1.53,2.29,2.07,3.57l-1.06-2.51c.7,1.76,1.12,3.59,1.37,5.46l-.38-2.79c.44,3.48.34,6.98.39,10.48.04,3,.13,6,.24,9,.19,5.49.44,10.97.73,16.45.11,2.08.25,4.02.61,6.1.43,2.45,2.76,5.07,4.83,6.28,2.25,1.32,5.57,1.88,8.09,1.06s4.99-2.4,6.28-4.83l1.06-2.51c.5-1.86.5-3.72,0-5.58l-.09-.5.38,2.79c-.27-4.92-.5-9.83-.7-14.75-.16-3.89-.3-7.79-.38-11.69-.04-1.72-.05-3.44-.06-5.17-.01-3.35-.27-6.6-.74-9.93s-1.58-6.73-3.29-9.73-4.08-5.26-6.13-7.86l1.64,2.13c-.65-.85-1.23-1.72-1.67-2.69l1.06,2.51c-.26-.62-.44-1.23-.54-1.9l.38,2.79c-.08-.66-.06-1.29.02-1.94l-.38,2.79c.19-1.07.55-2.07.97-3.06l-1.06,2.51c1.57-3.65,3.09-7.19,3.84-11.09s1.16-7.78,1.22-11.69c.09-6.28-.62-12.58-1.31-18.82-.74-6.72-1.56-13.6-3.81-20.02-2.43-6.93-6.08-13.25-11.43-18.34-9.15-8.72-21.05-13.29-32.41-18.33-12.91-5.72-25.81-11.44-38.72-17.16-6.45-2.86-12.9-5.71-19.34-8.57-5.87-2.6-11.77-5.24-17.17-8.76-1.32-.86-2.59-1.77-3.84-2.73l2.13,1.64c-4.97-3.86-9.35-8.4-13.43-13.18-2.04-2.4-4.01-4.85-5.96-7.32-.49-.62-.97-1.24-1.46-1.86-1.72-2.19-4.06-3.44-6.82-3.81-5.19-.7-10.19,2.46-11.63,7.58-.7,2.47-.14,4.69.19,7.11l-.38-2.79c.55,4.5,0,9.01-.12,13.51-.16,6.01.73,12.03,3.62,17.37s7.3,8.84,11.94,12.17c3.66,2.62,7.48,5.03,11.36,7.31,16.43,9.63,34.3,16.57,52.06,23.33,9.62,3.66,19.26,7.28,28.75,11.27l-2.51-1.06c5.83,2.46,11.68,5.06,16.73,8.94l-2.13-1.64c2.08,1.63,3.98,3.46,5.61,5.54l-1.64-2.13c1.46,1.92,2.64,3.99,3.58,6.21l-1.06-2.51c1.67,4.04,2.53,8.34,3.12,12.66l-.38-2.79c1.02,7.75,1.47,15.85.47,23.63l.38-2.79c-.4,2.91-1.07,5.77-2.2,8.48l1.06-2.51c-.63,1.47-1.39,2.86-2.36,4.14l1.64-2.13c-.67.86-1.42,1.64-2.28,2.31l2.13-1.64c-.73.55-1.5,1.01-2.34,1.37l2.51-1.06c-2.14.87-4.32,1.41-5.95,3.25s-2.57,3.65-2.89,6.03.1,4.53,1.25,6.7c1.59,3.01,4.77,4.23,7.32,6.19l-2.13-1.64c2.69,2.1,5,4.63,7.09,7.32l-1.64-2.13c5.31,6.9,9.24,14.81,12.61,22.8l-1.06-2.51c3,7.13,5.58,14.45,7.69,21.89.14.5.28,1,.41,1.5.66,2.54,2.57,4.96,4.83,6.28s5.57,1.88,8.09,1.06,4.99-2.4,6.28-4.83,1.79-5.29,1.06-8.09Z"/>
            </g>
            <g>
              <path class="cls-8" d="M654.07,362.41c-2.04,4.41-5.96,7.48-9.85,10.16-27.39,18.94-59.76,27.73-90.11,40.71-8.5,3.63-17.35,8.03-22.32,16.15-2.99,4.9-4.28,10.72-5.06,16.49-.9,6.71-1.16,13.52-.78,20.28.47,8.2,3.25,17.99,10.69,20.07.14.04.16.22.03.3-19.38,10.32-31.36,55.78-31.36,55.78l.08-.5s1.22-20.57,1.22-30.93c0-5.49.12-11.38,3.11-15.87,2.28-3.42,6.23-6.18,6.24-10.36,0-2.04-.98-3.91-1.77-5.78-4.02-9.53-3.05-20.46-2-30.83,1.01-10.04,2.18-20.55,7.61-28.85,6.21-9.51,16.86-14.45,26.96-18.92,22.05-9.78,44.11-19.55,66.16-29.32,6.38-2.83,12.8-5.68,18.59-9.67,9.49-6.55,16.89-15.88,24.11-25.11.11-.14.3-.03.27.14-1.62,8.61,1.81,18.17-1.83,26.07Z"/>
              <path class="cls-8" d="M645.01,357.11c-.53,1.11-1.16,2.15-1.9,3.14l1.64-2.13c-1.5,1.94-3.31,3.58-5.25,5.08l2.13-1.64c-9.55,7.27-20.45,12.95-31.32,17.96-3.13,1.44-6.28,2.82-9.45,4.16l2.51-1.06c-9.6,4.04-19.36,7.69-29.09,11.4-10.2,3.89-20.53,7.71-30.39,12.41-4.87,2.32-9.36,5.16-13.48,8.66-2.32,1.97-4.19,4.25-6.03,6.67-2.03,2.68-3.37,5.61-4.64,8.72-2.29,5.61-3.09,11.68-3.76,17.67-.65,5.79-.83,11.64-.54,17.46.16,3.16.54,6.33,1.17,9.42s1.69,5.87,2.97,8.69c2.73,6.03,7.91,10.82,14.29,12.69l-4.63-2.7.12.14c-.55-4.24-1.09-8.48-1.64-12.72l-.08.16,3.77-3.77c-4.91,2.64-9.14,6.69-12.56,11.05-3.93,5.02-7.31,10.27-10.19,15.95-4.74,9.34-8.57,19.21-11.71,29.19-.61,1.94-1.21,3.88-1.72,5.85l20.25,5.58c.67-4.05.74-8.16.94-12.25.3-6.11.58-12.22.7-18.34.07-3.81-.07-7.64.4-11.44l-.38,2.79c.26-1.87.67-3.7,1.37-5.46l-1.06,2.51c.54-1.28,1.23-2.46,2.07-3.57l-1.64,2.13c.93-1.19,1.96-2.3,2.91-3.47s2.01-2.45,2.86-3.78c.8-1.24,1.34-2.65,1.87-4.01,1.19-3.01,1.11-6.3.52-9.42-.48-2.54-1.74-4.87-2.74-7.22l1.06,2.51c-1.26-3.03-2.04-6.2-2.48-9.44l.38,2.79c-.62-4.89-.5-9.83-.13-14.74s.84-9.56,1.47-14.31l-.38,2.79c.73-5.38,1.79-10.75,3.89-15.78l-1.06,2.51c1.15-2.69,2.59-5.21,4.37-7.53l-1.64,2.13c1.91-2.44,4.14-4.58,6.58-6.48l-2.13,1.64c6.91-5.32,15.09-8.65,23-12.16,9.65-4.28,19.3-8.55,28.95-12.83,9.71-4.3,19.42-8.61,29.13-12.91,4.51-2,9.05-3.94,13.47-6.15,5.04-2.52,9.64-5.54,14.07-9.02,8.26-6.49,14.81-14.78,21.24-23l-2.13,1.64.12-.06h-10.6l.11.06-4.83-6.28.03.14v-5.58c-.79,4.39-.92,8.63-.69,13.05.19,3.52.43,7.04-.03,10.55l.38-2.79c-.23,1.59-.61,3.13-1.21,4.62l1.06-2.51c-.09.21-.18.43-.28.64-.77,1.21-1.18,2.51-1.25,3.9-.31,1.4-.25,2.79.19,4.19.67,2.44,2.55,5.08,4.83,6.28,2.44,1.29,5.39,1.93,8.09,1.06,2.44-.79,5.18-2.38,6.28-4.83.74-1.66,1.51-3.33,2-5.09s.69-3.64.92-5.47c.27-2.14.31-4.29.23-6.44-.15-4.33-.63-8.66-.1-12.98l-.38,2.79c.33-2.41.88-4.64.19-7.11-1.31-4.65-5.52-7.56-10.24-7.77-3.17-.14-6.31,1.55-8.22,4-.45.57-.9,1.14-1.34,1.71-1.98,2.52-3.99,5.03-6.08,7.47-4.08,4.78-8.45,9.32-13.43,13.18l2.13-1.64c-5.08,3.9-10.76,6.84-16.57,9.5-6.27,2.86-12.6,5.6-18.9,8.4-12.91,5.72-25.81,11.44-38.72,17.16-6,2.66-12.04,5.24-17.98,8.01-2.54,1.18-5.05,2.43-7.49,3.82-3.07,1.75-5.89,3.79-8.68,5.97-2.18,1.71-4.21,3.59-5.98,5.73-2.31,2.8-4.44,5.72-5.99,9.01-2.92,6.19-4.59,12.58-5.53,19.33-.96,6.95-1.79,13.97-2.11,20.97-.15,3.19-.14,6.4.17,9.58.37,3.86.92,7.78,2.14,11.48.74,2.24,1.74,4.38,2.67,6.54l-1.06-2.51c.42,1,.78,2,.97,3.06l-.38-2.79c.09.65.1,1.28.02,1.94l.38-2.79c-.11.66-.29,1.28-.54,1.9l1.06-2.51c-.44.97-1.02,1.85-1.67,2.69l1.64-2.13c-1.86,2.36-3.94,4.51-5.61,7.02s-2.94,5.81-3.54,8.91c-.99,5.13-.95,10.22-1.04,15.4-.13,7.43-.49,14.86-.89,22.27-.1,1.84-.2,3.67-.3,5.51l.38-2.79-.08.5c-.44,1.4-.5,2.79-.19,4.19.06,1.4.48,2.7,1.25,3.9,1.27,2.18,3.77,4.26,6.28,4.83,2.69.61,5.7.48,8.09-1.06s4.12-3.59,4.83-6.28c1.37-5.18,3.1-10.28,4.95-15.31.98-2.65,2.01-5.27,3.1-7.87l-1.06,2.51c3.41-8.06,7.37-16.05,12.74-23.01l-1.64,2.13c2.09-2.69,4.41-5.22,7.1-7.32l-2.13,1.64c2.56-1.97,5.72-3.17,7.32-6.19,1.12-2.12,1.57-4.31,1.25-6.7s-1.28-4.2-2.89-6.03-3.81-2.38-5.95-3.25l2.51,1.06c-.84-.37-1.61-.82-2.34-1.37l2.13,1.64c-.86-.68-1.61-1.45-2.28-2.31l1.64,2.13c-.97-1.28-1.73-2.67-2.36-4.14l1.06,2.51c-1.13-2.71-1.8-5.58-2.2-8.48l.38,2.79c-1.01-7.77-.56-15.88.47-23.63l-.38,2.79c.59-4.32,1.45-8.61,3.12-12.66l-1.06,2.51c.94-2.22,2.12-4.3,3.58-6.21l-1.64,2.13c1.63-2.08,3.53-3.91,5.61-5.54l-2.13,1.64c5.05-3.88,10.9-6.48,16.73-8.94l-2.51,1.06c13.68-5.76,27.67-10.72,41.46-16.19,14.47-5.74,28.85-11.95,42.15-20.09,3.43-2.1,6.83-4.28,10.03-6.72,4.34-3.3,8.53-6.95,10.92-11.98,1.23-2.59,1.85-5.23,1.06-8.09-.67-2.44-2.55-5.08-4.83-6.28-2.44-1.29-5.39-1.93-8.09-1.06-2.48.8-5.12,2.39-6.28,4.83Z"/>
            </g>
          </g>
        </g>
        <g id="pen-2" data-name="pen">
          <g>
            <g>
              <path class="cls-6" d="M505.36,542.34s-11.91-45.46-31.28-55.78c-.13-.07-.11-.26.03-.3,7.43-2.09,10.22-11.87,10.69-20.07.38-6.76.12-13.57-.78-20.28-.78-5.77-2.07-11.59-5.06-16.49-4.97-8.13-13.81-12.52-22.31-16.15-30.35-12.97-62.73-21.77-90.11-40.71-3.89-2.69-7.81-5.76-9.85-10.16-3.65-7.9-.21-17.46-1.84-26.07-.03-.17.16-.28.27-.14,7.22,9.24,14.62,18.57,24.11,25.11,5.79,3.99,12.21,6.84,18.59,9.67,22.05,9.78,44.11,19.55,66.16,29.32,10.1,4.48,20.75,9.41,26.96,18.92,5.43,8.31,6.6,18.82,7.61,28.85,1.05,10.37,2.01,21.3-2,30.83-.79,1.87-1.77,3.74-1.77,5.78.01,4.18,3.96,6.93,6.24,10.36,2.99,4.5,3.11,10.38,3.11,15.87,0,10.36,1.13,30.93,1.13,30.93l.09.5Z"/>
              <path class="cls-6" d="M507.8,541.67c-1.44-5.51-3.29-10.94-5.28-16.27-3.8-10.19-8.3-20.45-14.75-29.27-3.36-4.59-7.33-9.01-12.4-11.74l.91.91-.08-.16-.4,3.06.12-.14-1.12.65c6.34-1.86,9.72-7.98,11.27-14,.84-3.24,1.2-6.59,1.34-9.93.19-4.47.1-8.95-.26-13.41-.66-8.1-1.84-16.8-6.34-23.77-3.97-6.13-10.06-10.38-16.5-13.6-6.87-3.43-14.12-6.19-21.27-8.98s-14.84-5.65-22.24-8.51c-14.72-5.68-29.36-11.76-42.99-19.77-3.4-2-6.74-4.11-9.98-6.36-2.8-1.94-5.69-4.08-7.62-6.93-4.34-6.42-2.27-14.63-2.35-21.86-.02-1.99-.2-3.97-.56-5.93v1.34l.03-.14-1.16,1.51.11-.06h-2.55c-.48-.24.26.5.28.52.15.19.3.38.45.57.41.52.82,1.05,1.23,1.57.83,1.05,1.66,2.09,2.49,3.13,1.6,1.97,3.22,3.93,4.91,5.83,3.36,3.81,6.95,7.44,10.92,10.61,8.43,6.73,18.39,10.78,28.17,15.12,20.95,9.29,41.96,18.46,62.86,27.87,8.05,3.63,16.28,7.69,22,14.61,6.07,7.34,7.63,17.28,8.63,26.46,1.08,9.9,2.55,20.48-.33,30.21-.72,2.43-1.99,4.66-2.67,7.09s-.39,5.02.79,7.34c.99,1.95,2.55,3.58,3.96,5.23,1.31,1.53,2.42,3.2,3.06,5.24,1.32,4.18,1.11,8.61,1.16,12.95.04,3.63.15,7.26.29,10.88.22,5.88.49,11.76.8,17.64.03.62.11,1.22.21,1.84.24,1.35,1.88,2.1,3.11,1.77,1.42-.39,2-1.76,1.77-3.11-.17-.96,0,.44,0,.08,0-.19-.02-.38-.03-.57-.04-.77-.08-1.54-.12-2.3-.14-2.7-.27-5.4-.39-8.1-.29-6.48-.57-12.96-.59-19.44-.01-4.27-.01-8.69-1.28-12.81-.63-2.06-1.57-4-2.87-5.72-1.1-1.45-2.56-2.98-3.55-4.29-.26-.35-.51-.71-.74-1.08-.12-.2-.24-.41-.35-.62-.03-.06-.29-.58-.16-.29-.39-.91-.49-1.43-.38-2.38.24-2.05,1.49-4.01,2.19-5.93,1.63-4.42,2.28-9.18,2.44-13.86s-.21-9.4-.66-14.08-.88-9.02-1.61-13.49c-1.41-8.68-4.27-17.11-10.35-23.67-5.6-6.04-13.04-9.98-20.44-13.36-9.07-4.15-18.23-8.1-27.34-12.14-9.4-4.17-18.8-8.33-28.19-12.5-4.76-2.11-9.52-4.22-14.29-6.33-4.33-1.92-8.68-3.85-12.83-6.14-7.96-4.38-14.51-10.42-20.43-17.25-3.01-3.48-5.7-7.23-8.69-10.71-1.04-1.21-2.84-1.49-4.04-.29s-.62,2.62-.47,4.02c.24,2.24.19,4.5.09,6.75-.2,4.51-.61,9.02.19,13.5s3.11,8.29,6.35,11.37,7.12,5.55,10.88,7.94,7.76,4.71,11.76,6.84c16.21,8.65,33.5,15.03,50.64,21.56,8.35,3.18,16.72,6.35,24.89,9.96,7.02,3.1,14.39,6.9,18.76,13.41,2.46,3.66,3.79,7.86,4.65,12.16.95,4.78,1.39,9.67,1.56,14.53.09,2.57.09,5.15,0,7.73-.04,1.04-.09,2.09-.17,3.13-.03.37-.07.74-.1,1.12-.07.63-.08.73-.14,1.16-.52,3.44-1.4,6.78-3.04,9.59-.22.38-.45.75-.7,1.1-.1.14-.2.28-.3.42.21-.28-.05.05-.08.09-.51.61-1.06,1.18-1.67,1.68-.36.29.47-.31-.17.13-.14.09-.27.19-.41.27-.31.2-.64.37-.97.55-.09.05-.58.25-.19.1-.16.06-.32.12-.48.17-.65.22-1.25.4-1.72.94-.78.88-.95,2.02-.4,3.06.62,1.17,2.31,1.79,3.37,2.53.21.15.42.3.62.45.1.08.21.15.31.23-.43-.33-.14-.11-.05-.04.46.38.92.76,1.36,1.15,1.86,1.67,3.53,3.53,5.08,5.49.36.46-.07-.1.28.37.2.27.4.54.6.81.4.55.79,1.1,1.18,1.66.76,1.11,1.49,2.25,2.2,3.4,1.44,2.35,2.77,4.78,4.02,7.24s2.41,4.94,3.5,7.46c.14.32.28.63.41.95.06.15.38.9.19.45.26.62.52,1.25.78,1.88.49,1.21.97,2.43,1.44,3.65,1.5,3.93,2.88,7.91,4.13,11.93.59,1.89,1.17,3.8,1.67,5.72.82,3.14,5.7,1.81,4.88-1.34Z"/>
            </g>
            <g>
              <path class="cls-6" d="M654.11,362.41c-2.04,4.41-5.96,7.48-9.85,10.16-27.39,18.94-59.76,27.73-90.11,40.71-8.5,3.63-17.35,8.03-22.32,16.15-2.99,4.9-4.28,10.72-5.06,16.49-.9,6.71-1.16,13.52-.78,20.28.47,8.2,3.25,17.99,10.69,20.07.14.04.16.22.03.3-19.38,10.32-31.36,55.78-31.36,55.78l.08-.5s1.22-20.57,1.22-30.93c0-5.49.12-11.38,3.11-15.87,2.28-3.42,6.23-6.18,6.24-10.36,0-2.04-.98-3.91-1.77-5.78-4.02-9.53-3.05-20.46-2-30.83,1.01-10.04,2.18-20.55,7.61-28.85,6.21-9.51,16.86-14.45,26.96-18.92,22.05-9.78,44.11-19.55,66.16-29.32,6.38-2.83,12.8-5.68,18.59-9.67,9.49-6.55,16.89-15.88,24.11-25.11.11-.14.3-.03.27.14-1.62,8.61,1.81,18.17-1.83,26.07Z"/>
              <path class="cls-6" d="M651.93,361.13c-2.79,5.87-8.98,9.43-14.27,12.78-5.98,3.78-12.2,7.16-18.56,10.25-12.65,6.15-25.81,11.13-38.94,16.12-6.57,2.5-13.14,4.99-19.65,7.63s-12.49,4.96-18.23,8.39-10.51,7.66-13.51,13.41c-3.46,6.64-4.51,14.29-5.11,21.66s-.75,14.42.63,21.38c1.07,5.41,3.38,11.05,8.08,14.27,1.1.76,2.36,1.31,3.64,1.68l-1.12-.65.12.14-.4-3.06-.08.16.91-.91c-4.34,2.34-7.93,5.95-10.94,9.81-3.48,4.46-6.39,9.3-8.95,14.34-4.44,8.73-7.97,17.95-10.91,27.29-.61,1.94-1.21,3.88-1.72,5.85l4.88,1.34c.25-1.5.28-3.03.36-4.55.17-3.17.33-6.34.48-9.51.17-3.79.33-7.58.44-11.38s0-7.63.21-11.43c.12-2.24.4-4.45,1.1-6.6.64-1.97,1.75-3.6,3.01-5.08,1.41-1.65,2.96-3.28,3.96-5.23,1.2-2.37,1.5-4.94.73-7.51s-2.01-4.77-2.72-7.27c-.67-2.35-1.09-4.75-1.3-7.18-.44-5.17-.12-10.37.35-15.53.86-9.36,1.48-19.46,5.76-28.01s11.68-13.43,19.74-17.47c4.4-2.2,8.94-4.13,13.44-6.13,5.26-2.33,10.53-4.67,15.79-7,10.59-4.69,21.18-9.38,31.77-14.08,5.25-2.33,10.5-4.64,15.74-6.98,4.79-2.14,9.55-4.37,14-7.16,8.7-5.46,15.68-13.04,22.09-20.97.76-.94,1.52-1.89,2.27-2.84.41-.52.82-1.05,1.24-1.57.19-.24.37-.48.56-.71.02-.02.76-.77.28-.52h-2.55l.11.06-1.16-1.51.03.14v-1.34c-.81,4.47-.49,8.93-.27,13.44.19,3.99.37,8.3-1.3,12.03-.56,1.24-.36,2.72.91,3.46,1.08.63,2.9.35,3.46-.91,2.39-5.34,2.19-11.01,1.88-16.73-.15-2.78-.29-5.58-.02-8.36.16-1.66.8-3.51-.97-4.59-.83-.5-1.82-.52-2.66-.06-.76.41-1.23,1.22-1.75,1.89-6.78,8.66-13.87,17.53-23.1,23.71-4.88,3.28-10.22,5.79-15.58,8.18-5.8,2.59-11.62,5.15-17.43,7.73-11.65,5.16-23.31,10.33-34.96,15.49-5.78,2.56-11.56,5.11-17.33,7.68-4.61,2.06-9.21,4.2-13.5,6.88s-8.35,6-11.49,10.06c-3.33,4.3-5.52,9.32-6.9,14.56s-2.06,11-2.63,16.55-1.19,11.52-1.03,17.3,1.2,11.48,3.52,16.85c.48,1.1,1.05,2.28,1.13,3.49.07,1-.18,1.81-.62,2.62-1.04,1.91-2.59,3.35-3.99,5.11-3.55,4.48-4.52,9.86-4.69,15.46-.12,4.15-.09,8.31-.23,12.47-.23,6.95-.58,13.89-.97,20.84-.02.27-.04.54-.05.81-.02.69.16-.97,0,.04-.22,1.35.35,2.72,1.77,3.11,1.31.36,2.76-.44,3.11-1.77,1.43-5.41,3.25-10.74,5.2-15.98.43-1.16.88-2.32,1.33-3.47.23-.58.46-1.16.7-1.74.13-.31.25-.62.38-.93.06-.14.12-.28.17-.42.02-.05.26-.62.14-.33-.06.15.25-.58.32-.75.12-.28.24-.56.37-.85.28-.64.56-1.28.85-1.91.58-1.29,1.19-2.57,1.81-3.84,2.4-4.9,5.09-9.7,8.32-14.11.22-.3.45-.6.67-.9.05-.07.29-.38.01-.02.14-.17.27-.35.41-.52.43-.54.87-1.07,1.32-1.59.89-1.03,1.83-2.02,2.82-2.96.49-.46.99-.91,1.5-1.34.25-.21.51-.42.76-.62-.47.37.26-.19.42-.3,1.13-.81,3.03-1.52,3.69-2.76.56-1.05.38-2.19-.4-3.06-.59-.68-1.41-.79-2.2-1.11.35.14-.32-.16-.42-.21-.29-.15-.58-.32-.85-.5-.1-.06-.67-.49-.38-.26-.23-.18-.44-.37-.65-.57-.46-.43-.89-.89-1.28-1.39.21.26-.16-.24-.22-.31-.17-.25-.34-.51-.5-.76-.35-.57-.67-1.16-.96-1.76-.47-.97-.89-2.14-1.26-3.42-.77-2.66-1.14-4.99-1.32-7.57-.26-3.83-.26-7.69-.09-11.52.32-7,1.02-14.43,3.72-20.96,2.32-5.62,6.62-9.84,11.69-13.02s11.18-5.69,16.97-8.05c6.39-2.61,12.84-5.07,19.3-7.53,13.09-4.98,26.22-9.92,38.9-15.9,6.28-2.96,12.44-6.18,18.38-9.78,2.94-1.78,5.84-3.64,8.65-5.62s5.41-3.95,7.51-6.52c1.06-1.3,1.99-2.66,2.71-4.17.59-1.23.34-2.73-.91-3.46-1.1-.64-2.87-.33-3.46.91Z"/>
            </g>
          </g>
        </g>
      </g>
    </g>
  </g>
</svg>