<?xml version="1.0" encoding="UTF-8"?>
<svg id="Layer_1" data-name="Layer 1" xmlns="http://www.w3.org/2000/svg" viewBox="0 0 2000 1000">
  <defs>
    <style>
      .cls-1 {
        stroke: #d4af37;
        stroke-linecap: round;
        stroke-width: 4.43px;
      }

      .cls-1, .cls-2 {
        fill: #d4af37;
      }

      .cls-1, .cls-3 {
        stroke-linejoin: round;
      }

      .cls-2 {
        stroke-width: 0px;
      }

      .cls-3 {
        fill: #fefefe;
        stroke: #fefefe;
        stroke-linecap: square;
        stroke-width: 1.54px;
      }
    </style>
  </defs>
  <g id="Logotype">
    <g>
      <path class="cls-3" d="M250.68,638.09h44.71v58.43c-7.25,2.36-14.07,4.02-20.46,4.97s-12.94,1.43-19.62,1.43c-17.01,0-30-5-38.96-14.99-8.97-9.99-13.45-24.34-13.45-43.05s5.2-32.37,15.61-42.55,24.83-15.26,43.28-15.26c11.56,0,22.71,2.31,33.45,6.94l-7.94,19.12c-8.22-4.11-16.78-6.17-25.67-6.17-10.33,0-18.6,3.47-24.82,10.41-6.22,6.94-9.33,16.26-9.33,27.98s2.51,21.57,7.52,28.02c5.01,6.45,12.29,9.67,21.85,9.67,4.98,0,10.05-.51,15.18-1.54v-23.51h-21.35v-19.89Z"/>
      <path class="cls-3" d="M322.21,701.38v-112.69h23.89v92.96h45.71v19.73h-69.6Z"/>
      <path class="cls-3" d="M513.68,644.88c0,18.65-4.62,32.99-13.87,43.01-9.25,10.02-22.51,15.03-39.77,15.03s-30.52-5.01-39.77-15.03c-9.25-10.02-13.87-24.41-13.87-43.16s4.64-33.08,13.91-42.97c9.28-9.89,22.57-14.84,39.89-14.84s30.56,4.98,39.73,14.95,13.76,24.31,13.76,43.01ZM431.44,644.88c0,12.59,2.39,22.07,7.17,28.44s11.92,9.56,21.43,9.56c19.06,0,28.6-12.67,28.6-38s-9.48-38.08-28.44-38.08c-9.51,0-16.67,3.2-21.51,9.6-4.83,6.4-7.25,15.89-7.25,28.48Z"/>
      <path class="cls-3" d="M537.03,588.69h35.07c15.98,0,27.58,2.27,34.8,6.82,7.22,4.55,10.83,11.78,10.83,21.7,0,6.73-1.58,12.26-4.74,16.57-3.16,4.32-7.36,6.91-12.6,7.78v.77c7.14,1.59,12.29,4.57,15.45,8.94,3.16,4.37,4.74,10.17,4.74,17.42,0,10.28-3.71,18.29-11.14,24.05-7.43,5.76-17.51,8.63-30.25,8.63h-42.16v-112.69ZM560.93,633.31h13.87c6.47,0,11.16-1,14.07-3.01,2.9-2,4.35-5.32,4.35-9.94,0-4.32-1.58-7.41-4.74-9.29-3.16-1.88-8.16-2.81-14.99-2.81h-12.56v25.05ZM560.93,652.28v29.37h15.57c6.58,0,11.43-1.26,14.57-3.78s4.7-6.37,4.7-11.56c0-9.35-6.68-14.03-20.04-14.03h-14.8Z"/>
      <path class="cls-3" d="M712.08,701.38l-8.17-26.82h-41.08l-8.17,26.82h-25.74l39.77-113.15h29.21l39.93,113.15h-25.74ZM698.21,654.51c-7.55-24.31-11.81-38.05-12.76-41.24s-1.63-5.7-2.04-7.55c-1.7,6.58-6.55,22.84-14.57,48.79h29.37Z"/>
      <path class="cls-3" d="M752.01,701.38v-112.69h23.89v92.96h45.71v19.73h-69.6Z"/>
    </g>
    <g>
      <g id="eye-l">
        <path class="cls-2" d="M328.87,463.62c-56.67,0-102.78-40.12-102.78-89.45,0-22.02,9.34-43.16,25.95-59.33l-19.76-11.3c-9.98-5.7-16.28-15.92-16.85-27.35l-1.67-29.04v-.21c0-4.24,3.46-7.69,7.7-7.69.84,0,1.66.13,2.46.4l135.14,48.96.13.04c20.71,5.56,38.6,16.49,51.72,31.6,13.57,15.62,20.74,34.27,20.74,53.93,0,49.32-46.11,89.45-102.78,89.45Z"/>
        <path class="cls-2" d="M221.46,246.46c.06,0,.12,0,.18.03l135.57,49.12h.11c38.89,10.45,67.12,41.67,67.12,78.57,0,45.45-42.78,82.23-95.57,82.23s-95.57-36.78-95.57-82.23c0-24.11,12-45.67,31.12-60.56l-28.56-16.34c-7.78-4.44-12.78-12.56-13.22-21.45l-1.67-28.89c0-.27.23-.47.49-.47M221.46,232.03c-8.23,0-14.92,6.68-14.92,14.9v.42l.02.41,1.66,28.84c.71,13.87,8.36,26.28,20.47,33.19l11.85,6.78c-13.95,16.45-21.68,36.64-21.68,57.59,0,26.25,11.72,50.79,33.01,69.1,20.66,17.77,48,27.56,76.99,27.56s56.32-9.79,76.99-27.56c21.29-18.31,33.01-42.85,33.01-69.1,0-21.42-7.78-41.7-22.51-58.66-14.03-16.16-33.09-27.84-55.13-33.79l-134.68-48.79-.17-.06-.17-.06c-1.54-.51-3.14-.78-4.75-.78h0Z"/>
      </g>
      <path class="cls-1" d="M695.45,285.73l-56.49,182.89h-38.41l-34.39-113.35c-.67-1.76-1.3-3.7-1.88-5.84-.59-2.14-1.17-4.37-1.76-6.71-.59,2.34-1.17,4.58-1.76,6.71-.59,2.13-1.22,4.08-1.88,5.84l-34.9,113.35h-38.41l-56.49-182.89h35.65c3.68,0,6.76.84,9.22,2.51,2.47,1.68,4.08,3.9,4.84,6.65l25.1,95.4c.76,3.02,1.51,6.3,2.26,9.85.75,3.56,1.51,7.27,2.26,11.11,1.51-7.87,3.34-14.85,5.52-20.97l29.62-95.4c.76-2.34,2.37-4.45,4.84-6.34,2.47-1.88,5.46-2.82,8.97-2.82h12.55c3.68,0,6.65.86,8.91,2.57,2.26,1.72,3.97,3.92,5.15,6.59l29.37,95.4c2.18,5.86,4.01,12.52,5.52,19.96.67-3.77,1.36-7.3,2.07-10.6.71-3.31,1.44-6.42,2.2-9.36l25.11-95.4c.67-2.42,2.26-4.56,4.77-6.4,2.51-1.84,5.52-2.76,9.04-2.76h33.39Z"/>
      <path class="cls-1" d="M823.86,434.72v33.89h-110.21v-182.89h42.43v148.99h67.78Z"/>
      <path class="cls-1" d="M963.19,285.73c12.64,0,23.39,1.17,32.26,3.51,8.87,2.34,16.11,5.65,21.71,9.92,5.61,4.26,9.69,9.46,12.24,15.56,2.55,6.11,3.83,12.93,3.83,20.46,0,4.1-.59,8.06-1.76,11.86-1.17,3.81-3.01,7.36-5.52,10.66-2.51,3.31-5.73,6.34-9.67,9.11-3.93,2.76-8.66,5.14-14.18,7.15,12.05,2.94,20.96,7.66,26.74,14.19,5.78,6.53,8.66,14.98,8.66,25.35,0,7.78-1.51,15.02-4.52,21.72-3.01,6.69-7.43,12.53-13.24,17.51-5.82,4.99-12.99,8.87-21.53,11.68-8.54,2.8-18.29,4.2-29.25,4.2h-73.06v-182.89h67.28ZM938.33,317.48v45.19h22.09c4.69,0,8.91-.33,12.68-1s6.97-1.84,9.6-3.51c2.64-1.68,4.64-3.98,6.03-6.91,1.38-2.93,2.07-6.61,2.07-11.05s-.54-7.97-1.63-10.86c-1.09-2.89-2.76-5.21-5.02-6.97-2.26-1.76-5.12-3.02-8.6-3.77-3.47-.76-7.59-1.13-12.36-1.13h-24.85ZM968.21,436.61c5.61,0,10.19-.71,13.75-2.14,3.55-1.42,6.34-3.26,8.35-5.52,2.01-2.25,3.39-4.81,4.14-7.65.75-2.84,1.13-5.73,1.13-8.66,0-3.34-.44-6.35-1.32-9.04-.88-2.68-2.39-4.94-4.52-6.78-2.14-1.84-4.96-3.26-8.48-4.27-3.51-1-7.95-1.51-13.3-1.51h-29.62v45.57h29.87Z"/>
      <path class="cls-1" d="M1213.61,468.62h-38.41c-7.11,0-12.22-2.68-15.31-8.04l-30.38-53.09c-1.42-2.26-3.01-3.92-4.77-4.96-1.76-1.05-4.27-1.57-7.53-1.57h-10.79v67.66h-42.43v-182.89h59.5c13.22,0,24.5,1.36,33.83,4.08,9.33,2.72,16.95,6.5,22.84,11.36,5.9,4.86,10.19,10.58,12.87,17.2,2.68,6.61,4.02,13.8,4.02,21.59,0,5.95-.8,11.55-2.39,16.82-1.59,5.27-3.93,10.15-7.03,14.62-3.1,4.48-6.93,8.48-11.49,11.99-4.56,3.51-9.81,6.4-15.76,8.66,2.76,1.43,5.36,3.2,7.78,5.34,2.42,2.13,4.6,4.66,6.53,7.59l38.91,63.64ZM1123.48,371.71c5.78,0,10.69-.73,14.75-2.19s7.39-3.49,9.98-6.09c2.59-2.59,4.47-5.63,5.65-9.1,1.17-3.47,1.76-7.22,1.76-11.24,0-8.04-2.62-14.31-7.85-18.83-5.23-4.52-13.33-6.78-24.29-6.78h-17.07v54.22h17.07Z"/>
      <path class="cls-1" d="M1271.73,468.62h-42.68v-182.89h42.68v182.89Z"/>
      <path class="cls-1" d="M1473.07,377.11c0,13.23-2.28,25.42-6.84,36.59-4.56,11.17-10.98,20.84-19.27,29-8.28,8.16-18.26,14.52-29.94,19.08-11.67,4.56-24.62,6.84-38.85,6.84h-71.05v-182.89h71.05c14.23,0,27.18,2.3,38.85,6.9,11.68,4.6,21.65,10.96,29.94,19.08,8.28,8.12,14.71,17.76,19.27,28.94,4.56,11.17,6.84,23.32,6.84,36.46ZM1429.64,377.11c0-9.04-1.17-17.2-3.51-24.48-2.34-7.28-5.71-13.45-10.11-18.52-4.39-5.06-9.77-8.96-16.13-11.67-6.36-2.72-13.6-4.08-21.71-4.08h-28.37v117.62h28.37c8.11,0,15.35-1.36,21.71-4.08,6.36-2.72,11.74-6.61,16.13-11.68,4.4-5.06,7.76-11.23,10.11-18.51,2.34-7.28,3.51-15.48,3.51-24.61Z"/>
      <path class="cls-1" d="M1586.04,373.84h65.02v77.2c-9.37,6.86-19.35,11.84-29.94,14.93-10.59,3.09-21.65,4.64-33.2,4.64-15.06,0-28.77-2.36-41.11-7.09-12.35-4.73-22.91-11.26-31.7-19.59-8.79-8.32-15.56-18.2-20.34-29.62-4.77-11.42-7.15-23.83-7.15-37.22s2.26-26.17,6.78-37.59c4.52-11.43,10.98-21.28,19.39-29.56,8.41-8.29,18.58-14.73,30.5-19.33,11.92-4.6,25.25-6.9,39.98-6.9,7.61,0,14.77.63,21.46,1.88,6.69,1.25,12.87,2.97,18.52,5.15s10.81,4.77,15.5,7.78c4.69,3.01,8.87,6.27,12.55,9.79l-12.3,18.71c-1.92,2.93-4.41,4.73-7.47,5.39-3.06.67-6.34-.08-9.85-2.25-3.35-2.01-6.51-3.75-9.48-5.21-2.97-1.46-6.01-2.66-9.1-3.58-3.1-.92-6.36-1.59-9.79-2.01-3.43-.42-7.28-.63-11.55-.63-7.95,0-15.11,1.4-21.47,4.21-6.36,2.81-11.78,6.76-16.25,11.86-4.48,5.11-7.93,11.24-10.36,18.39-2.43,7.15-3.64,15.13-3.64,23.91,0,9.71,1.34,18.33,4.02,25.86,2.68,7.53,6.46,13.89,11.36,19.08,4.9,5.19,10.75,9.14,17.57,11.86,6.82,2.72,14.37,4.08,22.66,4.08,5.1,0,9.73-.5,13.87-1.51,4.14-1,8.18-2.34,12.12-4.01v-27.74h-18.08c-2.68,0-4.77-.71-6.28-2.13-1.51-1.42-2.26-3.22-2.26-5.4v-23.35Z"/>
      <path class="cls-1" d="M1722.23,318.36v42.68h57.49v31.38h-57.49v43.56h75.06v32.63h-117.74v-182.89h117.74v32.63h-75.06Z"/>
    </g>
  </g>
</svg>